<svg xmlns="http://www.w3.org/2000/svg" xmlns:xlink="http://www.w3.org/1999/xlink" width="1024" zoomAndPan="magnify" viewBox="0 0 768 767.999994" height="1024" preserveAspectRatio="xMidYMid meet" version="1.0"><defs><clipPath id="1f85a3fa44"><path d="M 272.9375 212.90625 L 578.425781 212.90625 L 578.425781 507.40625 L 272.9375 507.40625 Z M 272.9375 212.90625 " clip-rule="nonzero"/></clipPath><clipPath id="5ff3794e8f"><path d="M 0.9375 0.90625 L 306.425781 0.90625 L 306.425781 295.40625 L 0.9375 295.40625 Z M 0.9375 0.90625 " clip-rule="nonzero"/></clipPath><clipPath id="97a37bc3ef"><rect x="0" width="307" y="0" height="296"/></clipPath><clipPath id="1986270bab"><path d="M 278.515625 212.90625 L 532.765625 212.90625 L 532.765625 504.65625 L 278.515625 504.65625 Z M 278.515625 212.90625 " clip-rule="nonzero"/></clipPath><clipPath id="49637d05d6"><path d="M 0.515625 5 L 254.765625 5 L 254.765625 292.65625 L 0.515625 292.65625 Z M 0.515625 5 " clip-rule="nonzero"/></clipPath><clipPath id="8c72196ec0"><path d="M 0.515625 0.90625 L 226 0.90625 L 226 111 L 0.515625 111 Z M 0.515625 0.90625 " clip-rule="nonzero"/></clipPath><clipPath id="c3afa08329"><rect x="0" width="255" y="0" height="293"/></clipPath><clipPath id="b1523a1e19"><path d="M 455 275 L 512 275 L 512 329 L 455 329 Z M 455 275 " clip-rule="nonzero"/></clipPath><clipPath id="dc4ef73f14"><path d="M 532.871094 312.039062 L 496.332031 352.8125 L 455 315.773438 L 491.539062 275 Z M 532.871094 312.039062 " clip-rule="nonzero"/></clipPath><clipPath id="37d27d8f2f"><path d="M 600.78125 236.257812 L 430.601562 426.160156 L 338.441406 343.574219 L 508.625 153.667969 Z M 600.78125 236.257812 " clip-rule="nonzero"/></clipPath><clipPath id="3d449cc5ae"><path d="M 471 292 L 518 292 L 518 331 L 471 331 Z M 471 292 " clip-rule="nonzero"/></clipPath><clipPath id="b42e8c2686"><path d="M 532.871094 312.039062 L 496.332031 352.8125 L 455 315.773438 L 491.539062 275 Z M 532.871094 312.039062 " clip-rule="nonzero"/></clipPath><clipPath id="1cc55992c6"><path d="M 600.78125 236.257812 L 430.601562 426.160156 L 338.441406 343.574219 L 508.625 153.667969 Z M 600.78125 236.257812 " clip-rule="nonzero"/></clipPath><clipPath id="3c5a377765"><path d="M 272.96875 234.652344 L 282.71875 234.652344 L 282.71875 244.402344 L 272.96875 244.402344 Z M 272.96875 234.652344 " clip-rule="nonzero"/></clipPath></defs><rect x="-76.8" width="921.6" fill="#ffffff" y="-76.799999" height="921.599993" fill-opacity="1"/><rect x="-76.8" width="921.6" fill="#004838" y="-76.799999" height="921.599993" fill-opacity="1"/><path fill="#e2fb6c" d="M 571.277344 525.046875 C 562.644531 524.59375 553.9375 524.757812 545.246094 524.933594 C 545.183594 524.683594 545.121094 524.425781 545.066406 524.167969 C 544.929688 523.480469 544.835938 522.773438 544.660156 522.097656 C 544.46875 521.375 544.222656 520.566406 543.898438 519.894531 C 543.777344 519.636719 543.558594 519.390625 543.46875 519.121094 C 543.351562 518.761719 543.351562 518.308594 543.296875 517.933594 C 543.054688 516.300781 540.589844 516.796875 540.523438 518.308594 C 540.507812 518.671875 540.53125 519.0625 540.441406 519.410156 C 540.355469 519.753906 540.144531 520.0625 540.039062 520.398438 C 539.820312 521.097656 539.695312 521.894531 539.609375 522.617188 C 539.523438 523.335938 539.472656 524.054688 539.410156 524.773438 C 539.402344 524.863281 539.390625 524.945312 539.386719 525.035156 C 537.476562 525.070312 535.5625 525.109375 533.652344 525.125 C 526.070312 525.1875 518.492188 525.246094 510.90625 525.308594 C 510.636719 523.5625 510.28125 521.773438 508.996094 520.515625 C 507.558594 519.117188 505.554688 519.609375 504.46875 521.101562 C 503.625 522.25 503.488281 523.835938 503.480469 525.371094 C 501.34375 525.386719 499.207031 525.40625 497.074219 525.421875 C 490.9375 525.472656 484.804688 525.523438 478.671875 525.570312 C 478.304688 524.515625 477.871094 523.484375 477.410156 522.445312 C 477.117188 521.777344 476.210938 521.332031 475.511719 521.355469 C 475.667969 521.371094 475.816406 521.398438 475.96875 521.445312 C 475.554688 520.980469 474.914062 521.171875 474.582031 521.59375 C 473.808594 521.953125 473.414062 522.71875 473.308594 523.558594 C 473.21875 524.25 473.09375 524.925781 473.042969 525.621094 C 464.289062 525.691406 455.53125 525.761719 446.769531 525.835938 C 446.191406 522.992188 445.5625 520.160156 444.675781 517.398438 C 444.164062 515.808594 442.695312 514.78125 441.019531 515.007812 C 439.4375 515.21875 438.066406 516.613281 438.128906 518.285156 C 438.214844 520.832031 438.523438 523.367188 438.875 525.898438 C 433.535156 525.9375 428.203125 525.984375 422.863281 526.027344 C 416.671875 526.078125 410.484375 526.125 404.289062 526.171875 C 404.128906 525.050781 403.984375 523.890625 403.433594 522.894531 C 402.652344 521.476562 400.6875 520.285156 399.121094 521.320312 C 397.382812 522.460938 397.089844 524.328125 397.019531 526.230469 C 390.035156 526.285156 383.054688 526.339844 376.070312 526.394531 C 376.046875 526.039062 376.023438 525.683594 376 525.328125 C 375.835938 522.972656 375.460938 520.648438 374.042969 518.773438 C 374.03125 518.722656 374.023438 518.671875 374.011719 518.621094 C 373.566406 516.621094 370.113281 516.457031 369.800781 518.621094 C 369.785156 518.707031 369.773438 518.796875 369.761719 518.886719 C 369.207031 519.691406 368.792969 520.496094 368.628906 521.5625 C 368.4375 522.824219 368.257812 524.042969 368.265625 525.328125 C 368.265625 525.703125 368.269531 526.078125 368.273438 526.453125 C 357.90625 526.53125 347.542969 526.621094 337.175781 526.703125 C 336.820312 525.285156 336.269531 523.933594 335.058594 523.125 C 335.375 523.441406 335.695312 523.761719 336.007812 524.078125 C 335.847656 523.867188 335.699219 523.648438 335.566406 523.421875 C 334.773438 522.164062 332.425781 521.792969 331.738281 523.421875 C 331.511719 523.953125 331.070312 524.378906 330.867188 525.050781 C 330.710938 525.570312 330.648438 526.195312 330.59375 526.722656 C 330.59375 526.734375 330.59375 526.746094 330.589844 526.757812 C 323.027344 526.820312 315.464844 526.890625 307.902344 526.957031 C 307.230469 526.195312 306.277344 525.773438 305.230469 525.917969 C 304.542969 526.011719 303.796875 526.421875 303.285156 527 C 293.675781 527.082031 284.066406 527.152344 274.457031 527.246094 C 273.9375 527.25 273.417969 527.257812 272.898438 527.261719 C 272.8125 525.136719 272.640625 522.898438 271.757812 521.089844 C 270.773438 519.066406 267.355469 519.039062 266.378906 521.089844 C 265.492188 522.945312 265.34375 525.191406 265.273438 527.339844 C 256.359375 527.425781 247.449219 527.515625 238.535156 527.605469 C 238.476562 519.6875 238.421875 511.777344 238.363281 503.859375 C 241.511719 503.1875 244.558594 502.195312 247.136719 500.121094 C 248.527344 498.996094 247.566406 496.933594 246.164062 496.441406 C 243.644531 495.558594 240.96875 495.519531 238.304688 495.792969 C 238.242188 486.722656 238.171875 477.648438 238.105469 468.578125 C 240.597656 468.847656 243.359375 469.101562 245.570312 467.730469 C 247.21875 466.707031 247.664062 464.296875 246.191406 462.890625 C 244.082031 460.878906 241.015625 460.617188 238.253906 460.332031 C 238.183594 460.324219 238.117188 460.316406 238.042969 460.308594 C 237.960938 448.226562 237.867188 436.152344 237.785156 424.070312 C 239.535156 424.195312 241.292969 424.261719 243.035156 424.070312 C 245.132812 423.835938 249.179688 423.457031 249.179688 420.453125 C 249.179688 417.453125 245.222656 416.914062 243.035156 416.492188 C 241.320312 416.164062 239.511719 416.152344 237.71875 416.191406 C 237.65625 407.253906 237.550781 398.316406 237.484375 389.378906 C 241.285156 389.546875 245.148438 389.578125 248.648438 387.988281 C 250.535156 387.132812 250.394531 384.089844 248.648438 383.195312 C 245.21875 381.429688 241.246094 381.335938 237.414062 381.34375 C 237.347656 373.070312 237.265625 364.796875 237.195312 356.523438 C 238.703125 356.632812 240.21875 356.71875 241.726562 356.6875 C 244.4375 356.621094 247.023438 356.121094 249.585938 355.246094 C 251.222656 354.691406 252.003906 352.019531 250.121094 351.164062 C 247.5625 350 245.082031 349.191406 242.285156 348.835938 C 240.570312 348.617188 238.851562 348.539062 237.128906 348.484375 C 237.03125 337.207031 236.941406 325.921875 236.828125 314.644531 C 238.355469 314.535156 239.890625 314.277344 241.234375 313.625 C 242.378906 313.285156 243.152344 312.9375 243.867188 311.921875 C 244.304688 311.296875 244.285156 310.242188 243.867188 309.617188 C 243.199219 308.621094 242.40625 308.257812 241.324219 307.917969 C 239.945312 307.203125 238.34375 306.925781 236.757812 306.796875 C 236.699219 300.9375 236.667969 295.074219 236.601562 289.214844 C 236.492188 279.222656 236.402344 269.230469 236.21875 259.238281 C 238.195312 258.964844 240.042969 258.488281 241.539062 256.972656 C 243.003906 255.488281 242.605469 253.117188 240.902344 252.035156 C 239.398438 251.074219 237.753906 250.902344 236.070312 250.988281 C 235.9375 245.261719 235.828125 239.53125 235.472656 233.816406 C 235.15625 228.796875 234.804688 223.410156 231.914062 219.164062 C 231.902344 219.144531 231.875 219.144531 231.859375 219.164062 C 226.871094 226.753906 228.308594 238.730469 228.238281 247.402344 C 228.222656 248.878906 228.246094 250.363281 228.238281 251.84375 C 226.566406 252.039062 224.894531 252.230469 223.226562 252.425781 C 223.160156 252.433594 223.085938 252.4375 223.019531 252.445312 C 222.996094 252.410156 222.960938 252.355469 222.949219 252.34375 C 222.773438 252.167969 222.5625 252.0625 222.351562 251.949219 C 221.121094 251.3125 219.921875 250.855469 218.480469 251.175781 C 215.734375 251.785156 213.96875 254.367188 214.019531 257.117188 C 214.058594 259.351562 215.820312 260.996094 218.007812 261.105469 C 219.863281 261.199219 221.816406 260.792969 223.664062 260.597656 C 225.1875 260.433594 226.714844 260.273438 228.238281 260.109375 C 228.234375 266.671875 228.207031 273.234375 228.238281 279.800781 C 228.238281 279.992188 228.242188 280.1875 228.242188 280.378906 C 227.835938 280.371094 227.4375 280.367188 227.035156 280.34375 C 226.753906 280.324219 226.476562 280.296875 226.195312 280.269531 C 226.148438 280.265625 226.101562 280.261719 226.054688 280.257812 C 225.515625 280.140625 224.988281 280.027344 224.453125 279.890625 C 223.914062 279.757812 223.363281 279.664062 222.824219 279.535156 C 222.40625 279.433594 222.011719 279.367188 221.585938 279.3125 C 221.339844 279.277344 221.105469 279.285156 220.875 279.308594 C 220.078125 279.035156 219.222656 278.769531 218.453125 279.066406 C 218.265625 279.105469 218.070312 279.09375 217.878906 279.183594 C 218.113281 279.117188 218.347656 279.054688 218.585938 278.992188 C 218.398438 278.996094 218.066406 279.007812 217.84375 278.878906 C 217.597656 278.730469 217.472656 278.460938 217.324219 278.226562 C 217.183594 278.007812 216.882812 278.199219 216.984375 278.425781 C 217.070312 278.613281 217.175781 278.808594 217.257812 279 C 217.476562 279.535156 217.371094 279.332031 217.238281 279.78125 C 217 280.585938 217.492188 279 217.179688 280.128906 C 217.140625 280.277344 217.148438 280.441406 217.144531 280.605469 C 216.949219 281.59375 217.53125 282.636719 218.105469 283.460938 C 218.1875 283.730469 218.234375 284.003906 218.378906 284.261719 C 218.628906 284.695312 219.003906 285.105469 219.382812 285.445312 C 220.15625 286.132812 220.976562 286.757812 221.933594 287.160156 C 223.554688 287.84375 225.15625 288.273438 226.925781 288.394531 C 227.375 288.425781 227.835938 288.339844 228.296875 288.3125 C 228.328125 294.445312 228.382812 300.582031 228.429688 306.714844 C 224.078125 306.84375 219.554688 306.707031 215.40625 308.144531 C 213.015625 308.972656 213.070312 312.105469 215.40625 312.960938 C 219.550781 314.472656 224.117188 314.398438 228.484375 314.597656 C 228.566406 324.953125 228.628906 335.304688 228.707031 345.660156 C 228.714844 346.554688 228.71875 347.449219 228.730469 348.347656 C 228.027344 348.347656 227.328125 348.328125 226.625 348.324219 C 225.324219 348.320312 224.019531 348.410156 222.714844 348.441406 C 221.058594 348.484375 219.800781 348.5 218.492188 349.671875 C 217.324219 350.714844 217.511719 352.570312 218.492188 353.644531 C 219.640625 354.902344 221.140625 354.898438 222.714844 355.097656 C 224.019531 355.261719 225.316406 355.480469 226.625 355.609375 C 227.34375 355.683594 228.066406 355.738281 228.789062 355.808594 C 228.855469 364.332031 228.921875 372.855469 228.988281 381.375 C 228.949219 381.375 228.90625 381.375 228.859375 381.375 C 226.6875 381.40625 223.566406 381.214844 221.757812 382.5625 C 220.433594 383.550781 219.613281 385.761719 221.183594 387.046875 C 223.15625 388.667969 225.925781 388.765625 228.386719 388.917969 C 228.605469 388.929688 228.828125 388.9375 229.046875 388.949219 C 229.121094 398.164062 229.191406 407.382812 229.261719 416.597656 C 228.613281 416.660156 227.96875 416.710938 227.320312 416.792969 C 224.980469 417.074219 222.035156 417.476562 219.941406 418.601562 C 219.167969 419.015625 219.25 420.121094 219.941406 420.554688 C 221.898438 421.773438 224.78125 422.375 227.027344 422.785156 C 227.785156 422.925781 228.554688 422.976562 229.3125 423.097656 C 229.410156 435.25 229.503906 447.410156 229.597656 459.5625 C 227.769531 459.414062 225.945312 459.261719 224.113281 459.152344 C 221.488281 459 218.589844 458.582031 216.488281 460.507812 C 215.695312 461.230469 215.417969 462.800781 216.074219 463.710938 C 217.765625 466.054688 220.445312 466.269531 223.101562 466.671875 C 225.285156 467 227.472656 467.28125 229.660156 467.5625 C 229.683594 470.125 229.703125 472.691406 229.722656 475.257812 C 229.78125 482.582031 229.835938 489.90625 229.894531 497.226562 C 228.417969 497.503906 226.9375 497.765625 225.476562 498.097656 C 224.351562 498.355469 223.21875 498.578125 222.113281 498.894531 C 220.789062 499.273438 219.328125 499.527344 218.433594 500.660156 C 218.46875 500.660156 218.5 500.660156 218.535156 500.660156 C 217.21875 501.980469 217.171875 504.390625 219.070312 505.589844 C 221.105469 506.875 224.238281 506.042969 226.511719 505.769531 C 227.664062 505.628906 228.808594 505.433594 229.957031 505.261719 C 230.015625 512.738281 230.074219 520.21875 230.132812 527.699219 C 224.34375 527.757812 218.558594 527.8125 212.769531 527.988281 C 205.984375 528.1875 198.929688 528.257812 192.527344 530.675781 C 191.160156 531.195312 191.121094 532.988281 192.527344 533.496094 C 203.515625 537.453125 216.929688 535.96875 228.445312 535.898438 C 229.03125 535.894531 229.613281 535.890625 230.195312 535.886719 C 230.230469 540.417969 230.265625 544.945312 230.300781 549.476562 C 230.34375 554.859375 238.71875 554.875 238.675781 549.476562 C 238.636719 544.925781 238.613281 540.378906 238.578125 535.832031 C 247.394531 535.777344 256.214844 535.71875 265.027344 535.664062 C 265.046875 535.664062 265.058594 535.664062 265.074219 535.664062 C 265.070312 535.980469 265.0625 536.300781 265.058594 536.625 C 265.035156 539.046875 264.964844 541.46875 265.167969 543.886719 C 265.398438 546.632812 265.511719 549.828125 267.90625 551.597656 C 268.539062 552.066406 269.765625 552.074219 270.390625 551.597656 C 272.777344 549.808594 272.890625 546.648438 273.089844 543.886719 C 273.273438 541.464844 273.183594 539.046875 273.144531 536.625 C 273.140625 536.285156 273.125 535.945312 273.121094 535.605469 C 283.101562 535.535156 293.074219 535.453125 303.054688 535.371094 C 303.222656 536.390625 303.410156 537.402344 303.578125 538.398438 C 303.835938 539.929688 304.222656 541.429688 304.710938 542.90625 C 305.3125 544.726562 306.273438 546.085938 307.425781 547.585938 C 308.613281 549.117188 311.234375 548.160156 311.65625 546.46875 C 311.875 545.585938 312.058594 544.75 312.167969 543.847656 C 312.292969 542.828125 312.195312 541.90625 312.054688 540.882812 C 311.855469 539.386719 311.664062 537.914062 311.289062 536.449219 C 311.195312 536.070312 311.082031 535.691406 310.984375 535.3125 C 317.484375 535.257812 323.980469 535.21875 330.480469 535.164062 C 330.488281 535.335938 330.484375 535.507812 330.488281 535.679688 C 330.589844 537.855469 330.730469 540.042969 331.117188 542.1875 C 331.5 544.28125 332.234375 546.1875 333.433594 547.949219 C 334.300781 549.226562 336.566406 549.605469 337.347656 547.949219 C 337.8125 546.957031 338.167969 546.015625 338.472656 545.097656 C 338.816406 544.042969 338.851562 542.6875 338.902344 541.570312 C 338.984375 539.605469 338.75 537.625 338.53125 535.679688 C 338.511719 535.484375 338.476562 535.292969 338.453125 535.097656 C 338.710938 535.09375 338.972656 535.09375 339.234375 535.089844 C 348.9375 535.011719 358.636719 534.933594 368.335938 534.855469 C 368.375 535.976562 368.449219 537.097656 368.609375 538.203125 C 368.953125 540.550781 369.773438 542.207031 370.878906 544.347656 C 371.574219 545.6875 374.011719 545.855469 374.648438 544.347656 C 375.082031 543.320312 375.59375 542.386719 375.90625 541.3125 C 376.273438 540.070312 376.492188 538.886719 376.570312 537.585938 C 376.628906 536.660156 376.609375 535.722656 376.570312 534.785156 C 383.417969 534.730469 390.265625 534.675781 397.113281 534.617188 C 397.125 534.808594 397.136719 535.007812 397.144531 535.199219 C 397.25 537.398438 397.320312 539.609375 397.507812 541.800781 C 397.621094 543.140625 397.734375 544.644531 398.261719 545.898438 C 398.726562 546.992188 399.222656 547.976562 399.863281 548.972656 C 400.808594 550.433594 403.375 550.789062 404.230469 548.972656 C 405.386719 546.519531 405.929688 544.292969 405.796875 541.566406 C 405.679688 539.222656 405.4375 536.882812 405.242188 534.546875 C 416.882812 534.457031 428.523438 534.359375 440.160156 534.261719 C 440.367188 535.035156 440.640625 535.8125 440.929688 536.5625 C 441.222656 537.320312 441.582031 537.804688 442.089844 538.414062 C 441.960938 538.179688 442.011719 538.238281 442.238281 538.589844 C 442.382812 538.789062 442.523438 538.988281 442.664062 539.183594 C 443.894531 540.925781 446.714844 540.824219 447.347656 538.570312 C 447.410156 538.34375 447.472656 538.117188 447.535156 537.890625 C 447.667969 537.53125 447.6875 537.449219 447.578125 537.628906 C 447.367188 537.964844 447.46875 537.71875 447.871094 536.886719 C 448.074219 536.480469 448.160156 536.046875 448.140625 535.582031 C 448.160156 535.125 448.132812 534.660156 448.117188 534.195312 C 456.476562 534.128906 464.84375 534.0625 473.203125 533.988281 C 473.289062 535.199219 473.386719 536.414062 473.644531 537.59375 C 473.839844 538.480469 474.019531 539.429688 474.445312 540.234375 C 474.867188 541.046875 475.566406 541.660156 476.214844 542.277344 C 477.347656 543.363281 479.277344 543.183594 480.082031 541.777344 C 480.503906 541.042969 480.90625 540.332031 481.15625 539.511719 C 481.441406 538.589844 481.316406 537.519531 481.246094 536.5625 C 481.183594 535.675781 481.039062 534.796875 480.867188 533.925781 C 483.125 533.910156 485.386719 533.886719 487.644531 533.871094 C 493.019531 533.828125 498.394531 533.785156 503.769531 533.742188 C 503.847656 535.484375 503.898438 537.261719 504.253906 538.953125 C 504.742188 541.296875 505.882812 544.496094 508.851562 544.09375 C 511.777344 543.699219 512.199219 540.269531 512.261719 537.871094 C 512.296875 536.484375 512.105469 535.070312 511.929688 533.675781 C 517.769531 533.628906 523.609375 533.578125 529.449219 533.53125 C 532.816406 533.5 536.191406 533.515625 539.574219 533.53125 C 539.589844 533.601562 539.59375 533.675781 539.605469 533.746094 C 539.710938 534.210938 539.878906 534.660156 540.105469 535.085938 C 540.089844 534.851562 540.132812 534.90625 540.234375 535.253906 C 540.316406 535.457031 540.402344 535.65625 540.484375 535.859375 C 540.902344 536.851562 541.644531 537.621094 542.796875 537.621094 C 543.867188 537.621094 544.800781 536.871094 545.109375 535.859375 C 545.171875 535.65625 545.230469 535.457031 545.292969 535.253906 C 545.410156 534.933594 545.429688 534.859375 545.347656 535.019531 C 545.425781 534.765625 545.648438 534.09375 545.757812 533.546875 C 554.273438 533.578125 562.796875 533.542969 571.253906 532.964844 C 576.34375 532.613281 576.398438 525.316406 571.277344 525.046875 Z M 474.582031 521.597656 C 474.5625 521.621094 474.535156 521.636719 474.519531 521.664062 C 474.507812 521.65625 474.5 521.648438 474.484375 521.636719 C 474.519531 521.621094 474.546875 521.609375 474.582031 521.597656 Z M 218.015625 281.65625 C 217.933594 281.921875 217.976562 282.191406 217.980469 282.460938 C 217.96875 282.40625 217.949219 282.355469 217.9375 282.300781 C 217.960938 282.085938 217.988281 281.871094 218.015625 281.65625 Z M 219.1875 279.960938 C 218.6875 280.347656 218.746094 280.300781 219.363281 279.816406 C 219.390625 279.8125 219.421875 279.808594 219.457031 279.804688 C 219.367188 279.859375 219.261719 279.882812 219.1875 279.960938 Z M 219.1875 279.960938 " fill-opacity="1" fill-rule="nonzero"/><path fill="#e2fb6c" d="M 280.394531 490.75 C 280.472656 490.808594 280.566406 490.847656 280.644531 490.90625 C 281.347656 492.429688 282.863281 493.195312 284.292969 492.9375 C 290.796875 495.894531 298.835938 496.28125 305.683594 495.789062 C 312.253906 495.320312 320.269531 494.078125 326.257812 490.433594 C 326.40625 492.898438 326.816406 495.316406 327.839844 497.605469 C 328.738281 499.601562 332.257812 499.628906 333.144531 497.605469 C 335.242188 492.8125 334.648438 487.644531 334.621094 482.496094 C 334.597656 476.585938 334.570312 470.675781 334.546875 464.765625 C 334.492188 452.597656 334.441406 440.429688 334.386719 428.261719 C 334.335938 416.4375 334.324219 404.617188 334.21875 392.796875 C 334.117188 381.625 335.808594 368.445312 332.308594 357.714844 C 332.097656 357.070312 331.679688 356.640625 331.191406 356.347656 C 329.765625 352.835938 324.46875 353.15625 321.292969 353.003906 C 317.289062 352.8125 313.273438 352.816406 309.269531 353.019531 C 305.160156 353.230469 301.074219 353.664062 297.011719 354.257812 C 293.210938 354.808594 288.636719 355.214844 285.363281 357.363281 C 284.160156 358.152344 283.683594 359.402344 283.804688 360.617188 C 283.519531 360.90625 283.277344 361.246094 283.160156 361.703125 C 282.839844 363.332031 282.222656 364.851562 281.304688 366.257812 C 281.171875 366.429688 281.34375 366.746094 281.566406 366.59375 C 281.980469 366.359375 282.421875 366.203125 282.851562 366.015625 C 282.246094 375.714844 283.078125 385.597656 283.316406 395.289062 C 283.574219 405.921875 283.570312 416.558594 283.375 427.1875 C 283.175781 437.820312 282.761719 448.445312 282.089844 459.0625 C 281.746094 464.539062 281.339844 470.011719 280.863281 475.480469 C 280.570312 478.890625 279.664062 482.800781 279.773438 486.417969 C 278.800781 487.597656 279.007812 489.75 280.394531 490.75 Z M 299.183594 362.164062 C 303.054688 361.652344 306.964844 361.351562 310.867188 361.230469 C 314.871094 361.105469 318.886719 361.175781 322.886719 361.449219 C 324.078125 361.53125 325.304688 361.710938 326.507812 361.699219 C 324.597656 371.308594 325.90625 382.210938 325.898438 391.757812 C 325.890625 403.929688 325.980469 416.09375 326.03125 428.265625 C 326.074219 440.085938 326.125 451.90625 326.171875 463.726562 C 326.199219 469.636719 326.21875 475.546875 326.242188 481.457031 C 326.242188 481.746094 326.238281 482.039062 326.234375 482.324219 C 322.765625 483.09375 319.542969 484.515625 316.125 485.515625 C 312.460938 486.585938 308.710938 487.28125 304.902344 487.546875 C 299.238281 487.945312 293.820312 487.054688 288.335938 486.308594 C 288.839844 483.421875 288.796875 480.328125 289.042969 477.523438 C 289.527344 472.058594 289.953125 466.585938 290.308594 461.109375 C 291.050781 449.8125 291.523438 438.5 291.710938 427.179688 C 291.886719 416.203125 291.769531 405.222656 291.410156 394.25 C 291.101562 384.648438 290.964844 374.6875 289.039062 365.21875 C 289.046875 365.214844 289.0625 365.21875 289.0625 365.210938 C 289.179688 364.699219 289.222656 364.199219 289.34375 363.707031 C 292.609375 363.578125 296.039062 362.582031 299.183594 362.164062 Z M 299.183594 362.164062 " fill-opacity="1" fill-rule="nonzero"/><path fill="#e2fb6c" d="M 426.894531 314.492188 C 417.523438 311.300781 406.675781 310.605469 396.851562 311.035156 C 388.511719 311.398438 379.472656 312.484375 371.527344 315.585938 C 370.875 315.40625 370.191406 315.566406 369.839844 316.292969 C 369.019531 316.648438 368.203125 317.003906 367.410156 317.40625 C 365.402344 318.441406 364.984375 321.601562 366.675781 323.105469 C 367.097656 323.480469 367.445312 323.746094 367.785156 323.96875 C 367.222656 327.949219 367.175781 332.066406 366.960938 335.964844 C 366.535156 343.613281 366.324219 351.273438 366.09375 358.925781 C 365.632812 374.582031 365.207031 390.238281 364.800781 405.890625 C 363.992188 436.851562 363.183594 467.8125 362.375 498.773438 C 362.238281 504.140625 370.578125 504.140625 370.714844 498.773438 C 370.769531 496.601562 370.828125 494.425781 370.882812 492.253906 C 374.042969 491.707031 377.195312 490.734375 380.332031 490.25 C 384.289062 489.640625 388.324219 489.417969 392.324219 489.429688 C 396.324219 489.445312 400.335938 489.734375 404.277344 490.417969 C 406.847656 490.859375 409.964844 492.121094 412.765625 492.136719 C 412.773438 492.558594 412.757812 492.980469 412.769531 493.402344 C 412.90625 498.707031 420.480469 498.566406 420.917969 493.402344 C 422.203125 478.15625 421.933594 462.628906 422.382812 447.332031 C 422.824219 432.324219 423.261719 417.316406 423.703125 402.3125 C 424.144531 387.308594 424.613281 372.304688 425.023438 357.296875 C 425.234375 349.621094 425.472656 341.941406 425.523438 334.261719 C 425.550781 330.152344 425.675781 326.273438 425.183594 322.457031 C 430 322.941406 431.765625 316.148438 426.894531 314.492188 Z M 405.667969 482.21875 C 401.257812 481.523438 396.800781 481.109375 392.328125 481.105469 C 387.859375 481.101562 383.414062 481.53125 379.003906 482.257812 C 376.492188 482.667969 373.722656 483.160156 371.097656 483.953125 C 371.761719 458.277344 372.425781 432.605469 373.085938 406.933594 C 373.480469 391.628906 373.867188 376.324219 374.207031 361.015625 C 374.371094 353.710938 374.515625 346.410156 374.574219 339.101562 C 374.613281 334.0625 375.003906 328.421875 374.355469 323.140625 C 381.980469 321.449219 389.402344 319.601562 397.359375 319.328125 C 404.75 319.074219 411.722656 320 418.808594 321.304688 C 417.894531 325.46875 417.808594 329.765625 417.574219 334.257812 C 417.171875 341.929688 416.957031 349.617188 416.714844 357.292969 C 416.234375 372.296875 415.816406 387.308594 415.371094 402.308594 C 414.921875 417.316406 414.476562 432.324219 414.03125 447.328125 C 413.675781 459.339844 412.890625 471.464844 412.746094 483.527344 C 410.378906 482.777344 407.660156 482.535156 405.667969 482.21875 Z M 405.667969 482.21875 " fill-opacity="1" fill-rule="nonzero"/><path fill="#e2fb6c" d="M 465.808594 489.128906 C 467.101562 489.832031 468.003906 491.039062 469.449219 491.476562 C 471.367188 492.054688 473.59375 491.679688 475.546875 491.476562 C 479.714844 491.046875 483.871094 490.421875 488.03125 489.882812 C 490.898438 489.511719 493.765625 489.140625 496.628906 488.769531 C 498.054688 489.417969 499.707031 489.308594 500.773438 488.230469 C 502.550781 488 504.328125 487.769531 506.109375 487.535156 C 508.390625 487.230469 510.910156 487.246094 512.445312 485.292969 C 513.941406 483.386719 513.691406 481.28125 511.738281 479.824219 C 509.894531 478.445312 507.800781 478.933594 505.675781 479.214844 C 504.664062 479.347656 503.65625 479.488281 502.640625 479.625 C 503.183594 473.535156 503.148438 467.289062 503.46875 461.277344 C 503.925781 452.902344 504.378906 444.527344 504.832031 436.15625 C 505.757812 419.058594 506.683594 401.960938 507.613281 384.863281 C 508.519531 368.117188 509.410156 351.367188 510.292969 334.621094 C 510.734375 326.246094 511.175781 317.875 511.617188 309.5 C 511.855469 304.964844 512.058594 300.433594 512.15625 295.890625 C 512.226562 292.621094 511.929688 290.152344 511.285156 287.472656 C 512.941406 286.746094 513.484375 284.804688 512.234375 283.21875 C 509.664062 279.9375 506.050781 278.855469 502.1875 277.667969 C 498.800781 276.628906 495.347656 275.785156 491.863281 275.144531 C 484.527344 273.796875 476.847656 272.882812 469.546875 274.75 C 468.128906 275.113281 467.386719 276.503906 467.398438 277.84375 C 466.800781 278.207031 466.324219 278.816406 466.234375 279.746094 C 462.75 314.460938 463.875 349.792969 463.539062 384.664062 C 463.371094 402.152344 463.207031 419.632812 463.054688 437.121094 C 462.984375 445.515625 462.914062 453.90625 462.835938 462.300781 C 462.800781 466.496094 462.765625 470.699219 462.726562 474.894531 C 462.691406 479.144531 461.976562 483.195312 464.113281 486.964844 C 464.496094 487.644531 465.105469 488.007812 465.761719 488.234375 C 465.742188 488.257812 465.726562 488.28125 465.699219 488.308594 C 465.464844 488.539062 465.519531 488.972656 465.808594 489.128906 Z M 490.03125 283.214844 C 493.386719 283.859375 496.707031 284.695312 499.96875 285.71875 C 502.046875 286.371094 503.960938 287.0625 505.945312 287.484375 C 505.34375 289.078125 504.875 290.683594 504.617188 292.75 C 504.0625 297.253906 503.832031 301.832031 503.5625 306.359375 C 503.066406 314.734375 502.628906 323.105469 502.167969 331.480469 C 501.21875 348.578125 500.273438 365.675781 499.347656 382.769531 C 498.4375 399.519531 497.53125 416.265625 496.628906 433.015625 C 496.171875 441.386719 495.71875 449.761719 495.265625 458.136719 C 494.867188 465.535156 493.886719 473.296875 493.949219 480.8125 C 491.609375 481.132812 489.269531 481.449219 486.929688 481.769531 C 482.917969 482.316406 478.886719 482.792969 474.890625 483.425781 C 473.511719 483.644531 472.035156 483.828125 470.660156 484.246094 C 471.355469 481.617188 471.0625 478.925781 471.089844 475.933594 C 471.125 471.386719 471.167969 466.84375 471.207031 462.292969 C 471.277344 453.898438 471.351562 445.507812 471.425781 437.113281 C 471.578125 419.625 471.710938 402.140625 471.847656 384.65625 C 472.109375 350.144531 473.800781 315.203125 471.03125 280.789062 C 477.347656 281.785156 483.738281 281.992188 490.03125 283.214844 Z M 490.03125 283.214844 " fill-opacity="1" fill-rule="nonzero"/><path fill="#e2fb6c" d="M 557.292969 231.03125 C 557.253906 231.25 557.214844 231.46875 557.167969 231.683594 C 556.75 233.597656 556.105469 234.824219 554.878906 236.578125 C 552.46875 240.007812 547.804688 242.496094 546.394531 246.78125 C 545.816406 248.546875 547.417969 250.964844 549.40625 250.734375 C 552.695312 250.347656 555.085938 248.457031 557.425781 246.214844 C 559.386719 244.339844 561.203125 242.246094 562.640625 239.945312 C 565.320312 235.640625 566.355469 230.457031 565.148438 225.496094 C 563.863281 220.195312 559.867188 216.421875 554.570312 215.261719 C 551.472656 214.582031 548.292969 214.261719 545.148438 213.867188 C 542.199219 213.496094 538.210938 212.777344 535.511719 214.351562 C 534.292969 215.0625 534.269531 216.566406 535.101562 217.5625 C 536.71875 219.5 539.976562 220.253906 542.328125 220.867188 C 543.707031 221.226562 545.113281 221.488281 546.511719 221.792969 C 544.285156 223.175781 542.082031 224.601562 539.914062 225.863281 C 534.46875 229.039062 529.027344 232.210938 523.578125 235.386719 C 518.132812 238.558594 512.671875 241.710938 507.269531 244.953125 C 503.398438 247.277344 499.238281 249.539062 496.113281 252.804688 C 495.265625 250.882812 494.421875 248.957031 493.519531 247.058594 C 492.511719 244.9375 491.539062 242.789062 490.46875 240.699219 C 489.914062 239.617188 489.3125 238.453125 488.628906 237.339844 C 491.894531 234.308594 488.0625 228.234375 483.742188 230.792969 C 468.460938 239.820312 453.164062 248.816406 437.910156 257.894531 C 430.28125 262.429688 422.65625 266.972656 415.03125 271.515625 C 408.21875 275.570312 400.496094 279.214844 394.875 284.886719 C 394.121094 284.191406 393.359375 283.511719 392.652344 282.773438 C 390.527344 280.570312 388.757812 278.425781 387.089844 275.984375 C 385.382812 273.480469 383.886719 270.828125 382.539062 268.117188 C 381.917969 266.859375 381.375 265.585938 380.851562 264.292969 C 380.183594 262.640625 379.21875 261.21875 378.429688 259.648438 C 378.410156 259.609375 378.375 259.585938 378.355469 259.550781 C 378.710938 258.910156 379.082031 258.285156 379.3125 257.554688 C 380.011719 255.332031 377.855469 253.839844 375.898438 254.140625 C 371.984375 254.730469 369.015625 257.832031 366.117188 260.320312 C 362.824219 263.140625 359.535156 265.960938 356.242188 268.78125 C 349.464844 274.589844 342.6875 280.394531 335.914062 286.207031 C 329.335938 291.84375 322.707031 297.441406 316.273438 303.242188 C 313.0625 306.140625 309.871094 309.066406 306.769531 312.074219 C 303.808594 314.949219 300.355469 317.894531 298.558594 321.648438 C 298.03125 322.742188 298.90625 324.183594 300.210938 323.796875 C 303.925781 322.695312 307.117188 320.058594 310.210938 317.78125 C 313.734375 315.183594 317.148438 312.429688 320.574219 309.699219 C 327.554688 304.144531 334.324219 298.28125 341.125 292.5 C 347.734375 286.882812 354.34375 281.261719 360.949219 275.644531 C 364.449219 272.675781 367.945312 269.699219 371.445312 266.726562 C 372.15625 266.121094 372.882812 265.523438 373.605469 264.921875 C 373.664062 265.363281 373.675781 265.804688 373.785156 266.246094 C 374.171875 267.820312 374.785156 269.375 375.382812 270.878906 C 376.6875 274.183594 378.277344 277.316406 380.210938 280.296875 C 382.09375 283.195312 384.238281 285.953125 386.609375 288.472656 C 387.726562 289.660156 388.898438 290.832031 390.136719 291.894531 C 391.949219 293.441406 393.664062 293.761719 395.9375 294.058594 C 397.609375 294.277344 399.246094 292.089844 398.617188 290.542969 C 398.5 290.261719 398.390625 289.984375 398.28125 289.707031 C 405.75 287.433594 412.503906 282.5625 419.183594 278.625 C 426.832031 274.125 434.484375 269.625 442.128906 265.121094 C 455.675781 257.140625 469.179688 249.097656 482.695312 241.078125 C 482.96875 241.949219 483.261719 242.804688 483.5625 243.617188 C 484.335938 245.753906 485.222656 247.855469 486.0625 249.964844 C 487.035156 252.417969 488.097656 254.828125 489.125 257.257812 C 490.105469 259.585938 492.519531 263.15625 495.566406 261.871094 C 497.0625 261.238281 497.570312 259.617188 497.636719 258.109375 C 497.636719 258.082031 497.632812 258.058594 497.632812 258.03125 C 502.542969 257.171875 506.996094 254.34375 511.335938 251.914062 C 516.835938 248.835938 522.277344 245.65625 527.734375 242.503906 C 533.191406 239.351562 538.648438 236.199219 544.109375 233.046875 C 548.113281 230.734375 552.621094 228.640625 556.550781 225.992188 C 556.617188 226.117188 556.6875 226.242188 556.75 226.375 C 556.769531 226.433594 556.769531 226.4375 556.808594 226.539062 C 556.929688 226.925781 557.054688 227.3125 557.148438 227.707031 C 557.15625 227.738281 557.261719 228.347656 557.292969 228.445312 C 557.324219 228.785156 557.351562 229.128906 557.355469 229.472656 C 557.363281 229.960938 557.34375 230.445312 557.304688 230.933594 C 557.292969 231.003906 557.296875 230.992188 557.292969 231.03125 Z M 557.292969 231.03125 " fill-opacity="1" fill-rule="nonzero"/><g clip-path="url(#1f85a3fa44)"><g transform="matrix(1, 0, 0, 1, 272, 212)"><g clip-path="url(#97a37bc3ef)"><g clip-path="url(#5ff3794e8f)"><path fill="#004838" d="M 0.9375 0.90625 L 306.941406 0.90625 L 306.941406 295.40625 L 0.9375 295.40625 Z M 0.9375 0.90625 " fill-opacity="1" fill-rule="nonzero"/></g></g></g></g><g clip-path="url(#1986270bab)"><g transform="matrix(1, 0, 0, 1, 278, 212)"><g clip-path="url(#c3afa08329)"><g clip-path="url(#49637d05d6)"><path fill="#e2fb6c" d="M -47.277344 311.800781 C -38.640625 311.34375 -29.9375 311.507812 -21.246094 311.683594 C -21.183594 311.433594 -21.121094 311.175781 -21.066406 310.921875 C -20.925781 310.230469 -20.835938 309.523438 -20.660156 308.847656 C -20.46875 308.125 -20.222656 307.316406 -19.898438 306.644531 C -19.777344 306.386719 -19.558594 306.140625 -19.46875 305.871094 C -19.351562 305.515625 -19.351562 305.058594 -19.296875 304.6875 C -19.050781 303.050781 -16.589844 303.546875 -16.523438 305.058594 C -16.503906 305.421875 -16.53125 305.8125 -16.441406 306.160156 C -16.355469 306.507812 -16.144531 306.8125 -16.039062 307.148438 C -15.820312 307.847656 -15.695312 308.644531 -15.609375 309.367188 C -15.523438 310.089844 -15.472656 310.808594 -15.40625 311.527344 C -15.398438 311.613281 -15.390625 311.699219 -15.386719 311.785156 C -13.472656 311.820312 -11.5625 311.863281 -9.652344 311.875 C -2.070312 311.9375 5.511719 311.996094 13.09375 312.058594 C 13.363281 310.316406 13.71875 308.523438 15.007812 307.265625 C 16.445312 305.867188 18.445312 306.359375 19.535156 307.851562 C 20.375 309 20.511719 310.589844 20.523438 312.121094 C 22.65625 312.140625 24.792969 312.15625 26.929688 312.171875 C 33.0625 312.222656 39.195312 312.273438 45.328125 312.320312 C 45.699219 311.265625 46.132812 310.234375 46.589844 309.195312 C 46.882812 308.527344 47.792969 308.082031 48.488281 308.109375 C 48.332031 308.121094 48.183594 308.148438 48.03125 308.195312 C 48.449219 307.730469 49.085938 307.921875 49.417969 308.34375 C 50.191406 308.703125 50.585938 309.46875 50.691406 310.3125 C 50.78125 311 50.90625 311.675781 50.957031 312.371094 C 59.714844 312.441406 68.46875 312.511719 77.230469 312.585938 C 77.8125 309.742188 78.4375 306.910156 79.324219 304.148438 C 79.835938 302.558594 81.304688 301.535156 82.980469 301.761719 C 84.5625 301.96875 85.933594 303.367188 85.875 305.035156 C 85.785156 307.582031 85.476562 310.117188 85.125 312.648438 C 90.464844 312.691406 95.796875 312.738281 101.136719 312.777344 C 107.328125 312.828125 113.519531 312.875 119.710938 312.921875 C 119.875 311.804688 120.015625 310.644531 120.566406 309.648438 C 121.347656 308.226562 123.3125 307.035156 124.878906 308.070312 C 126.617188 309.214844 126.910156 311.078125 126.980469 312.980469 C 133.964844 313.035156 140.949219 313.089844 147.929688 313.144531 C 147.953125 312.789062 147.976562 312.433594 148 312.082031 C 148.164062 309.722656 148.539062 307.398438 149.957031 305.523438 C 149.96875 305.472656 149.976562 305.421875 149.988281 305.371094 C 150.433594 303.371094 153.886719 303.207031 154.203125 305.371094 C 154.214844 305.460938 154.226562 305.546875 154.238281 305.636719 C 154.792969 306.441406 155.207031 307.246094 155.371094 308.3125 C 155.5625 309.574219 155.746094 310.792969 155.734375 312.082031 C 155.734375 312.453125 155.730469 312.828125 155.726562 313.203125 C 166.09375 313.28125 176.457031 313.371094 186.824219 313.457031 C 187.179688 312.035156 187.730469 310.683594 188.941406 309.878906 C 188.625 310.191406 188.308594 310.511719 187.992188 310.828125 C 188.152344 310.617188 188.304688 310.398438 188.433594 310.171875 C 189.226562 308.914062 191.574219 308.546875 192.261719 310.171875 C 192.488281 310.707031 192.929688 311.128906 193.132812 311.804688 C 193.289062 312.320312 193.351562 312.945312 193.40625 313.472656 C 193.40625 313.484375 193.40625 313.496094 193.410156 313.511719 C 200.972656 313.574219 208.535156 313.640625 216.097656 313.707031 C 216.769531 312.945312 217.726562 312.527344 218.773438 312.667969 C 219.457031 312.761719 220.207031 313.171875 220.714844 313.75 C 230.324219 313.832031 239.933594 313.90625 249.542969 313.996094 C 250.066406 314 250.582031 314.011719 251.101562 314.015625 C 251.1875 311.886719 251.359375 309.652344 252.242188 307.839844 C 253.226562 305.816406 256.644531 305.792969 257.625 307.839844 C 258.511719 309.695312 258.65625 311.941406 258.730469 314.089844 C 267.640625 314.179688 276.554688 314.265625 285.464844 314.355469 C 285.523438 306.4375 285.578125 298.527344 285.636719 290.613281 C 282.488281 289.9375 279.441406 288.945312 276.863281 286.871094 C 275.472656 285.75 276.433594 283.683594 277.835938 283.191406 C 280.355469 282.308594 283.03125 282.273438 285.695312 282.542969 C 285.757812 273.472656 285.832031 264.402344 285.894531 255.328125 C 283.40625 255.597656 280.644531 255.851562 278.433594 254.480469 C 276.785156 253.457031 276.339844 251.046875 277.808594 249.640625 C 279.921875 247.628906 282.984375 247.367188 285.746094 247.082031 C 285.816406 247.074219 285.886719 247.070312 285.957031 247.0625 C 286.039062 234.980469 286.132812 222.902344 286.21875 210.820312 C 284.464844 210.945312 282.707031 211.011719 280.964844 210.820312 C 278.867188 210.589844 274.820312 210.207031 274.820312 207.203125 C 274.820312 204.203125 278.777344 203.664062 280.964844 203.246094 C 282.683594 202.917969 284.488281 202.902344 286.28125 202.941406 C 286.34375 194.003906 286.449219 185.066406 286.515625 176.128906 C 282.714844 176.296875 278.851562 176.328125 275.351562 174.738281 C 273.46875 173.886719 273.605469 170.84375 275.351562 169.945312 C 278.78125 168.179688 282.753906 168.089844 286.585938 168.09375 C 286.65625 159.820312 286.734375 151.546875 286.804688 143.273438 C 285.296875 143.382812 283.785156 143.472656 282.273438 143.4375 C 279.5625 143.371094 276.976562 142.871094 274.414062 141.996094 C 272.777344 141.441406 271.996094 138.769531 273.878906 137.914062 C 276.4375 136.75 278.917969 135.941406 281.714844 135.585938 C 283.429688 135.367188 285.148438 135.289062 286.871094 135.234375 C 286.96875 123.957031 287.058594 112.675781 287.171875 101.394531 C 285.644531 101.285156 284.109375 101.03125 282.765625 100.375 C 281.621094 100.039062 280.847656 99.6875 280.132812 98.671875 C 279.695312 98.050781 279.714844 96.996094 280.132812 96.367188 C 280.804688 95.371094 281.59375 95.011719 282.675781 94.667969 C 284.054688 93.953125 285.65625 93.675781 287.242188 93.546875 C 287.300781 87.6875 287.332031 81.828125 287.398438 75.96875 C 287.507812 65.976562 287.601562 55.980469 287.78125 45.988281 C 285.804688 45.714844 283.960938 45.238281 282.464844 43.722656 C 280.996094 42.238281 281.394531 39.871094 283.097656 38.785156 C 284.601562 37.824219 286.246094 37.652344 287.933594 37.738281 C 288.0625 32.011719 288.171875 26.28125 288.53125 20.566406 C 288.84375 15.546875 289.199219 10.160156 292.085938 5.914062 C 292.097656 5.894531 292.128906 5.894531 292.140625 5.914062 C 297.128906 13.503906 295.691406 25.480469 295.765625 34.152344 C 295.777344 35.632812 295.753906 37.117188 295.765625 38.59375 C 297.433594 38.789062 299.105469 38.980469 300.773438 39.175781 C 300.84375 39.183594 300.914062 39.1875 300.980469 39.195312 C 301.007812 39.164062 301.039062 39.109375 301.050781 39.09375 C 301.230469 38.917969 301.4375 38.8125 301.648438 38.699219 C 302.882812 38.0625 304.078125 37.609375 305.519531 37.925781 C 308.265625 38.535156 310.03125 41.117188 309.980469 43.867188 C 309.941406 46.101562 308.183594 47.746094 305.992188 47.855469 C 304.136719 47.949219 302.183594 47.546875 300.335938 47.347656 C 298.8125 47.183594 297.285156 47.023438 295.765625 46.859375 C 295.769531 53.421875 295.792969 59.984375 295.765625 66.550781 C 295.765625 66.742188 295.761719 66.9375 295.761719 67.128906 C 296.164062 67.121094 296.5625 67.117188 296.964844 67.09375 C 297.246094 67.074219 297.523438 67.046875 297.808594 67.019531 C 297.851562 67.015625 297.898438 67.011719 297.945312 67.007812 C 298.484375 66.890625 299.011719 66.777344 299.546875 66.644531 C 300.085938 66.507812 300.636719 66.417969 301.179688 66.285156 C 301.59375 66.183594 301.988281 66.117188 302.414062 66.0625 C 302.664062 66.027344 302.894531 66.039062 303.125 66.058594 C 303.921875 65.785156 304.777344 65.519531 305.546875 65.820312 C 305.734375 65.855469 305.929688 65.84375 306.121094 65.933594 C 305.886719 65.871094 305.652344 65.804688 305.414062 65.742188 C 305.601562 65.746094 305.933594 65.761719 306.15625 65.628906 C 306.402344 65.484375 306.53125 65.214844 306.675781 64.976562 C 306.816406 64.757812 307.117188 64.949219 307.015625 65.175781 C 306.929688 65.363281 306.824219 65.558594 306.746094 65.75 C 306.527344 66.285156 306.628906 66.082031 306.761719 66.535156 C 307 67.335938 306.507812 65.75 306.820312 66.878906 C 306.863281 67.03125 306.855469 67.195312 306.859375 67.359375 C 307.050781 68.34375 306.472656 69.386719 305.894531 70.210938 C 305.816406 70.480469 305.765625 70.753906 305.621094 71.011719 C 305.375 71.449219 304.996094 71.855469 304.617188 72.195312 C 303.84375 72.886719 303.023438 73.507812 302.066406 73.910156 C 300.445312 74.597656 298.84375 75.027344 297.074219 75.148438 C 296.625 75.175781 296.164062 75.09375 295.707031 75.0625 C 295.671875 81.195312 295.617188 87.335938 295.570312 93.46875 C 299.921875 93.59375 304.445312 93.457031 308.59375 94.898438 C 310.984375 95.726562 310.929688 98.855469 308.59375 99.710938 C 304.449219 101.222656 299.882812 101.148438 295.515625 101.347656 C 295.4375 111.703125 295.371094 122.058594 295.292969 132.410156 C 295.285156 133.304688 295.28125 134.203125 295.273438 135.097656 C 295.972656 135.097656 296.671875 135.082031 297.375 135.078125 C 298.675781 135.070312 299.980469 135.160156 301.289062 135.195312 C 302.945312 135.234375 304.199219 135.253906 305.507812 136.421875 C 306.675781 137.464844 306.488281 139.320312 305.507812 140.394531 C 304.359375 141.65625 302.859375 141.652344 301.289062 141.847656 C 299.980469 142.011719 298.6875 142.230469 297.375 142.363281 C 296.65625 142.433594 295.9375 142.488281 295.214844 142.558594 C 295.144531 151.085938 295.078125 159.605469 295.011719 168.125 C 295.054688 168.125 295.09375 168.125 295.140625 168.125 C 297.316406 168.15625 300.433594 167.964844 302.242188 169.3125 C 303.566406 170.300781 304.386719 172.511719 302.816406 173.796875 C 300.847656 175.421875 298.074219 175.515625 295.613281 175.667969 C 295.394531 175.679688 295.171875 175.6875 294.953125 175.703125 C 294.882812 184.917969 294.808594 194.136719 294.738281 203.351562 C 295.386719 203.414062 296.03125 203.464844 296.679688 203.542969 C 299.023438 203.824219 301.964844 204.226562 304.058594 205.351562 C 304.832031 205.765625 304.75 206.871094 304.058594 207.304688 C 302.101562 208.523438 299.21875 209.125 296.976562 209.539062 C 296.214844 209.675781 295.445312 209.726562 294.6875 209.847656 C 294.589844 222.003906 294.5 234.160156 294.402344 246.3125 C 296.230469 246.164062 298.054688 246.015625 299.886719 245.90625 C 302.511719 245.75 305.410156 245.332031 307.511719 247.257812 C 308.304688 247.980469 308.582031 249.554688 307.925781 250.460938 C 306.234375 252.808594 303.554688 253.023438 300.902344 253.421875 C 298.714844 253.75 296.527344 254.03125 294.339844 254.3125 C 294.316406 256.875 294.296875 259.441406 294.28125 262.007812 C 294.222656 269.332031 294.167969 276.65625 294.109375 283.976562 C 295.582031 284.253906 297.0625 284.515625 298.527344 284.847656 C 299.648438 285.105469 300.785156 285.328125 301.890625 285.648438 C 303.214844 286.027344 304.671875 286.277344 305.566406 287.414062 C 305.535156 287.414062 305.5 287.414062 305.464844 287.414062 C 306.78125 288.734375 306.828125 291.140625 304.933594 292.339844 C 302.894531 293.625 299.761719 292.792969 297.488281 292.519531 C 296.335938 292.382812 295.191406 292.183594 294.042969 292.011719 C 293.984375 299.492188 293.925781 306.96875 293.867188 314.453125 C 299.65625 314.511719 305.441406 314.566406 311.230469 314.738281 C 318.015625 314.9375 325.074219 315.011719 331.476562 317.429688 C 332.839844 317.945312 332.878906 319.738281 331.476562 320.25 C 320.488281 324.203125 307.070312 322.71875 295.554688 322.648438 C 294.96875 322.644531 294.390625 322.640625 293.804688 322.636719 C 293.769531 327.167969 293.734375 331.695312 293.699219 336.226562 C 293.65625 341.613281 285.285156 341.625 285.324219 336.226562 C 285.363281 331.679688 285.390625 327.128906 285.421875 322.582031 C 276.605469 322.527344 267.789062 322.46875 258.972656 322.414062 C 258.957031 322.414062 258.941406 322.414062 258.925781 322.414062 C 258.929688 322.734375 258.9375 323.050781 258.941406 323.375 C 258.964844 325.796875 259.035156 328.21875 258.832031 330.636719 C 258.601562 333.386719 258.488281 336.582031 256.09375 338.351562 C 255.460938 338.816406 254.234375 338.824219 253.609375 338.351562 C 251.226562 336.558594 251.113281 333.398438 250.910156 330.636719 C 250.730469 328.214844 250.816406 325.796875 250.855469 323.375 C 250.859375 323.035156 250.875 322.695312 250.878906 322.355469 C 240.902344 322.289062 230.925781 322.203125 220.945312 322.125 C 220.777344 323.140625 220.59375 324.152344 220.425781 325.148438 C 220.164062 326.679688 219.777344 328.179688 219.289062 329.65625 C 218.6875 331.476562 217.730469 332.839844 216.574219 334.335938 C 215.386719 335.871094 212.765625 334.910156 212.34375 333.222656 C 212.125 332.339844 211.941406 331.503906 211.832031 330.597656 C 211.710938 329.582031 211.804688 328.65625 211.945312 327.632812 C 212.148438 326.136719 212.335938 324.667969 212.710938 323.199219 C 212.808594 322.820312 212.921875 322.441406 213.015625 322.066406 C 206.519531 322.011719 200.019531 321.96875 193.519531 321.914062 C 193.511719 322.085938 193.515625 322.257812 193.511719 322.429688 C 193.410156 324.609375 193.273438 326.792969 192.886719 328.9375 C 192.503906 331.03125 191.765625 332.941406 190.570312 334.699219 C 189.699219 335.980469 187.433594 336.355469 186.65625 334.699219 C 186.1875 333.707031 185.832031 332.765625 185.527344 331.847656 C 185.183594 330.796875 185.148438 329.4375 185.097656 328.320312 C 185.015625 326.355469 185.25 324.375 185.46875 322.429688 C 185.492188 322.238281 185.523438 322.042969 185.550781 321.851562 C 185.289062 321.847656 185.027344 321.847656 184.765625 321.839844 C 175.066406 321.761719 165.363281 321.6875 155.664062 321.605469 C 155.625 322.730469 155.550781 323.847656 155.390625 324.953125 C 155.046875 327.300781 154.226562 328.957031 153.121094 331.097656 C 152.429688 332.4375 149.988281 332.609375 149.351562 331.097656 C 148.917969 330.074219 148.410156 329.140625 148.09375 328.0625 C 147.726562 326.824219 147.507812 325.636719 147.429688 324.339844 C 147.371094 323.410156 147.390625 322.472656 147.429688 321.535156 C 140.582031 321.480469 133.734375 321.425781 126.886719 321.367188 C 126.878906 321.558594 126.863281 321.757812 126.855469 321.949219 C 126.75 324.148438 126.679688 326.359375 126.496094 328.550781 C 126.382812 329.890625 126.269531 331.398438 125.738281 332.648438 C 125.277344 333.742188 124.78125 334.726562 124.136719 335.722656 C 123.191406 337.183594 120.625 337.539062 119.769531 335.722656 C 118.613281 333.273438 118.070312 331.042969 118.203125 328.316406 C 118.324219 325.972656 118.5625 323.632812 118.757812 321.300781 C 107.121094 321.207031 95.480469 321.109375 83.839844 321.011719 C 83.632812 321.785156 83.359375 322.566406 83.070312 323.3125 C 82.78125 324.070312 82.417969 324.558594 81.910156 325.167969 C 82.039062 324.929688 81.988281 324.992188 81.761719 325.339844 C 81.621094 325.539062 81.476562 325.738281 81.335938 325.9375 C 80.105469 327.675781 77.285156 327.574219 76.65625 325.324219 C 76.589844 325.09375 76.527344 324.867188 76.464844 324.640625 C 76.332031 324.285156 76.3125 324.199219 76.421875 324.378906 C 76.632812 324.71875 76.53125 324.46875 76.128906 323.636719 C 75.925781 323.234375 75.839844 322.796875 75.859375 322.332031 C 75.839844 321.875 75.867188 321.414062 75.886719 320.945312 C 67.523438 320.878906 59.160156 320.8125 50.796875 320.742188 C 50.714844 321.949219 50.613281 323.164062 50.355469 324.34375 C 50.164062 325.230469 49.980469 326.179688 49.558594 326.988281 C 49.132812 327.796875 48.433594 328.414062 47.789062 329.03125 C 46.652344 330.113281 44.722656 329.933594 43.917969 328.53125 C 43.496094 327.792969 43.097656 327.082031 42.84375 326.265625 C 42.558594 325.339844 42.683594 324.269531 42.753906 323.3125 C 42.820312 322.425781 42.960938 321.546875 43.132812 320.675781 C 40.875 320.660156 38.613281 320.640625 36.355469 320.621094 C 30.980469 320.582031 25.609375 320.535156 20.230469 320.492188 C 20.152344 322.238281 20.101562 324.011719 19.75 325.703125 C 19.261719 328.046875 18.117188 331.246094 15.148438 330.847656 C 12.222656 330.449219 11.804688 327.019531 11.738281 324.621094 C 11.703125 323.238281 11.894531 321.820312 12.070312 320.425781 C 6.234375 320.378906 0.390625 320.328125 -5.449219 320.28125 C -8.816406 320.253906 -12.191406 320.265625 -15.570312 320.28125 C -15.589844 320.351562 -15.59375 320.425781 -15.605469 320.496094 C -15.710938 320.964844 -15.878906 321.414062 -16.105469 321.835938 C -16.089844 321.601562 -16.132812 321.65625 -16.230469 322.003906 C -16.316406 322.207031 -16.398438 322.410156 -16.484375 322.609375 C -16.898438 323.601562 -17.644531 324.371094 -18.796875 324.371094 C -19.867188 324.371094 -20.800781 323.625 -21.109375 322.609375 C -21.171875 322.410156 -21.230469 322.207031 -21.292969 322.003906 C -21.410156 321.6875 -21.429688 321.609375 -21.347656 321.769531 C -21.421875 321.519531 -21.644531 320.84375 -21.753906 320.300781 C -30.273438 320.328125 -38.796875 320.292969 -47.25 319.714844 C -52.34375 319.367188 -52.398438 312.066406 -47.277344 311.800781 Z M 49.417969 308.347656 C 49.441406 308.371094 49.464844 308.390625 49.480469 308.414062 C 49.492188 308.40625 49.503906 308.398438 49.515625 308.390625 C 49.480469 308.371094 49.453125 308.359375 49.417969 308.347656 Z M 305.984375 68.410156 C 306.066406 68.671875 306.027344 68.941406 306.019531 69.210938 C 306.035156 69.15625 306.050781 69.105469 306.0625 69.050781 C 306.039062 68.835938 306.011719 68.621094 305.984375 68.410156 Z M 304.816406 66.710938 C 305.316406 67.097656 305.257812 67.050781 304.636719 66.566406 C 304.609375 66.5625 304.578125 66.558594 304.546875 66.554688 C 304.632812 66.609375 304.738281 66.632812 304.816406 66.710938 Z M 304.816406 66.710938 " fill-opacity="1" fill-rule="nonzero"/></g><path fill="#e2fb6c" d="M 243.609375 277.5 C 243.527344 277.558594 243.433594 277.597656 243.355469 277.65625 C 242.652344 279.183594 241.136719 279.945312 239.707031 279.691406 C 233.203125 282.644531 225.164062 283.03125 218.316406 282.539062 C 211.746094 282.070312 203.730469 280.828125 197.746094 277.183594 C 197.59375 279.648438 197.183594 282.066406 196.160156 284.355469 C 195.265625 286.351562 191.742188 286.378906 190.855469 284.355469 C 188.757812 279.5625 189.355469 274.394531 189.378906 269.25 C 189.402344 263.335938 189.429688 257.425781 189.453125 251.515625 C 189.507812 239.347656 189.558594 227.179688 189.613281 215.011719 C 189.664062 203.191406 189.675781 191.367188 189.78125 179.546875 C 189.882812 168.375 188.195312 155.195312 191.691406 144.46875 C 191.902344 143.820312 192.320312 143.390625 192.808594 143.097656 C 194.234375 139.585938 199.53125 139.90625 202.710938 139.753906 C 206.710938 139.5625 210.726562 139.566406 214.730469 139.773438 C 218.839844 139.980469 222.925781 140.414062 226.988281 141.007812 C 230.789062 141.558594 235.363281 141.964844 238.640625 144.113281 C 239.839844 144.90625 240.316406 146.152344 240.195312 147.367188 C 240.480469 147.65625 240.722656 148 240.839844 148.453125 C 241.160156 150.082031 241.777344 151.601562 242.695312 153.007812 C 242.828125 153.183594 242.65625 153.496094 242.433594 153.347656 C 242.019531 153.109375 241.578125 152.953125 241.148438 152.765625 C 241.753906 162.464844 240.921875 172.347656 240.6875 182.039062 C 240.425781 192.671875 240.429688 203.308594 240.628906 213.9375 C 240.824219 224.570312 241.242188 235.199219 241.910156 245.8125 C 242.253906 251.289062 242.660156 256.761719 243.136719 262.230469 C 243.429688 265.640625 244.335938 269.550781 244.226562 273.171875 C 245.199219 274.347656 244.996094 276.5 243.609375 277.5 Z M 224.816406 148.914062 C 220.945312 148.402344 217.035156 148.105469 213.132812 147.980469 C 209.128906 147.855469 205.113281 147.925781 201.117188 148.199219 C 199.921875 148.28125 198.695312 148.460938 197.492188 148.449219 C 199.40625 158.058594 198.09375 168.960938 198.101562 178.507812 C 198.109375 190.679688 198.023438 202.84375 197.972656 215.015625 C 197.925781 226.835938 197.875 238.65625 197.828125 250.476562 C 197.804688 256.390625 197.78125 262.300781 197.757812 268.210938 C 197.757812 268.496094 197.761719 268.789062 197.765625 269.074219 C 201.234375 269.84375 204.457031 271.265625 207.875 272.265625 C 211.542969 273.339844 215.292969 274.03125 219.101562 274.296875 C 224.761719 274.695312 230.179688 273.804688 235.667969 273.0625 C 235.164062 270.171875 235.203125 267.078125 234.957031 264.273438 C 234.472656 258.808594 234.046875 253.335938 233.691406 247.859375 C 232.949219 236.5625 232.476562 225.25 232.292969 213.929688 C 232.113281 202.953125 232.230469 191.972656 232.589844 181.003906 C 232.902344 171.402344 233.035156 161.4375 234.960938 151.972656 C 234.953125 151.96875 234.941406 151.972656 234.941406 151.960938 C 234.820312 151.449219 234.78125 150.949219 234.65625 150.457031 C 231.390625 150.328125 227.960938 149.332031 224.816406 148.914062 Z M 224.816406 148.914062 " fill-opacity="1" fill-rule="nonzero"/><path fill="#e2fb6c" d="M 97.105469 101.246094 C 106.476562 98.054688 117.328125 97.355469 127.152344 97.785156 C 135.492188 98.148438 144.527344 99.234375 152.472656 102.335938 C 153.125 102.15625 153.8125 102.316406 154.160156 103.042969 C 154.980469 103.402344 155.800781 103.753906 156.589844 104.15625 C 158.597656 105.191406 159.015625 108.351562 157.324219 109.859375 C 156.90625 110.230469 156.554688 110.496094 156.214844 110.71875 C 156.777344 114.699219 156.824219 118.816406 157.039062 122.71875 C 157.464844 130.363281 157.679688 138.023438 157.90625 145.679688 C 158.367188 161.332031 158.792969 176.988281 159.199219 192.644531 C 160.007812 223.605469 160.820312 254.5625 161.625 285.523438 C 161.765625 290.894531 153.425781 290.894531 153.285156 285.523438 C 153.230469 283.351562 153.171875 281.179688 153.117188 279.003906 C 149.957031 278.457031 146.808594 277.484375 143.667969 277 C 139.710938 276.390625 135.675781 276.167969 131.679688 276.179688 C 127.675781 276.195312 123.664062 276.488281 119.722656 277.167969 C 117.152344 277.609375 114.035156 278.871094 111.234375 278.886719 C 111.226562 279.308594 111.242188 279.730469 111.230469 280.152344 C 111.097656 285.457031 103.519531 285.320312 103.082031 280.152344 C 101.796875 264.90625 102.066406 249.382812 101.617188 234.082031 C 101.175781 219.074219 100.738281 204.070312 100.296875 189.066406 C 99.855469 174.058594 99.390625 159.054688 98.976562 144.046875 C 98.765625 136.371094 98.527344 128.691406 98.476562 121.015625 C 98.453125 116.902344 98.324219 113.023438 98.816406 109.207031 C 94 109.695312 92.234375 102.902344 97.105469 101.246094 Z M 118.332031 268.972656 C 122.746094 268.273438 127.199219 267.859375 131.671875 267.855469 C 136.140625 267.851562 140.585938 268.28125 144.996094 269.007812 C 147.507812 269.421875 150.28125 269.914062 152.902344 270.703125 C 152.238281 245.03125 151.574219 219.359375 150.914062 193.683594 C 150.519531 178.378906 150.132812 163.074219 149.792969 147.765625 C 149.628906 140.460938 149.484375 133.160156 149.425781 125.851562 C 149.386719 120.8125 148.996094 115.171875 149.644531 109.890625 C 142.019531 108.203125 134.597656 106.351562 126.640625 106.078125 C 119.25 105.828125 112.277344 106.75 105.195312 108.054688 C 106.105469 112.21875 106.191406 116.515625 106.425781 121.011719 C 106.828125 128.683594 107.042969 136.367188 107.289062 144.042969 C 107.765625 159.046875 108.183594 174.058594 108.628906 189.0625 C 109.078125 204.070312 109.523438 219.074219 109.96875 234.078125 C 110.328125 246.089844 111.109375 258.21875 111.257812 270.277344 C 113.621094 269.53125 116.34375 269.285156 118.332031 268.972656 Z M 118.332031 268.972656 " fill-opacity="1" fill-rule="nonzero"/><path fill="#e2fb6c" d="M 58.191406 275.882812 C 56.902344 276.582031 55.996094 277.789062 54.550781 278.226562 C 52.632812 278.808594 50.40625 278.429688 48.457031 278.226562 C 44.285156 277.796875 40.128906 277.171875 35.96875 276.632812 C 33.105469 276.265625 30.238281 275.890625 27.375 275.519531 C 25.945312 276.167969 24.292969 276.058594 23.230469 274.980469 C 21.449219 274.75 19.671875 274.519531 17.890625 274.285156 C 15.613281 273.980469 13.089844 274 11.554688 272.042969 C 10.058594 270.140625 10.3125 268.035156 12.261719 266.574219 C 14.105469 265.195312 16.199219 265.683594 18.324219 265.964844 C 19.335938 266.097656 20.34375 266.238281 21.359375 266.378906 C 20.816406 260.285156 20.855469 254.039062 20.53125 248.027344 C 20.074219 239.652344 19.621094 231.28125 19.167969 222.90625 C 18.242188 205.808594 17.320312 188.710938 16.390625 171.617188 C 15.480469 154.867188 14.589844 138.121094 13.707031 121.371094 C 13.265625 113 12.824219 104.625 12.382812 96.25 C 12.144531 91.714844 11.941406 87.183594 11.84375 82.644531 C 11.773438 79.371094 12.070312 76.90625 12.714844 74.222656 C 11.058594 73.496094 10.515625 71.558594 11.765625 69.96875 C 14.339844 66.6875 17.949219 65.605469 21.8125 64.417969 C 25.199219 63.382812 28.652344 62.535156 32.136719 61.898438 C 39.472656 60.546875 47.152344 59.636719 54.453125 61.5 C 55.871094 61.863281 56.617188 63.253906 56.601562 64.597656 C 57.199219 64.957031 57.675781 65.566406 57.765625 66.496094 C 61.253906 101.210938 60.125 136.542969 60.460938 171.414062 C 60.628906 188.902344 60.792969 206.386719 60.945312 223.871094 C 61.015625 232.269531 61.089844 240.660156 61.164062 249.054688 C 61.203125 253.25 61.234375 257.449219 61.273438 261.644531 C 61.3125 265.894531 62.027344 269.945312 59.886719 273.71875 C 59.503906 274.394531 58.894531 274.757812 58.238281 274.988281 C 58.257812 275.007812 58.277344 275.03125 58.300781 275.058594 C 58.535156 275.289062 58.480469 275.722656 58.191406 275.882812 Z M 33.96875 69.964844 C 30.613281 70.613281 27.292969 71.449219 24.03125 72.46875 C 21.957031 73.121094 20.039062 73.816406 18.054688 74.234375 C 18.65625 75.828125 19.125 77.433594 19.382812 79.503906 C 19.9375 84.003906 20.167969 88.582031 20.4375 93.109375 C 20.933594 101.484375 21.371094 109.859375 21.832031 118.230469 C 22.785156 135.328125 23.730469 152.425781 24.652344 169.523438 C 25.5625 186.269531 26.46875 203.019531 27.375 219.765625 C 27.828125 228.140625 28.28125 236.511719 28.734375 244.886719 C 29.136719 252.285156 30.113281 260.046875 30.050781 267.5625 C 32.394531 267.882812 34.730469 268.203125 37.070312 268.519531 C 41.082031 269.066406 45.113281 269.542969 49.113281 270.175781 C 50.492188 270.394531 51.964844 270.582031 53.339844 270.996094 C 52.648438 268.371094 52.9375 265.675781 52.910156 262.6875 C 52.875 258.136719 52.832031 253.59375 52.792969 249.042969 C 52.722656 240.648438 52.652344 232.257812 52.574219 223.863281 C 52.425781 206.375 52.289062 188.894531 52.15625 171.40625 C 51.890625 136.894531 50.199219 101.953125 52.96875 67.539062 C 46.652344 68.535156 40.261719 68.746094 33.96875 69.964844 Z M 33.96875 69.964844 " fill-opacity="1" fill-rule="nonzero"/><g clip-path="url(#8c72196ec0)"><path fill="#e2fb6c" d="M -33.289062 17.78125 C -33.253906 18 -33.214844 18.21875 -33.167969 18.433594 C -32.75 20.347656 -32.105469 21.574219 -30.878906 23.328125 C -28.46875 26.757812 -23.804688 29.246094 -22.394531 33.535156 C -21.816406 35.300781 -23.417969 37.714844 -25.40625 37.484375 C -28.695312 37.097656 -31.082031 35.207031 -33.425781 32.964844 C -35.382812 31.089844 -37.199219 29 -38.636719 26.695312 C -41.320312 22.390625 -42.355469 17.207031 -41.148438 12.246094 C -39.863281 6.945312 -35.867188 3.175781 -30.570312 2.015625 C -27.472656 1.332031 -24.289062 1.011719 -21.144531 0.617188 C -18.199219 0.25 -14.210938 -0.46875 -11.511719 1.101562 C -10.292969 1.8125 -10.265625 3.316406 -11.097656 4.3125 C -12.71875 6.25 -15.976562 7.003906 -18.324219 7.617188 C -19.703125 7.980469 -21.113281 8.238281 -22.511719 8.542969 C -20.285156 9.925781 -18.082031 11.351562 -15.914062 12.617188 C -10.46875 15.789062 -5.023438 18.964844 0.421875 22.136719 C 5.867188 25.3125 11.328125 28.460938 16.730469 31.707031 C 20.601562 34.03125 24.761719 36.292969 27.886719 39.554688 C 28.734375 37.632812 29.582031 35.707031 30.480469 33.8125 C 31.488281 31.6875 32.460938 29.539062 33.53125 27.449219 C 34.085938 26.367188 34.6875 25.203125 35.375 24.09375 C 32.105469 21.0625 35.9375 14.988281 40.257812 17.542969 C 55.539062 26.574219 70.835938 35.570312 86.09375 44.644531 C 93.71875 49.179688 101.34375 53.726562 108.96875 58.265625 C 115.785156 62.320312 123.503906 65.964844 129.125 71.636719 C 129.878906 70.945312 130.640625 70.261719 131.351562 69.523438 C 133.472656 67.320312 135.242188 65.175781 136.910156 62.734375 C 138.617188 60.230469 140.113281 57.578125 141.460938 54.867188 C 142.082031 53.609375 142.625 52.335938 143.148438 51.042969 C 143.820312 49.390625 144.78125 47.96875 145.570312 46.398438 C 145.59375 46.359375 145.625 46.339844 145.648438 46.300781 C 145.289062 45.660156 144.917969 45.035156 144.6875 44.304688 C 143.992188 42.085938 146.148438 40.59375 148.101562 40.890625 C 152.015625 41.484375 154.984375 44.582031 157.882812 47.070312 C 161.175781 49.890625 164.46875 52.710938 167.757812 55.53125 C 174.535156 61.34375 181.3125 67.148438 188.089844 72.957031 C 194.664062 78.59375 201.292969 84.195312 207.726562 89.996094 C 210.941406 92.890625 214.128906 95.816406 217.234375 98.828125 C 220.191406 101.699219 223.644531 104.644531 225.441406 108.398438 C 225.96875 109.492188 225.09375 110.933594 223.792969 110.546875 C 220.074219 109.445312 216.882812 106.808594 213.789062 104.53125 C 210.265625 101.933594 206.855469 99.179688 203.429688 96.453125 C 196.445312 90.894531 189.675781 85.03125 182.875 79.25 C 176.265625 73.632812 169.660156 68.011719 163.050781 62.398438 C 159.554688 59.425781 156.054688 56.449219 152.554688 53.476562 C 151.84375 52.871094 151.117188 52.273438 150.398438 51.671875 C 150.339844 52.113281 150.324219 52.554688 150.214844 52.996094 C 149.828125 54.570312 149.214844 56.125 148.617188 57.628906 C 147.3125 60.933594 145.722656 64.066406 143.789062 67.046875 C 141.90625 69.945312 139.761719 72.703125 137.390625 75.222656 C 136.273438 76.414062 135.105469 77.582031 133.863281 78.644531 C 132.050781 80.191406 130.335938 80.511719 128.0625 80.808594 C 126.390625 81.027344 124.753906 78.84375 125.386719 77.296875 C 125.503906 77.015625 125.613281 76.734375 125.722656 76.457031 C 118.25 74.183594 111.496094 69.3125 104.816406 65.378906 C 97.167969 60.875 89.519531 56.378906 81.871094 51.871094 C 68.328125 43.890625 54.820312 35.851562 41.304688 27.828125 C 41.03125 28.699219 40.738281 29.558594 40.4375 30.367188 C 39.664062 32.503906 38.777344 34.605469 37.9375 36.714844 C 36.96875 39.167969 35.902344 41.578125 34.878906 44.011719 C 33.894531 46.339844 31.480469 49.90625 28.433594 48.621094 C 26.9375 47.992188 26.433594 46.367188 26.363281 44.859375 C 26.363281 44.832031 26.367188 44.808594 26.367188 44.785156 C 21.460938 43.921875 17.003906 41.097656 12.664062 38.667969 C 7.167969 35.585938 1.722656 32.40625 -3.734375 29.253906 C -9.191406 26.101562 -14.648438 22.949219 -20.109375 19.796875 C -24.113281 17.484375 -28.621094 15.390625 -32.550781 12.742188 C -32.617188 12.867188 -32.683594 12.996094 -32.75 13.125 C -32.769531 13.183594 -32.769531 13.1875 -32.808594 13.289062 C -32.929688 13.675781 -33.054688 14.0625 -33.148438 14.457031 C -33.15625 14.492188 -33.261719 15.101562 -33.289062 15.195312 C -33.324219 15.539062 -33.351562 15.878906 -33.355469 16.222656 C -33.363281 16.710938 -33.339844 17.199219 -33.304688 17.6875 C -33.289062 17.753906 -33.296875 17.746094 -33.289062 17.78125 Z M -33.289062 17.78125 " fill-opacity="1" fill-rule="nonzero"/></g></g></g></g><g clip-path="url(#b1523a1e19)"><g clip-path="url(#dc4ef73f14)"><g clip-path="url(#37d27d8f2f)"><path fill="#e2fb6c" d="M 510.496094 321.742188 C 482.75 298.59375 455.015625 275.425781 427.289062 252.292969 C 423.488281 249.128906 418.363281 254.847656 422.164062 258.011719 C 449.910156 281.160156 477.644531 304.328125 505.375 327.460938 C 509.171875 330.621094 514.296875 324.902344 510.496094 321.742188 Z M 510.496094 321.742188 " fill-opacity="1" fill-rule="nonzero"/></g></g></g><g clip-path="url(#3d449cc5ae)"><g clip-path="url(#b42e8c2686)"><g clip-path="url(#1cc55992c6)"><path fill="#e2fb6c" d="M 497.882812 297.890625 C 502.03125 307.832031 506.203125 317.789062 510.335938 327.75 L 513.796875 322.738281 C 501.0625 322.910156 488.320312 322.210938 475.691406 320.621094 C 473.644531 320.371094 471.605469 321.460938 471.160156 323.605469 C 470.773438 325.53125 472.082031 327.867188 474.144531 328.136719 C 487.429688 329.800781 500.8125 330.554688 514.214844 330.402344 C 516.550781 330.363281 518.59375 327.625 517.675781 325.390625 C 513.523438 315.449219 509.355469 305.492188 505.21875 295.53125 C 504.425781 293.617188 502.472656 292.382812 500.390625 293.058594 C 498.554688 293.648438 497.105469 295.957031 497.917969 297.886719 Z M 497.882812 297.890625 " fill-opacity="1" fill-rule="nonzero"/></g></g></g><g clip-path="url(#3c5a377765)"><path fill="#e2fb6c" d="M 282.484375 239.410156 C 282.484375 239.722656 282.453125 240.03125 282.394531 240.335938 C 282.332031 240.644531 282.242188 240.941406 282.125 241.230469 C 282.003906 241.519531 281.855469 241.792969 281.683594 242.050781 C 281.511719 242.3125 281.3125 242.554688 281.089844 242.773438 C 280.871094 242.996094 280.628906 243.191406 280.371094 243.367188 C 280.109375 243.539062 279.835938 243.683594 279.546875 243.804688 C 279.257812 243.925781 278.960938 244.015625 278.65625 244.074219 C 278.347656 244.136719 278.039062 244.167969 277.726562 244.167969 C 277.414062 244.167969 277.105469 244.136719 276.800781 244.074219 C 276.492188 244.015625 276.195312 243.925781 275.90625 243.804688 C 275.617188 243.683594 275.34375 243.539062 275.085938 243.367188 C 274.824219 243.191406 274.585938 242.996094 274.363281 242.773438 C 274.140625 242.554688 273.945312 242.3125 273.773438 242.050781 C 273.597656 241.792969 273.453125 241.519531 273.332031 241.230469 C 273.210938 240.941406 273.121094 240.644531 273.0625 240.335938 C 273 240.03125 272.96875 239.722656 272.96875 239.410156 C 272.96875 239.097656 273 238.789062 273.0625 238.480469 C 273.121094 238.175781 273.210938 237.878906 273.332031 237.589844 C 273.453125 237.300781 273.597656 237.027344 273.773438 236.765625 C 273.945312 236.507812 274.140625 236.265625 274.363281 236.046875 C 274.585938 235.824219 274.824219 235.628906 275.085938 235.453125 C 275.34375 235.28125 275.617188 235.132812 275.90625 235.015625 C 276.195312 234.894531 276.492188 234.804688 276.800781 234.742188 C 277.105469 234.683594 277.414062 234.652344 277.726562 234.652344 C 278.039062 234.652344 278.347656 234.683594 278.65625 234.742188 C 278.960938 234.804688 279.257812 234.894531 279.546875 235.015625 C 279.835938 235.132812 280.109375 235.28125 280.371094 235.453125 C 280.628906 235.628906 280.871094 235.824219 281.089844 236.046875 C 281.3125 236.265625 281.511719 236.507812 281.683594 236.765625 C 281.855469 237.027344 282.003906 237.300781 282.125 237.589844 C 282.242188 237.878906 282.332031 238.175781 282.394531 238.480469 C 282.453125 238.789062 282.484375 239.097656 282.484375 239.410156 Z M 282.484375 239.410156 " fill-opacity="1" fill-rule="nonzero"/></g></svg>