<svg xmlns="http://www.w3.org/2000/svg" xmlns:xlink="http://www.w3.org/1999/xlink" width="1024" zoomAndPan="magnify" viewBox="0 0 768 767.999994" height="1024" preserveAspectRatio="xMidYMid meet" version="1.0"><defs><clipPath id="d84cb2e4c9"><path d="M 238 181.289062 L 532 181.289062 L 532 584 L 238 584 Z M 238 181.289062 " clip-rule="nonzero"/></clipPath></defs><rect x="-76.8" width="921.6" fill="#ffffff" y="-76.799999" height="921.599993" fill-opacity="1"/><rect x="-76.8" width="921.6" fill="#004838" y="-76.799999" height="921.599993" fill-opacity="1"/><g clip-path="url(#d84cb2e4c9)"><path fill="#e2fb6c" d="M 278.503906 541.75 C 282.308594 546.09375 286.113281 550.433594 289.917969 554.777344 C 290.28125 555.1875 290.632812 555.609375 290.992188 556.027344 C 301.257812 572.222656 323.996094 580.226562 341.871094 582.839844 C 366.878906 586.492188 391.96875 580.855469 415.847656 573.683594 C 428.546875 569.871094 441.15625 565.738281 453.789062 561.722656 C 466.089844 557.816406 478.703125 554.417969 490.722656 549.71875 C 500.957031 545.722656 509.65625 539.992188 515.738281 530.664062 C 521.9375 521.132812 525.265625 509.554688 527.707031 498.5625 C 530.828125 484.515625 532.035156 469.988281 531.234375 455.621094 C 530.839844 448.570312 529.972656 441.535156 528.664062 434.59375 C 527.472656 428.261719 526.558594 421.8125 522.542969 416.6875 C 521.546875 412.960938 520.363281 409.285156 519.007812 405.667969 C 513.402344 390.738281 505.210938 377.027344 495.917969 364.109375 C 486.519531 351.046875 476.230469 338.636719 466.144531 326.109375 C 460.761719 319.417969 455.5 312.605469 449.886719 306.109375 C 449.539062 305.710938 448.136719 304.058594 446.410156 302.347656 C 448.933594 301.46875 451.144531 299.824219 452.699219 297.011719 C 454.535156 293.6875 454.070312 289.234375 451.519531 286.847656 C 451.8125 285.316406 451.292969 283.648438 449.527344 282.550781 C 447.734375 281.4375 445.863281 280.449219 443.988281 279.449219 C 444.667969 277.183594 444.726562 274.601562 445.183594 272.34375 C 445.835938 269.113281 446.679688 265.933594 447.710938 262.796875 C 449.875 256.214844 452.925781 249.96875 456.703125 244.167969 C 462.976562 234.539062 478.175781 224.277344 473.257812 211.046875 C 468.4375 198.078125 452.609375 201.464844 442.675781 204.558594 C 436.546875 206.464844 430.804688 207.117188 424.625 204.960938 C 423.113281 204.433594 421.632812 203.742188 420.1875 202.988281 C 418.679688 199.921875 415.761719 197.28125 413.355469 195.109375 C 409.726562 191.835938 405.664062 189.003906 401.253906 186.886719 C 396.613281 184.660156 392.003906 183.273438 386.886719 182.738281 C 385.128906 182.554688 383.375 182.542969 381.628906 182.660156 C 380.355469 181.578125 378.585938 181.152344 377.007812 182.257812 C 372.894531 185.152344 369.578125 188.863281 365.238281 191.542969 C 360.90625 194.214844 356.269531 196.304688 351.390625 197.773438 C 346.628906 199.207031 341.824219 199.960938 336.867188 200.21875 C 335.40625 200.292969 333.9375 200.347656 332.46875 200.433594 C 328.667969 194.460938 320.875 190.835938 314.527344 188.316406 C 307.472656 185.523438 299.714844 184.816406 292.414062 187.03125 C 285.328125 189.1875 278.996094 193.554688 273.921875 198.894531 C 268.8125 204.277344 262.949219 211.457031 261.359375 218.882812 C 260.195312 219.398438 259.242188 220.660156 259.367188 221.878906 C 259.742188 225.523438 262.335938 227.734375 264.824219 230.207031 C 267.40625 232.765625 269.976562 235.335938 272.53125 237.917969 C 277.78125 243.210938 282.988281 248.554688 288.148438 253.9375 C 293.175781 259.183594 298.175781 264.464844 303.148438 269.757812 C 305.632812 272.40625 308.035156 275.140625 310.714844 277.59375 C 313.144531 279.824219 315.832031 282.511719 318.964844 283.683594 C 316.972656 284.855469 315.191406 286.460938 313.890625 288.164062 C 310.839844 292.167969 310.957031 297.050781 313.292969 300.914062 C 307.566406 306.644531 304.980469 314.804688 301.652344 322.273438 C 297.355469 331.9375 293.050781 341.601562 288.75 351.269531 C 280 370.933594 271.285156 390.613281 262.554688 410.292969 C 258.121094 420.296875 253.675781 430.300781 249.242188 440.304688 C 245.207031 449.410156 240.921875 458.640625 239.171875 468.515625 C 235.886719 487.082031 244.160156 501.976562 255.789062 515.757812 C 263.207031 524.546875 270.921875 533.097656 278.503906 541.75 Z M 446.03125 290.214844 C 445.6875 291.824219 444.695312 293.433594 443.535156 294.082031 C 440.648438 295.683594 436.363281 293.9375 433.453125 293.085938 C 426.945312 291.183594 420.398438 289.566406 413.695312 288.5 C 400.527344 286.402344 387.148438 285.949219 373.882812 287.347656 C 360.917969 288.714844 348.308594 291.71875 336.09375 296.269531 C 332.910156 297.457031 317.652344 302.246094 320.054688 293.457031 C 320.753906 290.890625 323.65625 289.386719 325.679688 287.992188 C 326.628906 287.332031 327.296875 286.742188 327.863281 286.089844 C 335.195312 283.609375 342.394531 280.546875 349.878906 278.546875 C 360.585938 275.679688 371.503906 274.136719 382.589844 274.023438 C 404.960938 273.792969 425.464844 279.765625 445.183594 289.972656 C 445.472656 290.117188 445.746094 290.132812 446.03125 290.214844 Z M 316.769531 272.351562 C 314.523438 269.476562 312.070312 266.804688 309.609375 264.113281 C 304.574219 258.609375 299.464844 253.171875 294.308594 247.78125 C 289.28125 242.53125 284.214844 237.324219 279.101562 232.15625 C 276.542969 229.574219 273.980469 227.003906 271.402344 224.441406 C 269.960938 223.007812 268.539062 221.507812 266.921875 220.367188 C 271.152344 216.53125 274.25 211.355469 278.03125 207.117188 C 282.339844 202.289062 287.507812 197.859375 293.714844 195.738281 C 299.902344 193.625 306.210938 194.222656 312.199219 196.71875 C 315.925781 198.269531 319.273438 200.792969 322.804688 202.78125 C 322.558594 203.226562 322.523438 203.75 322.742188 204.210938 C 323.699219 206.234375 327 207.199219 329.007812 207.847656 C 331.613281 208.691406 334.570312 208.824219 337.285156 208.761719 C 342.945312 208.628906 348.691406 207.648438 354.101562 206.023438 C 359.398438 204.433594 364.546875 202.171875 369.273438 199.300781 C 373.664062 196.636719 378.730469 193.203125 381.902344 188.96875 C 383.238281 189.285156 384.570312 189.601562 385.890625 189.992188 C 389.839844 191.160156 393.820312 192.667969 397.460938 194.589844 C 401.011719 196.460938 404.355469 198.699219 407.324219 201.402344 C 411.3125 209.667969 422.019531 214.195312 430.550781 214.941406 C 437.207031 215.523438 443.183594 213.402344 449.457031 211.535156 C 453.933594 210.203125 462.605469 208.230469 465.027344 214.035156 C 467.644531 220.300781 459.199219 226.785156 455.722656 230.9375 C 451.707031 235.734375 448.164062 240.914062 445.246094 246.453125 C 442.34375 251.976562 439.972656 257.835938 438.273438 263.84375 C 437.339844 267.144531 435.933594 271.417969 435.617188 275.414062 C 428.226562 272.265625 420.433594 269.910156 412.492188 268.261719 C 413.261719 266.40625 413.871094 264.449219 414.566406 262.742188 C 416.289062 258.507812 417.78125 254.25 419.222656 249.914062 C 420.609375 245.753906 421.957031 241.582031 423.332031 237.421875 C 424.023438 235.339844 424.464844 233.195312 425.019531 231.074219 C 425.628906 228.753906 425.589844 226.398438 426.222656 224.105469 C 426.285156 223.882812 425.964844 223.742188 425.84375 223.949219 C 424.746094 225.878906 423.140625 227.375 421.996094 229.296875 C 420.878906 231.171875 419.6875 233.019531 418.679688 234.949219 C 416.578125 238.96875 414.5625 243.035156 412.53125 247.089844 C 410.554688 251.03125 408.644531 254.941406 406.921875 259.003906 C 405.90625 261.394531 404.417969 264.035156 403.582031 266.714844 C 396.554688 265.738281 389.5 265.234375 382.589844 265.308594 C 382.257812 265.3125 381.921875 265.347656 381.582031 265.351562 C 381.464844 265.085938 381.347656 264.820312 381.226562 264.550781 C 380.347656 262.535156 379.644531 260.375 379.125 258.238281 C 378.605469 256.113281 378.238281 253.957031 378.027344 251.78125 C 377.914062 250.585938 377.894531 249.386719 377.824219 248.191406 C 377.765625 247.203125 377.753906 246.074219 377.359375 245.160156 C 377.183594 244.757812 376.640625 244.800781 376.363281 245.035156 C 375.570312 245.703125 375.078125 247.019531 374.742188 247.984375 C 374.347656 249.101562 374.128906 250.273438 373.941406 251.4375 C 373.519531 254.066406 373.488281 256.683594 373.835938 259.324219 C 374.125 261.5 374.636719 263.574219 375.378906 265.621094 C 366.289062 266.207031 357.207031 267.683594 348.464844 270.140625 C 348.449219 270.144531 348.429688 270.152344 348.414062 270.15625 C 346.796875 266.628906 344.570312 263.171875 342.550781 260.066406 C 339.910156 256.011719 337.523438 251.894531 335.199219 247.65625 C 330.601562 239.273438 326.242188 230.238281 319.769531 223.136719 C 319.492188 222.835938 319.027344 223.160156 319.109375 223.519531 C 321.222656 232.769531 326.109375 241.449219 330.320312 249.90625 C 332.5 254.28125 334.546875 258.625 336.414062 263.140625 C 337.667969 266.171875 339.023438 269.542969 340.6875 272.597656 C 334.09375 274.933594 327.484375 278.0625 322.128906 282.324219 C 321.996094 282.367188 321.855469 282.402344 321.71875 282.449219 C 321.933594 281.972656 322.058594 281.457031 321.933594 280.9375 C 321.1875 277.800781 318.730469 274.859375 316.769531 272.351562 Z M 247.59375 470.835938 C 249.261719 460.976562 253.648438 451.777344 257.671875 442.710938 C 261.8125 433.371094 265.957031 424.039062 270.097656 414.699219 C 278.382812 396.023438 286.679688 377.351562 294.933594 358.664062 C 299.65625 347.980469 304.375 337.304688 309.097656 326.625 C 312.207031 319.585938 316.246094 312.558594 317.273438 305.027344 C 317.445312 305.136719 317.582031 305.277344 317.757812 305.375 C 322.214844 308.015625 326.855469 307.878906 331.445312 306.792969 C 330.859375 309.910156 330.660156 313.210938 330.125 316.199219 C 329.3125 320.730469 328.339844 325.230469 327.210938 329.691406 C 326.078125 334.148438 324.789062 338.5625 323.339844 342.929688 C 321.851562 347.425781 320.0625 351.882812 319.355469 356.585938 C 319.15625 357.929688 320.890625 359.523438 322.003906 358.125 C 327.804688 350.828125 330.511719 340.667969 333.101562 331.84375 C 334.445312 327.269531 335.621094 322.644531 336.621094 317.984375 C 337.515625 313.808594 338.890625 308.921875 338.648438 304.539062 C 339.472656 304.242188 340.292969 303.9375 341.105469 303.644531 C 351.0625 300.066406 361.445312 297.53125 371.953125 296.261719 C 372.804688 296.160156 373.648438 296.113281 374.5 296.027344 C 374.136719 297.664062 374.382812 299.527344 374.578125 301.167969 C 374.960938 304.375 375.328125 307.578125 375.671875 310.785156 C 376.011719 313.992188 376.386719 317.199219 376.796875 320.402344 C 376.988281 321.890625 377.054688 323.613281 377.691406 324.984375 C 378.371094 326.460938 379.324219 327.710938 379.570312 329.382812 C 379.605469 329.613281 379.980469 329.550781 379.976562 329.328125 C 379.945312 327.519531 380.878906 326.0625 381.183594 324.347656 C 381.453125 322.847656 381.320312 321.226562 381.269531 319.714844 C 381.15625 316.617188 381.019531 313.535156 380.847656 310.445312 C 380.675781 307.355469 380.507812 304.265625 380.398438 301.167969 C 380.339844 299.472656 380.347656 297.296875 379.65625 295.558594 C 394.042969 294.660156 408.121094 296.148438 422.128906 299.292969 C 422.871094 300.929688 423.648438 302.542969 424.429688 304.160156 C 426.082031 307.582031 427.738281 311 429.574219 314.332031 C 431.351562 317.550781 433.183594 320.796875 435.257812 323.835938 C 436.332031 325.40625 437.476562 326.9375 438.707031 328.386719 C 439.265625 329.042969 439.835938 329.667969 440.511719 330.207031 C 441.359375 330.886719 442.507812 331.199219 443.21875 332.058594 C 443.359375 332.226562 443.621094 332.011719 443.515625 331.832031 C 442.976562 330.925781 443.054688 329.695312 442.773438 328.699219 C 442.546875 327.910156 442.171875 327.160156 441.820312 326.421875 C 441.027344 324.753906 440.160156 323.117188 439.28125 321.492188 C 437.53125 318.234375 435.738281 315.011719 434.125 311.679688 C 432.523438 308.371094 430.96875 305.023438 429.6875 301.574219 C 429.632812 301.421875 429.589844 301.269531 429.535156 301.117188 C 430.355469 301.335938 431.179688 301.527344 432 301.757812 C 434.007812 302.316406 436.152344 302.769531 438.304688 303.003906 C 439.496094 306.96875 443.570312 311.4375 445.300781 313.691406 C 449.886719 319.664062 454.640625 325.503906 459.34375 331.382812 C 469.144531 343.648438 479.207031 355.757812 488.375 368.511719 C 496.996094 380.5 504.929688 393.238281 510.242188 407.070312 C 512.792969 413.714844 514.808594 420.589844 516.050781 427.601562 C 517.214844 434.175781 516.011719 443 519.429688 448.863281 C 520.03125 449.886719 521.046875 450.140625 522.003906 449.921875 C 522.085938 450.820312 522.226562 451.714844 522.296875 452.617188 C 523.171875 464.191406 522.789062 475.917969 520.960938 487.386719 C 519.195312 498.484375 516.46875 509.988281 511.589844 520.160156 C 506.800781 530.148438 499.445312 536.820312 489.214844 540.980469 C 478.941406 545.15625 468.054688 548.03125 457.492188 551.386719 C 445.8125 555.101562 434.140625 558.84375 422.449219 562.511719 C 400.003906 569.554688 376.753906 576.277344 352.984375 575.234375 C 342.15625 574.761719 331.195312 572.542969 321.214844 568.246094 C 314.488281 565.347656 308.847656 561.355469 303.394531 556.953125 C 299.582031 551.617188 294.589844 546.878906 290.386719 542.082031 C 283.726562 534.484375 277.070312 526.886719 270.414062 519.289062 C 258.25 505.417969 244.203125 490.863281 247.59375 470.835938 Z M 247.59375 470.835938 " fill-opacity="1" fill-rule="nonzero"/></g><path fill="#e2fb6c" d="M 375.855469 555.898438 C 378.160156 556.476562 379.1875 553.53125 377.398438 552.238281 C 359.117188 538.980469 336.914062 531.203125 324.5 511.121094 C 311.519531 490.117188 315.121094 464.875 319.445312 441.742188 C 319.507812 441.402344 319.027344 441.261719 318.917969 441.597656 C 314.839844 454.0625 310.582031 465.738281 309.722656 478.980469 C 308.921875 491.367188 310.261719 503.871094 316.621094 514.726562 C 328.894531 535.679688 352.746094 550.121094 375.855469 555.898438 Z M 375.855469 555.898438 " fill-opacity="1" fill-rule="nonzero"/><path fill="#e2fb6c" d="M 466.136719 527.832031 C 466.792969 527.523438 467.292969 527.949219 467.921875 527.925781 C 468.375 527.910156 468.730469 527.726562 469.125 527.519531 C 470.101562 527.011719 471.070312 526.425781 472.003906 525.835938 C 473.730469 524.75 475.363281 523.480469 476.921875 522.164062 C 480.273438 519.335938 483.464844 516.324219 486.460938 513.121094 C 489.414062 509.957031 492.179688 506.625 494.800781 503.183594 C 496.085938 501.488281 497.328125 499.710938 498.386719 497.867188 C 499.535156 495.859375 500.125 493.882812 500.722656 491.667969 C 501.144531 490.078125 499.167969 488.972656 498.003906 490.085938 C 496.527344 491.496094 495.152344 492.777344 493.886719 494.394531 C 492.546875 496.113281 491.289062 497.910156 490.003906 499.671875 C 487.566406 503.015625 484.988281 506.234375 482.21875 509.304688 C 479.492188 512.328125 476.625 515.242188 473.625 518 C 472.058594 519.441406 470.464844 520.867188 468.964844 522.382812 C 468.253906 523.097656 467.507812 523.792969 466.820312 524.53125 C 466.523438 524.851562 466.257812 525.140625 466.125 525.566406 C 465.933594 526.15625 466.191406 526.695312 465.679688 527.238281 C 465.375 527.5625 465.753906 528.007812 466.136719 527.832031 Z M 466.136719 527.832031 " fill-opacity="1" fill-rule="nonzero"/><path fill="#e2fb6c" d="M 394.785156 436.058594 C 407.773438 444.164062 423.746094 443.648438 438.519531 442.515625 C 442.433594 454.523438 433.335938 467.851562 420.167969 467.285156 C 412.78125 466.964844 408.773438 463.1875 404.105469 458.085938 C 400.253906 453.878906 393.199219 451.140625 388.980469 456.554688 C 379.988281 468.09375 402.542969 479.886719 410.742188 482.144531 C 413.480469 482.898438 416.417969 483.28125 419.40625 483.441406 C 419.40625 483.449219 419.40625 483.464844 419.40625 483.472656 C 420.503906 489.050781 421.59375 494.632812 422.691406 500.210938 C 422.988281 501.722656 424.355469 502.796875 425.730469 503.253906 C 431.753906 505.246094 437.644531 500.464844 439.34375 494.890625 C 440.238281 491.964844 439.875 488.605469 438.933594 485.742188 C 438.40625 484.140625 437.800781 482.183594 436.527344 481.007812 C 442.167969 478.988281 447.277344 475.792969 450.949219 471.246094 C 452.101562 469.820312 452.015625 467.878906 451.257812 466.402344 C 451.457031 466.042969 451.675781 465.683594 451.855469 465.320312 C 454.652344 459.691406 455.582031 453.253906 454.226562 447.09375 C 453.917969 445.671875 453.449219 444.289062 452.882812 442.953125 C 451.949219 437.449219 449.296875 432.257812 444.8125 428.828125 C 438.398438 423.910156 431.007812 425.003906 423.613281 426.644531 C 416.417969 428.242188 409.1875 428 402.898438 423.703125 C 397.246094 419.847656 394.289062 413.074219 395.480469 406.308594 C 396.925781 398.109375 404.335938 394.066406 412.171875 394.050781 C 421.601562 394.03125 428.964844 400.300781 437.925781 401.539062 C 437.550781 403.035156 438.652344 404.847656 440.308594 404.707031 C 441.679688 404.589844 442.847656 404.183594 443.832031 403.171875 C 444.238281 402.75 444.613281 402.269531 444.910156 401.761719 C 445.015625 401.582031 445.101562 401.398438 445.1875 401.210938 C 445.265625 401.027344 445.34375 400.839844 445.421875 400.65625 C 445.425781 400.667969 445.460938 400.621094 445.539062 400.5 C 445.667969 400.1875 445.804688 399.871094 445.9375 399.554688 C 446.101562 399.085938 446.199219 398.542969 446.207031 398.050781 C 446.222656 397.316406 446.082031 396.542969 445.890625 395.828125 C 445.515625 394.382812 444.757812 393.199219 443.804688 392.070312 C 442.328125 390.3125 440.335938 389.03125 438.40625 387.835938 C 438.167969 387.691406 437.9375 387.542969 437.703125 387.386719 C 437.664062 387.363281 437.484375 387.242188 437.359375 387.160156 C 437.054688 386.941406 436.761719 386.707031 436.476562 386.472656 C 436.457031 386.453125 436.46875 386.464844 436.457031 386.453125 C 436.429688 386.429688 436.429688 386.429688 436.378906 386.375 C 436.175781 386.183594 435.96875 386 435.773438 385.800781 C 435.699219 385.726562 435.699219 385.730469 435.664062 385.699219 C 435.644531 385.671875 435.636719 385.648438 435.546875 385.523438 C 435.257812 385.136719 434.957031 384.777344 434.605469 384.476562 C 434.445312 384.09375 434.253906 383.722656 433.914062 383.351562 C 433.421875 382.8125 432.667969 382.78125 432.054688 383.066406 C 429.140625 381.0625 425.9375 379.628906 422.558594 378.722656 C 422.140625 373.835938 421.253906 368.953125 418.710938 364.722656 C 415.511719 359.402344 409.703125 355.171875 403.269531 355.535156 C 401.144531 355.652344 398.613281 357.445312 398.917969 359.886719 C 399.226562 362.410156 399.507812 364.953125 399.800781 367.488281 C 399.917969 371.105469 400.71875 374.730469 401.351562 378.277344 C 401.417969 378.660156 401.613281 378.984375 401.804688 379.308594 C 390.144531 382.972656 380.214844 392.019531 378.273438 405.132812 C 376.378906 417.9375 384.261719 429.492188 394.785156 436.058594 Z M 429.898438 434.191406 C 430.023438 434.246094 430.144531 434.292969 430.265625 434.34375 C 429.644531 434.375 429.027344 434.40625 428.40625 434.429688 C 428.910156 434.332031 429.402344 434.269531 429.898438 434.191406 Z M 397.753906 464.289062 C 397.753906 464.441406 397.75 464.589844 397.753906 464.742188 C 396.886719 463.847656 395.859375 462.632812 396.027344 461.953125 C 395.933594 462.34375 396.890625 463.398438 397.753906 464.289062 Z M 408.34375 365.898438 C 408.347656 365.898438 408.347656 365.902344 408.351562 365.90625 C 408.347656 365.917969 408.347656 365.925781 408.347656 365.933594 C 408.347656 365.921875 408.347656 365.914062 408.34375 365.898438 Z M 409.070312 373.214844 C 409.335938 374.417969 409.597656 375.625 409.859375 376.828125 C 409.917969 377.085938 409.976562 377.339844 410.03125 377.59375 C 409.800781 377.613281 409.566406 377.675781 409.335938 377.699219 C 409.351562 377.519531 409.429688 377.355469 409.421875 377.171875 C 409.355469 375.855469 409.191406 374.539062 409.070312 373.214844 Z M 409.070312 373.214844 " fill-opacity="1" fill-rule="nonzero"/></svg>