<svg xmlns="http://www.w3.org/2000/svg" xmlns:xlink="http://www.w3.org/1999/xlink" width="1024" zoomAndPan="magnify" viewBox="0 0 768 767.999994" height="1024" preserveAspectRatio="xMidYMid meet" version="1.0"><defs><clipPath id="594127dd20"><path d="M 158 336 L 610 336 L 610 593.738281 L 158 593.738281 Z M 158 336 " clip-rule="nonzero"/></clipPath></defs><rect x="-76.8" width="921.6" fill="#ffffff" y="-76.799999" height="921.599993" fill-opacity="1"/><rect x="-76.8" width="921.6" fill="#004838" y="-76.799999" height="921.599993" fill-opacity="1"/><path fill="#e2fb6c" d="M 385.929688 361.105469 C 385.921875 361.105469 385.921875 361.105469 385.929688 361.105469 L 383.996094 361.105469 C 365.992188 361.105469 350.023438 352.453125 337.824219 336.078125 C 320.386719 312.691406 313.121094 275.261719 320.941406 249.015625 C 321.011719 248.789062 321.097656 248.558594 321.183594 248.328125 C 336.960938 209.765625 366.300781 220.058594 389.878906 228.332031 C 402.390625 232.722656 415.328125 237.257812 426.589844 235.78125 C 437.085938 234.410156 447 241.101562 449.644531 251.347656 C 456.601562 278.359375 448.859375 314.492188 431.210938 337.257812 C 419.125 352.863281 403.460938 361.105469 385.929688 361.105469 Z M 334.945312 253.5625 C 328.609375 275.40625 335.023438 307.699219 349.621094 327.28125 C 356.121094 335.992188 367.355469 346.382812 383.996094 346.382812 L 385.921875 346.382812 C 398.917969 346.382812 410.238281 340.277344 419.566406 328.238281 C 434.402344 309.089844 441.199219 277.621094 435.382812 255.027344 C 434.574219 251.921875 431.691406 249.964844 428.5 250.386719 C 413.765625 252.324219 399.140625 247.1875 385 242.230469 C 359.023438 233.105469 344.953125 229.464844 334.945312 253.5625 Z M 334.945312 253.5625 " fill-opacity="1" fill-rule="nonzero"/><path fill="#e2fb6c" d="M 326.148438 293.820312 C 324.539062 293.820312 322.90625 293.292969 321.546875 292.199219 C 313.9375 286.101562 300.382812 265.265625 301.933594 242.480469 C 302.703125 231.238281 307.609375 215.546875 326.1875 203.046875 C 327.976562 190.546875 340.9375 187.574219 351.558594 185.132812 C 359.371094 183.339844 368.21875 181.308594 375.644531 176.292969 C 378.207031 174.570312 381.558594 174.617188 384.070312 176.417969 C 386.574219 178.21875 387.695312 181.394531 386.871094 184.363281 C 385.367188 189.800781 385.144531 192.550781 385.171875 193.816406 C 387.453125 193.941406 392.140625 193.203125 395.707031 192.636719 C 400.617188 191.871094 406.175781 190.988281 412.472656 190.644531 C 430.359375 189.664062 451.121094 204.359375 460.734375 224.84375 C 470.941406 246.601562 466.867188 269.777344 449.558594 288.441406 C 446.796875 291.421875 442.140625 291.59375 439.15625 288.824219 C 436.175781 286.054688 436.003906 281.394531 438.773438 278.425781 C 456.601562 259.214844 451.839844 240.523438 447.410156 231.101562 C 440.441406 216.246094 425.117188 204.714844 413.289062 205.347656 C 407.738281 205.652344 402.5625 206.46875 398 207.1875 C 388.011719 208.757812 379.382812 210.109375 373.941406 204.003906 C 371.753906 201.550781 370.765625 198.492188 370.527344 195.15625 C 365.015625 197.152344 359.609375 198.386719 354.855469 199.480469 C 341.1875 202.613281 340.542969 203.792969 340.726562 206.746094 C 340.890625 209.488281 339.519531 212.09375 337.160156 213.503906 C 324.375 221.164062 317.464844 231.246094 316.628906 243.46875 C 315.46875 260.472656 326.40625 277.207031 330.757812 280.6875 C 333.929688 283.226562 334.4375 287.867188 331.898438 291.039062 C 330.453125 292.878906 328.304688 293.820312 326.148438 293.820312 Z M 326.148438 293.820312 " fill-opacity="1" fill-rule="nonzero"/><g clip-path="url(#594127dd20)"><path fill="#e2fb6c" d="M 471.203125 593.386719 L 296.84375 593.386719 C 292.78125 593.386719 289.484375 590.089844 289.484375 586.023438 L 289.484375 497.152344 C 285.59375 501.730469 281 506.9375 275.738281 512.734375 C 260.191406 529.875 246.886719 536.027344 235.050781 531.550781 C 209.992188 522.074219 207.195312 468.117188 206.550781 418.292969 L 206.503906 414.878906 C 206.476562 412.914062 205.546875 411.371094 203.8125 410.433594 C 193.402344 404.769531 174.25 393.082031 162.84375 378.53125 C 155.375 369.003906 156.832031 355.441406 166.152344 347.667969 C 175.582031 339.800781 189.597656 341.054688 197.464844 350.402344 C 206.878906 361.585938 221.785156 374.679688 239.296875 373.519531 C 248.765625 372.90625 256.933594 379.953125 257.882812 389.574219 L 260.144531 412.445312 C 273.917969 385.453125 297.582031 379.53125 316.246094 374.863281 C 338.082031 369.40625 348.566406 365.8125 348.328125 344.046875 C 348.28125 339.980469 351.546875 336.644531 355.613281 336.605469 C 359.6875 336.539062 363.011719 339.828125 363.050781 343.890625 C 363.425781 378.246094 340.257812 384.035156 319.8125 389.144531 C 294.792969 395.402344 268.921875 401.863281 264.199219 454.804688 C 263.863281 458.589844 260.699219 461.492188 256.902344 461.511719 C 256.894531 461.511719 256.882812 461.511719 256.867188 461.511719 C 253.078125 461.511719 249.917969 458.648438 249.542969 454.878906 L 243.234375 391.03125 C 243.070312 389.355469 241.777344 388.117188 240.265625 388.222656 C 216.597656 389.757812 197.8125 373.671875 186.203125 359.890625 C 183.539062 356.726562 178.804688 356.285156 175.648438 358.921875 C 172.410156 361.625 171.902344 366.234375 174.433594 369.457031 C 184.199219 381.925781 201.445312 392.382812 210.847656 397.503906 C 217.238281 400.980469 221.113281 407.402344 221.21875 414.667969 L 221.265625 418.101562 C 221.46875 433.820312 221.785156 457.574219 224.792969 478.804688 C 229.277344 510.398438 237.101562 516.589844 240.253906 517.789062 C 245.46875 519.761719 254.429688 514.316406 264.832031 502.855469 C 282.390625 483.492188 288.527344 475.039062 290.613281 471.722656 C 292.359375 468.949219 295.734375 467.667969 298.886719 468.578125 C 302.039062 469.488281 304.207031 472.371094 304.207031 475.652344 L 304.207031 578.671875 L 463.839844 578.671875 L 463.839844 475.640625 C 463.839844 472.363281 466.007812 469.476562 469.160156 468.566406 C 472.304688 467.65625 475.675781 468.941406 477.433594 471.710938 C 479.519531 475.027344 485.65625 483.480469 503.214844 502.84375 C 513.617188 514.308594 522.570312 519.753906 527.792969 517.777344 C 530.945312 516.578125 538.777344 510.398438 543.253906 478.804688 C 546.261719 457.582031 546.578125 433.832031 546.78125 418.101562 L 546.828125 414.667969 C 546.933594 407.394531 550.808594 400.980469 557.199219 397.503906 C 566.613281 392.375 583.847656 381.917969 593.613281 369.457031 C 596.144531 366.226562 595.636719 361.625 592.464844 358.980469 C 589.242188 356.285156 584.507812 356.726562 581.84375 359.890625 C 570.246094 373.671875 551.457031 389.757812 527.78125 388.222656 C 526.277344 388.128906 524.984375 389.355469 524.8125 391.03125 L 518.503906 454.878906 C 518.128906 458.648438 514.957031 461.511719 511.179688 461.511719 C 511.171875 461.511719 511.152344 461.511719 511.144531 461.511719 C 507.347656 461.492188 504.183594 458.589844 503.847656 454.804688 C 499.125 401.875 473.253906 395.414062 448.226562 389.164062 C 428.105469 384.140625 405.292969 378.4375 404.976562 345.425781 C 404.9375 341.363281 408.207031 338.035156 412.269531 337.996094 C 412.289062 337.996094 412.320312 337.996094 412.347656 337.996094 C 416.382812 337.996094 419.671875 341.246094 419.710938 345.292969 C 419.910156 365.996094 430.261719 369.503906 451.800781 374.882812 C 470.472656 379.539062 494.140625 385.453125 507.914062 412.457031 L 510.175781 389.585938 C 511.125 379.960938 519.289062 372.898438 528.761719 373.53125 C 546.261719 374.6875 561.179688 361.597656 570.589844 350.410156 C 578.460938 341.054688 592.484375 339.808594 601.839844 347.609375 C 611.230469 355.441406 612.679688 369.003906 605.222656 378.53125 C 593.824219 393.082031 574.664062 404.769531 564.253906 410.433594 C 562.519531 411.371094 561.589844 412.914062 561.5625 414.890625 L 561.511719 418.300781 C 560.863281 468.125 558.074219 522.074219 533.007812 531.550781 C 521.167969 536.027344 507.863281 529.875 492.316406 512.734375 C 487.054688 506.9375 482.464844 501.730469 478.574219 497.152344 L 478.574219 586.023438 C 478.5625 590.089844 475.265625 593.386719 471.203125 593.386719 Z M 471.203125 593.386719 " fill-opacity="1" fill-rule="nonzero"/></g><path fill="#e2fb6c" d="M 384.023438 415.339844 C 363.339844 415.339844 343.5625 403.960938 326.828125 382.425781 C 324.335938 379.214844 324.910156 374.59375 328.121094 372.09375 C 331.332031 369.601562 335.953125 370.175781 338.457031 373.386719 C 352.296875 391.195312 368.054688 400.609375 384.023438 400.609375 C 399.992188 400.609375 415.742188 391.195312 429.582031 373.394531 C 432.074219 370.183594 436.703125 369.609375 439.914062 372.101562 C 443.125 374.59375 443.703125 379.222656 441.210938 382.433594 C 424.472656 403.960938 404.699219 415.339844 384.023438 415.339844 Z M 384.023438 415.339844 " fill-opacity="1" fill-rule="nonzero"/></svg>