<svg xmlns="http://www.w3.org/2000/svg" xmlns:xlink="http://www.w3.org/1999/xlink" width="1024" zoomAndPan="magnify" viewBox="0 0 768 767.999994" height="1024" preserveAspectRatio="xMidYMid meet" version="1.0"><defs><clipPath id="40cc6534dd"><path d="M 379 230.398438 L 535.320312 230.398438 L 535.320312 392 L 379 392 Z M 379 230.398438 " clip-rule="nonzero"/></clipPath><clipPath id="f15c7ea902"><path d="M 409 230.398438 L 535.320312 230.398438 L 535.320312 361 L 409 361 Z M 409 230.398438 " clip-rule="nonzero"/></clipPath><clipPath id="8e80164aef"><path d="M 232.320312 444 L 327 444 L 327 537.898438 L 232.320312 537.898438 Z M 232.320312 444 " clip-rule="nonzero"/></clipPath><clipPath id="6c8d676883"><path d="M 232.320312 482 L 289 482 L 289 537.898438 L 232.320312 537.898438 Z M 232.320312 482 " clip-rule="nonzero"/></clipPath><clipPath id="0a7e76419a"><path d="M 232.320312 230.398438 L 460 230.398438 L 460 463 L 232.320312 463 Z M 232.320312 230.398438 " clip-rule="nonzero"/></clipPath><clipPath id="b331cf207b"><path d="M 232.320312 230.398438 L 359 230.398438 L 359 361 L 232.320312 361 Z M 232.320312 230.398438 " clip-rule="nonzero"/></clipPath><clipPath id="5a23472cae"><path d="M 441 444 L 535.320312 444 L 535.320312 537.898438 L 441 537.898438 Z M 441 444 " clip-rule="nonzero"/></clipPath><clipPath id="86bacc0d5a"><path d="M 479 482 L 535.320312 482 L 535.320312 537.898438 L 479 537.898438 Z M 479 482 " clip-rule="nonzero"/></clipPath></defs><rect x="-76.8" width="921.6" fill="#ffffff" y="-76.799999" height="921.599993" fill-opacity="1"/><rect x="-76.8" width="921.6" fill="#ebede8" y="-76.799999" height="921.599993" fill-opacity="1"/><g clip-path="url(#40cc6534dd)"><path fill="#004838" d="M 420.847656 391.5625 C 419.566406 391.5625 418.292969 391.054688 417.347656 390.046875 C 415.539062 388.117188 415.640625 385.082031 417.570312 383.273438 L 525.5625 282.171875 L 525.5625 240.484375 L 483.945312 240.484375 L 387.574219 348.613281 C 385.8125 350.589844 382.785156 350.765625 380.808594 349.003906 C 378.832031 347.242188 378.65625 344.210938 380.417969 342.238281 L 478.21875 232.503906 C 479.128906 231.484375 480.429688 230.898438 481.796875 230.898438 L 530.355469 230.898438 C 533.003906 230.898438 535.148438 233.046875 535.148438 235.691406 L 535.148438 284.25 C 535.148438 285.574219 534.597656 286.839844 533.628906 287.746094 L 424.121094 390.269531 C 423.195312 391.136719 422.019531 391.5625 420.847656 391.5625 Z M 420.847656 391.5625 " fill-opacity="1" fill-rule="nonzero"/></g><path fill="#004838" d="M 345.507812 462.101562 C 344.277344 462.101562 343.050781 461.632812 342.117188 460.695312 L 309.742188 428.320312 C 307.945312 426.527344 307.863281 423.640625 309.554688 421.746094 L 343.570312 383.582031 C 345.328125 381.609375 348.359375 381.433594 350.335938 383.195312 C 352.308594 384.957031 352.484375 387.984375 350.722656 389.960938 L 319.71875 424.746094 L 345.613281 450.640625 L 380.71875 417.773438 C 382.652344 415.964844 385.683594 416.0625 387.492188 417.996094 C 389.304688 419.925781 389.203125 422.960938 387.269531 424.769531 L 348.78125 460.808594 C 347.859375 461.671875 346.679688 462.101562 345.507812 462.101562 Z M 345.507812 462.101562 " fill-opacity="1" fill-rule="nonzero"/><g clip-path="url(#f15c7ea902)"><path fill="#004838" d="M 414.292969 360.9375 C 413.097656 360.9375 411.898438 360.492188 410.96875 359.59375 C 409.0625 357.757812 409.007812 354.726562 410.84375 352.820312 L 526.90625 232.367188 C 528.742188 230.460938 531.777344 230.402344 533.679688 232.242188 C 535.585938 234.078125 535.644531 237.109375 533.808594 239.015625 L 417.746094 359.46875 C 416.804688 360.445312 415.550781 360.9375 414.292969 360.9375 Z M 414.292969 360.9375 " fill-opacity="1" fill-rule="nonzero"/></g><path fill="#004838" d="M 349.550781 498.519531 C 348.324219 498.519531 347.097656 498.050781 346.160156 497.113281 L 273.324219 424.277344 C 272.425781 423.378906 271.921875 422.160156 271.921875 420.886719 C 271.921875 419.617188 272.425781 418.398438 273.324219 417.5 L 289.511719 401.3125 C 291.382812 399.441406 294.414062 399.441406 296.285156 401.3125 L 369.125 474.152344 C 370.996094 476.023438 370.996094 479.058594 369.125 480.929688 L 352.9375 497.113281 C 352.003906 498.050781 350.777344 498.519531 349.550781 498.519531 Z M 283.488281 420.890625 L 349.550781 486.949219 L 358.960938 477.539062 L 292.898438 411.480469 Z M 283.488281 420.890625 " fill-opacity="1" fill-rule="nonzero"/><g clip-path="url(#8e80164aef)"><path fill="#004838" d="M 260.527344 537.59375 C 253.132812 537.59375 246.179688 534.714844 240.953125 529.488281 C 235.722656 524.257812 232.84375 517.308594 232.84375 509.914062 C 232.84375 502.519531 235.722656 495.566406 240.953125 490.339844 C 247.242188 484.050781 256.203125 481.199219 264.898438 482.578125 L 301.648438 445.824219 C 303.519531 443.953125 306.554688 443.953125 308.425781 445.824219 L 324.613281 462.011719 C 325.511719 462.910156 326.015625 464.128906 326.015625 465.402344 C 326.015625 466.671875 325.511719 467.890625 324.613281 468.789062 L 287.863281 505.539062 C 289.238281 514.234375 286.390625 523.199219 280.101562 529.488281 C 274.871094 534.714844 267.921875 537.59375 260.527344 537.59375 Z M 260.558594 491.820312 C 255.808594 491.820312 251.160156 493.683594 247.730469 497.113281 C 244.308594 500.53125 242.429688 505.078125 242.429688 509.914062 C 242.429688 514.746094 244.308594 519.292969 247.730469 522.710938 C 251.148438 526.128906 255.691406 528.011719 260.527344 528.011719 C 265.359375 528.011719 269.90625 526.128906 273.324219 522.710938 C 277.878906 518.15625 279.675781 511.453125 278.007812 505.222656 C 277.570312 503.570312 278.042969 501.804688 279.25 500.597656 L 314.445312 465.402344 L 305.039062 455.992188 L 269.84375 491.1875 C 268.632812 492.398438 266.871094 492.871094 265.21875 492.429688 C 263.679688 492.019531 262.113281 491.820312 260.558594 491.820312 Z M 260.558594 491.820312 " fill-opacity="1" fill-rule="nonzero"/></g><g clip-path="url(#6c8d676883)"><path fill="#004838" d="M 260.492188 537.59375 C 245.246094 537.59375 232.84375 525.191406 232.84375 509.945312 C 232.84375 494.699219 245.246094 482.296875 260.492188 482.296875 C 275.738281 482.296875 288.140625 494.699219 288.140625 509.945312 C 288.140625 525.191406 275.738281 537.59375 260.492188 537.59375 Z M 260.492188 491.882812 C 250.53125 491.882812 242.429688 499.984375 242.429688 509.945312 C 242.429688 519.90625 250.53125 528.011719 260.492188 528.011719 C 270.453125 528.011719 278.558594 519.90625 278.558594 509.945312 C 278.558594 499.984375 270.453125 491.882812 260.492188 491.882812 Z M 260.492188 491.882812 " fill-opacity="1" fill-rule="nonzero"/></g><g clip-path="url(#0a7e76419a)"><path fill="#004838" d="M 422.488281 462.101562 C 421.3125 462.101562 420.136719 461.671875 419.214844 460.804688 L 234.359375 287.746094 C 233.394531 286.84375 232.84375 285.574219 232.84375 284.25 L 232.84375 235.691406 C 232.84375 233.042969 234.988281 230.898438 237.636719 230.898438 L 286.195312 230.898438 C 287.558594 230.898438 288.863281 231.484375 289.769531 232.503906 L 458.4375 421.746094 C 460.128906 423.644531 460.042969 426.527344 458.25 428.324219 L 425.875 460.695312 C 424.941406 461.628906 423.714844 462.101562 422.488281 462.101562 Z M 242.429688 282.171875 L 422.378906 450.640625 L 448.273438 424.746094 L 284.046875 240.484375 L 242.429688 240.484375 Z M 242.429688 282.171875 " fill-opacity="1" fill-rule="nonzero"/></g><g clip-path="url(#b331cf207b)"><path fill="#004838" d="M 353.699219 360.9375 C 352.441406 360.9375 351.1875 360.445312 350.246094 359.46875 L 234.183594 239.015625 C 232.347656 237.109375 232.40625 234.078125 234.308594 232.242188 C 236.214844 230.402344 239.25 230.460938 241.085938 232.367188 L 357.148438 352.820312 C 358.984375 354.726562 358.929688 357.757812 357.023438 359.59375 C 356.09375 360.492188 354.894531 360.9375 353.699219 360.9375 Z M 353.699219 360.9375 " fill-opacity="1" fill-rule="nonzero"/></g><path fill="#004838" d="M 418.441406 498.519531 C 417.214844 498.519531 415.988281 498.050781 415.054688 497.113281 L 398.867188 480.929688 C 397.96875 480.03125 397.464844 478.8125 397.464844 477.539062 C 397.464844 476.269531 397.96875 475.050781 398.867188 474.152344 L 471.703125 401.3125 C 473.578125 399.441406 476.609375 399.441406 478.480469 401.3125 L 494.667969 417.5 C 496.539062 419.371094 496.539062 422.40625 494.667969 424.277344 L 421.832031 497.113281 C 420.894531 498.050781 419.667969 498.519531 418.441406 498.519531 Z M 409.03125 477.539062 L 418.441406 486.949219 L 484.503906 420.886719 L 475.09375 411.480469 Z M 409.03125 477.539062 " fill-opacity="1" fill-rule="nonzero"/><g clip-path="url(#5a23472cae)"><path fill="#004838" d="M 507.464844 537.59375 C 500.070312 537.59375 493.117188 534.714844 487.890625 529.488281 C 481.601562 523.199219 478.75 514.234375 480.128906 505.539062 L 443.378906 468.789062 C 441.507812 466.917969 441.507812 463.882812 443.378906 462.011719 L 459.566406 445.824219 C 461.4375 443.953125 464.46875 443.953125 466.34375 445.824219 L 503.09375 482.578125 C 511.789062 481.199219 520.75 484.046875 527.039062 490.339844 C 532.269531 495.566406 535.148438 502.519531 535.148438 509.914062 C 535.148438 517.308594 532.269531 524.257812 527.039062 529.488281 C 521.8125 534.714844 514.859375 537.59375 507.464844 537.59375 Z M 453.542969 465.402344 L 488.742188 500.597656 C 489.949219 501.808594 490.421875 503.570312 489.980469 505.222656 C 488.316406 511.453125 490.113281 518.15625 494.667969 522.710938 C 498.085938 526.128906 502.632812 528.011719 507.464844 528.011719 C 512.300781 528.011719 516.84375 526.128906 520.261719 522.710938 C 523.679688 519.292969 525.5625 514.746094 525.5625 509.914062 C 525.5625 505.078125 523.679688 500.535156 520.261719 497.113281 C 515.707031 492.5625 509.007812 490.765625 502.773438 492.429688 C 501.121094 492.871094 499.359375 492.398438 498.148438 491.1875 L 462.953125 455.992188 Z M 453.542969 465.402344 " fill-opacity="1" fill-rule="nonzero"/></g><g clip-path="url(#86bacc0d5a)"><path fill="#004838" d="M 507.5 537.59375 C 492.253906 537.59375 479.851562 525.191406 479.851562 509.945312 C 479.851562 494.699219 492.253906 482.296875 507.5 482.296875 C 522.746094 482.296875 535.148438 494.699219 535.148438 509.945312 C 535.148438 525.191406 522.746094 537.59375 507.5 537.59375 Z M 507.5 491.882812 C 497.539062 491.882812 489.433594 499.984375 489.433594 509.945312 C 489.433594 519.90625 497.539062 528.011719 507.5 528.011719 C 517.460938 528.011719 525.5625 519.90625 525.5625 509.945312 C 525.5625 499.984375 517.460938 491.882812 507.5 491.882812 Z M 507.5 491.882812 " fill-opacity="1" fill-rule="nonzero"/></g></svg>