<svg xmlns="http://www.w3.org/2000/svg" xmlns:xlink="http://www.w3.org/1999/xlink" width="1024" zoomAndPan="magnify" viewBox="0 0 768 767.999994" height="1024" preserveAspectRatio="xMidYMid meet" version="1.0"><defs><clipPath id="f6efc63c7a"><path d="M 190 231 L 578.074219 231 L 578.074219 538 L 190 538 Z M 190 231 " clip-rule="nonzero"/></clipPath></defs><rect x="-76.8" width="921.6" fill="#ffffff" y="-76.799999" height="921.599993" fill-opacity="1"/><rect x="-76.8" width="921.6" fill="#ebede8" y="-76.799999" height="921.599993" fill-opacity="1"/><g clip-path="url(#f6efc63c7a)"><path fill="#004838" d="M 542.832031 266.480469 C 518.222656 247.828125 486.703125 240.085938 456.703125 235.4375 C 424.386719 230.425781 391.445312 229.839844 358.992188 233.941406 C 308.320312 240.347656 248.558594 256.796875 217.179688 300.203125 C 213.851562 302.539062 210.9375 305.871094 208.582031 308.699219 C 204.417969 313.695312 200.945312 319.203125 198.179688 325.089844 C 192.660156 336.847656 189.769531 350 190.042969 363 C 190.613281 389.722656 204.917969 414.242188 227.699219 428.085938 C 234.027344 431.929688 240.933594 434.972656 248.050781 437.007812 C 251.734375 438.0625 254.945312 438.496094 258.765625 438.148438 C 259.152344 438.113281 259.539062 438.109375 259.921875 438.089844 C 256.488281 442.359375 253.050781 446.632812 249.898438 451.09375 C 246.613281 455.746094 243.988281 460.957031 243.296875 466.640625 C 242.746094 467.324219 242.289062 468.113281 241.886719 468.886719 C 240.925781 470.734375 240.230469 472.753906 239.796875 474.792969 C 238.894531 479.058594 238.785156 483.757812 240.402344 487.867188 C 241.929688 491.75 244.191406 495.289062 247.253906 498.15625 C 248.386719 499.214844 250.046875 500.628906 251.871094 501.753906 C 248.929688 504.523438 245.953125 507.261719 243.023438 510.042969 C 239.105469 513.753906 235.199219 517.484375 231.304688 521.21875 C 229.433594 523.011719 227.519531 524.765625 225.746094 526.648438 C 223.625 528.890625 222.664062 531.234375 221.0625 533.8125 C 219.796875 535.851562 222.292969 538.21875 224.304688 537.050781 C 225.371094 536.425781 226.390625 535.925781 227.382812 535.402344 C 227.3125 536.144531 227.832031 536.890625 228.703125 536.917969 C 237.808594 537.257812 245.988281 532.597656 254.117188 528.875 C 263.320312 524.660156 272.386719 520.128906 281.347656 515.4375 C 299.003906 506.203125 316.203125 496.132812 332.941406 485.332031 C 336.003906 483.355469 335.46875 478.714844 331.9375 477.628906 C 329.640625 476.921875 327.796875 475.527344 326.460938 473.785156 C 328.96875 472.5625 331.40625 471.210938 333.960938 470.066406 C 338.96875 467.828125 344.296875 466.148438 349.636719 464.921875 C 359.183594 462.730469 369.148438 462.097656 378.914062 462.109375 C 400.394531 462.121094 421.785156 465.019531 443.214844 462.261719 C 477.492188 457.847656 509.910156 442.167969 535.210938 418.695312 C 542.144531 412.261719 548.300781 404.773438 554.003906 397.234375 C 555.617188 395.097656 557.1875 392.957031 558.675781 390.777344 C 571 374.113281 578.480469 353.824219 578.382812 332.980469 C 578.257812 305.972656 564.003906 282.53125 542.832031 266.480469 Z M 257.753906 431.144531 C 254.640625 429.828125 251.339844 429.242188 248.121094 428.226562 C 240.75 425.898438 233.8125 422.371094 227.480469 417.957031 C 215.0625 409.300781 204.042969 396.636719 198.984375 382.253906 C 193.828125 367.585938 193.90625 351.523438 198.515625 336.726562 C 200.148438 331.484375 202.363281 326.496094 205.035156 321.734375 C 194.910156 346.820312 195.589844 376.835938 211.867188 399.269531 C 224.984375 417.355469 249.238281 429.011719 271.179688 424.152344 C 271.078125 424.265625 270.976562 424.367188 270.875 424.480469 C 268.503906 427.234375 266.269531 430.113281 264.023438 432.964844 C 261.921875 432.492188 259.816406 432.015625 257.753906 431.144531 Z M 253.375 492.398438 C 251.175781 490.445312 249.355469 488.0625 248.246094 485.4375 C 247.710938 484.171875 247.28125 482.855469 246.929688 481.519531 C 247.699219 482.46875 248.574219 483.324219 249.613281 483.972656 C 250.910156 484.789062 252.3125 484.667969 253.449219 484.039062 C 253.5 484.097656 253.558594 484.167969 253.609375 484.222656 C 256.328125 487.148438 259.472656 489.488281 262.875 491.441406 C 261.371094 492.835938 259.882812 494.25 258.378906 495.652344 C 256.707031 494.46875 254.671875 493.546875 253.375 492.398438 Z M 440.867188 454.113281 C 419.558594 456.582031 398.195312 453.5 376.84375 453.957031 C 366.398438 454.179688 356.050781 455.375 346 458.324219 C 338.699219 460.472656 330.269531 463.714844 324.359375 469.085938 C 323.960938 466.757812 324.339844 464.273438 325.671875 462 C 326.394531 460.777344 327.308594 459.667969 328.332031 458.628906 C 329.636719 458.207031 330.945312 457.578125 332.050781 457.113281 C 334.421875 456.113281 336.703125 454.984375 339.035156 453.90625 C 343.601562 451.792969 348.367188 450.128906 353.273438 448.996094 C 358.019531 447.902344 362.855469 447.351562 367.730469 447.332031 C 370.273438 447.320312 372.8125 447.445312 375.34375 447.71875 C 377.988281 448 380.691406 448.417969 382.734375 446.339844 C 382.765625 446.308594 382.777344 446.269531 382.808594 446.238281 C 396.378906 447.253906 410.144531 447.046875 423.6875 446.601562 C 439.972656 446.066406 456.304688 444.558594 472.265625 441.195312 C 483.527344 438.824219 494.675781 435.378906 505.359375 430.863281 C 500.601562 433.886719 495.726562 436.761719 490.605469 439.28125 C 475.0625 446.929688 458.097656 452.121094 440.867188 454.113281 Z M 548.511719 390.195312 C 529.84375 412.269531 502.722656 425.328125 475.003906 431.929688 C 458.523438 435.859375 441.605469 437.519531 424.695312 438.117188 C 407.492188 438.722656 390.230469 437.382812 373.078125 438.542969 C 372.445312 438.585938 371.933594 438.757812 371.488281 438.996094 C 370.234375 438.9375 368.984375 438.898438 367.730469 438.910156 C 362.132812 438.957031 356.5 439.652344 351.050781 440.929688 C 346.101562 442.085938 341.238281 443.808594 336.65625 446.015625 C 327.269531 447.328125 318.195312 453.78125 316.074219 463.539062 C 314.546875 470.570312 317.480469 477.441406 322.679688 481.835938 C 308.117188 491.03125 293.226562 499.707031 277.976562 507.726562 C 269.308594 512.285156 260.519531 516.617188 251.664062 520.808594 C 246.707031 523.152344 241.40625 525.148438 236.59375 527.828125 C 236.820312 527.609375 237.042969 527.390625 237.273438 527.171875 C 241.160156 523.425781 245.0625 519.695312 248.976562 515.976562 C 256.957031 508.386719 265.011719 500.875 273.054688 493.359375 C 275.5625 491.019531 273.964844 487.449219 271.207031 486.363281 C 266.601562 484.558594 262.449219 481.664062 259 478.140625 C 256.621094 475.710938 254.335938 472.042969 251.550781 469.730469 C 251.511719 468.535156 251.601562 467.335938 251.835938 466.175781 C 252.964844 460.652344 256.550781 455.894531 259.933594 451.53125 C 263.851562 446.46875 267.84375 441.46875 271.757812 436.40625 C 275.199219 431.949219 280.3125 426.945312 280.433594 421.011719 C 281.792969 420.378906 283.144531 419.703125 284.464844 418.910156 C 286.3125 417.804688 285.113281 414.789062 282.984375 415.398438 C 259.964844 421.984375 233.515625 414.746094 219.125 395.019531 C 203.996094 374.269531 203.300781 345.8125 213.578125 322.835938 C 236.539062 271.503906 297.167969 252.148438 348.363281 243.894531 C 377.914062 239.128906 408.15625 238.378906 437.929688 241.433594 C 466.527344 244.371094 496.808594 250.007812 522.460938 263.535156 C 545.082031 275.460938 564.480469 295.257812 568.960938 321.230469 C 573.167969 345.574219 564.253906 371.582031 548.511719 390.195312 Z M 548.511719 390.195312 " fill-opacity="1" fill-rule="nonzero"/></g><path fill="#004838" d="M 294.308594 322.390625 C 292.589844 321.234375 290.242188 320.570312 288.445312 321.945312 C 288.007812 322.277344 287.546875 322.585938 287.167969 322.984375 C 287.035156 323.128906 286.910156 323.277344 286.78125 323.421875 C 286.160156 322.582031 285.140625 322.226562 284.066406 322.4375 C 281.789062 322.878906 280.082031 324.21875 278.710938 326.023438 C 277.417969 327.726562 276.816406 329.71875 276.589844 331.820312 C 276.136719 336.085938 278.542969 340.515625 282.496094 342.273438 C 284.5 343.15625 286.652344 343.660156 288.851562 343.421875 C 291.382812 343.148438 293.589844 342.292969 295.574219 340.675781 C 298.992188 337.890625 300.117188 332.84375 298.855469 328.71875 C 298.066406 326.136719 296.566406 323.902344 294.308594 322.390625 Z M 291.277344 332.285156 C 291.292969 332.367188 291.300781 332.453125 291.3125 332.53125 C 291.300781 332.449219 291.285156 332.367188 291.277344 332.285156 Z M 282.53125 325.980469 C 282.53125 325.976562 282.527344 325.972656 282.527344 325.972656 C 282.515625 325.808594 282.519531 325.839844 282.53125 325.980469 Z M 288.269531 335.632812 C 287.847656 335.65625 287.429688 335.65625 287.007812 335.628906 C 286.648438 335.554688 286.292969 335.460938 285.941406 335.34375 C 285.617188 335.183594 285.304688 335.003906 285.007812 334.800781 C 284.84375 334.648438 284.679688 334.488281 284.53125 334.320312 C 284.414062 334.136719 284.300781 333.945312 284.195312 333.746094 C 284.058594 333.363281 283.949219 332.972656 283.863281 332.574219 C 283.828125 332.089844 283.824219 331.613281 283.867188 331.128906 C 283.957031 330.71875 284.039062 330.3125 284.164062 329.902344 C 284.199219 329.792969 284.234375 329.679688 284.269531 329.570312 C 284.363281 329.378906 284.460938 329.183594 284.566406 328.996094 C 285.023438 329.355469 285.585938 329.578125 286.15625 329.421875 C 286.382812 329.355469 286.609375 329.296875 286.835938 329.234375 C 286.925781 329.207031 287.011719 329.183594 287.101562 329.160156 C 287.722656 329.304688 288.414062 329.246094 289 329.164062 C 289.128906 329.148438 289.261719 329.132812 289.390625 329.109375 C 289.492188 329.097656 289.59375 329.085938 289.691406 329.074219 C 289.707031 329.074219 289.714844 329.066406 289.726562 329.0625 C 289.890625 329.238281 290.070312 329.398438 290.226562 329.582031 C 290.453125 329.914062 290.648438 330.253906 290.824219 330.613281 C 290.96875 331.03125 291.085938 331.457031 291.167969 331.886719 C 291.199219 332.265625 291.195312 332.648438 291.171875 333.027344 C 291.105469 333.355469 291.019531 333.675781 290.914062 333.992188 C 290.847656 334.121094 290.769531 334.25 290.691406 334.371094 C 290.519531 334.5625 290.335938 334.746094 290.144531 334.917969 C 289.929688 335.058594 289.703125 335.1875 289.472656 335.304688 C 289.078125 335.445312 288.675781 335.550781 288.269531 335.632812 Z M 291.3125 332.550781 C 291.3125 332.558594 291.316406 332.570312 291.316406 332.578125 C 291.316406 332.570312 291.3125 332.5625 291.3125 332.550781 Z M 291.3125 332.550781 " fill-opacity="1" fill-rule="nonzero"/><path fill="#004838" d="M 374.957031 337.074219 C 374.972656 336.972656 375.003906 336.878906 375.023438 336.777344 C 375.023438 336.742188 375.023438 336.707031 375.023438 336.675781 C 374.945312 336.917969 374.933594 337.050781 374.957031 337.074219 Z M 374.957031 337.074219 " fill-opacity="1" fill-rule="nonzero"/><path fill="#004838" d="M 371.539062 340.175781 C 371.589844 340.175781 371.644531 340.179688 371.695312 340.179688 C 371.707031 340.179688 371.707031 340.175781 371.714844 340.175781 C 371.753906 340.171875 371.800781 340.160156 371.828125 340.15625 C 371.847656 340.152344 371.886719 340.128906 371.910156 340.125 C 371.90625 340.09375 371.777344 340.09375 371.539062 340.175781 Z M 371.539062 340.175781 " fill-opacity="1" fill-rule="nonzero"/><path fill="#004838" d="M 366.421875 333.511719 C 366.40625 333.566406 366.394531 333.625 366.382812 333.679688 C 366.375 333.726562 366.359375 333.773438 366.355469 333.828125 C 366.523438 333.359375 366.480469 333.332031 366.421875 333.511719 Z M 366.421875 333.511719 " fill-opacity="1" fill-rule="nonzero"/><path fill="#004838" d="M 374.5625 335.136719 C 374.550781 335.117188 374.542969 335.105469 374.535156 335.089844 C 374.492188 335.015625 374.457031 334.976562 374.417969 334.933594 C 374.390625 334.902344 374.351562 334.878906 374.324219 334.851562 C 374.273438 334.832031 374.332031 334.921875 374.5625 335.136719 Z M 374.5625 335.136719 " fill-opacity="1" fill-rule="nonzero"/><path fill="#004838" d="M 378.464844 327.488281 C 377.21875 326.609375 375.851562 326.160156 374.351562 325.976562 C 372.558594 325.761719 370.851562 326.203125 369.351562 327.078125 C 369.433594 326.480469 369.332031 325.855469 369.035156 325.3125 C 368.984375 325.222656 368.910156 325.152344 368.855469 325.0625 C 368.832031 325.03125 368.835938 324.996094 368.816406 324.96875 C 368.792969 324.941406 368.777344 324.914062 368.757812 324.886719 C 368.753906 324.894531 368.746094 324.898438 368.742188 324.910156 C 368.589844 324.695312 368.445312 324.472656 368.277344 324.273438 C 367.390625 323.222656 365.238281 322.886719 364.101562 323.734375 C 362.164062 325.179688 360.429688 326.769531 359.433594 329.023438 C 358.433594 331.289062 357.835938 333.710938 358.105469 336.203125 C 358.6875 341.558594 362.085938 345.847656 367.09375 347.789062 C 371.628906 349.542969 377.082031 348.140625 380.257812 344.472656 C 383.492188 340.742188 384.75 335.035156 381.757812 330.738281 C 380.820312 329.410156 379.796875 328.425781 378.464844 327.488281 Z M 370.609375 332.78125 C 370.8125 332.804688 370.644531 332.855469 370.609375 332.78125 Z M 374.707031 337.929688 C 374.640625 338.128906 374.65625 338.082031 374.707031 337.929688 Z M 375.023438 336.839844 C 375.023438 337.023438 374.980469 337.089844 374.957031 337.070312 C 374.9375 337.179688 374.914062 337.289062 374.882812 337.390625 C 374.863281 337.457031 374.839844 337.519531 374.820312 337.582031 C 374.65625 337.75 374.417969 338.285156 374.292969 338.523438 C 374.214844 338.625 374.132812 338.738281 374.070312 338.808594 C 373.863281 339.027344 373.636719 339.222656 373.417969 339.429688 C 373.308594 339.5 373.207031 339.570312 373.097656 339.640625 C 372.957031 339.722656 372.8125 339.804688 372.671875 339.882812 C 372.660156 339.890625 372.652344 339.894531 372.644531 339.898438 C 372.425781 339.925781 372.128906 340.054688 371.910156 340.121094 C 371.914062 340.144531 371.863281 340.167969 371.714844 340.175781 C 371.589844 340.195312 371.425781 340.207031 371.34375 340.25 C 371.421875 340.210938 371.472656 340.199219 371.539062 340.175781 C 371.261719 340.175781 370.992188 340.171875 370.714844 340.160156 C 370.566406 340.128906 370.421875 340.101562 370.273438 340.0625 C 370.066406 340.007812 369.867188 339.945312 369.664062 339.875 C 369.65625 339.871094 369.644531 339.867188 369.632812 339.867188 C 369.574219 339.84375 369.519531 339.816406 369.480469 339.800781 C 369.289062 339.703125 369.105469 339.601562 368.917969 339.492188 C 368.707031 339.363281 368.503906 339.214844 368.296875 339.074219 C 368.113281 338.898438 367.921875 338.726562 367.738281 338.542969 C 367.453125 338.253906 367.023438 337.46875 367.550781 338.402344 C 367.382812 338.105469 367.152344 337.835938 366.980469 337.539062 C 366.894531 337.390625 366.808594 337.238281 366.734375 337.085938 C 366.644531 336.917969 366.222656 336.394531 366.625 336.878906 C 366.695312 336.964844 366.730469 337.011719 366.753906 337.039062 C 366.710938 336.984375 366.644531 336.878906 366.609375 336.769531 C 366.542969 336.558594 366.484375 336.347656 366.433594 336.136719 C 366.394531 335.980469 366.363281 335.824219 366.335938 335.664062 C 366.3125 335.238281 366.304688 334.8125 366.324219 334.382812 C 366.332031 334.207031 366.335938 334.035156 366.347656 333.859375 C 366.347656 333.847656 366.351562 333.839844 366.351562 333.828125 C 366.339844 333.863281 366.339844 333.871094 366.328125 333.910156 C 366.351562 333.839844 366.359375 333.757812 366.378906 333.679688 C 366.390625 333.613281 366.398438 333.558594 366.417969 333.511719 C 366.480469 333.214844 366.535156 332.910156 366.621094 332.625 C 366.742188 332.203125 366.898438 331.792969 367.058594 331.386719 C 367.105469 331.273438 367.117188 331.234375 367.117188 331.210938 C 367.117188 331.207031 367.121094 331.207031 367.121094 331.199219 C 367.511719 332.070312 368.484375 332.917969 369.519531 332.808594 C 369.832031 332.773438 370.140625 332.769531 370.457031 332.777344 C 370.539062 332.800781 370.613281 332.816406 370.695312 332.835938 C 370.800781 332.875 371.097656 333.019531 371.199219 333.007812 C 371.320312 333.058594 371.441406 333.109375 371.609375 333.179688 C 371.714844 333.21875 371.820312 333.257812 371.929688 333.296875 C 372.445312 333.605469 372.988281 333.855469 373.5 334.164062 C 373.585938 334.214844 373.671875 334.269531 373.75 334.324219 C 373.929688 334.507812 374.132812 334.683594 374.320312 334.859375 C 374.339844 334.867188 374.367188 334.894531 374.414062 334.941406 C 374.417969 334.945312 374.425781 334.949219 374.429688 334.957031 C 374.519531 335.054688 374.621094 335.214844 374.726562 335.304688 C 374.640625 335.238281 374.613281 335.199219 374.558594 335.148438 C 374.667969 335.34375 374.773438 335.542969 374.886719 335.738281 C 374.921875 335.84375 374.957031 335.949219 374.980469 336.058594 C 374.992188 336.109375 375.007812 336.195312 375.019531 336.277344 C 375.019531 336.304688 375.023438 336.335938 375.023438 336.367188 C 375.027344 336.472656 375.023438 336.578125 375.019531 336.683594 C 375.035156 336.625 375.046875 336.578125 375.078125 336.503906 C 375.078125 336.503906 375.078125 336.503906 375.078125 336.507812 C 375.078125 336.507812 375.078125 336.503906 375.078125 336.503906 C 375.085938 336.488281 375.085938 336.480469 375.089844 336.457031 C 375.046875 336.554688 375.039062 336.675781 375.015625 336.785156 C 375.023438 336.796875 375.023438 336.820312 375.023438 336.839844 Z M 375.023438 336.839844 " fill-opacity="1" fill-rule="nonzero"/><path fill="#004838" d="M 366.757812 337.039062 C 366.789062 337.082031 366.796875 337.089844 366.757812 337.039062 Z M 366.757812 337.039062 " fill-opacity="1" fill-rule="nonzero"/><path fill="#004838" d="M 465.039062 322.851562 C 462.34375 321.789062 459.535156 322.082031 456.980469 323.335938 C 455.996094 323.820312 455.449219 325.242188 455.78125 326.269531 C 455.828125 326.414062 455.957031 326.480469 456.019531 326.613281 C 455.28125 326.769531 454.601562 327.011719 453.957031 327.507812 C 453.171875 328.109375 452.519531 328.847656 451.988281 329.683594 C 450.949219 331.328125 450.382812 333.355469 450.332031 335.296875 C 450.203125 339.847656 452.976562 343.796875 457.226562 345.332031 C 461.429688 346.851562 466.363281 345.210938 469.488281 342.222656 C 473.15625 338.71875 474.207031 332.929688 471.667969 328.460938 C 470.167969 325.824219 467.832031 323.953125 465.039062 322.851562 Z M 456.769531 331.246094 C 456.769531 331.246094 456.769531 331.242188 456.769531 331.242188 C 456.824219 331.09375 457.003906 330.792969 456.769531 331.246094 Z M 465.125 334.882812 C 465.109375 335.136719 465.03125 335.304688 465.027344 335.226562 C 465.011719 335.285156 464.996094 335.347656 464.984375 335.40625 C 464.984375 335.410156 464.980469 335.433594 464.972656 335.457031 C 464.96875 335.476562 464.960938 335.492188 464.957031 335.507812 C 464.953125 335.515625 464.949219 335.527344 464.949219 335.535156 C 464.945312 335.546875 464.941406 335.554688 464.9375 335.566406 C 464.882812 335.726562 464.820312 335.878906 464.769531 336.039062 C 464.808594 335.894531 464.832031 335.84375 464.859375 335.753906 C 464.851562 335.769531 464.847656 335.785156 464.84375 335.792969 C 464.6875 336.089844 464.503906 336.359375 464.324219 336.640625 C 464.238281 336.738281 464.152344 336.832031 464.0625 336.925781 C 463.84375 337.152344 463.605469 337.363281 463.367188 337.574219 C 463.292969 337.625 463.214844 337.679688 463.136719 337.730469 C 462.789062 337.957031 462.421875 338.140625 462.058594 338.328125 C 461.96875 338.363281 461.875 338.394531 461.785156 338.425781 C 461.476562 338.527344 461.164062 338.605469 460.84375 338.671875 C 460.820312 338.679688 460.8125 338.679688 460.78125 338.6875 C 460.753906 338.691406 460.722656 338.707031 460.691406 338.714844 C 460.574219 338.738281 460.441406 338.75 460.324219 338.777344 C 460.4375 338.75 460.476562 338.742188 460.554688 338.722656 C 460.550781 338.722656 460.539062 338.722656 460.535156 338.726562 C 460.207031 338.75 459.875 338.726562 459.542969 338.710938 C 459.390625 338.675781 459.234375 338.640625 459.082031 338.601562 C 458.988281 338.574219 458.867188 338.53125 458.746094 338.488281 C 458.503906 338.359375 458.269531 338.222656 458.035156 338.074219 C 457.914062 337.964844 457.785156 337.855469 457.683594 337.746094 C 457.679688 337.742188 457.675781 337.738281 457.675781 337.734375 C 457.640625 337.726562 457.578125 337.679688 457.5 337.5625 C 457.488281 337.542969 457.480469 337.523438 457.464844 337.507812 C 457.425781 337.457031 457.386719 337.402344 457.339844 337.367188 C 457.386719 337.402344 457.398438 337.421875 457.433594 337.449219 C 457.285156 337.222656 457.136719 336.992188 457.007812 336.75 C 456.882812 336.503906 456.796875 336.195312 456.636719 335.976562 C 456.664062 336.019531 456.667969 336.03125 456.695312 336.0625 C 456.621094 335.855469 456.554688 335.644531 456.5 335.433594 C 456.417969 335.117188 456.363281 334.800781 456.308594 334.484375 C 456.300781 334.316406 456.285156 334.148438 456.273438 333.984375 C 456.261719 333.597656 456.285156 333.214844 456.308594 332.832031 C 456.355469 332.660156 456.375 332.472656 456.417969 332.300781 C 456.507812 331.941406 456.632812 331.601562 456.757812 331.257812 C 456.855469 331.066406 456.945312 330.871094 457.054688 330.683594 C 457.40625 330.082031 457.78125 329.484375 458.167969 328.902344 C 458.308594 328.691406 458.355469 328.4375 458.367188 328.1875 C 458.386719 328.1875 458.402344 328.1875 458.425781 328.183594 C 458.589844 328.179688 458.824219 328.253906 458.972656 328.292969 C 459.21875 328.351562 460.28125 328.757812 459.34375 328.371094 C 459.746094 328.542969 460.128906 328.707031 460.535156 328.855469 C 460.585938 328.875 460.632812 328.890625 460.683594 328.90625 C 460.976562 329.078125 461.320312 329.214844 461.601562 329.386719 C 461.78125 329.496094 461.964844 329.605469 462.144531 329.722656 C 462.195312 329.753906 462.351562 329.878906 462.4375 329.941406 C 462.574219 330.070312 462.714844 330.195312 462.855469 330.324219 C 463.117188 330.5625 463.382812 330.796875 463.628906 331.0625 C 463.75 331.191406 463.867188 331.332031 463.988281 331.46875 C 464.015625 331.515625 464 331.496094 464.054688 331.582031 C 464.246094 331.875 464.425781 332.179688 464.582031 332.496094 C 464.65625 332.644531 464.726562 332.796875 464.796875 332.945312 C 464.792969 332.90625 464.785156 332.898438 464.78125 332.855469 C 464.789062 332.902344 464.808594 332.945312 464.824219 332.992188 C 464.835938 333.015625 464.84375 333.035156 464.855469 333.0625 C 464.941406 333.242188 464.953125 333.355469 464.949219 333.410156 C 465.003906 333.558594 465.050781 333.707031 465.085938 333.855469 C 465.089844 333.875 465.089844 333.898438 465.09375 333.921875 C 465.089844 333.824219 465.085938 333.769531 465.085938 333.617188 C 465.085938 333.824219 465.128906 334.042969 465.132812 334.25 C 465.136719 334.433594 465.132812 334.613281 465.125 334.796875 C 465.144531 334.722656 465.148438 334.695312 465.179688 334.601562 C 465.15625 334.671875 465.140625 334.75 465.125 334.828125 C 465.125 334.839844 465.128906 334.859375 465.125 334.882812 Z M 465.125 334.882812 " fill-opacity="1" fill-rule="nonzero"/><path fill="#004838" d="M 465.09375 333.914062 C 465.109375 334.496094 465.148438 334.226562 465.09375 333.914062 Z M 465.09375 333.914062 " fill-opacity="1" fill-rule="nonzero"/><path fill="#004838" d="M 464.949219 333.402344 C 464.898438 333.261719 464.855469 333.121094 464.824219 332.980469 C 464.8125 332.964844 464.804688 332.953125 464.800781 332.933594 C 464.875 333.375 464.941406 333.476562 464.949219 333.402344 Z M 464.949219 333.402344 " fill-opacity="1" fill-rule="nonzero"/><path fill="#004838" d="M 457.4375 337.449219 C 457.449219 337.46875 457.457031 337.488281 457.46875 337.507812 C 457.539062 337.585938 457.609375 337.664062 457.679688 337.738281 C 457.722656 337.746094 457.664062 337.65625 457.4375 337.449219 Z M 457.4375 337.449219 " fill-opacity="1" fill-rule="nonzero"/><path fill="#004838" d="M 456.699219 336.058594 C 456.703125 336.074219 456.707031 336.085938 456.710938 336.09375 C 456.820312 336.421875 457.03125 336.539062 456.699219 336.058594 Z M 456.699219 336.058594 " fill-opacity="1" fill-rule="nonzero"/><path fill="#004838" d="M 465.027344 335.226562 C 465.054688 335.089844 465.09375 334.953125 465.125 334.816406 C 465.125 334.808594 465.125 334.800781 465.125 334.789062 C 465.054688 335.042969 465.027344 335.183594 465.027344 335.226562 Z M 465.027344 335.226562 " fill-opacity="1" fill-rule="nonzero"/><path fill="#004838" d="M 460.554688 338.722656 C 460.628906 338.71875 460.710938 338.707031 460.78125 338.6875 C 460.804688 338.683594 460.824219 338.675781 460.84375 338.671875 C 460.976562 338.636719 460.941406 338.628906 460.554688 338.722656 Z M 460.554688 338.722656 " fill-opacity="1" fill-rule="nonzero"/><path fill="#004838" d="M 464.9375 335.574219 C 464.941406 335.558594 464.945312 335.550781 464.949219 335.539062 C 464.960938 335.503906 464.960938 335.488281 464.972656 335.460938 C 464.976562 335.445312 464.980469 335.429688 464.984375 335.410156 C 464.980469 335.402344 464.9375 335.527344 464.859375 335.753906 C 464.890625 335.691406 464.917969 335.628906 464.9375 335.574219 Z M 464.9375 335.574219 " fill-opacity="1" fill-rule="nonzero"/><path fill="#004838" d="M 542.058594 292.839844 C 538.808594 288.183594 535.105469 283.828125 530.957031 279.9375 C 526.914062 276.148438 522.40625 272.757812 517.578125 270.023438 C 515.148438 268.648438 512.558594 267.53125 509.847656 266.898438 C 507.261719 266.289062 504.921875 265.679688 502.359375 266.539062 C 502.117188 266.621094 501.988281 266.890625 502.121094 267.125 C 503.378906 269.257812 505.148438 270.355469 507.0625 271.878906 C 509.117188 273.515625 511.246094 275 513.429688 276.480469 C 517.578125 279.289062 521.492188 282.316406 525.128906 285.773438 C 528.738281 289.199219 532.03125 292.957031 534.855469 297.054688 C 536.335938 299.207031 537.703125 301.433594 538.953125 303.722656 C 540.324219 306.246094 541.6875 308.023438 543.847656 309.917969 C 545.574219 311.425781 548.253906 310.40625 548.34375 308.054688 C 548.46875 304.785156 547.789062 302.355469 546.203125 299.480469 C 544.933594 297.199219 543.550781 294.984375 542.058594 292.839844 Z M 542.058594 292.839844 " fill-opacity="1" fill-rule="nonzero"/></svg>