<svg xmlns="http://www.w3.org/2000/svg" xmlns:xlink="http://www.w3.org/1999/xlink" width="1024" zoomAndPan="magnify" viewBox="0 0 768 767.999994" height="1024" preserveAspectRatio="xMidYMid meet" version="1.0"><defs><clipPath id="f136c0aa0c"><path d="M 191 215.027344 L 578 215.027344 L 578 553 L 191 553 Z M 191 215.027344 " clip-rule="nonzero"/></clipPath></defs><rect x="-76.8" width="921.6" fill="#ffffff" y="-76.799999" height="921.599993" fill-opacity="1"/><rect x="-76.8" width="921.6" fill="#ebede8" y="-76.799999" height="921.599993" fill-opacity="1"/><path fill="#004838" d="M 568.960938 247.261719 C 560.4375 250.90625 552.773438 256.039062 544.960938 260.996094 C 541.132812 263.425781 537.308594 265.902344 533.546875 268.4375 C 531.695312 269.691406 529.832031 270.925781 528.070312 272.304688 C 526.523438 273.515625 524.789062 274.378906 524.292969 276.394531 C 524.1875 276.820312 524.425781 277.351562 524.890625 277.445312 C 526.828125 277.828125 528.160156 276.867188 529.84375 276.015625 C 531.9375 274.953125 533.949219 273.769531 535.964844 272.570312 C 539.988281 270.171875 543.964844 267.691406 547.914062 265.183594 C 555.726562 260.226562 563.613281 255.464844 570.535156 249.300781 C 571.726562 248.230469 570.203125 246.726562 568.960938 247.261719 Z M 568.960938 247.261719 " fill-opacity="1" fill-rule="nonzero"/><g clip-path="url(#f136c0aa0c)"><path fill="#004838" d="M 223.804688 539.304688 C 232.273438 546.765625 243.09375 551.363281 254.335938 552.292969 C 261.414062 552.878906 269.644531 551.828125 275.964844 548.09375 C 276.226562 549.515625 277.402344 550.796875 278.957031 550.679688 C 285.660156 550.175781 292.433594 544.40625 297.929688 540.878906 C 304.253906 536.820312 310.433594 532.550781 316.359375 527.921875 C 328.304688 518.59375 339.179688 507.558594 346.492188 494.164062 C 354.210938 480.03125 357.496094 464.066406 358.101562 448.082031 C 358.738281 431.421875 357.398438 413.914062 353.511719 397.679688 C 353.507812 397.660156 353.496094 397.652344 353.488281 397.628906 C 354.976562 396.199219 356.414062 394.710938 357.875 393.300781 C 360.6875 390.59375 363.5 387.882812 366.3125 385.175781 C 367.476562 384.054688 368.632812 382.921875 369.78125 381.785156 C 374.746094 380.582031 378.917969 376.679688 383.089844 373.8125 C 388.542969 370.070312 393.996094 366.324219 399.445312 362.578125 C 410.640625 354.890625 421.832031 347.203125 433.011719 339.492188 C 443.902344 331.984375 454.871094 324.578125 465.667969 316.929688 C 470.679688 313.382812 475.773438 309.910156 480.609375 306.121094 C 479.074219 315.722656 477.441406 325.347656 477.058594 335.078125 C 476.613281 346.398438 476.828125 357.8125 477.414062 369.128906 C 477.859375 377.761719 479.035156 387.421875 485.824219 393.5625 C 490.03125 397.371094 499.054688 401.265625 503.457031 396.214844 C 503.457031 396.214844 503.460938 396.214844 503.464844 396.214844 C 504.617188 396.363281 505.578125 395.722656 506.753906 395.179688 C 508.257812 394.484375 509.636719 393.671875 511.015625 392.742188 C 513.589844 391.003906 516.0625 389.140625 518.550781 387.28125 C 521.105469 385.371094 523.632812 383.429688 526.15625 381.480469 C 527.394531 380.523438 528.582031 379.566406 529.691406 378.453125 C 530.351562 377.792969 530.980469 377.070312 531.402344 376.234375 C 531.902344 375.246094 531.941406 374.394531 531.925781 373.316406 C 531.914062 372.457031 531.324219 371.644531 530.480469 371.417969 C 530.074219 371.308594 529.695312 371.261719 529.320312 371.21875 C 530.523438 364.566406 531.160156 357.738281 531.832031 351.035156 C 532.3125 346.261719 532.6875 341.480469 533.023438 336.699219 C 533.207031 337.886719 533.402344 339.070312 533.574219 340.238281 C 534.289062 345.113281 534.621094 350.351562 536.632812 354.90625 C 538.308594 358.699219 541.683594 361.632812 546.003906 361.464844 C 549.402344 361.335938 552.351562 359.160156 552.386719 355.859375 C 552.902344 355.789062 553.402344 355.644531 553.835938 355.347656 C 555.527344 354.214844 557.074219 352.804688 558.652344 351.515625 C 559.96875 350.433594 561.292969 349.359375 562.613281 348.277344 C 563.929688 347.203125 565.285156 346.15625 566.464844 344.929688 C 567.660156 343.6875 568.945312 342.183594 569.414062 340.472656 C 569.5 340.339844 569.585938 340.203125 569.671875 340.070312 C 569.855469 339.78125 569.929688 339.457031 569.953125 339.128906 C 571.59375 338.800781 573.007812 337.574219 573.046875 335.308594 C 573.253906 322.21875 572.304688 308.992188 571.835938 295.902344 C 571.605469 289.460938 571.390625 283.015625 570.964844 276.585938 C 570.597656 270.960938 570.894531 263.707031 568.171875 258.644531 C 567.550781 257.484375 565.523438 257.363281 564.9375 258.644531 C 562.535156 263.90625 563.226562 270.910156 563.210938 276.585938 C 563.195312 283.023438 563.378906 289.46875 563.554688 295.902344 C 563.914062 308.992188 563.792969 322.253906 564.816406 335.308594 C 564.863281 335.925781 565.03125 336.460938 565.257812 336.933594 C 563.964844 337.257812 562.734375 337.898438 561.601562 338.636719 C 559.996094 339.679688 558.523438 340.949219 557.058594 342.171875 C 555.765625 343.25 554.472656 344.328125 553.183594 345.40625 C 553.109375 345.269531 553.074219 345.160156 552.988281 345.007812 C 552.550781 344.230469 552.25 343.386719 551.8125 342.617188 C 551.789062 342.578125 551.757812 342.546875 551.730469 342.503906 C 551.773438 342.464844 551.828125 342.445312 551.871094 342.402344 C 554.410156 339.59375 553.003906 335.707031 552.460938 332.371094 C 551.9375 329.203125 551.421875 326.039062 550.863281 322.878906 C 550.484375 320.753906 550.074219 318.597656 549.613281 316.457031 C 549.875 314.925781 550 313.355469 549.765625 311.660156 C 549.203125 307.632812 546.917969 304.09375 543.292969 302.140625 C 535.546875 297.964844 528.59375 304.039062 526.796875 311.484375 C 525.769531 315.765625 525.792969 320.296875 525.542969 324.667969 C 525.230469 330.074219 524.878906 335.480469 524.660156 340.890625 C 524.234375 351.34375 523.738281 362.097656 524.566406 372.546875 C 523.230469 373.375 521.984375 374.320312 520.75 375.292969 C 518.160156 377.332031 515.582031 379.382812 513.03125 381.464844 C 510.871094 383.226562 508.714844 384.988281 506.644531 386.851562 C 506.648438 382.21875 505.648438 377.34375 505.128906 373.144531 C 504.222656 365.757812 503.324219 358.382812 502.644531 350.96875 C 501.292969 336.210938 501.214844 320.871094 497.714844 306.445312 C 497.535156 305.691406 496.53125 305.9375 496.457031 306.617188 C 494.839844 321.507812 496.753906 336.878906 497.3125 351.824219 C 497.589844 359.214844 497.597656 366.601562 497.660156 374 C 497.703125 378.953125 497.144531 385.242188 498.46875 390.472656 C 497.097656 390.261719 495.75 390.003906 494.496094 389.441406 C 491.375 388.042969 489.21875 385.285156 487.941406 382.183594 C 484.796875 374.542969 485.453125 365.078125 485.261719 356.976562 C 485.050781 348.214844 485.152344 339.449219 484.878906 330.6875 C 484.605469 321.960938 483.5 313.238281 482.636719 304.546875 C 486.894531 301.3125 492.046875 297.558594 494.355469 293.074219 C 494.574219 292.648438 494.320312 291.945312 493.746094 292.007812 C 488.542969 292.597656 483.660156 296.195312 479.140625 298.691406 C 473.363281 301.882812 467.921875 305.675781 462.433594 309.332031 C 451.132812 316.855469 439.996094 324.625 428.796875 332.292969 C 417.882812 339.765625 406.980469 347.257812 396.070312 354.753906 C 390.621094 358.496094 385.167969 362.242188 379.714844 365.988281 C 379.449219 366.171875 379.144531 366.363281 378.859375 366.546875 C 378.808594 366.539062 378.769531 366.488281 378.71875 366.488281 C 376.894531 366.519531 375.679688 367.480469 374.097656 368.234375 C 372.257812 369.113281 370.757812 370.207031 369.195312 371.511719 C 366.265625 373.949219 363.484375 376.527344 360.726562 379.152344 C 358.046875 381.699219 355.375 384.242188 352.699219 386.789062 C 349.921875 389.429688 346.6875 391.960938 344.316406 394.96875 C 343.074219 396.546875 342.652344 398.5625 344 400.253906 C 344.75 401.191406 346.019531 401.78125 347.269531 401.804688 C 348 416.355469 350.226562 430.765625 349.859375 445.394531 C 349.464844 461.050781 346.589844 476.859375 338.863281 490.644531 C 331.796875 503.257812 321.375 513.597656 309.976562 522.339844 C 304.296875 526.699219 298.335938 530.695312 292.300781 534.53125 C 289.773438 536.136719 286.707031 537.664062 283.832031 539.414062 C 283.945312 537.511719 281.851562 536.070312 279.914062 536.988281 C 271.445312 541.027344 264.015625 544.769531 254.328125 543.914062 C 244.898438 543.082031 235.539062 538.886719 228.640625 532.414062 C 212.769531 517.519531 207.878906 494.566406 204.59375 473.941406 C 196.582031 423.539062 197.3125 370.5 208.410156 320.585938 C 211.1875 308.097656 215.292969 295.957031 222.394531 285.226562 C 223.03125 284.265625 223.738281 283.324219 224.457031 282.382812 C 225.328125 283 226.566406 283.257812 227.523438 282.855469 C 235.203125 279.609375 242.167969 273.527344 249.089844 268.921875 C 255.882812 264.402344 263.015625 260.222656 270.609375 257.199219 C 284.253906 251.761719 300.003906 249.832031 314.007812 255.140625 C 319.777344 257.328125 324.628906 260.808594 328.65625 265.082031 C 327.914062 265.488281 327.398438 266.304688 327.636719 267.382812 C 331.113281 283.179688 336.851562 298.324219 339.964844 314.226562 C 343.128906 330.390625 344.03125 346.820312 345.628906 363.175781 C 345.867188 365.644531 349.925781 366.726562 350.367188 363.820312 C 351.214844 358.253906 351.574219 352.679688 351.609375 347.101562 C 385.238281 327.40625 418.515625 307.210938 451.652344 286.6875 C 468.300781 276.375 484.949219 266.058594 501.597656 255.746094 C 509.921875 250.589844 518.25 245.433594 526.570312 240.273438 C 534.527344 235.34375 544.398438 230.851562 551.152344 224.351562 C 551.65625 223.871094 551.910156 223.277344 552.042969 222.664062 C 552.050781 222.664062 552.058594 222.664062 552.0625 222.664062 C 552.960938 222.667969 553.855469 222.65625 554.75 222.6875 C 555.136719 222.699219 555.523438 222.726562 555.910156 222.765625 C 556.007812 222.773438 556.6875 222.859375 556.90625 222.882812 C 557.691406 223.003906 558.46875 223.167969 559.234375 223.386719 C 559.667969 223.511719 560.089844 223.664062 560.519531 223.800781 C 560.6875 223.855469 560.734375 223.867188 560.777344 223.875 C 560.808594 223.894531 560.835938 223.910156 560.980469 223.984375 C 561.789062 224.378906 562.574219 224.804688 563.328125 225.296875 C 563.542969 225.4375 563.757812 225.582031 563.96875 225.726562 C 564.03125 225.773438 564.035156 225.777344 564.082031 225.8125 C 564.121094 225.84375 564.199219 225.914062 564.351562 226.035156 C 564.542969 226.199219 564.734375 226.371094 564.914062 226.542969 C 565.191406 226.804688 565.457031 227.074219 565.710938 227.351562 C 565.789062 227.429688 566.28125 228.035156 566.378906 228.140625 C 566.820312 228.75 567.238281 229.382812 567.597656 230.042969 C 567.8125 230.433594 568.003906 230.832031 568.195312 231.230469 C 568.261719 231.363281 568.277344 231.382812 568.300781 231.425781 C 568.304688 231.464844 568.308594 231.492188 568.359375 231.644531 C 568.628906 232.496094 568.910156 233.328125 569.101562 234.195312 C 569.136719 234.367188 569.375 235.917969 569.265625 234.960938 C 569.304688 235.339844 569.339844 235.71875 569.359375 236.097656 C 569.410156 236.976562 569.441406 237.871094 569.417969 238.75 C 569.386719 240.238281 569.242188 242.320312 570.082031 243.714844 C 570.078125 243.777344 570.074219 243.855469 570.070312 243.890625 C 569.957031 245.714844 572.613281 246.898438 573.828125 245.445312 C 573.976562 245.269531 574.113281 245.078125 574.257812 244.898438 C 577.246094 243.671875 577.90625 238.609375 577.667969 235.71875 C 577.363281 232.078125 576.347656 228.527344 574.460938 225.378906 C 570.691406 219.097656 563.515625 214.820312 556.097656 215.039062 C 553.875 215.105469 551.832031 215.496094 549.792969 216.382812 C 548.328125 217.023438 546.949219 217.722656 545.894531 218.855469 C 537.957031 222.121094 530.445312 228.035156 523.246094 232.507812 C 514.921875 237.667969 506.605469 242.835938 498.28125 247.996094 C 481.34375 258.507812 464.402344 269.015625 447.464844 279.53125 C 415.234375 299.535156 383.230469 319.820312 351.492188 340.578125 C 351.324219 336.5625 350.996094 332.554688 350.527344 328.546875 C 350.554688 328.355469 350.589844 328.15625 350.617188 327.96875 C 351.335938 322.660156 351.789062 317.355469 351.890625 311.996094 C 352.070312 302.402344 351.222656 292.660156 348.394531 283.457031 C 343.652344 268.015625 333.632812 254.324219 318.4375 247.964844 C 303.152344 241.5625 285.394531 242.769531 270.085938 248.464844 C 261.144531 251.789062 252.78125 256.40625 244.851562 261.683594 C 244.171875 262.136719 243.480469 262.601562 242.785156 263.070312 C 240.71875 263.355469 238.667969 263.832031 236.53125 264.75 C 231.488281 266.933594 226.929688 270.0625 222.839844 273.722656 C 213.683594 281.910156 208.003906 292.703125 204.191406 304.25 C 199.820312 317.484375 197.574219 331.492188 195.601562 345.257812 C 193.59375 359.28125 192.214844 373.386719 191.558594 387.542969 C 190.226562 416.5 191.839844 445.535156 196.246094 474.175781 C 199.789062 497.214844 205.488281 523.167969 223.804688 539.304688 Z M 536.828125 309.621094 C 538.726562 308.277344 540.726562 310.226562 541.765625 311.886719 C 541.816406 312.746094 541.886719 313.601562 541.917969 314.441406 C 542.039062 317.765625 542.515625 321.074219 542.972656 324.375 C 543.402344 327.453125 543.863281 330.519531 544.328125 333.589844 C 544.734375 336.230469 544.734375 339.667969 546.519531 341.792969 C 546.578125 343.441406 546.828125 345.113281 546.957031 346.644531 C 547.050781 347.71875 547.335938 348.757812 547.453125 349.824219 C 547.546875 350.285156 547.542969 350.339844 547.441406 349.992188 C 547.46875 350.464844 547.527344 350.933594 547.609375 351.398438 C 547.695312 351.910156 547.816406 352.417969 547.917969 352.929688 C 548.066406 353.636719 548.460938 354.238281 548.984375 354.722656 C 547.84375 355.8125 545.691406 356.203125 544.335938 355.738281 C 541.585938 354.808594 540.679688 351.023438 540.085938 348.546875 C 539.121094 344.550781 538.234375 340.527344 537.289062 336.527344 C 536.414062 332.820312 535.519531 328.984375 533.753906 325.582031 C 533.921875 322.441406 534.007812 319.269531 534.394531 316.15625 C 534.640625 314.25 535.074219 310.859375 536.828125 309.621094 Z M 536.828125 309.621094 " fill-opacity="1" fill-rule="nonzero"/></g><path fill="#004838" d="M 304.679688 484.183594 C 306.855469 475.089844 307.242188 465.625 307.6875 456.320312 C 308.195312 445.648438 308.523438 434.964844 308.664062 424.277344 C 308.945312 402.910156 308.496094 381.527344 307.277344 360.1875 C 306.140625 340.351562 305.535156 319.671875 301.0625 300.253906 C 299.621094 294 295.792969 286.949219 288.511719 286.871094 C 288.382812 286.871094 288.226562 286.898438 288.09375 286.90625 C 293.761719 283.746094 299.839844 281.839844 306.046875 279.167969 C 306.992188 278.761719 306.714844 277.175781 305.757812 276.976562 C 288.824219 273.417969 271.363281 290.65625 263.023438 303.484375 C 250.6875 322.457031 248.796875 346.308594 248.292969 368.308594 C 247.707031 393.820312 247.460938 419.34375 247.050781 444.863281 C 246.710938 466.203125 242.617188 492.746094 256.761719 510.816406 C 262.601562 518.277344 271.433594 523.550781 281.144531 522.789062 C 290.519531 522.050781 297.195312 516.519531 299.53125 507.5 C 300.054688 505.472656 297.113281 504.113281 296.078125 506.046875 C 293.859375 510.1875 289.015625 512.898438 284.058594 513.96875 C 295.003906 509.210938 302.1875 494.582031 304.679688 484.183594 Z M 273.484375 510.621094 C 272.542969 511.210938 272.195312 512.078125 272.257812 512.914062 C 266.472656 510.320312 262.054688 504.882812 259.386719 499.230469 C 255.050781 490.042969 254.9375 479.460938 255.023438 469.503906 C 255.121094 458.851562 255.351562 448.199219 255.519531 437.546875 C 255.863281 416.070312 256.167969 394.589844 256.539062 373.113281 C 256.878906 353.347656 257.109375 332.175781 265.351562 313.816406 C 268.800781 306.132812 273.617188 298.902344 279.777344 293.109375 C 279.839844 293.589844 279.957031 294.085938 280.214844 294.609375 C 280.25 294.675781 280.351562 294.6875 280.394531 294.636719 C 283.121094 291.671875 287.335938 289.726562 290.828125 292.828125 C 294.128906 295.757812 294.617188 301.492188 294.890625 305.582031 C 295.570312 315.882812 296.507812 326.15625 297.339844 336.453125 C 299.085938 358.101562 300.070312 379.8125 300.320312 401.527344 C 300.5625 422.742188 300.246094 444.027344 298.855469 465.199219 C 298.214844 475.035156 297.019531 485.359375 292.121094 494.109375 C 287.671875 502.042969 280.933594 505.960938 273.484375 510.621094 Z M 273.484375 510.621094 " fill-opacity="1" fill-rule="nonzero"/></svg>