<svg xmlns="http://www.w3.org/2000/svg" xmlns:xlink="http://www.w3.org/1999/xlink" width="1024" zoomAndPan="magnify" viewBox="0 0 768 767.999994" height="1024" preserveAspectRatio="xMidYMid meet" version="1.0"><rect x="-76.8" width="921.6" fill="#ffffff" y="-76.799999" height="921.599993" fill-opacity="1"/><rect x="-76.8" width="921.6" fill="#ebede8" y="-76.799999" height="921.599993" fill-opacity="1"/><path fill="#004838" d="M 571.277344 525.046875 C 562.644531 524.59375 553.9375 524.757812 545.246094 524.933594 C 545.183594 524.683594 545.121094 524.425781 545.066406 524.167969 C 544.929688 523.480469 544.835938 522.773438 544.660156 522.097656 C 544.46875 521.375 544.222656 520.566406 543.898438 519.894531 C 543.777344 519.636719 543.558594 519.390625 543.46875 519.121094 C 543.351562 518.761719 543.351562 518.308594 543.296875 517.933594 C 543.054688 516.300781 540.589844 516.796875 540.523438 518.308594 C 540.507812 518.671875 540.53125 519.0625 540.441406 519.410156 C 540.355469 519.753906 540.144531 520.0625 540.039062 520.398438 C 539.820312 521.097656 539.695312 521.894531 539.609375 522.617188 C 539.523438 523.335938 539.472656 524.054688 539.410156 524.773438 C 539.402344 524.863281 539.390625 524.945312 539.386719 525.035156 C 537.476562 525.070312 535.5625 525.109375 533.652344 525.125 C 526.070312 525.1875 518.492188 525.246094 510.90625 525.308594 C 510.636719 523.5625 510.28125 521.773438 508.996094 520.515625 C 507.558594 519.117188 505.554688 519.609375 504.46875 521.101562 C 503.625 522.25 503.488281 523.835938 503.480469 525.371094 C 501.34375 525.386719 499.207031 525.40625 497.074219 525.421875 C 490.9375 525.472656 484.804688 525.523438 478.671875 525.570312 C 478.304688 524.515625 477.871094 523.484375 477.410156 522.445312 C 477.117188 521.777344 476.210938 521.332031 475.511719 521.355469 C 475.667969 521.371094 475.816406 521.398438 475.96875 521.445312 C 475.554688 520.980469 474.914062 521.171875 474.582031 521.59375 C 473.808594 521.953125 473.414062 522.71875 473.308594 523.558594 C 473.21875 524.25 473.09375 524.925781 473.042969 525.621094 C 464.289062 525.691406 455.53125 525.761719 446.769531 525.835938 C 446.191406 522.992188 445.5625 520.160156 444.675781 517.398438 C 444.164062 515.808594 442.695312 514.78125 441.019531 515.007812 C 439.4375 515.21875 438.066406 516.617188 438.128906 518.285156 C 438.214844 520.832031 438.523438 523.367188 438.875 525.898438 C 433.535156 525.9375 428.203125 525.984375 422.863281 526.027344 C 416.671875 526.078125 410.484375 526.125 404.289062 526.171875 C 404.128906 525.050781 403.984375 523.890625 403.433594 522.894531 C 402.652344 521.476562 400.6875 520.285156 399.121094 521.320312 C 397.382812 522.460938 397.089844 524.328125 397.019531 526.230469 C 390.035156 526.285156 383.054688 526.339844 376.070312 526.394531 C 376.046875 526.039062 376.023438 525.683594 376 525.328125 C 375.835938 522.972656 375.460938 520.648438 374.042969 518.773438 C 374.03125 518.722656 374.023438 518.671875 374.011719 518.621094 C 373.566406 516.621094 370.113281 516.457031 369.800781 518.621094 C 369.785156 518.707031 369.773438 518.796875 369.761719 518.886719 C 369.207031 519.691406 368.792969 520.496094 368.628906 521.5625 C 368.4375 522.824219 368.257812 524.042969 368.265625 525.328125 C 368.265625 525.703125 368.269531 526.078125 368.273438 526.453125 C 357.90625 526.53125 347.542969 526.621094 337.175781 526.703125 C 336.820312 525.285156 336.269531 523.933594 335.058594 523.125 C 335.375 523.441406 335.695312 523.761719 336.007812 524.078125 C 335.847656 523.867188 335.699219 523.648438 335.566406 523.421875 C 334.773438 522.164062 332.425781 521.792969 331.738281 523.421875 C 331.511719 523.953125 331.070312 524.378906 330.867188 525.050781 C 330.710938 525.570312 330.648438 526.195312 330.59375 526.722656 C 330.59375 526.734375 330.59375 526.746094 330.589844 526.757812 C 323.027344 526.820312 315.464844 526.890625 307.902344 526.957031 C 307.230469 526.195312 306.277344 525.773438 305.230469 525.917969 C 304.542969 526.011719 303.796875 526.421875 303.285156 527 C 293.675781 527.082031 284.066406 527.152344 274.457031 527.246094 C 273.9375 527.25 273.417969 527.257812 272.898438 527.261719 C 272.8125 525.136719 272.640625 522.898438 271.757812 521.089844 C 270.773438 519.066406 267.355469 519.039062 266.378906 521.089844 C 265.492188 522.945312 265.34375 525.191406 265.273438 527.339844 C 256.359375 527.425781 247.449219 527.515625 238.535156 527.605469 C 238.476562 519.6875 238.421875 511.777344 238.363281 503.859375 C 241.511719 503.1875 244.558594 502.195312 247.136719 500.121094 C 248.527344 498.996094 247.566406 496.933594 246.164062 496.441406 C 243.644531 495.558594 240.96875 495.519531 238.304688 495.792969 C 238.242188 486.722656 238.171875 477.652344 238.105469 468.578125 C 240.597656 468.847656 243.359375 469.101562 245.570312 467.730469 C 247.21875 466.707031 247.664062 464.296875 246.191406 462.890625 C 244.082031 460.878906 241.015625 460.617188 238.253906 460.332031 C 238.183594 460.324219 238.117188 460.316406 238.042969 460.308594 C 237.960938 448.226562 237.867188 436.152344 237.785156 424.070312 C 239.535156 424.195312 241.292969 424.261719 243.035156 424.070312 C 245.132812 423.835938 249.179688 423.457031 249.179688 420.453125 C 249.179688 417.453125 245.222656 416.914062 243.035156 416.492188 C 241.320312 416.164062 239.511719 416.152344 237.71875 416.191406 C 237.65625 407.253906 237.550781 398.316406 237.484375 389.378906 C 241.285156 389.546875 245.148438 389.578125 248.648438 387.988281 C 250.535156 387.132812 250.394531 384.089844 248.648438 383.195312 C 245.21875 381.429688 241.246094 381.335938 237.414062 381.34375 C 237.347656 373.070312 237.265625 364.796875 237.195312 356.523438 C 238.703125 356.632812 240.21875 356.71875 241.726562 356.6875 C 244.4375 356.621094 247.023438 356.121094 249.585938 355.246094 C 251.222656 354.691406 252.003906 352.019531 250.121094 351.164062 C 247.5625 350 245.082031 349.191406 242.285156 348.835938 C 240.570312 348.617188 238.851562 348.539062 237.128906 348.484375 C 237.03125 337.207031 236.941406 325.921875 236.828125 314.644531 C 238.355469 314.535156 239.890625 314.277344 241.234375 313.625 C 242.378906 313.285156 243.152344 312.9375 243.867188 311.921875 C 244.304688 311.296875 244.285156 310.242188 243.867188 309.617188 C 243.199219 308.621094 242.40625 308.257812 241.324219 307.917969 C 239.945312 307.203125 238.34375 306.925781 236.757812 306.796875 C 236.699219 300.9375 236.667969 295.074219 236.601562 289.214844 C 236.492188 279.222656 236.402344 269.230469 236.21875 259.238281 C 238.195312 258.964844 240.042969 258.488281 241.539062 256.972656 C 243.003906 255.488281 242.605469 253.117188 240.902344 252.035156 C 239.398438 251.074219 237.753906 250.902344 236.070312 250.988281 C 235.9375 245.261719 235.828125 239.53125 235.472656 233.816406 C 235.15625 228.796875 234.804688 223.410156 231.914062 219.164062 C 231.902344 219.144531 231.875 219.144531 231.859375 219.164062 C 226.871094 226.753906 228.308594 238.730469 228.238281 247.402344 C 228.222656 248.878906 228.246094 250.363281 228.238281 251.84375 C 226.566406 252.039062 224.894531 252.230469 223.226562 252.425781 C 223.160156 252.433594 223.085938 252.4375 223.019531 252.445312 C 222.996094 252.410156 222.960938 252.355469 222.949219 252.34375 C 222.773438 252.167969 222.5625 252.0625 222.351562 251.949219 C 221.121094 251.3125 219.921875 250.855469 218.480469 251.175781 C 215.734375 251.785156 213.96875 254.367188 214.019531 257.117188 C 214.058594 259.351562 215.820312 260.996094 218.007812 261.105469 C 219.863281 261.199219 221.816406 260.792969 223.664062 260.597656 C 225.1875 260.433594 226.714844 260.273438 228.238281 260.109375 C 228.234375 266.671875 228.207031 273.234375 228.238281 279.800781 C 228.238281 279.992188 228.242188 280.1875 228.242188 280.378906 C 227.835938 280.371094 227.4375 280.367188 227.035156 280.34375 C 226.753906 280.324219 226.476562 280.296875 226.195312 280.269531 C 226.148438 280.265625 226.101562 280.261719 226.054688 280.257812 C 225.515625 280.140625 224.988281 280.027344 224.453125 279.890625 C 223.914062 279.757812 223.363281 279.664062 222.824219 279.535156 C 222.40625 279.433594 222.011719 279.367188 221.585938 279.3125 C 221.339844 279.277344 221.105469 279.285156 220.875 279.308594 C 220.078125 279.035156 219.222656 278.769531 218.453125 279.066406 C 218.265625 279.105469 218.070312 279.09375 217.878906 279.183594 C 218.113281 279.117188 218.347656 279.054688 218.585938 278.992188 C 218.398438 278.996094 218.066406 279.007812 217.84375 278.878906 C 217.597656 278.730469 217.472656 278.460938 217.324219 278.226562 C 217.183594 278.007812 216.882812 278.199219 216.984375 278.425781 C 217.070312 278.613281 217.175781 278.808594 217.257812 279 C 217.476562 279.535156 217.371094 279.332031 217.238281 279.78125 C 217 280.585938 217.492188 279 217.179688 280.128906 C 217.140625 280.277344 217.148438 280.441406 217.144531 280.605469 C 216.949219 281.59375 217.53125 282.636719 218.105469 283.460938 C 218.1875 283.730469 218.234375 284.003906 218.378906 284.261719 C 218.628906 284.695312 219.003906 285.105469 219.382812 285.445312 C 220.15625 286.132812 220.976562 286.757812 221.933594 287.160156 C 223.554688 287.84375 225.15625 288.273438 226.925781 288.394531 C 227.375 288.425781 227.835938 288.339844 228.296875 288.3125 C 228.328125 294.445312 228.382812 300.582031 228.429688 306.714844 C 224.078125 306.84375 219.554688 306.707031 215.40625 308.144531 C 213.015625 308.972656 213.070312 312.105469 215.40625 312.960938 C 219.550781 314.472656 224.117188 314.398438 228.484375 314.597656 C 228.566406 324.953125 228.628906 335.304688 228.707031 345.660156 C 228.714844 346.554688 228.71875 347.449219 228.730469 348.347656 C 228.027344 348.347656 227.328125 348.328125 226.625 348.324219 C 225.324219 348.320312 224.019531 348.410156 222.714844 348.441406 C 221.058594 348.484375 219.800781 348.503906 218.492188 349.671875 C 217.324219 350.714844 217.511719 352.570312 218.492188 353.644531 C 219.640625 354.90625 221.140625 354.898438 222.714844 355.097656 C 224.019531 355.261719 225.316406 355.480469 226.625 355.609375 C 227.34375 355.683594 228.066406 355.738281 228.789062 355.808594 C 228.855469 364.332031 228.921875 372.855469 228.988281 381.375 C 228.949219 381.375 228.90625 381.375 228.859375 381.375 C 226.6875 381.40625 223.566406 381.214844 221.757812 382.5625 C 220.433594 383.550781 219.613281 385.761719 221.183594 387.046875 C 223.15625 388.667969 225.925781 388.765625 228.386719 388.917969 C 228.605469 388.929688 228.828125 388.9375 229.046875 388.949219 C 229.121094 398.164062 229.191406 407.382812 229.261719 416.597656 C 228.613281 416.660156 227.96875 416.710938 227.320312 416.792969 C 224.980469 417.074219 222.035156 417.476562 219.941406 418.601562 C 219.167969 419.015625 219.25 420.121094 219.941406 420.554688 C 221.898438 421.773438 224.78125 422.375 227.027344 422.785156 C 227.785156 422.925781 228.554688 422.976562 229.3125 423.097656 C 229.410156 435.25 229.503906 447.410156 229.597656 459.5625 C 227.769531 459.414062 225.945312 459.261719 224.113281 459.152344 C 221.488281 459 218.589844 458.582031 216.488281 460.507812 C 215.695312 461.230469 215.417969 462.800781 216.074219 463.710938 C 217.765625 466.054688 220.445312 466.269531 223.101562 466.671875 C 225.285156 467 227.472656 467.28125 229.660156 467.5625 C 229.683594 470.125 229.703125 472.691406 229.722656 475.257812 C 229.78125 482.582031 229.835938 489.90625 229.894531 497.226562 C 228.417969 497.503906 226.9375 497.765625 225.476562 498.097656 C 224.351562 498.355469 223.21875 498.578125 222.113281 498.894531 C 220.789062 499.273438 219.328125 499.527344 218.433594 500.660156 C 218.46875 500.660156 218.5 500.660156 218.535156 500.660156 C 217.21875 501.980469 217.171875 504.390625 219.070312 505.589844 C 221.105469 506.875 224.238281 506.042969 226.511719 505.769531 C 227.664062 505.628906 228.808594 505.433594 229.957031 505.261719 C 230.015625 512.738281 230.074219 520.21875 230.132812 527.699219 C 224.34375 527.757812 218.558594 527.8125 212.769531 527.988281 C 205.984375 528.1875 198.929688 528.257812 192.527344 530.675781 C 191.160156 531.195312 191.121094 532.988281 192.527344 533.496094 C 203.515625 537.453125 216.929688 535.96875 228.445312 535.898438 C 229.03125 535.894531 229.613281 535.890625 230.195312 535.886719 C 230.230469 540.417969 230.265625 544.945312 230.300781 549.476562 C 230.34375 554.859375 238.71875 554.875 238.675781 549.476562 C 238.636719 544.925781 238.613281 540.378906 238.578125 535.832031 C 247.394531 535.777344 256.214844 535.71875 265.027344 535.664062 C 265.046875 535.664062 265.058594 535.664062 265.074219 535.664062 C 265.070312 535.980469 265.0625 536.300781 265.058594 536.625 C 265.035156 539.046875 264.964844 541.46875 265.167969 543.886719 C 265.398438 546.632812 265.511719 549.828125 267.90625 551.597656 C 268.539062 552.066406 269.765625 552.074219 270.390625 551.597656 C 272.777344 549.808594 272.890625 546.648438 273.089844 543.886719 C 273.273438 541.464844 273.183594 539.046875 273.144531 536.625 C 273.140625 536.285156 273.125 535.945312 273.121094 535.605469 C 283.101562 535.535156 293.074219 535.453125 303.054688 535.371094 C 303.222656 536.390625 303.410156 537.402344 303.578125 538.398438 C 303.835938 539.929688 304.222656 541.429688 304.710938 542.90625 C 305.3125 544.726562 306.273438 546.089844 307.425781 547.585938 C 308.613281 549.117188 311.234375 548.160156 311.65625 546.46875 C 311.875 545.585938 312.058594 544.75 312.167969 543.847656 C 312.292969 542.828125 312.195312 541.90625 312.054688 540.882812 C 311.855469 539.386719 311.664062 537.914062 311.289062 536.449219 C 311.195312 536.070312 311.082031 535.691406 310.984375 535.3125 C 317.484375 535.257812 323.980469 535.21875 330.480469 535.164062 C 330.488281 535.335938 330.484375 535.507812 330.488281 535.679688 C 330.589844 537.855469 330.730469 540.042969 331.117188 542.1875 C 331.5 544.28125 332.234375 546.1875 333.433594 547.949219 C 334.300781 549.226562 336.566406 549.605469 337.347656 547.949219 C 337.8125 546.957031 338.167969 546.015625 338.472656 545.097656 C 338.816406 544.042969 338.851562 542.6875 338.902344 541.570312 C 338.984375 539.605469 338.75 537.625 338.53125 535.679688 C 338.511719 535.484375 338.476562 535.292969 338.453125 535.097656 C 338.710938 535.09375 338.972656 535.09375 339.234375 535.089844 C 348.9375 535.011719 358.636719 534.933594 368.335938 534.855469 C 368.375 535.976562 368.449219 537.097656 368.609375 538.203125 C 368.953125 540.550781 369.773438 542.207031 370.878906 544.347656 C 371.574219 545.6875 374.011719 545.855469 374.648438 544.347656 C 375.082031 543.320312 375.59375 542.386719 375.90625 541.3125 C 376.273438 540.070312 376.492188 538.886719 376.570312 537.585938 C 376.628906 536.660156 376.609375 535.722656 376.570312 534.785156 C 383.417969 534.730469 390.265625 534.675781 397.113281 534.617188 C 397.125 534.808594 397.136719 535.007812 397.144531 535.199219 C 397.25 537.398438 397.320312 539.609375 397.507812 541.800781 C 397.621094 543.140625 397.734375 544.644531 398.261719 545.898438 C 398.726562 546.992188 399.222656 547.976562 399.863281 548.972656 C 400.808594 550.433594 403.375 550.789062 404.230469 548.972656 C 405.386719 546.519531 405.929688 544.292969 405.796875 541.566406 C 405.679688 539.222656 405.4375 536.882812 405.242188 534.546875 C 416.882812 534.457031 428.523438 534.359375 440.160156 534.261719 C 440.367188 535.035156 440.640625 535.8125 440.929688 536.5625 C 441.222656 537.320312 441.582031 537.804688 442.089844 538.414062 C 441.960938 538.179688 442.011719 538.238281 442.238281 538.589844 C 442.382812 538.789062 442.523438 538.988281 442.664062 539.183594 C 443.894531 540.925781 446.714844 540.824219 447.347656 538.570312 C 447.410156 538.34375 447.472656 538.117188 447.535156 537.890625 C 447.667969 537.53125 447.6875 537.449219 447.578125 537.628906 C 447.367188 537.964844 447.46875 537.71875 447.871094 536.886719 C 448.074219 536.480469 448.160156 536.046875 448.140625 535.582031 C 448.160156 535.125 448.132812 534.660156 448.117188 534.195312 C 456.476562 534.128906 464.84375 534.0625 473.203125 533.988281 C 473.289062 535.199219 473.386719 536.414062 473.644531 537.59375 C 473.839844 538.480469 474.019531 539.429688 474.445312 540.234375 C 474.867188 541.046875 475.566406 541.660156 476.214844 542.277344 C 477.347656 543.363281 479.277344 543.183594 480.082031 541.777344 C 480.503906 541.042969 480.90625 540.332031 481.15625 539.511719 C 481.441406 538.589844 481.316406 537.519531 481.246094 536.5625 C 481.183594 535.675781 481.039062 534.796875 480.867188 533.925781 C 483.125 533.910156 485.386719 533.886719 487.644531 533.871094 C 493.019531 533.828125 498.394531 533.785156 503.769531 533.742188 C 503.847656 535.484375 503.898438 537.261719 504.253906 538.953125 C 504.742188 541.296875 505.882812 544.496094 508.851562 544.09375 C 511.777344 543.699219 512.199219 540.269531 512.261719 537.871094 C 512.296875 536.484375 512.105469 535.070312 511.929688 533.675781 C 517.769531 533.628906 523.609375 533.578125 529.449219 533.53125 C 532.816406 533.5 536.191406 533.515625 539.574219 533.53125 C 539.589844 533.601562 539.59375 533.675781 539.605469 533.746094 C 539.710938 534.210938 539.878906 534.660156 540.105469 535.085938 C 540.089844 534.851562 540.132812 534.90625 540.234375 535.253906 C 540.316406 535.457031 540.402344 535.660156 540.484375 535.859375 C 540.902344 536.851562 541.644531 537.621094 542.796875 537.621094 C 543.867188 537.621094 544.800781 536.875 545.109375 535.859375 C 545.171875 535.660156 545.230469 535.457031 545.292969 535.253906 C 545.410156 534.933594 545.429688 534.859375 545.347656 535.019531 C 545.425781 534.765625 545.648438 534.09375 545.757812 533.546875 C 554.273438 533.578125 562.796875 533.542969 571.253906 532.964844 C 576.34375 532.613281 576.398438 525.316406 571.277344 525.046875 Z M 474.582031 521.597656 C 474.5625 521.621094 474.535156 521.636719 474.519531 521.664062 C 474.507812 521.65625 474.5 521.648438 474.484375 521.636719 C 474.519531 521.621094 474.546875 521.609375 474.582031 521.597656 Z M 218.015625 281.65625 C 217.933594 281.921875 217.976562 282.191406 217.980469 282.460938 C 217.96875 282.40625 217.949219 282.355469 217.9375 282.300781 C 217.960938 282.085938 217.988281 281.871094 218.015625 281.65625 Z M 219.1875 279.960938 C 218.6875 280.347656 218.746094 280.300781 219.363281 279.816406 C 219.390625 279.8125 219.421875 279.808594 219.457031 279.804688 C 219.367188 279.859375 219.261719 279.882812 219.1875 279.960938 Z M 219.1875 279.960938 " fill-opacity="1" fill-rule="nonzero"/><path fill="#004838" d="M 280.394531 490.75 C 280.472656 490.808594 280.566406 490.847656 280.644531 490.90625 C 281.347656 492.429688 282.863281 493.195312 284.292969 492.941406 C 290.796875 495.894531 298.835938 496.28125 305.683594 495.789062 C 312.253906 495.320312 320.269531 494.078125 326.257812 490.433594 C 326.40625 492.898438 326.816406 495.316406 327.839844 497.605469 C 328.738281 499.601562 332.257812 499.628906 333.144531 497.605469 C 335.242188 492.8125 334.648438 487.644531 334.621094 482.496094 C 334.597656 476.585938 334.570312 470.675781 334.546875 464.765625 C 334.492188 452.597656 334.441406 440.429688 334.386719 428.261719 C 334.335938 416.4375 334.324219 404.617188 334.21875 392.796875 C 334.117188 381.625 335.808594 368.445312 332.308594 357.714844 C 332.097656 357.070312 331.679688 356.640625 331.191406 356.347656 C 329.765625 352.835938 324.46875 353.15625 321.292969 353.003906 C 317.289062 352.8125 313.273438 352.816406 309.269531 353.019531 C 305.160156 353.230469 301.074219 353.664062 297.011719 354.257812 C 293.210938 354.808594 288.636719 355.214844 285.363281 357.363281 C 284.160156 358.152344 283.683594 359.402344 283.804688 360.617188 C 283.519531 360.90625 283.277344 361.246094 283.160156 361.703125 C 282.839844 363.332031 282.222656 364.851562 281.304688 366.257812 C 281.171875 366.429688 281.34375 366.746094 281.566406 366.59375 C 281.980469 366.359375 282.421875 366.203125 282.851562 366.015625 C 282.246094 375.714844 283.078125 385.597656 283.316406 395.289062 C 283.574219 405.921875 283.570312 416.558594 283.375 427.1875 C 283.175781 437.820312 282.761719 448.445312 282.089844 459.0625 C 281.746094 464.539062 281.339844 470.011719 280.863281 475.480469 C 280.570312 478.890625 279.664062 482.800781 279.773438 486.417969 C 278.800781 487.597656 279.007812 489.75 280.394531 490.75 Z M 299.183594 362.164062 C 303.054688 361.652344 306.964844 361.351562 310.867188 361.230469 C 314.871094 361.105469 318.886719 361.175781 322.886719 361.449219 C 324.078125 361.53125 325.304688 361.710938 326.507812 361.699219 C 324.597656 371.308594 325.90625 382.210938 325.898438 391.757812 C 325.890625 403.929688 325.980469 416.09375 326.03125 428.265625 C 326.074219 440.085938 326.125 451.90625 326.171875 463.726562 C 326.199219 469.636719 326.21875 475.546875 326.242188 481.457031 C 326.242188 481.746094 326.238281 482.039062 326.234375 482.324219 C 322.765625 483.09375 319.542969 484.515625 316.125 485.515625 C 312.460938 486.585938 308.710938 487.28125 304.902344 487.546875 C 299.238281 487.945312 293.820312 487.054688 288.335938 486.308594 C 288.839844 483.421875 288.796875 480.328125 289.042969 477.523438 C 289.527344 472.058594 289.953125 466.585938 290.308594 461.109375 C 291.050781 449.8125 291.523438 438.5 291.710938 427.179688 C 291.886719 416.203125 291.769531 405.222656 291.410156 394.25 C 291.101562 384.648438 290.964844 374.6875 289.039062 365.21875 C 289.046875 365.214844 289.0625 365.21875 289.0625 365.210938 C 289.179688 364.699219 289.222656 364.199219 289.34375 363.707031 C 292.609375 363.578125 296.039062 362.582031 299.183594 362.164062 Z M 299.183594 362.164062 " fill-opacity="1" fill-rule="nonzero"/><path fill="#004838" d="M 426.894531 314.492188 C 417.523438 311.300781 406.675781 310.605469 396.851562 311.035156 C 388.511719 311.398438 379.472656 312.484375 371.527344 315.585938 C 370.875 315.40625 370.191406 315.566406 369.839844 316.292969 C 369.019531 316.648438 368.203125 317.003906 367.410156 317.40625 C 365.402344 318.441406 364.984375 321.601562 366.675781 323.105469 C 367.097656 323.480469 367.445312 323.746094 367.785156 323.96875 C 367.222656 327.949219 367.175781 332.066406 366.960938 335.964844 C 366.535156 343.613281 366.324219 351.273438 366.09375 358.925781 C 365.632812 374.582031 365.207031 390.238281 364.800781 405.890625 C 363.992188 436.851562 363.183594 467.8125 362.375 498.773438 C 362.238281 504.140625 370.578125 504.140625 370.714844 498.773438 C 370.769531 496.601562 370.828125 494.425781 370.882812 492.253906 C 374.042969 491.707031 377.195312 490.734375 380.332031 490.25 C 384.289062 489.640625 388.324219 489.417969 392.324219 489.429688 C 396.324219 489.445312 400.335938 489.734375 404.277344 490.417969 C 406.847656 490.859375 409.964844 492.121094 412.765625 492.136719 C 412.773438 492.558594 412.757812 492.980469 412.769531 493.402344 C 412.90625 498.707031 420.480469 498.566406 420.917969 493.402344 C 422.203125 478.15625 421.933594 462.628906 422.382812 447.332031 C 422.824219 432.324219 423.261719 417.316406 423.703125 402.3125 C 424.144531 387.308594 424.613281 372.304688 425.023438 357.296875 C 425.234375 349.621094 425.472656 341.941406 425.523438 334.265625 C 425.550781 330.152344 425.675781 326.273438 425.183594 322.457031 C 430 322.941406 431.765625 316.148438 426.894531 314.492188 Z M 405.667969 482.21875 C 401.257812 481.523438 396.800781 481.109375 392.328125 481.105469 C 387.859375 481.101562 383.414062 481.53125 379.003906 482.257812 C 376.492188 482.667969 373.722656 483.160156 371.097656 483.953125 C 371.761719 458.28125 372.425781 432.605469 373.085938 406.933594 C 373.480469 391.628906 373.867188 376.324219 374.207031 361.015625 C 374.371094 353.710938 374.515625 346.410156 374.574219 339.101562 C 374.613281 334.0625 375.003906 328.421875 374.355469 323.140625 C 381.980469 321.449219 389.402344 319.601562 397.359375 319.328125 C 404.75 319.074219 411.722656 320 418.808594 321.304688 C 417.894531 325.46875 417.808594 329.765625 417.574219 334.257812 C 417.171875 341.929688 416.957031 349.617188 416.714844 357.292969 C 416.234375 372.296875 415.816406 387.308594 415.371094 402.308594 C 414.921875 417.316406 414.476562 432.324219 414.03125 447.328125 C 413.675781 459.339844 412.890625 471.464844 412.746094 483.527344 C 410.378906 482.777344 407.660156 482.535156 405.667969 482.21875 Z M 405.667969 482.21875 " fill-opacity="1" fill-rule="nonzero"/><path fill="#004838" d="M 465.808594 489.128906 C 467.101562 489.832031 468.003906 491.039062 469.449219 491.476562 C 471.367188 492.058594 473.59375 491.679688 475.546875 491.476562 C 479.714844 491.046875 483.871094 490.421875 488.03125 489.882812 C 490.898438 489.511719 493.765625 489.140625 496.628906 488.769531 C 498.054688 489.417969 499.707031 489.308594 500.773438 488.230469 C 502.550781 488 504.328125 487.769531 506.109375 487.535156 C 508.390625 487.230469 510.910156 487.246094 512.445312 485.292969 C 513.941406 483.386719 513.691406 481.28125 511.738281 479.824219 C 509.894531 478.445312 507.800781 478.933594 505.675781 479.214844 C 504.664062 479.347656 503.65625 479.488281 502.640625 479.625 C 503.183594 473.535156 503.148438 467.289062 503.46875 461.277344 C 503.925781 452.902344 504.378906 444.527344 504.832031 436.15625 C 505.757812 419.058594 506.683594 401.960938 507.613281 384.863281 C 508.519531 368.117188 509.410156 351.367188 510.292969 334.621094 C 510.734375 326.246094 511.175781 317.875 511.617188 309.5 C 511.855469 304.964844 512.058594 300.433594 512.15625 295.890625 C 512.226562 292.621094 511.929688 290.152344 511.285156 287.472656 C 512.941406 286.746094 513.484375 284.804688 512.234375 283.21875 C 509.664062 279.9375 506.050781 278.855469 502.1875 277.667969 C 498.800781 276.628906 495.347656 275.785156 491.863281 275.144531 C 484.527344 273.796875 476.847656 272.882812 469.546875 274.75 C 468.128906 275.113281 467.386719 276.503906 467.398438 277.84375 C 466.800781 278.207031 466.324219 278.816406 466.234375 279.746094 C 462.75 314.460938 463.875 349.792969 463.539062 384.664062 C 463.371094 402.152344 463.207031 419.632812 463.054688 437.121094 C 462.984375 445.515625 462.914062 453.90625 462.835938 462.300781 C 462.800781 466.496094 462.765625 470.699219 462.726562 474.894531 C 462.691406 479.144531 461.976562 483.195312 464.113281 486.964844 C 464.496094 487.644531 465.105469 488.007812 465.761719 488.234375 C 465.742188 488.257812 465.726562 488.28125 465.699219 488.308594 C 465.464844 488.539062 465.519531 488.972656 465.808594 489.128906 Z M 490.03125 283.214844 C 493.386719 283.859375 496.707031 284.695312 499.96875 285.71875 C 502.046875 286.371094 503.960938 287.0625 505.945312 287.484375 C 505.34375 289.078125 504.875 290.683594 504.617188 292.75 C 504.0625 297.253906 503.832031 301.832031 503.5625 306.359375 C 503.066406 314.734375 502.628906 323.105469 502.167969 331.480469 C 501.21875 348.578125 500.273438 365.675781 499.347656 382.769531 C 498.4375 399.519531 497.53125 416.265625 496.628906 433.015625 C 496.171875 441.386719 495.71875 449.761719 495.265625 458.136719 C 494.867188 465.535156 493.886719 473.296875 493.949219 480.8125 C 491.609375 481.132812 489.269531 481.449219 486.929688 481.769531 C 482.917969 482.316406 478.886719 482.792969 474.890625 483.425781 C 473.511719 483.644531 472.035156 483.828125 470.660156 484.246094 C 471.355469 481.617188 471.0625 478.925781 471.089844 475.933594 C 471.125 471.386719 471.167969 466.84375 471.207031 462.292969 C 471.277344 453.898438 471.351562 445.507812 471.425781 437.113281 C 471.578125 419.625 471.710938 402.140625 471.847656 384.65625 C 472.109375 350.144531 473.800781 315.203125 471.03125 280.789062 C 477.347656 281.785156 483.738281 281.992188 490.03125 283.214844 Z M 490.03125 283.214844 " fill-opacity="1" fill-rule="nonzero"/><path fill="#004838" d="M 557.292969 231.03125 C 557.253906 231.25 557.214844 231.46875 557.167969 231.683594 C 556.75 233.597656 556.105469 234.824219 554.878906 236.578125 C 552.46875 240.007812 547.804688 242.496094 546.394531 246.78125 C 545.816406 248.546875 547.417969 250.964844 549.40625 250.734375 C 552.695312 250.347656 555.085938 248.457031 557.425781 246.214844 C 559.386719 244.339844 561.203125 242.246094 562.640625 239.945312 C 565.320312 235.640625 566.355469 230.457031 565.148438 225.496094 C 563.863281 220.195312 559.867188 216.421875 554.570312 215.261719 C 551.472656 214.582031 548.292969 214.261719 545.148438 213.867188 C 542.199219 213.496094 538.210938 212.777344 535.511719 214.351562 C 534.292969 215.0625 534.269531 216.566406 535.101562 217.5625 C 536.71875 219.5 539.976562 220.253906 542.328125 220.867188 C 543.707031 221.226562 545.113281 221.488281 546.511719 221.792969 C 544.285156 223.175781 542.082031 224.601562 539.914062 225.863281 C 534.46875 229.039062 529.027344 232.210938 523.578125 235.386719 C 518.132812 238.558594 512.671875 241.710938 507.269531 244.953125 C 503.398438 247.277344 499.238281 249.539062 496.113281 252.804688 C 495.265625 250.882812 494.421875 248.957031 493.519531 247.058594 C 492.511719 244.9375 491.539062 242.789062 490.46875 240.699219 C 489.914062 239.617188 489.3125 238.453125 488.628906 237.339844 C 491.894531 234.308594 488.0625 228.234375 483.742188 230.792969 C 468.460938 239.820312 453.164062 248.816406 437.910156 257.894531 C 430.28125 262.429688 422.65625 266.972656 415.03125 271.515625 C 408.21875 275.570312 400.496094 279.214844 394.875 284.886719 C 394.121094 284.191406 393.359375 283.511719 392.652344 282.773438 C 390.527344 280.570312 388.757812 278.425781 387.089844 275.984375 C 385.382812 273.480469 383.886719 270.828125 382.539062 268.117188 C 381.917969 266.859375 381.375 265.585938 380.851562 264.292969 C 380.183594 262.640625 379.21875 261.21875 378.429688 259.648438 C 378.410156 259.609375 378.375 259.585938 378.355469 259.550781 C 378.710938 258.910156 379.082031 258.285156 379.3125 257.554688 C 380.011719 255.332031 377.855469 253.839844 375.898438 254.140625 C 371.984375 254.734375 369.015625 257.832031 366.117188 260.320312 C 362.824219 263.140625 359.535156 265.960938 356.242188 268.78125 C 349.464844 274.589844 342.6875 280.398438 335.914062 286.207031 C 329.335938 291.84375 322.707031 297.441406 316.273438 303.242188 C 313.0625 306.140625 309.871094 309.066406 306.769531 312.074219 C 303.808594 314.949219 300.355469 317.894531 298.558594 321.648438 C 298.03125 322.742188 298.90625 324.183594 300.210938 323.796875 C 303.925781 322.695312 307.117188 320.058594 310.210938 317.78125 C 313.734375 315.183594 317.148438 312.429688 320.574219 309.699219 C 327.554688 304.144531 334.324219 298.28125 341.125 292.5 C 347.734375 286.882812 354.34375 281.261719 360.949219 275.644531 C 364.449219 272.675781 367.945312 269.699219 371.445312 266.726562 C 372.15625 266.121094 372.882812 265.523438 373.605469 264.921875 C 373.664062 265.363281 373.675781 265.804688 373.785156 266.246094 C 374.171875 267.820312 374.785156 269.375 375.382812 270.878906 C 376.6875 274.183594 378.277344 277.316406 380.210938 280.296875 C 382.09375 283.195312 384.238281 285.953125 386.609375 288.472656 C 387.726562 289.660156 388.898438 290.832031 390.136719 291.894531 C 391.949219 293.441406 393.664062 293.761719 395.9375 294.058594 C 397.609375 294.277344 399.246094 292.089844 398.617188 290.542969 C 398.5 290.261719 398.390625 289.984375 398.28125 289.707031 C 405.75 287.433594 412.503906 282.5625 419.183594 278.625 C 426.832031 274.125 434.484375 269.625 442.128906 265.121094 C 455.675781 257.140625 469.179688 249.097656 482.695312 241.078125 C 482.96875 241.949219 483.261719 242.804688 483.5625 243.617188 C 484.335938 245.753906 485.222656 247.855469 486.0625 249.964844 C 487.035156 252.417969 488.097656 254.828125 489.125 257.257812 C 490.105469 259.585938 492.519531 263.15625 495.566406 261.871094 C 497.0625 261.238281 497.570312 259.617188 497.636719 258.109375 C 497.636719 258.082031 497.632812 258.058594 497.632812 258.03125 C 502.542969 257.171875 506.996094 254.34375 511.335938 251.914062 C 516.835938 248.835938 522.277344 245.65625 527.734375 242.503906 C 533.191406 239.351562 538.648438 236.199219 544.109375 233.046875 C 548.113281 230.734375 552.621094 228.640625 556.550781 225.992188 C 556.617188 226.117188 556.6875 226.242188 556.75 226.375 C 556.769531 226.433594 556.769531 226.4375 556.808594 226.539062 C 556.929688 226.925781 557.054688 227.3125 557.148438 227.707031 C 557.15625 227.738281 557.261719 228.347656 557.292969 228.445312 C 557.324219 228.785156 557.351562 229.128906 557.355469 229.472656 C 557.363281 229.960938 557.34375 230.445312 557.304688 230.933594 C 557.292969 231.003906 557.296875 230.992188 557.292969 231.03125 Z M 557.292969 231.03125 " fill-opacity="1" fill-rule="nonzero"/></svg>