<svg xmlns="http://www.w3.org/2000/svg" xmlns:xlink="http://www.w3.org/1999/xlink" width="500" zoomAndPan="magnify" viewBox="0 0 375 374.999991" height="500" preserveAspectRatio="xMidYMid meet" version="1.0"><defs><filter x="0%" y="0%" width="100%" height="100%" id="144c20e449"><feColorMatrix values="0 0 0 0 1 0 0 0 0 1 0 0 0 0 1 0 0 0 1 0" color-interpolation-filters="sRGB"/></filter><clipPath id="2f6791260e"><path d="M 187.5 0 C 83.945312 0 0 83.945312 0 187.5 C 0 291.054688 83.945312 375 187.5 375 C 291.054688 375 375 291.054688 375 187.5 C 375 83.945312 291.054688 0 187.5 0 Z M 187.5 0 " clip-rule="nonzero"/></clipPath><clipPath id="a6be96eb31"><path d="M 0 0 L 375 0 L 375 375 L 0 375 Z M 0 0 " clip-rule="nonzero"/></clipPath><clipPath id="14f6212c35"><path d="M 187.5 0 C 83.945312 0 0 83.945312 0 187.5 C 0 291.054688 83.945312 375 187.5 375 C 291.054688 375 375 291.054688 375 187.5 C 375 83.945312 291.054688 0 187.5 0 Z M 187.5 0 " clip-rule="nonzero"/></clipPath><clipPath id="5cda991173"><rect x="0" width="375" y="0" height="375"/></clipPath><mask id="1448458ed6"><g filter="url(#144c20e449)"><rect x="-37.5" width="450" fill="#000000" y="-37.499999" height="449.999989" fill-opacity="0.6"/></g></mask><clipPath id="ef0d493e32"><path d="M 0.0390625 0.0390625 L 196.839844 0.0390625 L 196.839844 196.839844 L 0.0390625 196.839844 Z M 0.0390625 0.0390625 " clip-rule="nonzero"/></clipPath><clipPath id="5998138dd5"><rect x="0" width="197" y="0" height="197"/></clipPath><mask id="3e5e374be0"><g filter="url(#144c20e449)"><rect x="-37.5" width="450" fill="#000000" y="-37.499999" height="449.999989" fill-opacity="0.6"/></g></mask><clipPath id="f0c1d42667"><path d="M 0.921875 0.921875 L 300.199219 0.921875 L 300.199219 300.199219 L 0.921875 300.199219 Z M 0.921875 0.921875 " clip-rule="nonzero"/></clipPath><clipPath id="3622f97366"><rect x="0" width="301" y="0" height="301"/></clipPath><clipPath id="ca2b612a33"><path d="M 117.644531 138.214844 L 136.394531 138.214844 L 136.394531 156.964844 L 117.644531 156.964844 Z M 117.644531 138.214844 " clip-rule="nonzero"/></clipPath><clipPath id="fb4e49c189"><path d="M 239.359375 217.929688 L 258 217.929688 L 258 236.679688 L 239.359375 236.679688 Z M 239.359375 217.929688 " clip-rule="nonzero"/></clipPath><clipPath id="532813d785"><path d="M 261.21875 98.355469 L 279.96875 98.355469 L 279.96875 117 L 261.21875 117 Z M 261.21875 98.355469 " clip-rule="nonzero"/></clipPath></defs><g clip-path="url(#2f6791260e)"><g transform="matrix(1, 0, 0, 1, 0, 0)"><g clip-path="url(#5cda991173)"><g clip-path="url(#a6be96eb31)"><g clip-path="url(#14f6212c35)"><rect x="-82.5" width="540" fill="#ebede8" height="539.999987" y="-82.499998" fill-opacity="1"/></g></g></g></g></g><path stroke-linecap="butt" transform="matrix(2.047851, 0, 0, 2.047851, -17.288565, -17.28857)" fill="none" stroke-linejoin="miter" d="M 119.999766 99.999767 C 119.999766 100.655942 119.967339 101.308303 119.904391 101.960663 C 119.839537 102.613024 119.744163 103.259662 119.616361 103.902485 C 119.488559 104.543401 119.32833 105.178594 119.139489 105.806157 C 118.94874 106.431813 118.727472 107.047931 118.477591 107.654512 C 118.22771 108.259185 117.94731 108.850506 117.638297 109.428475 C 117.329284 110.006443 116.993566 110.567245 116.629236 111.110878 C 116.264906 111.65642 115.875779 112.180979 115.459947 112.68837 C 115.044115 113.193854 114.605392 113.678356 114.141873 114.141875 C 113.678354 114.605395 113.193852 115.044117 112.688368 115.459949 C 112.180976 115.875781 111.656418 116.264908 111.110876 116.629238 C 110.567242 116.993568 110.006441 117.329286 109.428473 117.638299 C 108.850504 117.947312 108.259183 118.227713 107.65451 118.477593 C 107.047929 118.727474 106.431811 118.948743 105.806155 119.139491 C 105.178592 119.328333 104.543398 119.488561 103.902483 119.616363 C 103.25966 119.744165 102.613022 119.839539 101.960661 119.904394 C 101.3083 119.967341 100.65594 119.999768 99.999764 119.999768 C 99.345496 119.999768 98.691228 119.967341 98.038868 119.904394 C 97.388415 119.839539 96.739869 119.744165 96.098953 119.616363 C 95.45613 119.488561 94.820937 119.328333 94.193374 119.139491 C 93.567718 118.948743 92.9516 118.727474 92.346926 118.477593 C 91.740346 118.227713 91.149025 117.947312 90.572964 117.638299 C 89.994995 117.329286 89.432286 116.993568 88.888652 116.629238 C 88.343111 116.264908 87.818552 115.875781 87.313068 115.459949 C 86.805677 115.044117 86.321175 114.605395 85.857656 114.141875 C 85.394136 113.678356 84.955414 113.193854 84.539582 112.68837 C 84.12375 112.180979 83.734623 111.65642 83.370293 111.110878 C 83.005963 110.567245 82.670245 110.006443 82.361232 109.428475 C 82.052219 108.850506 81.773726 108.259185 81.521938 107.654512 C 81.272057 107.047931 81.050788 106.431813 80.861947 105.806157 C 80.671198 105.178594 80.512877 104.543401 80.385075 103.902485 C 80.257274 103.259662 80.159992 102.613024 80.097045 101.960663 C 80.03219 101.308303 79.999763 100.655942 79.999763 99.999767 C 79.999763 99.345499 80.03219 98.69123 80.097045 98.03887 C 80.159992 97.388417 80.257274 96.739871 80.385075 96.098956 C 80.512877 95.456132 80.671198 94.820939 80.861947 94.193376 C 81.050788 93.56772 81.272057 92.951602 81.521938 92.346929 C 81.773726 91.740348 82.052219 91.149027 82.361232 90.572966 C 82.670245 89.994997 83.005963 89.432288 83.370293 88.888655 C 83.734623 88.343113 84.12375 87.818554 84.539582 87.31307 C 84.955414 86.805679 85.394136 86.321177 85.857656 85.857658 C 86.321175 85.394138 86.805677 84.955416 87.313068 84.539584 C 87.818552 84.123752 88.343111 83.734625 88.888652 83.370295 C 89.432286 83.005965 89.994995 82.670247 90.572964 82.361234 C 91.149025 82.052221 91.740346 81.773728 92.346926 81.52194 C 92.9516 81.272059 93.567718 81.050791 94.193374 80.861949 C 94.820937 80.671201 95.45613 80.512879 96.098953 80.385078 C 96.739869 80.257276 97.388415 80.159994 98.038868 80.097047 C 98.691228 80.032192 99.345496 79.999765 99.999764 79.999765 C 100.65594 79.999765 101.3083 80.032192 101.960661 80.097047 C 102.613022 80.159994 103.25966 80.257276 103.902483 80.385078 C 104.543398 80.512879 105.178592 80.671201 105.806155 80.861949 C 106.431811 81.050791 107.047929 81.272059 107.65451 81.52194 C 108.259183 81.773728 108.850504 82.052221 109.428473 82.361234 C 110.006441 82.670247 110.567242 83.005965 111.110876 83.370295 C 111.656418 83.734625 112.180976 84.123752 112.688368 84.539584 C 113.193852 84.955416 113.678354 85.394138 114.141873 85.857658 C 114.605392 86.321177 115.044115 86.805679 115.459947 87.31307 C 115.875779 87.818554 116.264906 88.343113 116.629236 88.888655 C 116.993566 89.432288 117.329284 89.994997 117.638297 90.572966 C 117.94731 91.149027 118.22771 91.740348 118.477591 92.346929 C 118.727472 92.951602 118.94874 93.56772 119.139489 94.193376 C 119.32833 94.820939 119.488559 95.456132 119.616361 96.098956 C 119.744163 96.739871 119.839537 97.388417 119.904391 98.03887 C 119.967339 98.69123 119.999766 99.345499 119.999766 99.999767 Z M 119.999766 99.999767 " stroke="#004838" stroke-width="6" stroke-opacity="1" stroke-miterlimit="4"/><g mask="url(#1448458ed6)"><g transform="matrix(1, 0, 0, 1, 89, 89)"><g clip-path="url(#5998138dd5)"><g clip-path="url(#ef0d493e32)"><path stroke-linecap="butt" transform="matrix(2.047851, 0, 0, 2.047851, -106.288565, -106.288569)" fill="none" stroke-linejoin="miter" d="M 144.99929 99.999766 C 144.99929 100.736056 144.982123 101.472346 144.945881 102.208636 C 144.909638 102.943019 144.856229 103.677401 144.783744 104.409876 C 144.71126 105.144259 144.621608 105.874826 144.512881 106.603486 C 144.404154 107.332146 144.27826 108.056991 144.135199 108.779929 C 143.992137 109.500959 143.830001 110.220082 143.650697 110.933482 C 143.473301 111.648789 143.27683 112.358375 143.063191 113.062237 C 142.847645 113.768008 142.616839 114.466148 142.368866 115.160473 C 142.120892 115.852891 141.855752 116.539586 141.575351 117.220559 C 141.293043 117.901532 140.993568 118.574875 140.678832 119.240588 C 140.364097 119.906301 140.034102 120.562476 139.686939 121.212929 C 139.339776 121.861475 138.975446 122.502391 138.597764 123.133769 C 138.220081 123.767055 137.825232 124.388895 137.417029 125.001199 C 137.00692 125.613502 136.583458 126.21436 136.144736 126.805681 C 135.706014 127.39891 135.252032 127.978786 134.784697 128.547217 C 134.317363 129.117556 133.836676 129.674542 133.342637 130.220083 C 132.848598 130.765624 132.341206 131.299721 131.820463 131.820465 C 131.299719 132.341209 130.765622 132.8486 130.220081 133.342639 C 129.67454 133.836678 129.117553 134.317365 128.547215 134.7847 C 127.978784 135.252034 127.398908 135.706016 126.805679 136.144738 C 126.214358 136.58346 125.6135 137.006922 125.001196 137.417032 C 124.388893 137.825234 123.767052 138.220084 123.133767 138.597766 C 122.502388 138.975449 121.861473 139.339779 121.212927 139.686941 C 120.562474 140.034104 119.906299 140.364099 119.240586 140.678834 C 118.574873 140.99357 117.90153 141.293045 117.220557 141.575353 C 116.539584 141.855754 115.852889 142.120895 115.160471 142.368868 C 114.466146 142.616841 113.768005 142.847647 113.062235 143.063193 C 112.358372 143.276832 111.648787 143.473303 110.93348 143.650699 C 110.220079 143.830003 109.500957 143.992139 108.779927 144.135201 C 108.056989 144.278262 107.332144 144.404157 106.603484 144.512883 C 105.874824 144.62161 105.144257 144.711262 104.409874 144.783747 C 103.677399 144.856231 102.943017 144.909641 102.208634 144.945883 C 101.472344 144.982125 100.736054 144.999293 99.999764 144.999293 C 99.263474 144.999293 98.527184 144.982125 97.792802 144.945883 C 97.056512 144.909641 96.322129 144.856231 95.589654 144.783747 C 94.857179 144.711262 94.124704 144.62161 93.397951 144.512883 C 92.669291 144.404157 91.942539 144.278262 91.221509 144.135201 C 90.498571 143.992139 89.779449 143.830003 89.066048 143.650699 C 88.350741 143.473303 87.641156 143.276832 86.937293 143.063193 C 86.231523 142.847647 85.533382 142.616841 84.839057 142.368868 C 84.146639 142.120895 83.459944 141.855754 82.778971 141.575353 C 82.097998 141.293045 81.426563 140.99357 80.76085 140.678834 C 80.095137 140.364099 79.437054 140.034104 78.786601 139.686941 C 78.138055 139.339779 77.49714 138.975449 76.865761 138.597766 C 76.234383 138.220084 75.612542 137.825234 75.000239 137.417032 C 74.387936 137.006922 73.78517 136.58346 73.193849 136.144738 C 72.602528 135.706016 72.020744 135.252034 71.452313 134.7847 C 70.883882 134.317365 70.324988 133.836678 69.779447 133.342639 C 69.233906 132.8486 68.701717 132.341209 68.180973 131.820465 C 67.660229 131.299721 67.15093 130.765624 66.656891 130.220083 C 66.162852 129.674542 65.682165 129.117556 65.214831 128.547217 C 64.747496 127.978786 64.293514 127.39891 63.854792 126.805681 C 63.41607 126.21436 62.992608 125.613502 62.584406 125.001199 C 62.174296 124.388895 61.781354 123.767055 61.401764 123.133769 C 61.024082 122.502391 60.659752 121.861475 60.312589 121.212929 C 59.965426 120.562476 59.635431 119.906301 59.320696 119.240588 C 59.00596 118.574875 58.706485 117.901532 58.426084 117.220559 C 58.143776 116.539586 57.878636 115.852891 57.630662 115.160473 C 57.382689 114.466148 57.151883 113.768008 56.938245 113.062237 C 56.724606 112.358375 56.528135 111.648789 56.348831 110.933482 C 56.169527 110.220082 56.007391 109.500959 55.864329 108.779929 C 55.721268 108.056991 55.595374 107.332146 55.486647 106.603486 C 55.379828 105.874826 55.288268 105.144259 55.215784 104.409876 C 55.145207 103.677401 55.08989 102.943019 55.053647 102.208636 C 55.017405 101.472346 55.000238 100.736056 55.000238 99.999766 C 55.000238 99.263476 55.017405 98.527186 55.053647 97.792804 C 55.08989 97.056514 55.145207 96.322131 55.215784 95.589656 C 55.288268 94.857181 55.379828 94.124706 55.486647 93.397954 C 55.595374 92.669294 55.721268 91.942541 55.864329 91.221511 C 56.007391 90.498573 56.169527 89.779451 56.348831 89.066051 C 56.528135 88.350743 56.724606 87.641158 56.938245 86.937295 C 57.151883 86.231525 57.382689 85.533385 57.630662 84.839059 C 57.878636 84.146642 58.143776 83.459946 58.426084 82.778973 C 58.706485 82.098001 59.00596 81.426565 59.320696 80.760852 C 59.635431 80.095139 59.965426 79.437056 60.312589 78.786603 C 60.659752 78.138057 61.024082 77.497142 61.401764 76.865764 C 61.781354 76.234385 62.174296 75.612545 62.584406 75.000241 C 62.992608 74.387938 63.41607 73.785172 63.854792 73.193851 C 64.293514 72.60253 64.747496 72.020747 65.214831 71.452315 C 65.682165 70.883884 66.162852 70.324991 66.656891 69.779449 C 67.15093 69.233908 67.660229 68.701719 68.180973 68.180975 C 68.701717 67.660231 69.233906 67.150932 69.779447 66.656893 C 70.324988 66.162854 70.883882 65.682167 71.452313 65.214833 C 72.020744 64.747499 72.602528 64.293517 73.193849 63.854795 C 73.78517 63.416073 74.387936 62.992611 75.000239 62.584408 C 75.612542 62.174299 76.234383 61.781356 76.865761 61.401766 C 77.49714 61.024084 78.138055 60.659754 78.786601 60.312591 C 79.437054 59.965429 80.095137 59.635433 80.76085 59.320698 C 81.426563 59.005963 82.097998 58.706487 82.778971 58.426087 C 83.459944 58.143779 84.146639 57.878638 84.839057 57.630665 C 85.533382 57.382691 86.231523 57.151885 86.937293 56.938247 C 87.641156 56.724608 88.350741 56.528137 89.066048 56.348833 C 89.779449 56.169529 90.498571 56.007393 91.221509 55.864332 C 91.942539 55.72127 92.669291 55.595376 93.397951 55.486649 C 94.124704 55.37983 94.857179 55.28827 95.589654 55.215786 C 96.322129 55.145209 97.056512 55.089892 97.792802 55.05365 C 98.527184 55.017407 99.263474 55.00024 99.999764 55.00024 C 100.736054 55.00024 101.472344 55.017407 102.208634 55.05365 C 102.943017 55.089892 103.677399 55.145209 104.409874 55.215786 C 105.144257 55.28827 105.874824 55.37983 106.603484 55.486649 C 107.332144 55.595376 108.056989 55.72127 108.779927 55.864332 C 109.500957 56.007393 110.220079 56.169529 110.93348 56.348833 C 111.648787 56.528137 112.358372 56.724608 113.062235 56.938247 C 113.768005 57.151885 114.466146 57.382691 115.160471 57.630665 C 115.852889 57.878638 116.539584 58.143779 117.220557 58.426087 C 117.90153 58.706487 118.574873 59.005963 119.240586 59.320698 C 119.906299 59.635433 120.562474 59.965429 121.212927 60.312591 C 121.861473 60.659754 122.502388 61.024084 123.133767 61.401766 C 123.767052 61.781356 124.388893 62.174299 125.001196 62.584408 C 125.6135 62.992611 126.214358 63.416073 126.805679 63.854795 C 127.398908 64.293517 127.978784 64.747499 128.547215 65.214833 C 129.117553 65.682167 129.67454 66.162854 130.220081 66.656893 C 130.765622 67.150932 131.299719 67.660231 131.820463 68.180975 C 132.341206 68.701719 132.848598 69.233908 133.342637 69.779449 C 133.836676 70.324991 134.317363 70.883884 134.784697 71.452315 C 135.252032 72.020747 135.706014 72.60253 136.144736 73.193851 C 136.583458 73.785172 137.00692 74.387938 137.417029 75.000241 C 137.825232 75.612545 138.220081 76.234385 138.597764 76.865764 C 138.975446 77.497142 139.339776 78.138057 139.686939 78.786603 C 140.034102 79.437056 140.364097 80.095139 140.678832 80.760852 C 140.993568 81.426565 141.293043 82.098001 141.575351 82.778973 C 141.855752 83.459946 142.120892 84.146642 142.368866 84.839059 C 142.616839 85.533385 142.847645 86.231525 143.063191 86.937295 C 143.27683 87.641158 143.473301 88.350743 143.650697 89.066051 C 143.830001 89.779451 143.992137 90.498573 144.135199 91.221511 C 144.27826 91.942541 144.404154 92.669294 144.512881 93.397954 C 144.621608 94.124706 144.71126 94.857181 144.783744 95.589656 C 144.856229 96.322131 144.909638 97.056514 144.945881 97.792804 C 144.982123 98.527186 144.99929 99.263476 144.99929 99.999766 Z M 144.99929 99.999766 " stroke="#004838" stroke-width="6" stroke-opacity="1" stroke-miterlimit="4"/></g></g></g></g><g mask="url(#3e5e374be0)"><g transform="matrix(1, 0, 0, 1, 37, 37)"><g clip-path="url(#3622f97366)"><g clip-path="url(#f0c1d42667)"><path stroke-linecap="butt" transform="matrix(2.047851, 0, 0, 2.047851, -54.288565, -54.288569)" fill="none" stroke-linejoin="miter" d="M 170.000723 99.999766 C 170.000723 101.146166 169.97211 102.290658 169.914886 103.43515 C 169.859569 104.579643 169.775639 105.72032 169.663098 106.860997 C 169.550556 108.001674 169.411309 109.138537 169.241543 110.271584 C 169.073684 111.404631 168.87912 112.531956 168.654037 113.655466 C 168.430861 114.778976 168.18098 115.896763 167.902487 117.008828 C 167.623994 118.118985 167.318796 119.22342 166.984986 120.320225 C 166.653083 121.41703 166.294475 122.504298 165.907256 123.582028 C 165.521943 124.661666 165.109926 125.729859 164.671204 126.788514 C 164.232482 127.847169 163.768963 128.892472 163.278738 129.928238 C 162.788514 130.964003 162.2754 131.988324 161.733674 132.997384 C 161.193855 134.008352 160.629239 135.004061 160.041733 135.986416 C 159.452319 136.97068 158.840016 137.937776 158.202916 138.889612 C 157.565815 139.843355 156.907732 140.778024 156.224851 141.69934 C 155.541971 142.618749 154.838108 143.522898 154.111356 144.407972 C 153.384603 145.293046 152.634961 146.160952 151.866244 147.009784 C 151.097526 147.858616 150.307827 148.686465 149.497145 149.497147 C 148.686463 150.307829 147.858613 151.097529 147.009782 151.866246 C 146.16095 152.634963 145.293043 153.384605 144.407969 154.111358 C 143.522895 154.838111 142.618747 155.541973 141.699338 156.224854 C 140.778022 156.907734 139.843353 157.565817 138.889609 158.202918 C 137.937773 158.840018 136.970677 159.452322 135.986414 160.041735 C 135.004058 160.629241 134.00835 161.193857 132.997382 161.733676 C 131.988321 162.275402 130.964001 162.788516 129.928235 163.278741 C 128.89247 163.768965 127.847167 164.232484 126.788512 164.671206 C 125.729856 165.109928 124.661664 165.521945 123.582026 165.907258 C 122.504296 166.294478 121.417028 166.653085 120.320223 166.984988 C 119.223418 167.318798 118.118983 167.623996 117.008826 167.902489 C 115.896761 168.180982 114.778973 168.430863 113.655464 168.654039 C 112.531954 168.879123 111.404629 169.073686 110.271582 169.241545 C 109.138534 169.411311 108.001672 169.550558 106.860995 169.6631 C 105.720318 169.775641 104.57964 169.859571 103.435148 169.914888 C 102.290656 169.972113 101.146164 170.000725 99.999764 170.000725 C 98.855272 170.000725 97.708872 169.972113 96.56438 169.914888 C 95.421795 169.859571 94.27921 169.775641 93.138533 169.6631 C 91.997856 169.550558 90.862901 169.411311 89.727946 169.241545 C 88.594899 169.073686 87.467574 168.879123 86.344064 168.654039 C 85.220555 168.430863 84.102767 168.180982 82.990702 167.902489 C 81.880545 167.623996 80.77611 167.318798 79.679305 166.984988 C 78.584407 166.653085 77.49714 166.294478 76.417502 165.907258 C 75.339772 165.521945 74.269672 165.109928 73.212924 164.671206 C 72.154268 164.232484 71.107058 163.768965 70.071293 163.278741 C 69.035527 162.788516 68.013114 162.275402 67.002146 161.733676 C 65.991178 161.193857 64.99547 160.629241 64.013114 160.041735 C 63.030758 159.452322 62.061755 158.840018 61.109919 158.202918 C 60.158083 157.565817 59.221506 156.907734 58.30019 156.224854 C 57.380782 155.541973 56.47854 154.838111 55.591559 154.111358 C 54.706485 153.384605 53.840486 152.634963 52.991654 151.866246 C 52.142822 151.097529 51.313065 150.307829 50.502383 149.497147 C 49.691701 148.686465 48.902002 147.858616 48.133284 147.009784 C 47.364567 146.160952 46.616832 145.293046 45.89008 144.407972 C 45.163327 143.522898 44.457557 142.618749 43.774677 141.69934 C 43.093704 140.778024 42.433713 139.843355 41.796613 138.889612 C 41.161419 137.937776 40.547209 136.97068 39.959703 135.986416 C 39.370289 135.004061 38.805673 134.008352 38.265854 132.997384 C 37.726035 131.988324 37.211014 130.964003 36.72079 129.928238 C 36.230565 128.892472 35.767046 127.847169 35.328324 126.788514 C 34.889602 125.729859 34.477585 124.661666 34.092272 123.582028 C 33.705053 122.504298 33.346445 121.41703 33.014542 120.320225 C 32.680732 119.22342 32.375534 118.118985 32.097041 117.008828 C 31.818548 115.896763 31.568667 114.778976 31.345491 113.655466 C 31.122315 112.531956 30.925844 111.404631 30.757985 110.271584 C 30.590126 109.138537 30.448972 108.001674 30.336431 106.860997 C 30.223889 105.72032 30.139959 104.579643 30.084642 103.43515 C 30.027418 102.290658 30.000713 101.146166 30.000713 99.999766 C 30.000713 98.855274 30.027418 97.708874 30.084642 96.564382 C 30.139959 95.421797 30.223889 94.279213 30.336431 93.138535 C 30.448972 91.997858 30.590126 90.862903 30.757985 89.727949 C 30.925844 88.594901 31.122315 87.467576 31.345491 86.344067 C 31.568667 85.220557 31.818548 84.102769 32.097041 82.990704 C 32.375534 81.880547 32.680732 80.776112 33.014542 79.679307 C 33.346445 78.584409 33.705053 77.497142 34.092272 76.417504 C 34.477585 75.339774 34.889602 74.269674 35.328324 73.212926 C 35.767046 72.154271 36.230565 71.10706 36.72079 70.071295 C 37.211014 69.035529 37.726035 68.013116 38.265854 67.002148 C 38.805673 65.99118 39.370289 64.995472 39.959703 64.013116 C 40.547209 63.03076 41.161419 62.061757 41.796613 61.109921 C 42.433713 60.158085 43.093704 59.221509 43.774677 58.300192 C 44.457557 57.380784 45.163327 56.478542 45.89008 55.591561 C 46.616832 54.706487 47.364567 53.840488 48.133284 52.991656 C 48.902002 52.142824 49.691701 51.313067 50.502383 50.502386 C 51.313065 49.691704 52.142822 48.902004 52.991654 48.133287 C 53.840486 47.364569 54.706485 46.616834 55.591559 45.890082 C 56.47854 45.163329 57.380782 44.457559 58.30019 43.774679 C 59.221506 43.093706 60.158083 42.433715 61.109919 41.796615 C 62.061755 41.161422 63.030758 40.547211 64.013114 39.959705 C 64.99547 39.370291 65.991178 38.805675 67.002146 38.265856 C 68.013114 37.726037 69.035527 37.211016 70.071293 36.720792 C 71.107058 36.230568 72.154268 35.767048 73.212924 35.328326 C 74.269672 34.889604 75.339772 34.477587 76.417502 34.092275 C 77.49714 33.705055 78.584407 33.346447 79.679305 33.014545 C 80.77611 32.680734 81.880545 32.375536 82.990702 32.097043 C 84.102767 31.81855 85.220555 31.568669 86.344064 31.345493 C 87.467574 31.122317 88.594899 30.925846 89.727946 30.757987 C 90.862901 30.590129 91.997856 30.448974 93.138533 30.336433 C 94.27921 30.223891 95.421795 30.139962 96.56438 30.084644 C 97.708872 30.02742 98.855272 30.000715 99.999764 30.000715 C 101.146164 30.000715 102.290656 30.02742 103.435148 30.084644 C 104.57964 30.139962 105.720318 30.223891 106.860995 30.336433 C 108.001672 30.448974 109.138534 30.590129 110.271582 30.757987 C 111.404629 30.925846 112.531954 31.122317 113.655464 31.345493 C 114.778973 31.568669 115.896761 31.81855 117.008826 32.097043 C 118.118983 32.375536 119.223418 32.680734 120.320223 33.014545 C 121.417028 33.346447 122.504296 33.705055 123.582026 34.092275 C 124.661664 34.477587 125.729856 34.889604 126.788512 35.328326 C 127.847167 35.767048 128.89247 36.230568 129.928235 36.720792 C 130.964001 37.211016 131.988321 37.726037 132.997382 38.265856 C 134.00835 38.805675 135.004058 39.370291 135.986414 39.959705 C 136.970677 40.547211 137.937773 41.161422 138.889609 41.796615 C 139.843353 42.433715 140.778022 43.093706 141.699338 43.774679 C 142.618747 44.457559 143.522895 45.163329 144.407969 45.890082 C 145.293043 46.616834 146.16095 47.364569 147.009782 48.133287 C 147.858613 48.902004 148.686463 49.691704 149.497145 50.502386 C 150.307827 51.313067 151.097526 52.142824 151.866244 52.991656 C 152.634961 53.840488 153.384603 54.706487 154.111356 55.591561 C 154.838108 56.478542 155.541971 57.380784 156.224851 58.300192 C 156.907732 59.221509 157.565815 60.158085 158.202916 61.109921 C 158.840016 62.061757 159.452319 63.03076 160.041733 64.013116 C 160.629239 64.995472 161.193855 65.99118 161.733674 67.002148 C 162.2754 68.013116 162.788514 69.035529 163.278738 70.071295 C 163.768963 71.10706 164.232482 72.154271 164.671204 73.212926 C 165.109926 74.269674 165.521943 75.339774 165.907256 76.417504 C 166.294475 77.497142 166.653083 78.584409 166.984986 79.679307 C 167.318796 80.776112 167.623994 81.880547 167.902487 82.990704 C 168.18098 84.102769 168.430861 85.220557 168.654037 86.344067 C 168.87912 87.467576 169.073684 88.594901 169.241543 89.727949 C 169.411309 90.862903 169.550556 91.997858 169.663098 93.138535 C 169.775639 94.279213 169.859569 95.421797 169.914886 96.564382 C 169.97211 97.708874 170.000723 98.855274 170.000723 99.999766 Z M 170.000723 99.999766 " stroke="#004838" stroke-width="6" stroke-opacity="1" stroke-miterlimit="4"/></g></g></g></g><path stroke-linecap="round" transform="matrix(2.047851, 0, 0, 2.047851, -17.288565, -17.28857)" fill-opacity="1" fill="#000000" fill-rule="nonzero" stroke-linejoin="miter" d="M 99.999764 99.999767 L 170.000723 59.999764 " stroke="#e2fb6c" stroke-width="8" stroke-opacity="1" stroke-miterlimit="4"/><path fill="#004838" d="M 339.039062 105.582031 C 339.039062 106.121094 338.984375 106.652344 338.878906 107.179688 C 338.773438 107.707031 338.621094 108.21875 338.414062 108.71875 C 338.207031 109.214844 337.957031 109.6875 337.65625 110.132812 C 337.359375 110.582031 337.019531 110.996094 336.636719 111.375 C 336.257812 111.753906 335.84375 112.09375 335.398438 112.394531 C 334.949219 112.691406 334.476562 112.945312 333.980469 113.148438 C 333.484375 113.355469 332.972656 113.511719 332.445312 113.617188 C 331.917969 113.722656 331.382812 113.773438 330.847656 113.773438 C 330.308594 113.773438 329.777344 113.722656 329.25 113.617188 C 328.71875 113.511719 328.207031 113.355469 327.710938 113.148438 C 327.214844 112.945312 326.742188 112.691406 326.296875 112.394531 C 325.847656 112.09375 325.433594 111.753906 325.054688 111.375 C 324.671875 110.996094 324.335938 110.582031 324.035156 110.132812 C 323.738281 109.6875 323.484375 109.214844 323.277344 108.71875 C 323.074219 108.21875 322.917969 107.707031 322.8125 107.179688 C 322.707031 106.652344 322.65625 106.121094 322.65625 105.582031 C 322.65625 105.042969 322.707031 104.511719 322.8125 103.984375 C 322.917969 103.457031 323.074219 102.945312 323.277344 102.449219 C 323.484375 101.949219 323.738281 101.480469 324.035156 101.03125 C 324.335938 100.585938 324.671875 100.171875 325.054688 99.789062 C 325.433594 99.410156 325.847656 99.070312 326.296875 98.773438 C 326.742188 98.472656 327.214844 98.21875 327.710938 98.015625 C 328.207031 97.808594 328.71875 97.652344 329.25 97.546875 C 329.777344 97.445312 330.308594 97.390625 330.847656 97.390625 C 331.382812 97.390625 331.917969 97.445312 332.445312 97.546875 C 332.972656 97.652344 333.484375 97.808594 333.980469 98.015625 C 334.476562 98.21875 334.949219 98.472656 335.398438 98.773438 C 335.84375 99.070312 336.257812 99.410156 336.636719 99.789062 C 337.019531 100.171875 337.359375 100.585938 337.65625 101.03125 C 337.957031 101.480469 338.207031 101.949219 338.414062 102.449219 C 338.621094 102.945312 338.773438 103.457031 338.878906 103.984375 C 338.984375 104.511719 339.039062 105.042969 339.039062 105.582031 Z M 339.039062 105.582031 " fill-opacity="1" fill-rule="nonzero"/><path fill="#e07a5f" d="M 255.074219 228.453125 C 255.074219 228.855469 255.035156 229.257812 254.957031 229.652344 C 254.878906 230.046875 254.761719 230.433594 254.609375 230.804688 C 254.453125 231.175781 254.265625 231.53125 254.039062 231.867188 C 253.816406 232.203125 253.5625 232.511719 253.277344 232.796875 C 252.992188 233.082031 252.679688 233.335938 252.34375 233.5625 C 252.011719 233.785156 251.65625 233.976562 251.28125 234.128906 C 250.910156 234.285156 250.527344 234.398438 250.128906 234.480469 C 249.734375 234.558594 249.335938 234.597656 248.933594 234.597656 C 248.527344 234.597656 248.128906 234.558594 247.734375 234.480469 C 247.339844 234.398438 246.953125 234.285156 246.582031 234.128906 C 246.207031 233.976562 245.855469 233.785156 245.519531 233.5625 C 245.183594 233.335938 244.875 233.082031 244.589844 232.796875 C 244.300781 232.511719 244.046875 232.203125 243.824219 231.867188 C 243.601562 231.53125 243.410156 231.175781 243.257812 230.804688 C 243.101562 230.433594 242.984375 230.046875 242.90625 229.652344 C 242.828125 229.257812 242.789062 228.855469 242.789062 228.453125 C 242.789062 228.050781 242.828125 227.652344 242.90625 227.253906 C 242.984375 226.859375 243.101562 226.476562 243.257812 226.101562 C 243.410156 225.730469 243.601562 225.375 243.824219 225.039062 C 244.046875 224.703125 244.300781 224.394531 244.589844 224.109375 C 244.875 223.824219 245.183594 223.570312 245.519531 223.34375 C 245.855469 223.121094 246.207031 222.933594 246.582031 222.777344 C 246.953125 222.625 247.339844 222.507812 247.734375 222.429688 C 248.128906 222.347656 248.527344 222.308594 248.933594 222.308594 C 249.335938 222.308594 249.734375 222.347656 250.128906 222.429688 C 250.527344 222.507812 250.910156 222.625 251.28125 222.777344 C 251.65625 222.933594 252.011719 223.121094 252.34375 223.34375 C 252.679688 223.570312 252.992188 223.824219 253.277344 224.109375 C 253.5625 224.394531 253.816406 224.703125 254.039062 225.039062 C 254.265625 225.375 254.453125 225.730469 254.609375 226.101562 C 254.761719 226.476562 254.878906 226.859375 254.957031 227.253906 C 255.035156 227.652344 255.074219 228.050781 255.074219 228.453125 Z M 255.074219 228.453125 " fill-opacity="1" fill-rule="nonzero"/><path fill="#e07a5f" d="M 132.203125 146.539062 C 132.203125 146.941406 132.164062 147.34375 132.085938 147.738281 C 132.007812 148.132812 131.890625 148.519531 131.738281 148.890625 C 131.582031 149.261719 131.394531 149.617188 131.167969 149.953125 C 130.945312 150.289062 130.691406 150.597656 130.40625 150.882812 C 130.121094 151.167969 129.808594 151.421875 129.472656 151.648438 C 129.140625 151.871094 128.785156 152.0625 128.410156 152.214844 C 128.039062 152.371094 127.65625 152.488281 127.257812 152.566406 C 126.863281 152.644531 126.464844 152.683594 126.0625 152.683594 C 125.65625 152.683594 125.257812 152.644531 124.863281 152.566406 C 124.46875 152.488281 124.082031 152.371094 123.710938 152.214844 C 123.335938 152.0625 122.984375 151.871094 122.648438 151.648438 C 122.3125 151.421875 122.003906 151.167969 121.71875 150.882812 C 121.429688 150.597656 121.175781 150.289062 120.953125 149.953125 C 120.730469 149.617188 120.539062 149.261719 120.386719 148.890625 C 120.230469 148.519531 120.113281 148.132812 120.035156 147.738281 C 119.957031 147.34375 119.917969 146.941406 119.917969 146.539062 C 119.917969 146.136719 119.957031 145.738281 120.035156 145.339844 C 120.113281 144.945312 120.230469 144.5625 120.386719 144.1875 C 120.539062 143.816406 120.730469 143.460938 120.953125 143.125 C 121.175781 142.789062 121.429688 142.480469 121.71875 142.195312 C 122.003906 141.910156 122.3125 141.65625 122.648438 141.429688 C 122.984375 141.207031 123.335938 141.019531 123.710938 140.863281 C 124.082031 140.710938 124.46875 140.59375 124.863281 140.515625 C 125.257812 140.433594 125.65625 140.394531 126.0625 140.394531 C 126.464844 140.394531 126.863281 140.433594 127.257812 140.515625 C 127.65625 140.59375 128.039062 140.710938 128.410156 140.863281 C 128.785156 141.019531 129.140625 141.207031 129.472656 141.429688 C 129.808594 141.65625 130.121094 141.910156 130.40625 142.195312 C 130.691406 142.480469 130.945312 142.789062 131.167969 143.125 C 131.394531 143.460938 131.582031 143.816406 131.738281 144.1875 C 131.890625 144.5625 132.007812 144.945312 132.085938 145.339844 C 132.164062 145.738281 132.203125 146.136719 132.203125 146.539062 Z M 132.203125 146.539062 " fill-opacity="1" fill-rule="nonzero"/><path fill="#f2cc8f" d="M 274.53125 109.679688 C 274.53125 110.015625 274.496094 110.347656 274.433594 110.675781 C 274.367188 111.007812 274.269531 111.328125 274.140625 111.636719 C 274.011719 111.949219 273.855469 112.242188 273.667969 112.523438 C 273.480469 112.800781 273.269531 113.0625 273.03125 113.296875 C 272.792969 113.535156 272.535156 113.75 272.253906 113.933594 C 271.976562 114.121094 271.679688 114.28125 271.371094 114.40625 C 271.058594 114.535156 270.738281 114.632812 270.410156 114.699219 C 270.078125 114.765625 269.746094 114.796875 269.410156 114.796875 C 269.074219 114.796875 268.742188 114.765625 268.410156 114.699219 C 268.082031 114.632812 267.761719 114.535156 267.453125 114.40625 C 267.140625 114.28125 266.847656 114.121094 266.566406 113.933594 C 266.285156 113.75 266.027344 113.535156 265.789062 113.296875 C 265.554688 113.0625 265.339844 112.800781 265.152344 112.523438 C 264.96875 112.242188 264.808594 111.949219 264.679688 111.636719 C 264.550781 111.328125 264.453125 111.007812 264.390625 110.675781 C 264.324219 110.347656 264.289062 110.015625 264.289062 109.679688 C 264.289062 109.34375 264.324219 109.007812 264.390625 108.679688 C 264.453125 108.351562 264.550781 108.03125 264.679688 107.71875 C 264.808594 107.410156 264.96875 107.113281 265.152344 106.832031 C 265.339844 106.554688 265.554688 106.296875 265.789062 106.058594 C 266.027344 105.820312 266.285156 105.609375 266.566406 105.421875 C 266.847656 105.234375 267.140625 105.078125 267.453125 104.949219 C 267.761719 104.820312 268.082031 104.722656 268.410156 104.65625 C 268.742188 104.589844 269.074219 104.558594 269.410156 104.558594 C 269.746094 104.558594 270.078125 104.589844 270.410156 104.65625 C 270.738281 104.722656 271.058594 104.820312 271.371094 104.949219 C 271.679688 105.078125 271.976562 105.234375 272.253906 105.421875 C 272.535156 105.609375 272.792969 105.820312 273.03125 106.058594 C 273.269531 106.296875 273.480469 106.554688 273.667969 106.832031 C 273.855469 107.113281 274.011719 107.410156 274.140625 107.71875 C 274.269531 108.03125 274.367188 108.351562 274.433594 108.679688 C 274.496094 109.007812 274.53125 109.34375 274.53125 109.679688 Z M 274.53125 109.679688 " fill-opacity="1" fill-rule="nonzero"/><path fill="#004838" d="M 193.640625 187.496094 C 193.640625 187.898438 193.601562 188.300781 193.523438 188.695312 C 193.445312 189.089844 193.328125 189.476562 193.171875 189.847656 C 193.019531 190.21875 192.828125 190.574219 192.605469 190.910156 C 192.378906 191.246094 192.125 191.554688 191.839844 191.839844 C 191.554688 192.125 191.246094 192.378906 190.910156 192.605469 C 190.574219 192.828125 190.21875 193.019531 189.847656 193.171875 C 189.476562 193.328125 189.089844 193.441406 188.695312 193.523438 C 188.300781 193.601562 187.898438 193.640625 187.496094 193.640625 C 187.09375 193.640625 186.695312 193.601562 186.296875 193.523438 C 185.902344 193.441406 185.519531 193.328125 185.144531 193.171875 C 184.773438 193.019531 184.417969 192.828125 184.082031 192.605469 C 183.746094 192.378906 183.4375 192.125 183.152344 191.839844 C 182.867188 191.554688 182.613281 191.246094 182.386719 190.910156 C 182.164062 190.574219 181.976562 190.21875 181.820312 189.847656 C 181.667969 189.476562 181.550781 189.089844 181.472656 188.695312 C 181.390625 188.300781 181.351562 187.898438 181.351562 187.496094 C 181.351562 187.09375 181.390625 186.695312 181.472656 186.296875 C 181.550781 185.902344 181.667969 185.519531 181.820312 185.144531 C 181.976562 184.773438 182.164062 184.417969 182.386719 184.082031 C 182.613281 183.746094 182.867188 183.4375 183.152344 183.152344 C 183.4375 182.867188 183.746094 182.613281 184.082031 182.386719 C 184.417969 182.164062 184.773438 181.976562 185.144531 181.820312 C 185.519531 181.667969 185.902344 181.550781 186.296875 181.472656 C 186.695312 181.390625 187.09375 181.351562 187.496094 181.351562 C 187.898438 181.351562 188.300781 181.390625 188.695312 181.472656 C 189.089844 181.550781 189.476562 181.667969 189.847656 181.820312 C 190.21875 181.976562 190.574219 182.164062 190.910156 182.386719 C 191.246094 182.613281 191.554688 182.867188 191.839844 183.152344 C 192.125 183.4375 192.378906 183.746094 192.605469 184.082031 C 192.828125 184.417969 193.019531 184.773438 193.171875 185.144531 C 193.328125 185.519531 193.445312 185.902344 193.523438 186.296875 C 193.601562 186.695312 193.640625 187.09375 193.640625 187.496094 Z M 193.640625 187.496094 " fill-opacity="1" fill-rule="nonzero"/><path stroke-linecap="round" transform="matrix(0.649519, -0.375, 0.375, 0.649519, 176.158865, 184.310993)" fill="none" stroke-linejoin="miter" d="M 11.500136 11.501293 L 230.261479 11.501819 " stroke="#000000" stroke-width="23" stroke-opacity="1" stroke-miterlimit="4"/><g clip-path="url(#ca2b612a33)"><path fill="#e07a5f" d="M 136.054688 147.421875 C 136.054688 148.023438 135.996094 148.625 135.875 149.214844 C 135.757812 149.808594 135.582031 150.382812 135.351562 150.941406 C 135.121094 151.5 134.835938 152.03125 134.5 152.535156 C 134.167969 153.035156 133.785156 153.5 133.355469 153.929688 C 132.929688 154.355469 132.464844 154.738281 131.960938 155.074219 C 131.460938 155.410156 130.929688 155.691406 130.371094 155.925781 C 129.8125 156.15625 129.238281 156.332031 128.644531 156.449219 C 128.050781 156.566406 127.453125 156.625 126.847656 156.625 C 126.242188 156.625 125.644531 156.566406 125.050781 156.449219 C 124.460938 156.332031 123.882812 156.15625 123.324219 155.925781 C 122.765625 155.691406 122.238281 155.410156 121.734375 155.074219 C 121.230469 154.738281 120.765625 154.355469 120.339844 153.929688 C 119.910156 153.5 119.53125 153.035156 119.195312 152.535156 C 118.859375 152.03125 118.574219 151.5 118.34375 150.941406 C 118.113281 150.382812 117.9375 149.808594 117.820312 149.214844 C 117.703125 148.625 117.644531 148.023438 117.644531 147.421875 C 117.644531 146.816406 117.703125 146.21875 117.820312 145.625 C 117.9375 145.03125 118.113281 144.457031 118.34375 143.898438 C 118.574219 143.339844 118.859375 142.808594 119.195312 142.304688 C 119.53125 141.804688 119.910156 141.339844 120.339844 140.910156 C 120.765625 140.484375 121.230469 140.101562 121.734375 139.765625 C 122.238281 139.429688 122.765625 139.148438 123.324219 138.914062 C 123.882812 138.683594 124.460938 138.507812 125.050781 138.390625 C 125.644531 138.273438 126.242188 138.214844 126.847656 138.214844 C 127.453125 138.214844 128.050781 138.273438 128.644531 138.390625 C 129.238281 138.507812 129.8125 138.683594 130.371094 138.914062 C 130.929688 139.148438 131.460938 139.429688 131.960938 139.765625 C 132.464844 140.101562 132.929688 140.484375 133.355469 140.910156 C 133.785156 141.339844 134.167969 141.804688 134.5 142.304688 C 134.835938 142.808594 135.121094 143.339844 135.351562 143.898438 C 135.582031 144.457031 135.757812 145.03125 135.875 145.625 C 135.996094 146.21875 136.054688 146.816406 136.054688 147.421875 Z M 136.054688 147.421875 " fill-opacity="1" fill-rule="nonzero"/></g><g clip-path="url(#fb4e49c189)"><path fill="#e07a5f" d="M 257.769531 227.136719 C 257.769531 227.742188 257.710938 228.339844 257.59375 228.933594 C 257.476562 229.523438 257.300781 230.101562 257.070312 230.660156 C 256.839844 231.21875 256.554688 231.746094 256.21875 232.25 C 255.882812 232.753906 255.5 233.21875 255.074219 233.644531 C 254.648438 234.074219 254.183594 234.453125 253.679688 234.789062 C 253.175781 235.125 252.644531 235.410156 252.089844 235.640625 C 251.53125 235.871094 250.953125 236.046875 250.359375 236.164062 C 249.769531 236.28125 249.167969 236.339844 248.566406 236.339844 C 247.960938 236.339844 247.363281 236.28125 246.769531 236.164062 C 246.175781 236.046875 245.601562 235.871094 245.042969 235.640625 C 244.484375 235.410156 243.953125 235.125 243.453125 234.789062 C 242.949219 234.453125 242.484375 234.074219 242.054688 233.644531 C 241.628906 233.21875 241.246094 232.753906 240.910156 232.25 C 240.574219 231.746094 240.292969 231.21875 240.0625 230.660156 C 239.828125 230.101562 239.65625 229.523438 239.535156 228.933594 C 239.417969 228.339844 239.359375 227.742188 239.359375 227.136719 C 239.359375 226.53125 239.417969 225.933594 239.535156 225.339844 C 239.65625 224.746094 239.828125 224.171875 240.0625 223.613281 C 240.292969 223.054688 240.574219 222.523438 240.910156 222.023438 C 241.246094 221.519531 241.628906 221.054688 242.054688 220.628906 C 242.484375 220.199219 242.949219 219.816406 243.453125 219.480469 C 243.953125 219.148438 244.484375 218.863281 245.042969 218.632812 C 245.601562 218.402344 246.175781 218.226562 246.769531 218.109375 C 247.363281 217.988281 247.960938 217.929688 248.566406 217.929688 C 249.167969 217.929688 249.769531 217.988281 250.359375 218.109375 C 250.953125 218.226562 251.53125 218.402344 252.089844 218.632812 C 252.644531 218.863281 253.175781 219.148438 253.679688 219.480469 C 254.183594 219.816406 254.648438 220.199219 255.074219 220.628906 C 255.5 221.054688 255.882812 221.519531 256.21875 222.023438 C 256.554688 222.523438 256.839844 223.054688 257.070312 223.613281 C 257.300781 224.171875 257.476562 224.746094 257.59375 225.339844 C 257.710938 225.933594 257.769531 226.53125 257.769531 227.136719 Z M 257.769531 227.136719 " fill-opacity="1" fill-rule="nonzero"/></g><g clip-path="url(#532813d785)"><path fill="#f2cc8f" d="M 279.628906 107.5625 C 279.628906 108.164062 279.570312 108.765625 279.449219 109.355469 C 279.332031 109.949219 279.160156 110.527344 278.925781 111.082031 C 278.695312 111.640625 278.414062 112.171875 278.078125 112.675781 C 277.742188 113.179688 277.359375 113.644531 276.933594 114.070312 C 276.503906 114.496094 276.039062 114.878906 275.535156 115.214844 C 275.035156 115.550781 274.503906 115.835938 273.945312 116.066406 C 273.386719 116.296875 272.8125 116.472656 272.21875 116.589844 C 271.625 116.707031 271.027344 116.765625 270.421875 116.765625 C 269.816406 116.765625 269.21875 116.707031 268.625 116.589844 C 268.035156 116.472656 267.457031 116.296875 266.898438 116.066406 C 266.339844 115.835938 265.8125 115.550781 265.308594 115.214844 C 264.804688 114.878906 264.339844 114.496094 263.914062 114.070312 C 263.484375 113.644531 263.105469 113.179688 262.769531 112.675781 C 262.433594 112.171875 262.148438 111.640625 261.917969 111.082031 C 261.6875 110.527344 261.511719 109.949219 261.394531 109.355469 C 261.277344 108.765625 261.21875 108.164062 261.21875 107.5625 C 261.21875 106.957031 261.277344 106.359375 261.394531 105.765625 C 261.511719 105.171875 261.6875 104.597656 261.917969 104.039062 C 262.148438 103.480469 262.433594 102.949219 262.769531 102.445312 C 263.105469 101.945312 263.484375 101.480469 263.914062 101.050781 C 264.339844 100.625 264.804688 100.242188 265.308594 99.90625 C 265.8125 99.570312 266.339844 99.289062 266.898438 99.058594 C 267.457031 98.824219 268.035156 98.652344 268.625 98.53125 C 269.21875 98.414062 269.816406 98.355469 270.421875 98.355469 C 271.027344 98.355469 271.625 98.414062 272.21875 98.53125 C 272.8125 98.652344 273.386719 98.824219 273.945312 99.058594 C 274.503906 99.289062 275.035156 99.570312 275.535156 99.90625 C 276.039062 100.242188 276.503906 100.625 276.933594 101.050781 C 277.359375 101.480469 277.742188 101.945312 278.078125 102.445312 C 278.414062 102.949219 278.695312 103.480469 278.925781 104.039062 C 279.160156 104.597656 279.332031 105.171875 279.449219 105.765625 C 279.570312 106.359375 279.628906 106.957031 279.628906 107.5625 Z M 279.628906 107.5625 " fill-opacity="1" fill-rule="nonzero"/></g></svg>