<svg xmlns="http://www.w3.org/2000/svg" xmlns:xlink="http://www.w3.org/1999/xlink" width="1024" zoomAndPan="magnify" viewBox="0 0 768 767.999994" height="1024" preserveAspectRatio="xMidYMid meet" version="1.0"><defs><clipPath id="7a9127ba0d"><path d="M 225 205.183594 L 553 205.183594 L 553 562 L 225 562 Z M 225 205.183594 " clip-rule="nonzero"/></clipPath></defs><g clip-path="url(#7a9127ba0d)"><path fill="#004838" d="M 266.40625 506.253906 C 291.011719 539.96875 333.707031 559.523438 374.835938 561.117188 C 418.300781 562.796875 461.8125 544.800781 491.472656 513.023438 C 522.5 479.789062 540.386719 433.414062 548.796875 389.285156 C 553.226562 366.019531 553.871094 342.1875 548.0625 319.113281 C 542.921875 298.679688 533.273438 279.523438 520.15625 263.066406 C 504.980469 244.03125 484.953125 229.472656 462.460938 220.28125 C 451.0625 215.621094 439.105469 212.476562 426.90625 210.816406 C 422.074219 210.160156 417.246094 209.660156 412.445312 209.539062 C 407.558594 208.265625 402.617188 207.210938 397.617188 206.460938 C 389.203125 205.203125 381.464844 205.074219 373.039062 206.238281 C 372.695312 206.285156 372.425781 206.398438 372.183594 206.527344 C 361.304688 206.964844 350.386719 208.78125 339.6875 211.894531 C 306.058594 221.6875 277.59375 243.207031 257.917969 272.050781 C 218.363281 330.042969 214.085938 413.167969 247.175781 475.03125 C 252.734375 485.414062 259.472656 494.996094 267.210938 503.574219 C 266.25 504.074219 265.625 505.1875 266.40625 506.253906 Z M 452.34375 224.640625 C 471.941406 231.3125 489.96875 242.414062 504.582031 257.085938 C 534.660156 287.292969 548.265625 329.613281 543.746094 371.710938 C 541.269531 394.804688 534.578125 417.652344 526.394531 439.328125 C 525.726562 441.101562 525.015625 442.867188 524.3125 444.632812 C 518.625 457.609375 511.886719 470.121094 503.929688 481.933594 C 496.636719 492.75 488.808594 503.425781 480.214844 513.335938 C 456.132812 536.132812 424.707031 550.585938 391.261719 553.117188 C 368.6875 554.832031 346.351562 550.890625 325.417969 542.378906 C 320.628906 540.429688 316.046875 538.21875 311.59375 535.828125 C 316.164062 537.832031 320.867188 539.609375 325.722656 541.078125 C 360.703125 551.65625 398.949219 547.808594 431.671875 531.859375 C 498.402344 499.332031 537.378906 423.152344 530.035156 350.082031 C 526.410156 314.050781 511.707031 279.996094 486.628906 253.714844 C 474.757812 241.28125 460.804688 230.652344 445.546875 222.519531 C 447.828125 223.175781 450.09375 223.878906 452.34375 224.640625 Z M 251.238281 299.207031 C 265.417969 269.242188 288.0625 243.707031 317.84375 228.671875 C 340.277344 217.347656 365.148438 212.621094 389.914062 214.140625 C 389.894531 214.941406 390.410156 215.742188 391.453125 215.875 C 395.429688 216.378906 399.40625 216.609375 403.386719 216.796875 C 395.726562 217.953125 388.105469 219.335938 380.457031 220.59375 C 379.113281 220.8125 364.339844 222.890625 365.824219 225.011719 C 367.191406 226.964844 369.617188 226.269531 371.789062 226.230469 C 375.15625 226.167969 378.488281 225.738281 381.84375 225.492188 C 388.789062 224.980469 395.742188 224.550781 402.675781 223.871094 C 409.449219 223.207031 416.398438 222.175781 423.214844 222.816406 C 426.042969 223.085938 428.964844 223.746094 431.585938 224.878906 C 434.472656 226.121094 436.472656 228.40625 439.171875 229.84375 C 440.503906 230.554688 441.785156 230.363281 442.746094 229.714844 C 450.242188 233.757812 457.410156 238.425781 464.105469 243.648438 C 490.785156 264.433594 509.75 293.425781 518.105469 326.195312 C 522.265625 342.519531 523.816406 359.316406 523.027344 375.984375 C 522.378906 374.707031 521.128906 373.71875 519.652344 373.894531 C 515.613281 374.375 511.554688 374.648438 507.484375 374.679688 C 503.453125 374.714844 499.335938 374.097656 495.320312 374.425781 C 492.96875 374.613281 491.261719 376.78125 492.238281 379.097656 C 492.296875 379.234375 492.382812 379.34375 492.457031 379.46875 C 491.539062 380.769531 491.222656 382.574219 491.585938 384.046875 C 491.96875 385.574219 493.613281 386.902344 495.222656 386.8125 C 503.558594 386.367188 511.894531 385.902344 520.226562 385.390625 C 521.027344 385.339844 521.773438 385.011719 522.429688 384.5625 C 517.597656 434.613281 491.546875 482.539062 450.078125 511.941406 C 422.082031 531.792969 388.273438 541.882812 353.945312 538.757812 C 338.398438 537.34375 323.4375 533.113281 309.742188 526.394531 C 305.253906 521.3125 300.980469 515.980469 296.875 510.761719 C 290.035156 502.058594 283.820312 492.769531 278.375 483.136719 C 267.476562 463.851562 259.953125 442.726562 255.578125 421.027344 C 246.527344 376.140625 251.890625 326.535156 275.617188 286.769531 C 282.613281 275.042969 291.464844 264.574219 301.953125 255.8125 C 312.410156 247.070312 324.964844 240.5625 337.226562 234.753906 C 337.476562 234.632812 337.28125 234.308594 337.050781 234.339844 C 330.972656 235.195312 325.773438 236.378906 320.171875 238.972656 C 314.304688 241.699219 308.753906 245.136719 303.507812 248.917969 C 293.511719 256.113281 284.871094 264.742188 277.332031 274.464844 C 261.449219 294.929688 251.589844 319.535156 246.902344 344.910156 C 238.515625 390.257812 247.058594 437.425781 268.617188 477.953125 C 274.609375 489.210938 281.589844 499.964844 289.703125 509.808594 C 292.898438 513.679688 296.277344 517.363281 299.78125 520.945312 C 287 513.136719 275.621094 502.980469 266.324219 490.746094 C 225.933594 437.5625 223.191406 358.46875 251.238281 299.207031 Z M 251.238281 299.207031 " fill-opacity="1" fill-rule="nonzero"/></g><path fill="#004838" d="M 342.703125 225.632812 C 342.738281 225.597656 342.683594 225.542969 342.648438 225.578125 C 342.078125 226.125 341.515625 226.675781 340.945312 227.222656 C 340.910156 227.257812 340.964844 227.3125 341 227.277344 C 341.570312 226.730469 342.132812 226.179688 342.703125 225.632812 Z M 342.703125 225.632812 " fill-opacity="1" fill-rule="nonzero"/><path fill="#004838" d="M 365.109375 381.730469 C 366.015625 382.097656 366.96875 382.300781 367.9375 382.433594 C 368.78125 384.871094 370.335938 387.238281 371.609375 389.347656 C 373.394531 392.316406 375.234375 395.257812 377.121094 398.164062 C 380.855469 403.910156 385.0625 409.371094 389.339844 414.722656 C 393.566406 420.019531 397.984375 425.140625 402.601562 430.105469 C 407.21875 435.074219 412.074219 441.066406 418.425781 443.796875 C 420.46875 444.679688 422.628906 442.847656 421.53125 440.691406 C 421.453125 440.539062 421.355469 440.398438 421.277344 440.25 C 422.265625 437.632812 420.398438 434.875 419.230469 432.5625 C 417.617188 429.382812 415.742188 426.320312 413.933594 423.246094 C 410.425781 417.285156 406.886719 411.335938 403.359375 405.386719 C 399.835938 399.429688 396.269531 393.5 392.628906 387.613281 C 389.707031 382.894531 386.832031 376.964844 382.480469 373.269531 C 382.882812 372.03125 383.121094 370.734375 383.0625 369.398438 C 383.042969 368.960938 382.957031 368.546875 382.894531 368.125 C 385.585938 360.203125 386.835938 351.4375 388.335938 343.285156 C 389.941406 334.535156 391.269531 325.734375 392.398438 316.910156 C 393.574219 307.734375 394.550781 298.519531 395.171875 289.285156 C 395.625 282.546875 396.324219 275.457031 395.535156 268.652344 C 396.480469 265.449219 397.355469 262.238281 397.957031 259.007812 C 398.496094 256.140625 394.160156 253.722656 392.839844 256.851562 C 389.304688 265.210938 387.273438 274.367188 384.675781 283.066406 C 381.949219 292.214844 379.300781 301.386719 376.628906 310.546875 C 373.960938 319.710938 371.269531 328.867188 368.640625 338.042969 C 366.621094 345.078125 363.855469 352.339844 362.363281 359.613281 C 361.992188 359.859375 361.648438 360.105469 361.367188 360.324219 C 359.273438 361.980469 357.761719 364.460938 357.246094 367.082031 C 356.023438 373.257812 359.269531 379.375 365.109375 381.730469 Z M 361.9375 368.640625 C 361.984375 367.679688 362.25 366.730469 362.683594 365.839844 C 363.578125 366.089844 364.675781 365.738281 364.910156 364.777344 C 365.1875 364.21875 365.402344 363.613281 365.660156 363.042969 C 367.035156 363.382812 368.367188 363.863281 369.761719 364.175781 C 370.175781 364.269531 370.585938 364.355469 370.992188 364.476562 C 371.027344 364.488281 371.242188 364.546875 371.429688 364.609375 C 371.460938 364.625 371.453125 364.621094 371.496094 364.644531 C 371.875 364.839844 372.253906 365.027344 372.621094 365.253906 C 372.832031 365.386719 373.039062 365.53125 373.246094 365.671875 C 373.265625 365.695312 373.25 365.679688 373.28125 365.710938 C 373.585938 366.007812 373.902344 366.28125 374.1875 366.597656 C 374.195312 366.605469 374.234375 366.648438 374.269531 366.683594 C 374.140625 366.554688 374.476562 366.949219 374.523438 367.015625 C 374.742188 367.351562 374.921875 367.703125 375.109375 368.054688 C 375.15625 368.316406 375.289062 368.597656 375.355469 368.855469 C 375.394531 369.007812 375.417969 369.160156 375.453125 369.308594 C 375.453125 369.34375 375.449219 369.359375 375.449219 369.40625 C 375.449219 369.730469 375.484375 370.148438 375.4375 370.503906 C 375.425781 370.535156 375.414062 370.558594 375.40625 370.59375 C 375.339844 370.859375 375.300781 371.132812 375.226562 371.398438 C 375.179688 371.578125 375.125 371.75 375.066406 371.921875 C 375.035156 372.015625 375.003906 372.105469 374.96875 372.191406 C 374.949219 372.234375 374.953125 372.21875 374.914062 372.304688 C 374.675781 372.703125 374.46875 373.109375 374.210938 373.503906 C 374.105469 373.664062 373.628906 374.296875 373.617188 374.339844 C 373.371094 374.621094 373.121094 374.90625 372.859375 375.171875 C 372.730469 375.304688 372.605469 375.433594 372.472656 375.5625 C 372.957031 375.085938 372.257812 375.6875 372.113281 375.78125 C 371.816406 375.964844 371.507812 376.125 371.199219 376.28125 C 371.109375 376.316406 370.796875 376.457031 370.738281 376.476562 C 370.566406 376.535156 370.390625 376.589844 370.214844 376.640625 C 369.976562 376.707031 369.734375 376.757812 369.492188 376.804688 C 369.449219 376.8125 369.402344 376.816406 369.378906 376.816406 C 369.101562 376.824219 368.828125 376.84375 368.550781 376.835938 C 368.539062 376.835938 368.132812 376.792969 368.050781 376.792969 C 364.195312 376.09375 361.753906 372.445312 361.9375 368.640625 Z M 371.492188 364.628906 C 371.609375 364.667969 371.710938 364.707031 371.710938 364.730469 C 371.710938 364.734375 371.605469 364.683594 371.492188 364.628906 Z M 369.613281 376.777344 C 369.667969 376.765625 369.664062 376.769531 369.613281 376.777344 Z M 387.773438 390.453125 C 391.09375 396.523438 394.492188 402.554688 397.929688 408.558594 C 400.789062 413.550781 403.640625 418.546875 406.503906 423.535156 C 402.425781 419.199219 398.433594 414.777344 394.578125 410.253906 C 390.195312 405.113281 386.078125 399.773438 381.847656 394.515625 C 379.703125 391.851562 377.632812 389.132812 375.59375 386.386719 C 374.605469 385.054688 373.609375 383.589844 372.515625 382.238281 C 375.523438 381.585938 378.34375 379.96875 380.21875 377.542969 C 380.441406 377.253906 380.625 376.929688 380.824219 376.628906 C 382.296875 381.496094 385.441406 386.183594 387.773438 390.453125 Z M 373.359375 339.347656 C 376.144531 330.550781 378.875 321.730469 381.625 312.917969 C 384.371094 304.109375 387.148438 295.304688 389.839844 286.476562 C 390.300781 284.960938 390.808594 283.4375 391.304688 281.914062 C 391.117188 284.394531 390.933594 286.867188 390.683594 289.289062 C 389.726562 298.601562 388.597656 307.886719 387.140625 317.136719 C 385.746094 325.976562 384.09375 334.773438 382.253906 343.527344 C 381.109375 348.984375 379.59375 354.449219 378.332031 359.941406 C 376.664062 358.515625 374.621094 357.453125 372.546875 356.898438 C 371.007812 356.488281 369.546875 356.464844 368.097656 356.878906 C 370.074219 351.089844 371.574219 344.996094 373.359375 339.347656 Z M 373.359375 339.347656 " fill-opacity="1" fill-rule="nonzero"/><path fill="#004838" d="M 285.144531 363.921875 C 284.53125 363.550781 283.910156 363.386719 283.316406 363.363281 C 281.691406 363.128906 279.785156 363.550781 278.246094 363.710938 C 276.492188 363.890625 274.738281 364.0625 272.980469 364.269531 C 271.035156 364.496094 269.074219 364.671875 267.140625 364.980469 C 265.128906 365.308594 262.695312 365.628906 261.566406 367.5625 C 261.066406 368.417969 261.1875 369.320312 261.605469 370.054688 C 261.261719 370.324219 260.960938 370.664062 260.679688 371.082031 C 260.546875 371.273438 260.429688 371.472656 260.328125 371.679688 C 260.203125 371.9375 260.089844 372.199219 259.988281 372.46875 C 260.117188 372.125 260.117188 372.101562 259.988281 372.386719 C 259.292969 373.824219 259.535156 375.742188 261.085938 376.566406 C 261.703125 376.894531 262.273438 377.21875 262.96875 377.339844 C 263.714844 377.46875 264.453125 377.539062 265.207031 377.5625 C 266.316406 377.597656 267.421875 377.582031 268.53125 377.5625 C 270.742188 377.519531 272.957031 377.480469 275.171875 377.4375 C 277.425781 377.394531 279.679688 377.4375 281.796875 376.546875 C 284.46875 375.421875 286.140625 372.625 285.667969 369.746094 C 287.4375 368.164062 287.292969 365.222656 285.144531 363.921875 Z M 285.144531 363.921875 " fill-opacity="1" fill-rule="nonzero"/><path fill="#004838" d="M 382.957031 493.375 C 381.230469 492.28125 378.734375 491.695312 377.5625 493.800781 C 377.175781 494.496094 377.414062 495.441406 378.089844 495.859375 C 377.492188 496.917969 377.136719 498.070312 376.6875 499.203125 C 375.585938 501.988281 375.285156 505.148438 375.109375 508.125 C 374.945312 510.941406 374.980469 513.761719 375.273438 516.566406 C 375.445312 518.214844 375.667969 519.855469 375.953125 521.488281 C 376.265625 523.292969 376.488281 524.921875 377.828125 526.292969 C 378.058594 526.527344 378.308594 526.714844 378.570312 526.867188 C 378.613281 527.128906 378.710938 527.371094 378.773438 527.625 C 378.777344 527.664062 378.800781 527.699219 378.808594 527.742188 C 378.925781 528.226562 379.019531 528.714844 379.222656 529.179688 C 379.238281 529.160156 379.25 529.140625 379.265625 529.125 C 379.488281 529.519531 379.765625 529.882812 380.117188 530.15625 C 381.648438 531.335938 384.300781 531.078125 385.226562 529.179688 C 386.601562 526.359375 386.15625 522.683594 386.226562 519.605469 C 386.296875 516.453125 386.359375 513.308594 386.402344 510.15625 C 386.445312 507.117188 386.496094 504.074219 386.523438 501.035156 C 386.558594 498.019531 386.25 494.105469 382.957031 493.375 Z M 382.957031 493.375 " fill-opacity="1" fill-rule="nonzero"/><path fill="#004838" d="M 375.777344 259.644531 C 376.339844 260.796875 377.246094 261.785156 378.429688 262.410156 C 380.78125 263.65625 383.734375 263.054688 385.4375 261.027344 C 387.058594 259.089844 387.320312 256.761719 387.636719 254.351562 C 387.9375 252.046875 388.292969 249.738281 388.511719 247.425781 C 388.710938 245.359375 388.988281 243.257812 388.761719 241.1875 C 388.511719 238.972656 386.925781 236.878906 385.003906 235.695312 C 383.851562 234.988281 381.40625 234.261719 380.367188 235.519531 C 379.839844 235.488281 379.308594 235.628906 378.917969 236.046875 C 378.753906 236.226562 378.632812 236.433594 378.496094 236.621094 C 377.210938 237.625 376.625 239.652344 376.34375 241.136719 C 375.988281 242.996094 375.734375 244.859375 375.511719 246.738281 C 375.320312 248.359375 375.128906 249.976562 374.9375 251.597656 C 374.839844 252.40625 374.742188 253.21875 374.648438 254.027344 C 374.542969 254.9375 374.300781 255.953125 374.410156 256.859375 C 374.542969 257.996094 375.019531 258.960938 375.777344 259.644531 Z M 375.777344 259.644531 " fill-opacity="1" fill-rule="nonzero"/></svg>