<svg xmlns="http://www.w3.org/2000/svg" xmlns:xlink="http://www.w3.org/1999/xlink" width="1024" zoomAndPan="magnify" viewBox="0 0 768 767.999994" height="1024" preserveAspectRatio="xMidYMid meet" version="1.0"><defs><clipPath id="a4b3e0f0fb"><path d="M 166 212.90625 L 602 212.90625 L 602 554 L 166 554 Z M 166 212.90625 " clip-rule="nonzero"/></clipPath></defs><g clip-path="url(#a4b3e0f0fb)"><path fill="#004838" d="M 594.519531 289.835938 C 592.984375 279.621094 591.972656 268.441406 588.351562 258.71875 C 587.421875 256.234375 583.976562 254.601562 581.875 256.878906 C 543.417969 234.410156 495.496094 234.644531 452.332031 231.3125 C 398.472656 227.15625 344.613281 222.910156 290.746094 218.847656 C 260.476562 216.566406 230.246094 214.210938 199.929688 212.882812 C 198.574219 212.820312 197.664062 213.363281 197.097656 214.144531 C 192.222656 214.550781 187.058594 220.285156 184.441406 223.558594 C 179.257812 230.042969 175.851562 237.828125 173.488281 245.738281 C 167.667969 265.199219 167.539062 286.425781 166.914062 306.558594 C 165.40625 355.082031 168.566406 403.710938 176.171875 451.652344 C 178.292969 465.015625 180.765625 478.324219 183.589844 491.558594 C 185.082031 498.542969 186.671875 505.507812 188.355469 512.445312 C 188.613281 513.484375 188.832031 514.582031 189.0625 515.691406 C 188.644531 515.878906 188.269531 516.171875 188.125 516.625 C 185.183594 525.90625 190.855469 535.714844 197.816406 541.667969 C 206.585938 549.171875 217.476562 552.492188 228.820312 553.554688 C 242.28125 554.8125 256.058594 552.972656 269.476562 551.902344 C 283.789062 550.761719 298.097656 549.535156 312.398438 548.230469 C 370.40625 542.933594 428.285156 536.277344 485.988281 528.324219 C 518.667969 523.816406 551.28125 518.871094 583.835938 513.523438 C 588.113281 512.816406 587.980469 508 585.402344 505.65625 C 586.566406 506.464844 588.308594 506.183594 589.253906 504.886719 C 590.617188 503.027344 591.628906 500.90625 592.425781 498.644531 C 592.519531 498.5 592.578125 498.359375 592.597656 498.1875 C 594.972656 491.074219 595.128906 482.574219 596.054688 475.636719 C 597.417969 465.464844 598.558594 455.265625 599.449219 445.042969 C 601.257812 424.308594 602.082031 403.484375 601.90625 382.671875 C 601.730469 361.859375 600.558594 341.050781 598.402344 320.351562 C 597.34375 310.15625 596.042969 299.980469 594.519531 289.835938 Z M 581.328125 504.4375 C 473.75 522.117188 365.421875 535.191406 256.714844 543.476562 C 244.039062 544.441406 230.441406 545.804688 218.035156 542.152344 C 219.628906 541.371094 221.164062 540.496094 222.585938 539.628906 C 229.492188 535.417969 235.335938 529.605469 240.574219 523.496094 C 253.808594 508.066406 265.742188 491.363281 278.191406 475.296875 C 291.359375 458.304688 304.519531 441.308594 317.6875 424.316406 C 324.15625 415.96875 330.65625 407.648438 337.082031 399.265625 C 341.984375 392.871094 348.347656 386.136719 352.472656 378.835938 C 358.714844 385.757812 365.058594 392.578125 371.742188 398.949219 C 372.84375 400 374.027344 400.382812 375.125 400.308594 C 375.257812 400.554688 375.351562 400.820312 375.488281 401.066406 C 381.5625 411.941406 392.050781 419.679688 403.621094 423.878906 C 432.507812 434.359375 467.429688 419.277344 481.710938 392.667969 C 483.085938 390.109375 479.875 387.660156 477.734375 389.601562 C 462.195312 403.660156 444.652344 418.199219 422.519531 417.886719 C 402.351562 417.601562 382.601562 404.445312 379.390625 383.695312 C 376.058594 362.199219 388.714844 338.382812 408.351562 329.09375 C 427.234375 320.15625 453.25 326.804688 460.292969 347.917969 C 463.472656 357.453125 463.003906 371.945312 453.800781 378.300781 C 448.457031 381.988281 442.808594 377.9375 440.683594 372.640625 C 439.53125 369.753906 439.394531 366.652344 439.757812 363.527344 C 441.265625 359.195312 442.421875 354.792969 443.128906 350.527344 C 443.925781 345.6875 438.558594 343.230469 435.59375 345.792969 C 426.460938 341.9375 415.261719 345.890625 407.425781 351.730469 C 398.054688 358.71875 390.585938 370.726562 393.042969 382.816406 C 394.195312 388.464844 397.96875 393.441406 403.636719 395.128906 C 410.101562 397.058594 416.582031 394.402344 421.707031 390.476562 C 426.078125 387.128906 429.777344 382.828125 432.84375 378.03125 C 434.414062 381.375 436.882812 384.347656 440.640625 386.664062 C 452.867188 394.183594 464.570312 383.738281 468.972656 372.511719 C 473.539062 360.851562 471.675781 347.042969 465.242188 336.449219 C 458.296875 325 446.050781 318.011719 432.945312 316.265625 C 404.824219 312.511719 380.351562 332.851562 372.308594 358.898438 C 369.929688 366.613281 369.042969 374.917969 369.921875 382.980469 C 364.789062 377.335938 359.445312 371.835938 354.320312 366.246094 C 346.328125 357.523438 338.335938 348.800781 330.347656 340.074219 C 314.097656 322.332031 297.851562 304.59375 281.601562 286.855469 C 273.613281 278.132812 265.617188 269.421875 257.597656 260.714844 C 250.378906 252.882812 243.492188 244.289062 235.253906 237.496094 C 225.996094 229.867188 205.203125 223.804688 199.0625 238.832031 C 198.480469 240.25 200.429688 240.894531 201.347656 240.160156 C 218.234375 226.738281 233.4375 248.027344 243.824219 259.445312 C 257.894531 274.894531 272 290.320312 286.117188 305.734375 C 300.238281 321.144531 314.351562 336.5625 328.46875 351.972656 C 334.636719 358.707031 340.699219 365.652344 346.816406 372.558594 C 340.8125 377.992188 336.0625 385.585938 331.199219 391.78125 C 324.921875 399.769531 318.726562 407.824219 312.503906 415.851562 C 299.8125 432.21875 287.121094 448.589844 274.429688 464.960938 C 262.269531 480.640625 250.308594 496.488281 237.921875 511.988281 C 233.054688 518.085938 227.867188 524.171875 221.617188 528.90625 C 218.480469 531.28125 215.035156 533.363281 211.304688 534.671875 C 209.480469 535.308594 207.816406 535.816406 206.21875 536.476562 C 203.53125 534.480469 201.222656 532.117188 199.152344 529.539062 C 199.460938 529.21875 199.730469 528.84375 199.890625 528.367188 C 201.523438 523.550781 199.707031 519.085938 198.523438 514.324219 C 196.972656 508.125 195.507812 501.902344 194.121094 495.667969 C 191.589844 484.292969 189.316406 472.863281 187.304688 461.382812 C 183.164062 437.726562 180.164062 413.882812 178.292969 389.941406 C 176.480469 366.710938 175.722656 343.390625 176.035156 320.085938 C 176.320312 299 176.246094 277.03125 180.539062 256.300781 C 182.46875 246.96875 185.449219 237.699219 191.105469 229.914062 C 191.890625 228.832031 197.082031 224.078125 199.894531 220.199219 C 199.902344 220.199219 199.914062 220.207031 199.921875 220.207031 C 252.453125 226.015625 305.273438 229.394531 357.972656 233.460938 C 408.261719 237.339844 458.875 239.859375 509.003906 245.4375 C 532.515625 248.054688 556.042969 252.992188 576.671875 264.808594 C 575.3125 265.1875 574.417969 266.164062 574.285156 267.722656 C 574.238281 268.292969 574.246094 268.777344 574.289062 269.222656 C 558.691406 286.207031 543.039062 303.148438 527.515625 320.203125 C 519.625 328.871094 511.523438 337.414062 504.132812 346.519531 C 496.636719 355.757812 489.761719 365.425781 482.832031 375.074219 C 482.503906 375.523438 483.179688 375.953125 483.554688 375.628906 C 492.472656 368 501.4375 360.4375 509.90625 352.292969 C 518.597656 343.933594 526.652344 334.871094 534.839844 326.027344 C 550.730469 308.855469 566.511719 291.589844 582.347656 274.367188 C 583.28125 279.632812 584.378906 284.882812 585.171875 290.074219 C 586.703125 300.136719 587.984375 310.238281 589.03125 320.359375 C 591.167969 341.066406 592.3125 361.867188 592.472656 382.683594 C 592.632812 403.121094 591.851562 423.554688 590.113281 443.921875 C 589.210938 454.433594 588.070312 464.929688 586.652344 475.386719 C 586.386719 477.328125 586.007812 479.351562 585.609375 481.402344 C 585.113281 480.375 584.644531 479.335938 584.058594 478.351562 C 580.488281 472.375 576.210938 466.699219 572.324219 460.921875 C 564.5 449.304688 556.679688 437.683594 548.855469 426.058594 C 541.25 414.761719 533.597656 403.492188 525.957031 392.214844 C 522.027344 386.417969 518.160156 380.535156 513.90625 374.96875 C 510.832031 370.945312 507.007812 365.402344 501.898438 364.011719 C 501.53125 363.914062 501.261719 364.1875 501.222656 364.527344 C 500.617188 369.824219 504.53125 375.886719 507.152344 380.265625 C 510.746094 386.261719 514.738281 392.039062 518.625 397.847656 C 526.417969 409.484375 534.195312 421.132812 542.015625 432.753906 C 549.621094 444.050781 557.226562 455.347656 564.832031 466.644531 C 568.625 472.277344 572.210938 478.148438 576.285156 483.582031 C 578.511719 486.550781 581.167969 489.09375 583.855469 491.605469 C 583.316406 495.953125 583.226562 500.261719 584.382812 504.25 C 584.515625 504.710938 584.785156 505.007812 585.054688 505.296875 C 584.082031 504.578125 582.8125 504.195312 581.328125 504.4375 Z M 421.222656 377.835938 C 418.265625 381.515625 414.101562 385.734375 409.160156 386.332031 C 403.828125 386.976562 401.777344 382.15625 401.957031 377.609375 C 402.285156 369.128906 408.632812 361.734375 415.546875 357.453125 C 420.867188 354.152344 427.015625 352.609375 433.125 351.203125 C 432.429688 353.621094 431.816406 356.140625 431.359375 358.695312 C 429.089844 365.585938 425.820312 372.117188 421.222656 377.835938 Z M 421.222656 377.835938 " fill-opacity="1" fill-rule="nonzero"/></g><path fill="#004838" d="M 220.085938 480.519531 C 220.988281 483.3125 225.808594 483.035156 225.496094 479.789062 C 222.027344 443.835938 215.585938 408.414062 213.652344 372.269531 C 212.695312 354.410156 212.464844 336.496094 212.710938 318.613281 C 212.835938 309.488281 213.125 300.367188 213.359375 291.242188 C 213.578125 282.863281 214.179688 274.417969 212.925781 266.09375 C 212.84375 265.554688 212.113281 265.691406 211.964844 266.09375 C 205.796875 282.175781 205.597656 301.585938 204.730469 318.613281 C 203.804688 336.875 203.851562 355.148438 204.605469 373.414062 C 206.074219 409.078125 209.046875 446.421875 220.085938 480.519531 Z M 220.085938 480.519531 " fill-opacity="1" fill-rule="nonzero"/></svg>