<svg xmlns="http://www.w3.org/2000/svg" xmlns:xlink="http://www.w3.org/1999/xlink" width="1024" zoomAndPan="magnify" viewBox="0 0 768 767.999994" height="1024" preserveAspectRatio="xMidYMid meet" version="1.0"><defs><clipPath id="27e766a8f0"><path d="M 239 157.011719 L 522 157.011719 L 522 610 L 239 610 Z M 239 157.011719 " clip-rule="nonzero"/></clipPath></defs><g clip-path="url(#27e766a8f0)"><path fill="#004838" d="M 513.195312 339.699219 C 530.648438 285.738281 521.5 220.867188 473.917969 185.066406 C 450.832031 167.695312 422.058594 159.539062 393.460938 158.230469 C 364.109375 156.878906 332.269531 161.09375 305.089844 172.625 C 279.3125 183.5625 261.386719 203.199219 251.117188 229.082031 C 240.777344 255.148438 237.652344 284.511719 240.054688 312.328125 C 242.753906 343.683594 252.621094 374.476562 269.296875 401.210938 C 285.386719 427.011719 310.890625 450.039062 314.457031 481.761719 C 314.457031 481.773438 314.460938 481.777344 314.460938 481.789062 C 314.09375 482.46875 313.761719 483.152344 313.480469 483.789062 C 312.113281 486.882812 311.335938 490.144531 311.246094 493.539062 C 311.15625 496.660156 311.722656 499.863281 312.875 502.757812 C 313.570312 504.492188 314.351562 506.171875 315.277344 507.792969 C 315.746094 508.609375 316.230469 509.503906 316.777344 510.351562 C 316.6875 510.710938 316.574219 511.089844 316.5 511.4375 C 315.734375 515.035156 315.507812 518.816406 315.878906 522.476562 C 316.242188 526.089844 316.96875 529.625 318.335938 533.003906 C 319.203125 535.152344 320.3125 537.6875 321.730469 539.871094 C 320.101562 541.78125 319.140625 544.40625 318.707031 546.746094 C 318.058594 550.242188 318.078125 553.851562 319.117188 557.28125 C 320.074219 560.460938 321.75 563.3125 323.929688 565.796875 C 324.601562 566.570312 325.476562 567.433594 326.445312 568.238281 C 326.390625 569.09375 326.4375 569.972656 326.632812 570.851562 C 327.183594 573.3125 328.730469 575.207031 330.652344 576.679688 C 330.429688 577.148438 330.277344 577.671875 330.300781 578.316406 C 330.734375 589.109375 340.417969 598.234375 349.21875 603.230469 C 360.730469 609.765625 374.339844 610.953125 387.261719 609.257812 C 400.101562 607.574219 413.703125 603.820312 424.15625 595.886719 C 428.789062 592.367188 432.847656 587.960938 435.550781 582.777344 C 436.90625 580.179688 438.085938 577.339844 438.585938 574.445312 C 439.136719 571.285156 438.347656 569.917969 437.015625 567.136719 C 436.019531 565.054688 433.03125 565.410156 431.945312 567.136719 C 431.132812 568.425781 430.445312 569.421875 429.867188 570.605469 C 429.703125 569.472656 429.03125 568.457031 427.714844 568.195312 C 420.390625 566.742188 412.238281 570.558594 405.089844 571.953125 C 396.542969 573.625 387.871094 574.511719 379.164062 574.695312 C 370.765625 574.871094 362.332031 574.425781 354.019531 573.222656 C 349.933594 572.632812 345.867188 571.894531 341.84375 570.976562 C 340.210938 570.601562 337.339844 570.328125 336.191406 568.964844 C 336.1875 568.960938 336.1875 568.953125 336.183594 568.945312 C 336.949219 567.984375 337.34375 566.769531 336.941406 565.410156 C 336.367188 563.476562 334.867188 562.230469 333.273438 561.128906 C 333.09375 561.003906 332.910156 560.875 332.726562 560.75 C 332.695312 560.726562 332.710938 560.746094 332.671875 560.707031 C 332.21875 560.3125 331.777344 559.917969 331.359375 559.488281 C 330.992188 559.109375 330.644531 558.707031 330.3125 558.300781 C 330.28125 558.253906 330.292969 558.269531 330.230469 558.171875 C 330.046875 557.890625 329.859375 557.621094 329.6875 557.335938 C 329.378906 556.824219 329.109375 556.296875 328.839844 555.765625 C 328.808594 555.699219 328.824219 555.730469 328.804688 555.6875 C 328.710938 555.421875 328.609375 555.160156 328.523438 554.894531 C 328.355469 554.382812 328.21875 553.867188 328.105469 553.347656 C 328.046875 553.070312 328 552.792969 327.953125 552.511719 C 327.953125 552.457031 327.949219 552.445312 327.945312 552.300781 C 327.925781 551.65625 327.890625 551.019531 327.917969 550.375 C 327.929688 550.089844 327.972656 549.804688 327.980469 549.519531 C 327.980469 549.457031 327.972656 549.480469 327.96875 549.457031 C 327.980469 549.402344 327.984375 549.410156 328.003906 549.3125 C 328.242188 548.121094 328.507812 546.9375 328.921875 545.789062 C 329.117188 545.242188 329.328125 544.695312 329.519531 544.144531 C 331.683594 545.175781 334.359375 545.628906 336.222656 545.992188 C 341.089844 546.949219 346.089844 547.421875 351.019531 547.894531 C 355.738281 548.347656 360.460938 548.660156 365.199219 548.847656 C 367.632812 548.941406 369.886719 548.796875 372.300781 548.492188 C 373.542969 548.335938 374.632812 548.160156 375.8125 547.765625 C 377.035156 547.363281 378.226562 546.601562 379.457031 546.273438 C 381.46875 545.730469 381.507812 542.691406 379.457031 542.164062 C 377.199219 541.585938 375.292969 540.363281 372.949219 539.984375 C 370.5 539.589844 368.179688 539.285156 365.703125 539.203125 C 360.96875 539.046875 356.242188 538.789062 351.523438 538.460938 C 346.8125 538.132812 342.113281 537.554688 337.398438 537.273438 C 335.808594 537.171875 333.746094 536.949219 331.777344 537.066406 C 331.074219 535.761719 330.273438 535.007812 329.363281 533.503906 C 328.957031 532.824219 328.566406 532.128906 328.214844 531.421875 C 328.058594 531.105469 327.90625 530.785156 327.753906 530.46875 C 327.726562 530.414062 327.644531 530.226562 327.589844 530.109375 C 327.027344 528.746094 326.578125 527.324219 326.214844 525.894531 C 326.019531 525.121094 325.851562 524.34375 325.714844 523.558594 C 325.660156 523.269531 325.617188 522.980469 325.570312 522.691406 C 325.566406 522.609375 325.511719 522.101562 325.496094 521.957031 C 325.359375 520.457031 325.324219 518.957031 325.390625 517.453125 C 325.417969 516.746094 325.476562 516.042969 325.550781 515.339844 C 325.5625 515.261719 325.585938 515.082031 325.601562 514.964844 C 325.664062 514.558594 325.738281 514.144531 325.8125 513.738281 C 325.839844 513.570312 325.890625 513.410156 325.925781 513.242188 C 327.757812 513.949219 329.585938 514.667969 331.449219 515.265625 C 337.191406 517.128906 343.070312 518.511719 349.03125 519.457031 C 354.917969 520.390625 360.886719 521.101562 366.851562 521.15625 C 373.121094 521.210938 378.820312 520.085938 384.769531 518.1875 C 386.65625 517.589844 386.105469 515.183594 384.332031 514.945312 C 378.476562 514.171875 372.765625 513.429688 366.855469 513.167969 C 361.035156 512.914062 355.21875 512.609375 349.429688 511.878906 C 343.546875 511.144531 337.703125 510.121094 331.902344 508.90625 C 330.300781 508.574219 328.714844 508.195312 327.117188 507.832031 C 327.339844 506.515625 327.457031 505.183594 327.207031 503.804688 C 326.867188 501.957031 324.632812 500.914062 322.9375 501.375 C 322.933594 501.375 322.929688 501.382812 322.921875 501.386719 C 322.632812 500.871094 322.347656 500.355469 322.117188 499.8125 C 322.085938 499.730469 322.046875 499.640625 321.964844 499.421875 C 321.84375 499.082031 321.722656 498.742188 321.617188 498.398438 C 321.425781 497.789062 321.261719 497.175781 321.132812 496.550781 C 321.089844 496.332031 321.050781 496.105469 321.011719 495.878906 C 321.007812 495.804688 321.003906 495.773438 320.980469 495.589844 C 320.957031 494.980469 320.910156 494.378906 320.917969 493.769531 C 320.921875 493.160156 320.96875 492.558594 321.023438 491.953125 C 320.933594 492.984375 321.164062 491.1875 321.203125 490.984375 C 321.449219 489.855469 321.804688 488.746094 322.230469 487.667969 C 322.332031 487.46875 322.691406 486.6875 322.746094 486.578125 C 323.027344 486.039062 323.335938 485.515625 323.664062 485.003906 C 324.09375 484.347656 324.5 483.734375 324.878906 483.09375 C 330.0625 485.128906 336.113281 486.363281 338.628906 487.019531 C 349.476562 489.839844 360.675781 491.613281 371.847656 492.5 C 382.960938 493.378906 394.160156 493.285156 405.257812 492.234375 C 410.890625 491.699219 416.511719 490.9375 422.085938 489.9375 C 424.511719 489.507812 427.371094 489.253906 430.015625 488.597656 C 430.28125 488.898438 430.546875 489.195312 430.804688 489.5 C 431.011719 489.742188 431.207031 489.988281 431.410156 490.238281 C 431.0625 489.804688 431.511719 490.375 431.847656 490.804688 C 431.761719 491.386719 431.621094 491.949219 431.542969 492.539062 C 431.214844 495.054688 432.644531 496.488281 434.488281 496.953125 C 434.488281 497.269531 434.496094 497.582031 434.46875 497.898438 C 434.445312 498.03125 434.410156 498.269531 434.371094 498.429688 C 434.304688 498.734375 434.21875 499.03125 434.132812 499.332031 C 434.042969 499.632812 433.941406 499.925781 433.832031 500.222656 C 433.808594 500.289062 433.796875 500.320312 433.789062 500.355469 C 433.753906 500.421875 433.722656 500.476562 433.667969 500.582031 C 433.378906 501.15625 433.082031 501.71875 432.746094 502.269531 C 432.367188 502.898438 431.953125 503.511719 431.523438 504.109375 C 431.488281 504.15625 431.246094 504.480469 431.152344 504.605469 C 431.023438 504.769531 430.664062 505.222656 430.613281 505.28125 C 429.378906 506.859375 428.378906 508.308594 427.75 510.238281 C 427.675781 510.46875 427.664062 510.707031 427.644531 510.945312 C 426.128906 511.390625 424.609375 511.835938 423.117188 512.355469 C 422.132812 512.699219 421.183594 513.066406 420.222656 513.476562 C 418.941406 514.027344 418.285156 514.917969 417.828125 516.222656 C 417.570312 516.976562 417.847656 518.023438 418.445312 518.546875 C 419.5 519.480469 420.511719 519.917969 421.921875 519.761719 C 422.964844 519.648438 423.992188 519.480469 425.023438 519.292969 C 426.375 519.054688 427.710938 518.746094 429.046875 518.441406 C 429.050781 518.484375 429.046875 518.523438 429.050781 518.566406 C 429.292969 521.1875 429.558594 523.808594 429.441406 526.449219 C 429.410156 527.105469 429.367188 527.769531 429.308594 528.429688 C 429.277344 528.746094 429.246094 529.066406 429.207031 529.386719 C 429.199219 529.464844 429.195312 529.46875 429.179688 529.597656 C 428.953125 530.898438 428.6875 532.191406 428.328125 533.464844 C 427.921875 534.917969 427.625 536.324219 427.425781 537.816406 C 427.15625 537.808594 426.882812 537.792969 426.613281 537.792969 C 425.296875 537.789062 423.980469 538.003906 422.683594 538.226562 C 420.398438 538.613281 418.125 539.203125 415.902344 539.859375 C 413.671875 540.523438 411.433594 541.148438 409.25 541.953125 C 406.9375 542.808594 404.808594 543.996094 402.605469 545.082031 C 401.644531 545.554688 402.132812 547.0625 403.140625 547.046875 C 405.589844 547.015625 408.003906 547.101562 410.445312 546.8125 C 412.820312 546.53125 415.15625 546.054688 417.5 545.628906 C 419.773438 545.210938 422.074219 544.707031 424.285156 544.015625 C 425.636719 543.601562 426.871094 543.015625 428.078125 542.390625 C 428.132812 542.496094 428.160156 542.597656 428.230469 542.695312 C 428.210938 543.207031 428.242188 543.722656 428.285156 544.3125 C 428.335938 544.988281 428.382812 545.570312 428.472656 546.273438 C 428.347656 545.304688 428.492188 546.484375 428.511719 546.691406 C 428.6875 548.503906 428.722656 550.320312 428.683594 552.144531 C 428.664062 553.023438 428.597656 553.898438 428.511719 554.777344 C 428.507812 554.832031 428.507812 554.847656 428.5 554.886719 C 428.492188 554.949219 428.480469 554.992188 428.460938 555.097656 C 428.382812 555.5625 428.320312 556.035156 428.246094 556.5 C 428.0625 557.660156 427.925781 558.777344 427.929688 559.945312 C 427.9375 560.546875 427.84375 561.273438 428.148438 561.8125 C 428.222656 562.226562 428.265625 562.246094 428.289062 561.867188 C 428.324219 562.117188 428.347656 562.371094 428.375 562.625 C 428.652344 565.296875 431.484375 566.59375 433.582031 564.78125 C 433.730469 564.65625 433.871094 564.53125 434.011719 564.402344 C 434.046875 564.378906 434.078125 564.351562 434.191406 564.269531 C 435.046875 563.667969 435.640625 563.085938 436.164062 562.171875 C 436.773438 561.109375 437.28125 560.0625 437.574219 558.859375 C 438.105469 556.691406 438.292969 554.363281 438.296875 552.140625 C 438.296875 549.914062 437.972656 547.632812 437.417969 545.480469 C 437.117188 544.316406 436.695312 543.253906 436.191406 542.167969 C 435.964844 541.683594 435.757812 541.226562 435.453125 540.78125 C 435.441406 540.761719 435.421875 540.753906 435.414062 540.738281 C 436.257812 539.59375 436.9375 538.34375 437.402344 536.996094 C 438.371094 534.207031 438.808594 531.117188 439.03125 528.1875 C 439.339844 524.105469 439.109375 519.289062 437.171875 515.519531 C 437.417969 515.339844 437.820312 514.9375 437.914062 514.84375 C 438.238281 514.523438 438.707031 514.273438 439.074219 514.007812 C 440.527344 512.964844 440.238281 511.191406 438.925781 510.449219 C 439.78125 509.359375 440.578125 508.210938 441.28125 506.988281 C 443.136719 503.757812 444.398438 499.984375 444.148438 496.222656 C 443.976562 493.578125 443.191406 491.074219 441.953125 488.785156 C 446.390625 462.109375 460.074219 438.214844 474.046875 415.4375 C 488.96875 391.105469 504.351562 367.03125 513.195312 339.699219 Z M 366.796875 584.246094 C 377.546875 584.855469 388.316406 584.328125 398.976562 582.824219 C 404.234375 582.085938 409.453125 581.113281 414.613281 579.863281 C 419.523438 578.667969 425.03125 577.492188 428.679688 573.757812 C 428.070312 575.628906 427.375 577.4375 426.359375 579.164062 C 423.945312 583.261719 420.53125 586.660156 416.597656 589.296875 C 407.707031 595.25 396.480469 598.273438 385.957031 599.609375 C 375.738281 600.90625 364.738281 600.3125 355.433594 595.527344 C 348.25 591.835938 344.207031 586.574219 339.964844 580.566406 C 348.605469 582.9375 358.125 583.753906 366.796875 584.246094 Z M 405.257812 482.429688 C 398.042969 483.113281 390.796875 483.335938 383.554688 483.207031 C 384.414062 479.542969 384.164062 475.773438 384.023438 471.769531 C 383.796875 465.3125 383.5 458.859375 383.238281 452.40625 C 382.695312 439.09375 382.136719 425.78125 381.566406 412.46875 C 381.015625 399.558594 380.464844 386.648438 379.914062 373.742188 C 379.640625 367.289062 379.363281 360.835938 379.089844 354.378906 C 378.839844 348.539062 379.617188 341.988281 376.777344 336.746094 C 376.570312 336.363281 376.261719 336.058594 375.921875 335.789062 C 374.089844 330.929688 370.933594 326.523438 366.871094 323.324219 C 361.242188 318.886719 354.867188 317.992188 348.027344 316.65625 C 344.898438 316.046875 334.632812 312.914062 338.433594 307.769531 C 342.191406 302.683594 349.851562 306.199219 354.039062 308.488281 C 360.414062 311.976562 366.75 316.234375 374.292969 316.332031 C 381.46875 316.433594 386.414062 311.925781 392.71875 309.445312 C 396.886719 307.804688 403.207031 308.695312 399.292969 314.339844 C 397.355469 317.125 394.070312 318.597656 391.210938 320.253906 C 387.917969 322.160156 384.714844 324.253906 382.410156 327.332031 C 378.390625 332.699219 376.769531 342.128906 384.566406 344.800781 C 386.613281 345.503906 388.996094 343.636719 388.890625 341.507812 C 388.757812 338.757812 388.339844 335.953125 389.972656 333.53125 C 391.875 330.710938 395.292969 329.230469 398.148438 327.570312 C 404.269531 324.007812 410.089844 318.90625 410.347656 311.273438 C 410.582031 304.253906 404.878906 299.375 398.230469 298.863281 C 390.867188 298.296875 385.625 302.738281 379.238281 305.464844 C 371.679688 308.6875 364.832031 303.1875 358.441406 299.75 C 351.8125 296.183594 344.378906 293.859375 337.125 296.984375 C 331.101562 299.585938 326.773438 305.660156 328.242188 312.402344 C 329.714844 319.148438 335.949219 323.566406 342.257812 325.355469 C 349.941406 327.53125 357.839844 326.890625 363.511719 333.402344 C 365.707031 335.921875 367.101562 338.972656 368.015625 342.160156 C 368.304688 343.171875 368.566406 344.199219 368.835938 345.21875 C 368.859375 347.832031 369.140625 350.488281 369.253906 353.171875 C 369.527344 359.628906 369.804688 366.082031 370.078125 372.535156 C 370.648438 385.847656 371.214844 399.160156 371.785156 412.472656 C 372.335938 425.386719 372.890625 438.292969 373.464844 451.199219 C 373.753906 457.65625 374.023438 464.109375 374.328125 470.5625 C 374.53125 474.746094 374.484375 478.980469 375.625 482.90625 C 374.019531 482.816406 372.414062 482.746094 370.804688 482.613281 C 359.382812 481.667969 348.226562 479.539062 337.121094 476.75 C 335.519531 476.347656 328.042969 473.636719 322.492188 472.988281 C 318.222656 451.261719 304.269531 433.207031 291.183594 415.570312 C 274.804688 393.488281 261.992188 369.984375 255.136719 343.195312 C 248.367188 316.722656 247.109375 288.691406 252.089844 261.792969 C 256.972656 235.410156 267.488281 208.292969 289.976562 192.074219 C 312.667969 175.710938 342.8125 170.210938 370.164062 168.304688 C 399.433594 166.261719 429.683594 170.226562 455.582031 184.75 C 507.3125 213.757812 521.085938 276.710938 505.726562 330.722656 C 490.578125 383.996094 447.152344 424.980469 434.214844 478.648438 C 430.304688 477.636719 426.761719 479.101562 422.570312 479.921875 C 416.84375 481.03125 411.070312 481.882812 405.257812 482.429688 Z M 405.257812 482.429688 " fill-opacity="1" fill-rule="nonzero"/></g><path fill="#004838" d="M 298.480469 200.929688 C 291.925781 205.8125 286.285156 211.609375 281.671875 218.371094 C 276.847656 225.441406 273.34375 233.566406 271.398438 241.894531 C 270.449219 245.953125 269.847656 250.125 269.582031 254.285156 C 269.445312 256.453125 269.371094 258.617188 269.578125 260.78125 C 269.816406 263.257812 270.75 264.964844 271.828125 267.167969 C 273.109375 269.792969 277.1875 269 277.894531 266.371094 C 278.414062 264.429688 279.042969 262.808594 279.15625 260.777344 C 279.265625 258.8125 279.214844 256.839844 279.324219 254.871094 C 279.539062 250.972656 280.15625 247.132812 281.109375 243.34375 C 282.964844 235.988281 286.105469 229.085938 290.425781 222.855469 C 294.386719 217.152344 299.464844 212.003906 305.101562 207.953125 C 308.066406 205.832031 311.332031 204.167969 314.277344 202.019531 C 316.34375 200.507812 318.800781 198.4375 317.539062 195.597656 C 314.609375 189.015625 301.613281 198.59375 298.480469 200.929688 Z M 298.480469 200.929688 " fill-opacity="1" fill-rule="nonzero"/><path fill="#004838" d="M 297.257812 369.695312 C 297.257812 369.757812 297.355469 369.757812 297.355469 369.695312 C 297.355469 369.433594 297.355469 369.179688 297.355469 368.917969 C 297.355469 368.855469 297.257812 368.855469 297.257812 368.917969 C 297.257812 369.179688 297.257812 369.4375 297.257812 369.695312 Z M 297.257812 369.695312 " fill-opacity="1" fill-rule="nonzero"/></svg>