<svg xmlns="http://www.w3.org/2000/svg" xmlns:xlink="http://www.w3.org/1999/xlink" width="1024" zoomAndPan="magnify" viewBox="0 0 768 767.999994" height="1024" preserveAspectRatio="xMidYMid meet" version="1.0"><defs><clipPath id="77f1e90949"><path d="M 227 157.011719 L 522 157.011719 L 522 610 L 227 610 Z M 227 157.011719 " clip-rule="nonzero"/></clipPath></defs><g clip-path="url(#77f1e90949)"><path fill="#004838" d="M 360.664062 160.917969 C 323.175781 166.066406 290.78125 187.890625 266.042969 215.742188 C 239.578125 245.546875 228.238281 286.257812 227.214844 325.453125 C 224.90625 414.058594 273.445312 491.40625 321.542969 561.871094 C 333.140625 578.859375 345.046875 599.898438 365.511719 607.273438 C 375.5625 610.898438 388.589844 610.09375 397.75 604.210938 C 398.359375 603.984375 398.964844 603.800781 399.574219 603.507812 C 407.402344 599.785156 411.476562 591.304688 415.53125 584.132812 C 420.773438 574.859375 425.875 565.503906 430.835938 556.074219 C 450.707031 518.324219 468.320312 479.378906 483.617188 439.5625 C 511.125 367.949219 545.453125 274.847656 497.664062 203.949219 C 486.5625 187.476562 471.234375 174.039062 453.03125 165.9375 C 444.578125 162.175781 435.808594 159.539062 426.617188 158.414062 C 423.355469 158.015625 420.136719 157.957031 416.898438 158.066406 C 411.222656 157.398438 405.484375 157.070312 399.644531 157.207031 C 387.019531 157.503906 374.460938 159.488281 362.332031 162.976562 C 362.765625 162.050781 361.984375 160.734375 360.664062 160.917969 Z M 361.300781 594.261719 C 345.679688 584.222656 335.824219 565.527344 325.640625 550.539062 C 303.15625 517.433594 281.21875 483.683594 264.484375 447.230469 C 233.121094 378.882812 222.703125 295.597656 266.015625 229.800781 C 284.726562 201.375 312.554688 181.742188 343.761719 169.664062 C 343.09375 169.957031 342.414062 170.21875 341.746094 170.515625 C 309.148438 185.222656 281.941406 212.292969 266.945312 244.742188 C 231.457031 321.519531 264.871094 410.835938 302.074219 480.320312 C 313.238281 501.167969 325.6875 521.335938 339.320312 540.660156 C 347.476562 552.210938 356.023438 563.804688 365.121094 574.867188 C 364.511719 575.59375 364.152344 576.597656 364.351562 577.859375 C 365.554688 585.492188 370.035156 593.898438 376.339844 599.410156 C 371.117188 598.96875 365.875 597.195312 361.300781 594.261719 Z M 483.996094 201.8125 C 506.046875 228.941406 512.984375 265.566406 511.066406 299.722656 C 508.914062 338.082031 496.429688 375.3125 483.667969 411.253906 C 470.820312 447.433594 456.019531 482.910156 439.335938 517.492188 C 430.078125 536.683594 420.246094 555.605469 409.863281 574.214844 C 408.199219 577.199219 406.304688 581.523438 403.933594 585.503906 C 402.554688 585.4375 401.160156 586.003906 400.3125 587.496094 C 398.398438 590.863281 395.917969 593.449219 393.089844 595.367188 C 392.394531 595.511719 391.6875 595.601562 390.945312 595.589844 C 390.3125 595.574219 389.710938 595.511719 389.125 595.410156 C 390.871094 593.871094 391.632812 591.050781 389.714844 588.671875 C 377.128906 573.070312 363.945312 558.101562 352.152344 541.84375 C 340.789062 526.183594 330.210938 509.949219 320.476562 493.226562 C 300.671875 459.199219 283.519531 422.964844 272.566406 385.074219 C 261.578125 347.054688 257.003906 305.867188 268.667969 267.433594 C 278.855469 233.851562 301.765625 204.757812 331.839844 186.695312 C 356.675781 171.777344 387.265625 164.878906 416.929688 166.527344 C 418.664062 166.746094 420.386719 166.976562 422.039062 167.183594 C 430.179688 168.195312 438.253906 170.230469 445.859375 173.332031 C 460.699219 179.371094 473.914062 189.402344 483.996094 201.8125 Z M 483.996094 201.8125 " fill-opacity="1" fill-rule="nonzero"/></g><path fill="#004838" d="M 359.183594 222.292969 C 353.101562 226.15625 347.375 230.636719 342.105469 235.464844 C 326.464844 249.796875 314.773438 268.246094 309.363281 288.820312 C 298.554688 329.910156 313.828125 375.050781 351.960938 395.972656 C 388.527344 416.035156 431.964844 404.4375 457.152344 372.09375 C 484.34375 337.171875 483.714844 285.675781 463.003906 247.777344 C 452.539062 228.628906 435.335938 211.929688 413.570312 206.933594 C 395.613281 202.816406 370.132812 205.582031 359.183594 222.292969 Z M 450.664062 246.226562 C 471.578125 278.382812 475.1875 324.46875 455.113281 357.851562 C 436.542969 388.738281 399.070312 405.210938 364.71875 391.269531 C 328.296875 376.496094 310.277344 337.054688 317.074219 299.285156 C 320.875 278.160156 331.5 259.121094 346.871094 244.226562 C 354.050781 237.265625 362.136719 231.390625 370.65625 226.183594 C 376.480469 222.621094 382.449219 219.136719 388.554688 215.964844 C 395.101562 214.703125 401.890625 214.65625 408.433594 215.863281 C 426.332031 219.171875 440.910156 231.230469 450.664062 246.226562 Z M 450.664062 246.226562 " fill-opacity="1" fill-rule="nonzero"/><path fill="#004838" d="M 400.0625 253.246094 C 394.457031 252.171875 388.519531 253.832031 383.117188 255.277344 C 377.277344 256.839844 371.621094 258.957031 366.089844 261.398438 C 364.835938 261.957031 364.023438 263.632812 364.058594 264.941406 C 364.191406 270.023438 363.9375 275.507812 365.351562 280.457031 C 360.242188 281.933594 355.117188 283.699219 350.917969 286.804688 C 350.085938 287.417969 349.617188 288.1875 349.464844 288.992188 C 349.460938 289.011719 349.445312 289.027344 349.441406 289.050781 C 349.4375 289.066406 349.4375 289.082031 349.433594 289.089844 C 349.425781 289.125 349.414062 289.160156 349.40625 289.199219 C 348.863281 290.8125 348.566406 292.542969 348.363281 294.3125 C 348.226562 294.738281 348.035156 295.144531 347.933594 295.601562 C 347.8125 296.113281 347.921875 296.546875 348.117188 296.925781 C 347.953125 299.898438 348 302.910156 347.882812 305.691406 C 347.65625 311.101562 347.554688 316.519531 347.402344 321.9375 C 347.25 327.351562 347.097656 332.765625 346.945312 338.183594 C 346.863281 340.984375 346.738281 343.796875 346.707031 346.605469 C 346.683594 349.273438 346.796875 352.058594 349.046875 353.851562 C 350.164062 354.742188 351.894531 355.332031 353.214844 354.386719 C 357.757812 351.152344 356.550781 344.34375 356.667969 339.386719 C 356.800781 333.769531 356.929688 328.152344 357.0625 322.535156 C 357.195312 316.917969 357.375 311.300781 357.425781 305.691406 C 357.425781 305.523438 357.433594 305.347656 357.4375 305.179688 C 361.726562 309.050781 366.574219 312.324219 371.734375 315.050781 C 376.222656 317.421875 380.933594 319.4375 385.769531 321.007812 C 388.050781 321.746094 390.367188 322.394531 392.710938 322.933594 C 395.871094 323.667969 398.359375 323.976562 401.351562 322.4375 C 402.503906 321.847656 403.035156 320.703125 403.082031 319.515625 C 404.082031 318.472656 404.960938 317.277344 405.847656 316.179688 C 407.464844 314.183594 409.054688 312.164062 410.621094 310.121094 C 413.6875 306.132812 416.667969 302.074219 419.554688 297.957031 C 422.359375 293.960938 425.035156 289.859375 427.394531 285.589844 C 428.027344 284.441406 428.585938 283.292969 429.085938 282.125 C 430.773438 289.828125 431.890625 297.628906 432.328125 305.523438 C 432.609375 310.519531 432.640625 315.53125 432.4375 320.53125 C 432.277344 324.355469 430.695312 330.074219 433.09375 333.46875 C 433.039062 333.535156 432.96875 333.582031 432.917969 333.652344 C 420.585938 337.734375 408.097656 341.328125 395.4375 344.246094 C 388.789062 345.78125 382.101562 347.167969 375.386719 348.398438 C 371.90625 349.035156 368.414062 349.59375 364.921875 350.179688 C 361.664062 350.722656 358.09375 351.003906 355.40625 353.046875 C 352.875 354.96875 353.324219 358.285156 356.25 359.480469 C 359.332031 360.738281 362.746094 360.074219 365.972656 359.65625 C 369.484375 359.199219 372.980469 358.613281 376.472656 358.019531 C 383.457031 356.828125 390.402344 355.445312 397.308594 353.867188 C 411.121094 350.710938 424.742188 346.820312 438.164062 342.277344 C 440.855469 341.367188 442.070312 339 441.589844 336.253906 C 441.382812 335.09375 440.78125 334.203125 440 333.464844 C 442.460938 330.390625 442.042969 324.960938 442.207031 321.320312 C 442.464844 315.796875 442.421875 310.253906 442.085938 304.734375 C 441.402344 293.511719 439.539062 282.382812 436.585938 271.535156 C 436.066406 269.617188 433.96875 267.746094 431.867188 267.941406 C 424.996094 268.570312 418.144531 269.386719 411.320312 270.394531 C 411.492188 268.277344 411.367188 266.15625 410.824219 264.0625 C 409.433594 258.785156 405.566406 254.296875 400.0625 253.246094 Z M 431.953125 337.558594 C 432 337.5 432.042969 337.4375 432.085938 337.378906 C 432.085938 337.394531 432.085938 337.410156 432.085938 337.429688 C 432.042969 337.472656 432 337.519531 431.953125 337.558594 Z M 411.621094 292.828125 C 408.914062 296.582031 406.140625 300.285156 403.273438 303.914062 C 401.757812 305.832031 400.234375 307.746094 398.695312 309.644531 C 397.6875 310.882812 396.585938 312.089844 395.671875 313.398438 C 393.355469 312.78125 390.917969 312.394531 388.746094 311.707031 C 384.433594 310.34375 380.242188 308.65625 376.207031 306.59375 C 369.597656 303.214844 363.539062 298.898438 357.492188 294.59375 C 357.449219 293.84375 357.378906 293.097656 357.285156 292.367188 C 362.292969 291.609375 367.191406 289.941406 372.085938 288.609375 C 378.492188 286.867188 384.949219 285.3125 391.441406 283.910156 C 401.566406 281.726562 411.777344 280.027344 422.058594 278.785156 C 421.457031 279.488281 420.863281 280.191406 420.296875 280.945312 C 417.339844 284.859375 414.488281 288.851562 411.621094 292.828125 Z M 390.394531 274.128906 C 384.210938 275.433594 378.078125 276.957031 371.984375 278.628906 C 372.574219 275.054688 372.449219 271.324219 372.335938 267.6875 C 376.027344 266.230469 379.792969 264.949219 383.609375 263.882812 C 387.703125 262.742188 392.125 261.386719 396.410156 261.390625 C 399.722656 261.394531 401.804688 263.121094 402.457031 266.359375 C 402.78125 267.980469 402.566406 270.066406 402.324219 271.851562 C 398.335938 272.550781 394.355469 273.292969 390.394531 274.128906 Z M 390.394531 274.128906 " fill-opacity="1" fill-rule="nonzero"/></svg>