<svg xmlns="http://www.w3.org/2000/svg" xmlns:xlink="http://www.w3.org/1999/xlink" width="1024" zoomAndPan="magnify" viewBox="0 0 768 767.999994" height="1024" preserveAspectRatio="xMidYMid meet" version="1.0"><path fill="#004838" d="M 569.171875 423.09375 C 570.40625 422.980469 571.613281 422.796875 572.746094 422.449219 C 576.140625 421.417969 576.097656 416.652344 572.746094 415.601562 C 568.777344 414.359375 564.417969 414.535156 560.3125 413.8125 C 556.097656 413.078125 551.9375 412.046875 547.773438 411.070312 C 540.792969 409.433594 533.8125 407.796875 526.828125 406.160156 C 529.601562 405.589844 532.351562 404.285156 534.917969 403.375 C 538.859375 401.972656 542.796875 400.570312 546.734375 399.171875 C 550.675781 397.765625 554.621094 396.320312 558.480469 394.703125 C 561.675781 393.367188 565.988281 391.566406 568.128906 388.757812 C 568.710938 387.992188 568.289062 386.917969 567.5625 386.398438 C 568.535156 384.375 568.113281 381.855469 565.207031 381.316406 C 559.121094 380.183594 552.558594 380.636719 546.382812 380.476562 C 539.964844 380.3125 533.546875 380.136719 527.125 380.003906 C 520.726562 379.875 514.328125 379.691406 507.929688 379.675781 C 513.980469 376.222656 519.917969 372.566406 525.703125 368.671875 C 531.710938 364.628906 537.550781 360.335938 543.242188 355.859375 C 549.347656 351.0625 556.445312 346.027344 561.351562 339.976562 C 563.914062 336.8125 560.554688 331.035156 556.59375 333.8125 C 555.214844 334.777344 553.886719 335.824219 552.582031 336.898438 C 552.453125 336.871094 552.375 336.789062 552.238281 336.769531 C 520.761719 331.820312 489.28125 326.875 457.796875 321.941406 C 442.058594 319.476562 426.316406 317.007812 410.574219 314.542969 C 403.039062 313.359375 395.511719 312.191406 387.964844 311.085938 C 381.996094 310.210938 374.179688 307.988281 368.363281 310.308594 C 364.519531 310.996094 360.714844 312.253906 357 313.179688 C 350.769531 314.734375 344.519531 316.230469 338.253906 317.648438 C 325.394531 320.558594 312.464844 323.160156 299.484375 325.449219 C 286.527344 327.730469 273.523438 329.71875 260.46875 331.359375 C 254.09375 332.164062 247.703125 332.898438 241.324219 333.707031 C 236.539062 334.316406 229.675781 334.171875 226.296875 338.058594 C 225.886719 338.53125 225.738281 339.386719 226.296875 339.839844 C 226.335938 339.867188 226.375 339.882812 226.410156 339.910156 C 225.070312 340.515625 224.5 342.640625 226.121094 343.445312 C 234.054688 347.375 242.148438 351.015625 250.324219 354.496094 C 248.5 354.882812 246.753906 355.617188 245.03125 356.332031 C 240.996094 358.011719 237.027344 359.839844 233.054688 361.664062 C 228.867188 363.582031 224.691406 365.523438 220.523438 367.476562 C 218.574219 368.386719 215.757812 369.160156 214.222656 370.695312 C 213.332031 371.585938 212.574219 373.144531 212.613281 374.535156 C 211.761719 374.9375 211.011719 375.625 210.574219 376.5625 C 209.085938 379.730469 212.433594 382.449219 215.15625 383.234375 C 216.230469 383.542969 217.386719 383.703125 218.53125 383.863281 C 218.40625 383.945312 218.277344 384.015625 218.152344 384.09375 C 216.46875 385.167969 214.796875 386.257812 213.136719 387.363281 C 212.078125 388.0625 210.921875 388.714844 209.992188 389.578125 C 208.949219 390.542969 208.382812 391.667969 208.015625 393.019531 C 207.527344 394.800781 208.683594 396.101562 210.238281 396.542969 C 210.328125 396.671875 210.402344 396.804688 210.558594 396.902344 C 216.429688 400.574219 225.242188 400.546875 232.003906 401.40625 C 239.753906 402.386719 247.582031 402.964844 255.375 403.609375 C 249.074219 404.789062 242.757812 405.847656 236.582031 407.125 C 229.082031 408.675781 221.582031 410.226562 214.085938 411.777344 C 210.339844 412.554688 206.585938 413.328125 202.839844 414.101562 C 199.402344 414.8125 195.261719 414.910156 193.636719 418.457031 C 193.28125 419.230469 193.179688 420.164062 193.53125 420.9375 C 192.542969 421.800781 192.140625 423.445312 193.300781 424.363281 C 196.824219 427.136719 201.636719 428.53125 205.980469 429.484375 C 208.480469 430.03125 211.097656 430.308594 213.691406 430.234375 C 213.890625 430.277344 214.09375 430.320312 214.28125 430.367188 C 220.6875 431.949219 227.125 433.417969 233.5625 434.871094 C 246.441406 437.785156 259.355469 440.566406 272.253906 443.414062 C 284.8125 446.1875 297.371094 448.953125 309.933594 451.714844 C 316.378906 453.128906 322.832031 454.542969 329.28125 455.964844 C 334.957031 457.210938 341.695312 459.949219 347.445312 458.28125 C 348.632812 457.9375 349.453125 456.777344 349.546875 455.597656 C 349.757812 455.503906 349.964844 455.414062 350.175781 455.324219 C 353.101562 454.09375 356.019531 452.839844 358.898438 451.515625 C 364.574219 448.914062 370.199219 446.1875 375.757812 443.347656 C 377.421875 442.496094 379.042969 441.566406 380.691406 440.695312 C 380.484375 441.742188 380.871094 442.894531 382.335938 443.863281 C 385.878906 446.195312 390.71875 447.03125 394.757812 448.183594 C 399.144531 449.433594 403.535156 450.675781 407.929688 451.898438 C 412.171875 453.078125 416.417969 454.261719 420.660156 455.441406 C 420.707031 455.453125 420.753906 455.464844 420.796875 455.480469 C 421.078125 455.664062 421.398438 455.804688 421.773438 455.851562 C 421.894531 455.867188 422.007812 455.851562 422.128906 455.863281 C 423.753906 456.339844 425.386719 456.835938 427.039062 457.183594 C 428.210938 457.429688 429.320312 457.488281 430.484375 457.117188 C 431.109375 456.941406 431.648438 456.625 432.109375 456.167969 C 432.753906 455.238281 432.859375 455.164062 432.421875 455.949219 C 432.765625 455.792969 433 455.488281 433.183594 455.144531 C 435.136719 454.777344 437.085938 454.378906 439.058594 453.972656 C 445.179688 452.710938 451.261719 451.277344 457.355469 449.890625 C 469.535156 447.121094 481.714844 444.335938 493.886719 441.535156 C 518.230469 435.925781 542.574219 430.320312 566.917969 424.714844 C 567.832031 424.5 568.621094 423.871094 569.171875 423.09375 Z M 507.867188 387.546875 C 514.035156 387.855469 520.210938 388.011719 526.390625 388.214844 C 532.5625 388.417969 538.734375 388.578125 544.90625 388.746094 C 546.945312 388.800781 549.046875 388.9375 551.160156 389.066406 C 548.039062 390.082031 544.929688 391.144531 541.828125 392.222656 C 537.578125 393.707031 533.324219 395.179688 529.078125 396.671875 C 526.996094 397.398438 524.59375 398.007812 522.691406 399.121094 C 520.789062 400.230469 519.066406 401.671875 517.179688 402.835938 C 516.828125 403.050781 516.59375 403.375 516.417969 403.734375 C 509.34375 402.070312 502.265625 400.40625 495.175781 398.792969 C 490.773438 397.792969 486.386719 396.800781 481.929688 396.070312 C 481.425781 395.988281 480.9375 395.933594 480.457031 395.875 C 480.457031 395.78125 480.476562 395.695312 480.46875 395.601562 C 480.421875 394.964844 480.132812 394.296875 479.675781 393.804688 C 482.039062 392.777344 484.414062 391.757812 486.75 390.667969 C 489.589844 389.351562 492.390625 387.957031 495.183594 386.542969 C 499.363281 387.273438 503.757812 387.339844 507.867188 387.546875 Z M 457.09375 408.929688 C 455.894531 410.074219 454.878906 411.214844 453.9375 412.582031 C 451.921875 412.230469 449.851562 412.054688 447.921875 411.777344 C 443.054688 411.082031 438.191406 410.386719 433.328125 409.703125 C 437.511719 408.574219 441.609375 407.351562 445.496094 406.21875 C 453.363281 403.921875 461.121094 401.246094 468.765625 398.28125 C 466.980469 399.894531 465.199219 401.511719 463.414062 403.121094 C 461.292969 405.046875 459.167969 406.957031 457.09375 408.929688 Z M 261.476562 339.457031 C 274.25 337.847656 286.992188 335.964844 299.683594 333.777344 C 312.679688 331.539062 325.617188 328.984375 338.492188 326.125 C 345.089844 324.660156 351.675781 323.113281 358.234375 321.472656 C 363.402344 320.179688 369.09375 319.253906 373.910156 316.792969 C 378.167969 318.042969 383.023438 318.359375 386.859375 319.003906 C 394.714844 320.320312 402.578125 321.5625 410.441406 322.808594 C 425.835938 325.242188 441.234375 327.667969 456.625 330.101562 C 485.9375 334.730469 515.25 339.347656 544.5625 343.957031 C 543.074219 345.28125 541.582031 346.589844 540.046875 347.828125 C 534.289062 352.472656 528.332031 356.855469 522.214844 361.003906 C 510.101562 369.222656 497.34375 376.5 484.113281 382.75 C 470.9375 388.972656 457.273438 394.128906 443.289062 398.210938 C 436.128906 400.300781 428.902344 402.167969 421.601562 403.71875 C 417.65625 404.554688 413.828125 405.378906 410.070312 406.496094 C 408.335938 406.242188 406.539062 405.929688 404.71875 405.65625 C 399.304688 403.101562 393.574219 401.140625 388.007812 399.011719 C 380.535156 396.15625 373.066406 393.300781 365.589844 390.4375 C 357.957031 387.519531 350.320312 384.613281 342.6875 381.695312 C 342.464844 380.6875 341.769531 379.753906 340.585938 379.296875 C 338.066406 378.328125 335.421875 378.007812 332.742188 377.902344 C 328.417969 376.257812 324.105469 374.59375 319.785156 372.957031 C 291.839844 362.359375 263.917969 350.679688 235.253906 342.0625 C 237.34375 341.988281 239.433594 341.726562 241.328125 341.585938 C 248.050781 341.070312 254.78125 340.300781 261.476562 339.457031 Z M 236.011719 369.285156 C 240.027344 367.359375 244.0625 365.476562 248.011719 363.414062 C 250.003906 362.371094 252.144531 361.320312 253.8125 359.792969 C 254.699219 358.980469 255.53125 357.988281 256.414062 357.054688 C 273.847656 364.257812 291.617188 370.796875 309.1875 377.519531 C 309.003906 377.515625 308.8125 377.511719 308.628906 377.507812 C 298.253906 377.308594 287.875 377.109375 277.5 376.921875 C 267.125 376.734375 256.746094 376.542969 246.371094 376.351562 C 240.839844 376.253906 235.304688 376.128906 229.773438 376.09375 C 227.152344 376.078125 224.515625 375.996094 221.894531 376.046875 C 222.605469 375.660156 223.296875 375.285156 223.917969 374.996094 C 227.953125 373.101562 231.992188 371.210938 236.011719 369.285156 Z M 219.214844 393.070312 C 220.46875 392.210938 221.722656 391.355469 222.96875 390.484375 C 224.871094 389.148438 226.71875 387.773438 228.527344 386.304688 C 228.988281 385.933594 229.425781 385.59375 229.792969 385.121094 C 230.078125 384.707031 230.144531 384.636719 229.988281 384.910156 C 230.074219 384.824219 230.15625 384.734375 230.246094 384.648438 C 230.339844 384.558594 230.410156 384.4375 230.5 384.339844 C 231.660156 384.328125 232.824219 384.3125 233.921875 384.34375 C 241.183594 384.53125 248.449219 384.640625 255.714844 384.789062 C 269.890625 385.078125 284.074219 385.378906 298.253906 385.65625 C 305.171875 385.792969 312.089844 385.925781 319.007812 386.058594 C 323.308594 386.144531 328.070312 386.703125 332.652344 386.5625 C 341.925781 390.136719 351.195312 393.71875 360.46875 397.285156 C 367.933594 400.160156 375.390625 403.027344 382.851562 405.898438 C 382.53125 405.878906 382.195312 405.867188 381.878906 405.839844 C 373.554688 405.148438 365.226562 404.457031 356.902344 403.769531 C 340.597656 402.414062 324.289062 401.066406 307.984375 399.726562 C 298.6875 398.964844 289.394531 398.199219 280.097656 397.433594 C 279.257812 397.105469 278.4375 397.027344 277.660156 397.230469 C 271.460938 396.71875 265.265625 396.214844 259.0625 395.703125 C 250.746094 395.019531 242.414062 394.269531 234.082031 393.796875 C 229.667969 393.542969 224.265625 392.867188 219.214844 393.070312 Z M 372.109375 435.917969 C 366.738281 438.6875 361.3125 441.339844 355.832031 443.890625 C 352.910156 445.25 349.988281 446.605469 347.054688 447.933594 C 345.402344 448.679688 343.777344 449.328125 342.335938 450.238281 C 339.136719 449.28125 335.683594 448.84375 332.511719 448.152344 C 326.0625 446.734375 319.609375 445.316406 313.160156 443.898438 C 299.917969 440.992188 286.675781 438.101562 273.429688 435.207031 C 260.523438 432.390625 247.636719 429.492188 234.714844 426.765625 C 228.242188 425.398438 221.777344 424.039062 215.289062 422.792969 C 212.902344 422.332031 210.234375 421.640625 207.6875 421.601562 C 210.019531 421.117188 212.351562 420.628906 214.683594 420.144531 C 222.984375 418.417969 231.285156 416.691406 239.582031 414.960938 C 247.496094 413.316406 255.453125 411.757812 263.316406 409.886719 C 267.558594 408.875 271.816406 407.542969 275.511719 405.308594 C 285.640625 406.160156 295.769531 407.007812 305.898438 407.855469 C 322.207031 409.21875 338.511719 410.585938 354.816406 411.9375 C 363.140625 412.628906 371.46875 413.320312 379.796875 414.011719 C 386.972656 414.605469 396.589844 417.109375 403.414062 414.34375 C 403.695312 414.230469 403.949219 414.078125 404.175781 413.898438 C 405.03125 414.007812 405.882812 414.109375 406.730469 414.210938 C 406.976562 414.265625 407.214844 414.347656 407.457031 414.398438 C 407.75 414.457031 408.019531 414.429688 408.289062 414.421875 C 407.628906 414.8125 406.96875 415.203125 406.304688 415.59375 C 403.988281 416.960938 401.667969 418.320312 399.375 419.734375 C 397.140625 421.121094 394.480469 422.464844 392.773438 424.550781 C 391.171875 425.445312 389.605469 426.417969 388.046875 427.300781 C 382.800781 430.273438 377.484375 433.152344 372.109375 435.917969 Z M 491.667969 433.515625 C 479.832031 436.246094 468.007812 438.992188 456.183594 441.753906 C 450.101562 443.171875 444.007812 444.535156 437.953125 446.074219 C 434.578125 446.925781 431.238281 447.726562 428.007812 448.832031 C 426.457031 448.367188 424.871094 447.96875 423.324219 447.546875 C 418.921875 446.339844 414.527344 445.136719 410.125 443.929688 C 405.878906 442.765625 401.625 441.617188 397.371094 440.480469 C 393.816406 439.523438 389.867188 438.125 386.070312 437.8125 C 388.128906 436.695312 390.222656 435.636719 392.261719 434.488281 C 395.019531 432.929688 398.046875 431.4375 400.46875 429.367188 C 401.496094 428.484375 402.46875 427.582031 403.457031 426.675781 C 405.8125 425.375 408.128906 424.015625 410.453125 422.664062 C 412.933594 421.226562 415.417969 419.785156 417.902344 418.34375 C 419.011719 417.699219 420.25 417.097656 421.25 416.273438 C 423.460938 416.597656 425.667969 416.925781 427.878906 417.246094 C 433.820312 418.105469 439.773438 418.929688 445.71875 419.769531 C 447.144531 419.96875 448.695312 420.265625 450.28125 420.53125 C 438.042969 423.53125 426.140625 427.800781 414.964844 433.671875 C 414.335938 434 414.59375 435.160156 415.347656 435.074219 C 431.917969 433.148438 447.863281 428.261719 463.097656 421.480469 C 464.726562 420.757812 464.050781 418.835938 462.742188 418.261719 C 462.890625 417.882812 462.902344 417.46875 462.632812 417.097656 C 462.253906 416.589844 461.835938 416.152344 461.394531 415.757812 C 462.148438 415.148438 462.886719 414.515625 463.621094 413.898438 C 465.691406 412.144531 467.703125 410.3125 469.730469 408.507812 C 471.699219 406.75 473.671875 404.996094 475.644531 403.234375 C 476.074219 402.859375 476.523438 402.449219 476.980469 402.023438 C 478.109375 402.679688 479.429688 403.109375 480.875 403.546875 C 485.5 404.9375 490.183594 406.027344 494.875 407.164062 C 503.625 409.277344 512.390625 411.316406 521.15625 413.375 C 529.917969 415.433594 538.679688 417.503906 547.441406 419.550781 C 548.183594 419.722656 548.96875 419.921875 549.753906 420.121094 C 530.386719 424.582031 511.023438 429.050781 491.667969 433.515625 Z M 491.667969 433.515625 " fill-opacity="1" fill-rule="nonzero"/><path fill="#004838" d="M 327.832031 352.070312 C 335.203125 351.308594 342.574219 349.972656 349.746094 348.140625 C 363.855469 344.546875 380.375 339.882812 391.453125 330.027344 C 392.953125 328.695312 391.347656 326.414062 389.589844 326.828125 C 382.214844 328.566406 375.285156 331.9375 368.210938 334.609375 C 361.527344 337.136719 354.75 339.417969 347.863281 341.316406 C 340.972656 343.214844 334.039062 344.816406 327.039062 346.238281 C 319.644531 347.734375 312.027344 348.417969 304.878906 350.898438 C 304.554688 351.011719 304.519531 351.496094 304.878906 351.59375 C 312.382812 353.550781 320.199219 352.859375 327.832031 352.070312 Z M 327.832031 352.070312 " fill-opacity="1" fill-rule="nonzero"/><path fill="#004838" d="M 376.421875 353.410156 C 372.066406 354.714844 367.644531 355.875 363.246094 357.019531 C 359.21875 358.0625 354.929688 358.667969 351.617188 361.285156 C 351.421875 361.441406 351.507812 361.761719 351.691406 361.875 C 355.472656 364.164062 360.28125 363.761719 364.570312 363.417969 C 369.46875 363.023438 374.21875 362.167969 378.964844 360.90625 C 383.671875 359.652344 388.269531 358.078125 392.777344 356.226562 C 396.976562 354.503906 402.5 352.8125 404.773438 348.5625 C 405.824219 346.59375 404.476562 344.605469 402.386719 344.402344 C 397.988281 343.976562 393.671875 347.015625 389.753906 348.664062 C 385.40625 350.496094 380.929688 352.058594 376.421875 353.410156 Z M 376.421875 353.410156 " fill-opacity="1" fill-rule="nonzero"/><path fill="#004838" d="M 390.410156 368.101562 C 388.144531 369.003906 385.703125 369.582031 384.304688 371.679688 C 383.867188 372.339844 384.117188 373.542969 384.878906 373.875 C 387.210938 374.886719 389.496094 374.132812 391.917969 373.589844 C 394.894531 372.917969 397.820312 372.105469 400.75 371.234375 C 406.769531 369.449219 412.695312 367.375 418.527344 365.050781 C 424.152344 362.804688 429.714844 360.429688 435.167969 357.800781 C 440.152344 355.402344 446.582031 352.679688 449.777344 347.953125 C 450.671875 346.625 449.484375 344.785156 447.964844 344.804688 C 442.429688 344.878906 436.632812 348.488281 431.730469 350.792969 C 426.367188 353.3125 420.980469 355.800781 415.515625 358.101562 C 410.03125 360.40625 404.511719 362.632812 398.96875 364.785156 C 396.121094 365.890625 393.257812 366.972656 390.410156 368.101562 Z M 390.410156 368.101562 " fill-opacity="1" fill-rule="nonzero"/><path fill="#004838" d="M 426.992188 379.824219 C 424.164062 380.421875 421.3125 380.96875 418.570312 381.882812 C 417.21875 382.335938 415.902344 382.890625 414.582031 383.421875 C 413.824219 383.722656 413.0625 384.007812 412.375 384.453125 C 411.757812 384.847656 411.207031 385.355469 410.644531 385.828125 C 409.703125 386.625 410.53125 388.027344 411.582031 388.089844 C 413.15625 388.183594 414.542969 388.050781 416.074219 387.644531 C 417.445312 387.28125 418.828125 386.949219 420.167969 386.476562 C 422.964844 385.488281 425.640625 384.234375 428.332031 382.992188 C 429.105469 382.636719 429.359375 381.550781 429.039062 380.828125 C 428.679688 380.011719 427.863281 379.640625 426.992188 379.824219 Z M 426.992188 379.824219 " fill-opacity="1" fill-rule="nonzero"/><path fill="#004838" d="M 343.101562 430.820312 C 333.109375 426.746094 322.746094 424.621094 312.234375 422.3125 C 307.105469 421.1875 301.964844 420.148438 296.785156 419.265625 C 291.691406 418.394531 286.632812 418.234375 281.535156 417.644531 C 281.417969 417.632812 281.414062 417.800781 281.511719 417.835938 C 286.464844 419.683594 291.167969 421.886719 296.25 423.464844 C 301.445312 425.078125 306.691406 426.511719 311.949219 427.882812 C 322.148438 430.546875 332.121094 433.214844 342.652344 434.101562 C 344.695312 434.265625 344.691406 431.464844 343.101562 430.820312 Z M 343.101562 430.820312 " fill-opacity="1" fill-rule="nonzero"/><path fill="#004838" d="M 357.484375 423.101562 C 356.535156 422.8125 355.527344 422.589844 354.605469 422.230469 C 353.648438 421.863281 352.78125 421.417969 351.792969 421.113281 C 349.945312 420.539062 348.078125 420.035156 346.207031 419.550781 C 344.332031 419.066406 342.378906 418.847656 340.472656 418.542969 C 338.613281 418.242188 336.566406 417.867188 334.820312 418.738281 C 334.230469 419.03125 334.285156 419.769531 334.632812 420.203125 C 335.832031 421.707031 337.992188 422.222656 339.761719 422.734375 C 341.546875 423.253906 343.328125 423.859375 345.15625 424.175781 C 347.003906 424.5 348.835938 424.851562 350.691406 425.109375 C 351.75 425.257812 352.710938 425.257812 353.757812 425.308594 C 354.75 425.355469 355.773438 425.609375 356.757812 425.75 C 358.460938 426.003906 359.226562 423.625 357.484375 423.101562 Z M 357.484375 423.101562 " fill-opacity="1" fill-rule="nonzero"/></svg>