<svg xmlns="http://www.w3.org/2000/svg" xmlns:xlink="http://www.w3.org/1999/xlink" width="1024" zoomAndPan="magnify" viewBox="0 0 768 767.999994" height="1024" preserveAspectRatio="xMidYMid meet" version="1.0"><path fill="#004838" d="M 478.585938 200.265625 C 478.480469 200.207031 478.355469 200.351562 478.453125 200.4375 C 478.746094 200.683594 479.0625 200.898438 479.375 201.113281 C 479.691406 201.335938 480.007812 201.550781 480.324219 201.773438 C 480.488281 201.886719 480.648438 201.617188 480.480469 201.503906 C 480.167969 201.292969 479.855469 201.082031 479.539062 200.875 C 479.222656 200.660156 478.917969 200.445312 478.585938 200.265625 Z M 478.585938 200.265625 " fill-opacity="1" fill-rule="nonzero"/><path fill="#004838" d="M 461.347656 237.761719 C 461.46875 238.082031 461.589844 238.40625 461.753906 238.710938 C 461.777344 238.757812 461.8125 238.804688 461.839844 238.851562 C 461.859375 238.894531 461.875 238.941406 461.894531 238.984375 C 461.96875 239.121094 462.058594 239.246094 462.171875 239.351562 C 462.25 239.492188 462.34375 239.617188 462.460938 239.71875 C 462.722656 239.941406 462.996094 240.15625 463.28125 240.351562 C 463.351562 240.398438 463.421875 240.433594 463.496094 240.472656 C 463.585938 240.546875 463.722656 240.660156 463.820312 240.714844 C 463.828125 240.71875 463.835938 240.722656 463.84375 240.726562 C 464.140625 240.851562 464.4375 240.980469 464.738281 241.105469 C 464.9375 241.167969 464.890625 241.136719 465.296875 241.1875 C 465.546875 241.226562 465.714844 241.269531 465.941406 241.25 C 466.335938 241.21875 466.816406 241.191406 467.21875 241.054688 C 467.242188 241.046875 467.273438 241.035156 467.296875 241.027344 C 467.59375 240.914062 467.96875 240.761719 468.257812 240.625 C 468.277344 240.613281 468.296875 240.605469 468.320312 240.589844 C 468.480469 240.523438 468.617188 240.417969 468.738281 240.277344 C 468.886719 240.183594 469.023438 240.074219 469.152344 239.953125 C 469.25 239.859375 469.269531 239.71875 469.347656 239.613281 C 469.574219 239.359375 469.792969 239.09375 469.976562 238.824219 C 470.132812 238.597656 470.222656 238.335938 470.328125 238.089844 C 470.578125 237.496094 470.683594 237.335938 470.679688 236.554688 C 470.679688 236.167969 470.644531 235.804688 470.511719 235.457031 C 470.421875 235.214844 470.265625 234.753906 470.070312 234.449219 C 470.019531 234.335938 469.980469 234.210938 469.925781 234.101562 C 469.761719 233.78125 469.480469 233.460938 469.273438 233.207031 C 469.054688 232.933594 468.769531 232.71875 468.460938 232.5625 C 468.210938 232.433594 467.941406 232.320312 467.675781 232.222656 C 467.417969 232.132812 467.136719 232.101562 466.855469 232.09375 C 467.085938 232.128906 467.324219 232.160156 467.554688 232.191406 C 467.445312 232.160156 466.957031 232.082031 466.835938 232.089844 C 466.824219 232.089844 466.808594 232.09375 466.792969 232.09375 C 466.78125 232.09375 466.765625 232.097656 466.75 232.097656 C 466.550781 232.121094 466.257812 232.152344 466.0625 232.191406 C 466.007812 232.203125 465.960938 232.214844 465.914062 232.234375 C 465.734375 232.3125 465.558594 232.382812 465.378906 232.460938 C 465.28125 232.511719 465.230469 232.605469 465.148438 232.671875 C 465.042969 232.65625 464.953125 232.601562 464.847656 232.605469 C 464.390625 232.617188 464.003906 232.714844 463.621094 232.847656 C 463.523438 232.867188 463.425781 232.824219 463.335938 232.847656 C 462.863281 232.980469 462.453125 233.222656 462.105469 233.566406 C 461.910156 233.789062 461.726562 234.023438 461.5625 234.265625 C 461.527344 234.320312 461.496094 234.375 461.46875 234.4375 C 461.179688 235.046875 461.019531 235.5625 461.019531 236.253906 C 461.023438 237.078125 461.269531 237.785156 461.65625 238.503906 C 461.554688 238.257812 461.449219 238.007812 461.347656 237.761719 Z M 464.296875 234.308594 C 464.300781 234.308594 464.300781 234.304688 464.300781 234.304688 C 464.300781 234.324219 464.289062 234.339844 464.289062 234.359375 C 464.292969 234.339844 464.296875 234.324219 464.296875 234.308594 Z M 466.566406 233.464844 C 466.558594 233.449219 466.539062 233.441406 466.527344 233.425781 C 466.585938 233.441406 466.644531 233.457031 466.707031 233.476562 C 466.660156 233.472656 466.613281 233.464844 466.566406 233.464844 Z M 463.65625 234.421875 C 463.667969 234.417969 463.675781 234.414062 463.6875 234.410156 C 463.453125 234.570312 463.234375 234.746094 463.011719 234.917969 C 463.226562 234.753906 463.4375 234.585938 463.65625 234.421875 Z M 464.261719 234.394531 C 464.265625 234.386719 464.269531 234.371094 464.273438 234.363281 C 464.257812 234.492188 464.226562 234.613281 464.210938 234.746094 C 464.230469 234.628906 464.246094 234.511719 464.261719 234.394531 Z M 466.878906 235.773438 C 466.878906 235.769531 466.878906 235.765625 466.878906 235.761719 C 466.886719 235.832031 466.898438 235.90625 466.90625 235.972656 C 466.898438 235.910156 466.886719 235.839844 466.878906 235.773438 Z M 463.550781 232.871094 C 463.5625 232.871094 463.574219 232.871094 463.582031 232.871094 C 463.382812 232.941406 463.1875 233.007812 462.972656 233.113281 C 463.167969 233.03125 463.359375 232.949219 463.550781 232.871094 Z M 463.550781 232.871094 " fill-opacity="1" fill-rule="nonzero"/><path fill="#004838" d="M 473.085938 253.332031 C 473.125 253.410156 473.167969 253.484375 473.21875 253.558594 C 473.453125 253.894531 473.710938 254.246094 473.996094 254.546875 C 474.480469 255.03125 475.050781 255.363281 475.707031 255.546875 C 476.398438 255.730469 477.082031 255.730469 477.773438 255.546875 C 478.265625 255.378906 478.789062 255.191406 479.214844 254.882812 C 480.070312 254.269531 480.367188 253.96875 480.980469 253.101562 C 481.28125 252.675781 481.472656 252.113281 481.640625 251.65625 C 481.773438 251.304688 481.800781 250.933594 481.851562 250.5625 C 481.902344 250.1875 481.964844 249.824219 481.929688 249.445312 C 481.890625 248.996094 481.839844 248.546875 481.746094 248.105469 C 481.660156 247.695312 481.4375 247.292969 481.269531 246.925781 C 480.78125 245.855469 479.785156 245.125 478.679688 244.789062 C 477.695312 244.488281 476.59375 244.621094 475.707031 245.136719 C 475.570312 245.21875 475.503906 245.371094 475.378906 245.46875 C 474.921875 245.714844 474.496094 246.019531 474.144531 246.390625 C 473.976562 246.566406 473.832031 246.769531 473.683594 246.960938 C 473.535156 247.15625 473.371094 247.347656 473.238281 247.554688 C 472.976562 247.96875 472.789062 248.480469 472.625 248.914062 C 472.25 249.910156 472.34375 250.9375 472.53125 251.945312 C 472.632812 252.421875 472.882812 252.914062 473.085938 253.332031 Z M 479.867188 250.835938 C 479.886719 250.8125 479.90625 250.789062 479.925781 250.765625 C 479.925781 250.773438 479.921875 250.777344 479.921875 250.78125 C 479.792969 250.945312 479.667969 251.109375 479.539062 251.273438 C 479.648438 251.125 479.757812 250.980469 479.867188 250.835938 Z M 479.867188 250.835938 " fill-opacity="1" fill-rule="nonzero"/><path fill="#004838" d="M 447.957031 254.203125 C 448.292969 254.417969 448.648438 254.527344 449.035156 254.546875 C 449.292969 254.617188 449.550781 254.617188 449.808594 254.546875 C 450.082031 254.535156 450.328125 254.417969 450.578125 254.304688 C 450.582031 254.304688 450.589844 254.304688 450.59375 254.300781 C 450.597656 254.300781 450.601562 254.296875 450.605469 254.296875 C 450.691406 254.253906 450.796875 254.261719 450.886719 254.207031 C 450.996094 254.15625 451.105469 254.09375 451.207031 254.023438 C 451.070312 254.078125 450.933594 254.140625 450.792969 254.195312 C 451.09375 254.09375 451.382812 253.976562 451.617188 253.761719 C 451.734375 253.683594 451.847656 253.597656 451.953125 253.503906 C 452 253.457031 452.046875 253.410156 452.09375 253.359375 C 452.296875 253.121094 452.488281 252.863281 452.667969 252.613281 C 452.714844 252.550781 452.753906 252.488281 452.789062 252.421875 C 452.976562 252.082031 453.128906 251.714844 453.25 251.339844 C 453.28125 251.246094 453.300781 251.144531 453.324219 251.039062 C 453.382812 250.902344 453.4375 250.765625 453.46875 250.667969 C 453.5 250.546875 453.589844 249.871094 453.589844 249.746094 C 453.589844 249.722656 453.589844 249.695312 453.589844 249.671875 C 453.585938 249.617188 453.582031 249.566406 453.574219 249.511719 C 453.539062 249.171875 453.503906 248.824219 453.433594 248.484375 C 453.414062 248.386719 453.382812 248.285156 453.347656 248.195312 C 453.28125 248.03125 453.203125 247.878906 453.136719 247.71875 C 453.03125 247.40625 452.875 247.042969 452.804688 246.929688 C 452.710938 246.792969 452.609375 246.664062 452.503906 246.539062 C 452.414062 246.402344 452.308594 246.269531 452.199219 246.144531 C 452.175781 246.117188 452.152344 246.09375 452.125 246.070312 C 451.808594 245.769531 451.457031 245.492188 451.082031 245.269531 C 451.015625 245.234375 450.957031 245.203125 450.890625 245.175781 C 450.582031 245.035156 450.277344 244.84375 449.941406 244.777344 C 449.597656 244.710938 449.226562 244.671875 448.875 244.632812 C 448.726562 244.613281 448.582031 244.609375 448.433594 244.621094 C 447.410156 244.707031 447.144531 244.800781 446.230469 245.226562 C 445.578125 245.53125 445.078125 246.128906 444.710938 246.730469 C 444.28125 247.421875 444.097656 248.164062 444.046875 248.96875 C 444.046875 249.515625 444.183594 250.03125 444.460938 250.507812 C 444.65625 250.863281 444.914062 251.148438 445.246094 251.363281 C 445.511719 251.605469 445.828125 251.75 446.175781 251.855469 C 446.230469 252.019531 446.234375 252.199219 446.335938 252.351562 C 446.363281 252.417969 446.390625 252.484375 446.421875 252.546875 C 446.585938 252.871094 446.851562 253.175781 447.070312 253.445312 C 447.167969 253.5625 447.269531 253.671875 447.390625 253.765625 C 447.570312 253.902344 447.765625 254.050781 447.957031 254.203125 Z M 453.347656 250.929688 C 453.347656 250.925781 453.347656 250.925781 453.347656 250.929688 C 453.367188 250.875 453.390625 250.828125 453.410156 250.78125 C 453.386719 250.828125 453.367188 250.875 453.347656 250.929688 Z M 448.730469 252.085938 C 448.730469 252.085938 448.734375 252.085938 448.738281 252.085938 C 448.863281 252.101562 448.988281 252.121094 449.113281 252.140625 C 448.988281 252.121094 448.859375 252.101562 448.730469 252.085938 Z M 451.101562 249.585938 C 450.996094 249.441406 450.917969 249.347656 450.832031 249.238281 C 450.835938 249.242188 450.839844 249.242188 450.839844 249.246094 C 450.929688 249.359375 451.011719 249.472656 451.101562 249.585938 Z M 446.6875 248.78125 C 446.683594 248.785156 446.683594 248.789062 446.679688 248.792969 C 446.703125 248.761719 446.730469 248.730469 446.753906 248.695312 C 446.734375 248.71875 446.710938 248.753906 446.6875 248.78125 Z M 446.6875 248.78125 " fill-opacity="1" fill-rule="nonzero"/><path fill="#004838" d="M 463.628906 263.785156 C 463.804688 263.738281 463.984375 263.640625 464.136719 263.578125 C 464.378906 263.476562 464.488281 263.453125 464.65625 263.34375 C 464.917969 263.144531 465.179688 262.941406 465.441406 262.738281 C 465.449219 262.730469 465.460938 262.722656 465.46875 262.71875 C 465.492188 262.699219 465.507812 262.679688 465.53125 262.65625 C 465.644531 262.527344 465.75 262.390625 465.84375 262.25 C 465.953125 262.109375 466.0625 261.96875 466.167969 261.828125 C 466.179688 261.808594 466.199219 261.789062 466.207031 261.769531 C 466.292969 261.613281 466.398438 261.324219 466.433594 261.242188 C 466.464844 261.167969 466.605469 260.878906 466.65625 260.707031 C 466.660156 260.683594 466.664062 260.664062 466.667969 260.640625 C 466.714844 260.292969 466.757812 259.949219 466.808594 259.605469 C 466.8125 259.589844 466.8125 259.566406 466.8125 259.550781 C 466.808594 258.742188 466.613281 258.035156 466.214844 257.335938 C 466.007812 257.070312 465.804688 256.808594 465.605469 256.546875 C 465.25 256.164062 464.832031 255.894531 464.347656 255.738281 C 464.042969 255.5625 463.714844 255.476562 463.363281 255.476562 C 462.84375 255.359375 462.324219 255.382812 461.808594 255.542969 C 461.617188 255.613281 461.429688 255.683594 461.238281 255.753906 C 460.839844 255.90625 460.441406 256.035156 460.089844 256.273438 C 460.007812 256.328125 459.921875 256.386719 459.839844 256.441406 C 459.824219 256.453125 459.804688 256.464844 459.789062 256.476562 C 459.535156 256.675781 459.273438 256.875 459.015625 257.074219 C 458.597656 257.457031 458.136719 258.246094 458.015625 258.792969 C 458.003906 258.851562 457.988281 258.90625 457.976562 258.964844 C 457.964844 259.023438 457.949219 259.085938 457.9375 259.148438 C 457.933594 259.167969 457.929688 259.183594 457.925781 259.203125 C 457.910156 259.335938 457.890625 259.46875 457.875 259.597656 C 457.84375 259.660156 457.816406 259.730469 457.792969 259.792969 C 457.691406 260.117188 457.675781 260.441406 457.75 260.765625 C 457.765625 261.09375 457.863281 261.398438 458.039062 261.675781 C 458.167969 261.839844 458.292969 262.007812 458.417969 262.171875 C 458.613281 262.359375 458.859375 262.445312 459.09375 262.5625 C 459.207031 262.652344 459.28125 262.785156 459.410156 262.855469 C 459.421875 262.863281 459.429688 262.867188 459.441406 262.875 C 459.492188 262.910156 459.546875 262.941406 459.59375 262.972656 C 459.644531 263.003906 459.695312 263.039062 459.746094 263.070312 C 459.925781 263.144531 460.109375 263.222656 460.292969 263.300781 C 460.320312 263.320312 460.34375 263.34375 460.375 263.367188 C 460.386719 263.371094 460.394531 263.378906 460.40625 263.382812 C 460.710938 263.507812 461.011719 263.636719 461.316406 263.765625 C 461.347656 263.777344 461.375 263.785156 461.402344 263.792969 C 461.574219 263.832031 461.75 263.855469 461.925781 263.867188 C 462.109375 263.894531 462.292969 263.917969 462.472656 263.9375 C 462.496094 263.9375 462.515625 263.9375 462.539062 263.9375 C 462.882812 263.890625 463.222656 263.847656 463.5625 263.800781 C 463.589844 263.792969 463.605469 263.792969 463.628906 263.785156 Z M 464.980469 257.75 C 465.078125 257.988281 465.179688 258.226562 465.277344 258.464844 C 465.117188 257.949219 464.832031 257.5 464.480469 257.109375 C 464.480469 257.109375 464.484375 257.109375 464.484375 257.113281 C 464.648438 257.324219 464.8125 257.535156 464.980469 257.75 Z M 464.015625 256.738281 Z M 464.5 257.113281 C 464.496094 257.109375 464.492188 257.105469 464.488281 257.101562 C 464.5625 257.160156 464.636719 257.214844 464.710938 257.273438 C 464.644531 257.21875 464.570312 257.171875 464.5 257.113281 Z M 464.5 257.113281 " fill-opacity="1" fill-rule="nonzero"/><path fill="#004838" d="M 482.023438 266.359375 C 481.90625 266.003906 481.710938 265.699219 481.429688 265.4375 C 481.238281 265.28125 481.035156 265.128906 480.835938 264.980469 C 480.804688 264.957031 480.773438 264.9375 480.734375 264.917969 C 480.300781 264.664062 479.832031 264.539062 479.332031 264.535156 C 478.832031 264.535156 478.363281 264.664062 477.929688 264.917969 C 477.511719 265.164062 477.179688 265.5 476.929688 265.914062 C 476.679688 266.347656 476.554688 266.816406 476.550781 267.320312 C 476.535156 267.472656 476.5625 267.601562 476.585938 267.757812 C 476.554688 267.859375 476.527344 267.964844 476.484375 268.058594 C 476.382812 268.339844 476.273438 268.609375 476.21875 268.90625 C 476.160156 269.199219 476.109375 269.488281 476.050781 269.78125 C 475.9375 270.214844 475.9375 270.648438 476.050781 271.082031 C 476.167969 271.5 476.378906 271.855469 476.683594 272.167969 C 477.28125 272.761719 478.242188 273.054688 479.0625 272.796875 C 479.757812 272.574219 480.414062 272.214844 480.917969 271.675781 C 481.457031 271.097656 481.777344 270.511719 482.039062 269.769531 C 482.214844 269.261719 482.289062 268.648438 482.324219 268.132812 C 482.335938 267.972656 482.328125 267.816406 482.308594 267.65625 C 482.226562 267 482.242188 266.878906 482.023438 266.359375 Z M 482.023438 266.359375 " fill-opacity="1" fill-rule="nonzero"/><path fill="#004838" d="M 445.558594 268.742188 C 445.46875 268.53125 445.386719 268.308594 445.308594 268.09375 C 445.28125 267.902344 445.234375 267.742188 445.152344 267.542969 C 445.109375 267.429688 445.058594 267.320312 445.015625 267.207031 C 444.914062 266.953125 444.8125 266.703125 444.707031 266.449219 C 444.507812 265.957031 444.308594 265.464844 444.109375 264.972656 C 443.929688 264.324219 443.601562 263.761719 443.121094 263.28125 C 442.773438 262.910156 442.363281 262.644531 441.890625 262.488281 C 441.433594 262.246094 440.941406 262.136719 440.417969 262.160156 C 439.726562 262.160156 439.082031 262.335938 438.484375 262.679688 C 438.117188 262.921875 437.761719 263.164062 437.414062 263.429688 C 437.101562 263.671875 436.765625 263.894531 436.472656 264.15625 C 436.160156 264.4375 435.921875 264.800781 435.695312 265.15625 C 435.316406 265.746094 435.125 266.460938 435.125 267.160156 C 435.132812 267.515625 435.179688 267.867188 435.269531 268.207031 C 435.382812 268.695312 435.605469 269.117188 435.9375 269.480469 C 436.203125 269.882812 436.550781 270.207031 436.984375 270.441406 C 437.261719 270.585938 437.546875 270.703125 437.839844 270.808594 C 437.859375 271.296875 437.964844 271.765625 438.214844 272.195312 C 438.480469 272.644531 438.835938 273 439.28125 273.265625 C 439.746094 273.535156 440.25 273.667969 440.785156 273.667969 C 441.453125 273.753906 442.117188 273.851562 442.789062 273.871094 C 443.382812 273.871094 443.9375 273.71875 444.445312 273.421875 C 444.832031 273.214844 445.136719 272.933594 445.367188 272.574219 C 445.65625 272.257812 445.851562 271.886719 445.957031 271.457031 C 446.113281 270.875 446.113281 270.292969 445.957031 269.710938 C 445.824219 269.382812 445.6875 269.0625 445.558594 268.742188 Z M 445.558594 268.742188 " fill-opacity="1" fill-rule="nonzero"/><path fill="#004838" d="M 459.644531 270.265625 C 459.328125 270.175781 459.320312 270.128906 458.722656 270.128906 C 458.238281 270.128906 457.796875 270.292969 457.367188 270.496094 C 457.488281 270.441406 457.613281 270.390625 457.734375 270.339844 C 457.632812 270.378906 457.53125 270.417969 457.433594 270.453125 C 457.402344 270.460938 457.382812 270.488281 457.351562 270.503906 C 457.277344 270.539062 457.183594 270.523438 457.109375 270.566406 C 457.078125 270.589844 457.046875 270.609375 457.019531 270.632812 C 457.011719 270.640625 457.003906 270.648438 456.996094 270.65625 C 456.898438 270.726562 456.804688 270.804688 456.707031 270.878906 C 456.519531 270.996094 456.289062 271.050781 456.128906 271.214844 C 456.121094 271.222656 456.121094 271.234375 456.113281 271.238281 C 455.941406 271.308594 455.769531 271.367188 455.605469 271.441406 C 455.101562 271.671875 454.753906 272.132812 454.457031 272.585938 C 454.238281 272.929688 454.097656 273.308594 453.941406 273.683594 C 454.023438 273.484375 454.109375 273.285156 454.191406 273.085938 C 454.035156 273.425781 453.878906 273.761719 453.738281 274.109375 C 453.828125 273.898438 453.921875 273.6875 454.007812 273.476562 C 453.917969 273.664062 453.777344 273.949219 453.71875 274.15625 C 453.660156 274.371094 453.640625 274.691406 453.621094 274.914062 C 453.617188 274.976562 453.609375 275.035156 453.609375 275.101562 C 453.605469 275.347656 453.648438 275.589844 453.679688 275.835938 C 453.765625 276.46875 453.933594 276.957031 454.230469 277.546875 C 454.132812 277.316406 454.035156 277.09375 453.941406 276.863281 C 454.042969 277.140625 454.128906 277.433594 454.28125 277.683594 C 454.550781 278.121094 454.894531 278.503906 455.34375 278.769531 C 455.613281 278.929688 455.988281 279.082031 456.320312 279.160156 C 457.046875 279.328125 457.792969 279.339844 458.511719 279.117188 C 459.402344 278.847656 460.3125 278.328125 460.90625 277.597656 C 461.136719 277.3125 461.390625 277.011719 461.582031 276.691406 C 461.707031 276.484375 461.792969 276.25 461.886719 276.03125 C 462.148438 275.417969 462.328125 274.875 462.304688 274.171875 C 462.273438 273.273438 462.097656 272.707031 461.722656 271.914062 C 461.355469 271.097656 460.496094 270.507812 459.644531 270.265625 Z M 457 270.652344 C 457.113281 270.601562 457.226562 270.554688 457.339844 270.507812 C 457.105469 270.582031 456.917969 270.742188 456.710938 270.871094 C 456.808594 270.804688 456.902344 270.726562 457 270.652344 Z M 455.886719 275.003906 C 455.890625 275.007812 455.890625 275.007812 455.886719 275.003906 C 455.925781 275.085938 455.941406 275.136719 455.976562 275.226562 C 455.949219 275.152344 455.917969 275.078125 455.886719 275.003906 Z M 458.917969 274.410156 C 458.921875 274.421875 458.925781 274.433594 458.933594 274.449219 C 458.953125 274.605469 458.976562 274.761719 458.996094 274.914062 C 458.964844 274.691406 458.941406 274.558594 458.917969 274.410156 Z M 458.917969 274.410156 " fill-opacity="1" fill-rule="nonzero"/><path fill="#004838" d="M 440.214844 288.054688 C 440.21875 288.078125 440.222656 288.105469 440.226562 288.128906 C 440.226562 288.128906 440.230469 288.132812 440.230469 288.132812 C 440.222656 288.109375 440.21875 288.082031 440.214844 288.054688 Z M 440.214844 288.054688 " fill-opacity="1" fill-rule="nonzero"/><path fill="#004838" d="M 437.945312 296.535156 C 438.757812 296.015625 439.558594 295.191406 439.738281 294.207031 C 439.847656 293.75 439.953125 293.292969 440.058594 292.835938 C 440.238281 292.066406 440.375 291.296875 440.4375 290.5 C 440.4375 290.257812 440.382812 290.027344 440.34375 289.792969 C 440.355469 289.660156 440.371094 289.53125 440.386719 289.398438 C 440.417969 289.128906 440.382812 288.964844 440.34375 288.667969 C 440.339844 288.585938 440.28125 288.515625 440.269531 288.433594 C 440.269531 288.445312 440.273438 288.457031 440.273438 288.46875 C 440.273438 288.441406 440.257812 288.421875 440.257812 288.394531 C 440.230469 288.226562 440.160156 288.074219 440.105469 287.917969 C 440.128906 287.964844 440.152344 288.003906 440.175781 288.046875 C 440.136719 287.78125 440.128906 287.515625 440.003906 287.273438 C 439.875 286.878906 439.65625 286.535156 439.347656 286.246094 C 439.128906 286.082031 438.917969 285.914062 438.699219 285.75 C 438.335938 285.519531 437.9375 285.390625 437.515625 285.375 C 437.230469 285.296875 436.949219 285.296875 436.667969 285.375 C 436.242188 285.394531 435.851562 285.519531 435.480469 285.75 C 435.265625 285.914062 435.050781 286.082031 434.835938 286.246094 C 434.75 286.332031 434.730469 286.457031 434.660156 286.550781 C 434.386719 286.804688 434.136719 287.09375 433.949219 287.386719 C 433.84375 287.546875 433.792969 287.734375 433.722656 287.914062 C 433.652344 288 433.546875 288.046875 433.492188 288.144531 C 433.148438 288.519531 432.914062 288.960938 432.792969 289.46875 C 432.488281 290.316406 432.386719 291.246094 432.214844 292.132812 C 432.046875 292.652344 432.027344 293.171875 432.144531 293.6875 C 432.167969 294.210938 432.320312 294.691406 432.605469 295.140625 C 432.851562 295.59375 433.1875 295.957031 433.613281 296.234375 C 433.988281 296.578125 434.429688 296.8125 434.941406 296.933594 C 435.941406 297.15625 437.0625 297.105469 437.945312 296.535156 Z M 434.414062 286.96875 C 434.410156 286.964844 434.410156 286.960938 434.40625 286.960938 C 434.417969 286.949219 434.429688 286.9375 434.441406 286.925781 C 434.433594 286.9375 434.421875 286.953125 434.414062 286.96875 Z M 434.414062 286.96875 " fill-opacity="1" fill-rule="nonzero"/><path fill="#004838" d="M 440.269531 288.433594 C 440.257812 288.332031 440.238281 288.230469 440.226562 288.132812 C 440.210938 288.105469 440.195312 288.074219 440.179688 288.046875 C 440.199219 288.167969 440.261719 288.277344 440.261719 288.402344 C 440.257812 288.410156 440.265625 288.421875 440.269531 288.433594 Z M 440.269531 288.433594 " fill-opacity="1" fill-rule="nonzero"/><path fill="#004838" d="M 451.433594 299.109375 C 451.839844 299.125 452.285156 299.035156 452.652344 298.960938 C 452.875 298.917969 453.105469 298.792969 453.300781 298.707031 C 453.503906 298.625 453.753906 298.539062 453.949219 298.417969 C 454.328125 298.167969 454.746094 297.882812 455.050781 297.527344 C 455.308594 297.230469 455.558594 296.90625 455.78125 296.578125 C 455.824219 296.515625 455.863281 296.449219 455.902344 296.375 C 456.105469 295.960938 456.34375 295.507812 456.429688 295.042969 C 456.5 294.691406 456.550781 294.273438 456.582031 293.917969 C 456.585938 293.878906 456.589844 293.835938 456.585938 293.796875 C 456.585938 293.757812 456.582031 293.71875 456.578125 293.679688 C 456.550781 293.410156 456.488281 292.875 456.433594 292.605469 C 456.429688 292.589844 456.425781 292.574219 456.421875 292.554688 C 456.332031 292.15625 456.136719 291.785156 455.953125 291.417969 C 455.847656 291.210938 455.230469 290.5625 455.152344 290.457031 C 454.941406 290.285156 454.632812 290.042969 454.507812 289.964844 C 454.46875 289.945312 454.433594 289.921875 454.398438 289.902344 C 454.089844 289.773438 453.777344 289.644531 453.46875 289.511719 C 453.121094 289.464844 452.777344 289.417969 452.433594 289.371094 C 452.089844 289.414062 451.742188 289.464844 451.398438 289.511719 C 451.304688 289.53125 451.246094 289.605469 451.160156 289.636719 C 451.074219 289.628906 450.988281 289.597656 450.902344 289.597656 C 450.390625 289.578125 449.914062 289.6875 449.472656 289.921875 C 449.011719 290.070312 448.617188 290.324219 448.28125 290.6875 C 447.820312 291.148438 447.503906 291.691406 447.328125 292.320312 C 447.304688 292.394531 447.277344 292.46875 447.257812 292.546875 C 447.207031 292.710938 447.128906 293.417969 447.121094 293.585938 C 447.121094 293.625 447.117188 293.664062 447.117188 293.707031 C 447.113281 293.875 447.109375 294.039062 447.105469 294.199219 C 447.101562 294.351562 447.097656 294.503906 447.09375 294.660156 C 447.089844 294.738281 447.089844 294.824219 447.085938 294.902344 C 447.085938 294.9375 447.082031 294.964844 447.082031 294.996094 C 447.066406 295.351562 447.117188 295.707031 447.214844 296.054688 C 447.347656 296.363281 447.476562 296.671875 447.605469 296.980469 C 447.703125 297.144531 448.105469 297.648438 448.234375 297.78125 C 448.238281 297.785156 448.242188 297.789062 448.246094 297.789062 C 448.507812 298.003906 448.773438 298.207031 449.046875 298.402344 C 449.074219 298.425781 449.101562 298.445312 449.128906 298.464844 C 449.15625 298.480469 449.183594 298.496094 449.214844 298.507812 C 449.429688 298.621094 449.933594 298.828125 450.167969 298.914062 C 450.1875 298.921875 450.207031 298.929688 450.230469 298.9375 C 450.261719 298.945312 450.292969 298.953125 450.320312 298.957031 C 450.554688 299.007812 451.136719 299.078125 451.382812 299.101562 C 451.402344 299.105469 451.417969 299.109375 451.433594 299.109375 Z M 448.824219 294.648438 C 448.824219 294.640625 448.824219 294.636719 448.820312 294.628906 C 448.941406 294.917969 449.0625 295.210938 449.183594 295.5 C 449.066406 295.214844 448.945312 294.933594 448.824219 294.648438 Z M 448.824219 294.648438 " fill-opacity="1" fill-rule="nonzero"/><path fill="#004838" d="M 455.15625 290.460938 C 455.210938 290.507812 455.296875 290.574219 455.328125 290.601562 C 455.160156 290.449219 455.125 290.425781 455.15625 290.460938 Z M 455.15625 290.460938 " fill-opacity="1" fill-rule="nonzero"/><path fill="#004838" d="M 470.855469 286.894531 L 470.859375 286.878906 Z M 470.855469 286.894531 " fill-opacity="1" fill-rule="nonzero"/><path fill="#004838" d="M 479.097656 288.324219 C 479.085938 288.296875 479.082031 288.265625 479.074219 288.234375 C 479.066406 288.214844 479.058594 288.191406 479.050781 288.171875 C 478.96875 287.933594 478.757812 287.453125 478.652344 287.222656 C 478.648438 287.210938 478.644531 287.199219 478.636719 287.1875 C 478.609375 287.140625 478.585938 287.097656 478.554688 287.058594 C 478.347656 286.765625 478.128906 286.441406 477.863281 286.179688 C 477.847656 286.164062 477.832031 286.152344 477.816406 286.136719 C 477.808594 286.128906 477.796875 286.117188 477.789062 286.109375 C 477.550781 285.914062 477.226562 285.660156 476.980469 285.484375 C 476.636719 285.246094 476.152344 285.089844 475.808594 284.964844 C 475.789062 284.957031 475.765625 284.949219 475.742188 284.941406 C 475.734375 284.9375 475.722656 284.933594 475.714844 284.933594 C 475.628906 284.902344 474.761719 284.792969 474.664062 284.789062 C 474.613281 284.789062 474.5625 284.789062 474.507812 284.792969 C 474.078125 284.832031 473.609375 284.859375 473.1875 284.992188 C 472.886719 285.117188 472.589844 285.246094 472.289062 285.371094 C 472.035156 285.566406 471.78125 285.761719 471.527344 285.957031 C 471.480469 286.003906 470.960938 286.675781 470.929688 286.734375 C 470.921875 286.75 470.914062 286.765625 470.90625 286.78125 C 470.886719 286.8125 470.875 286.847656 470.859375 286.878906 C 471.039062 286.648438 471.222656 286.410156 471.402344 286.179688 C 471.214844 286.40625 471.027344 286.644531 470.855469 286.886719 C 470.726562 287.152344 470.613281 287.4375 470.503906 287.714844 C 470.621094 287.4375 470.734375 287.164062 470.851562 286.890625 C 470.832031 286.917969 470.808594 286.945312 470.789062 286.972656 C 470.761719 287.011719 470.734375 287.058594 470.714844 287.097656 C 470.574219 287.386719 470.445312 287.683594 470.34375 287.988281 C 470.335938 288.007812 470.332031 288.03125 470.324219 288.050781 C 470.285156 288.191406 470.269531 288.417969 470.261719 288.492188 C 470.191406 289.023438 470.144531 289.121094 470.320312 289.757812 C 470.328125 289.789062 470.335938 289.8125 470.34375 289.839844 C 470.363281 289.890625 470.625 290.511719 470.648438 290.5625 C 470.652344 290.570312 470.652344 290.574219 470.65625 290.582031 C 470.660156 290.59375 470.667969 290.601562 470.671875 290.613281 C 470.730469 290.71875 470.949219 290.972656 470.90625 290.917969 C 471.148438 291.234375 471.132812 291.214844 471.320312 291.355469 C 471.410156 291.476562 471.507812 291.601562 471.59375 291.710938 C 471.722656 291.875 471.84375 292.074219 472.003906 292.214844 C 472.21875 292.40625 472.582031 292.707031 472.894531 292.886719 C 472.980469 292.9375 473.742188 293.261719 473.835938 293.28125 C 473.847656 293.285156 473.859375 293.285156 473.871094 293.289062 C 474.222656 293.355469 474.609375 293.421875 474.976562 293.433594 C 475.675781 293.460938 476.644531 293.214844 477.234375 292.828125 C 477.292969 292.789062 477.839844 292.410156 478.078125 292.164062 C 478.210938 292.03125 478.679688 291.261719 478.851562 291.007812 C 478.867188 290.96875 478.882812 290.929688 478.898438 290.894531 C 479.074219 290.589844 479.164062 290.261719 479.164062 289.910156 C 479.269531 289.148438 479.273438 289.355469 479.09375 288.347656 C 479.101562 288.34375 479.101562 288.335938 479.097656 288.324219 Z M 476.816406 289.855469 C 476.824219 289.875 476.832031 289.894531 476.839844 289.914062 C 476.757812 290.019531 476.679688 290.121094 476.601562 290.226562 C 476.703125 290.121094 476.730469 289.972656 476.816406 289.855469 Z M 474.757812 285.761719 C 474.753906 285.761719 474.753906 285.761719 474.757812 285.761719 C 474.796875 285.757812 474.84375 285.75 474.890625 285.746094 C 474.84375 285.75 474.796875 285.757812 474.757812 285.761719 Z M 476.84375 289.925781 C 476.84375 289.929688 476.84375 289.929688 476.847656 289.933594 C 476.714844 290.105469 476.578125 290.277344 476.445312 290.449219 C 476.574219 290.28125 476.71875 290.109375 476.84375 289.925781 Z M 476.84375 289.925781 " fill-opacity="1" fill-rule="nonzero"/><path fill="#004838" d="M 478.859375 291.019531 C 478.8125 291.136719 478.757812 291.25 478.710938 291.371094 C 478.964844 290.894531 478.96875 290.863281 478.859375 291.019531 Z M 478.859375 291.019531 " fill-opacity="1" fill-rule="nonzero"/><path fill="#004838" d="M 470.859375 286.886719 L 470.855469 286.894531 L 470.855469 286.898438 L 470.859375 286.890625 Z M 470.859375 286.886719 " fill-opacity="1" fill-rule="nonzero"/><path fill="#004838" d="M 442.195312 313.105469 C 442.128906 313.207031 442.03125 313.277344 441.957031 313.371094 C 442.003906 313.335938 442.050781 313.300781 442.101562 313.257812 C 442.160156 313.179688 442.226562 313.097656 442.285156 313.023438 C 442.257812 313.054688 442.226562 313.074219 442.195312 313.105469 Z M 442.195312 313.105469 " fill-opacity="1" fill-rule="nonzero"/><path fill="#004838" d="M 443.816406 310.375 C 443.855469 310.398438 443.855469 310.320312 443.761719 309.992188 C 443.761719 309.988281 443.761719 309.980469 443.757812 309.976562 C 443.753906 309.949219 443.746094 309.921875 443.730469 309.898438 C 443.726562 309.886719 443.722656 309.871094 443.714844 309.859375 C 443.714844 309.855469 443.710938 309.851562 443.710938 309.847656 C 443.671875 309.71875 443.65625 309.648438 443.589844 309.441406 C 443.464844 309.144531 443.335938 308.84375 443.210938 308.546875 C 442.972656 308.109375 442.652344 307.761719 442.25 307.496094 C 442.167969 307.4375 441.964844 307.25 441.8125 307.167969 C 441.800781 307.160156 441.789062 307.15625 441.777344 307.148438 C 441.625 307.085938 441.46875 307.015625 441.316406 306.953125 C 441.164062 306.882812 441.007812 306.820312 440.847656 306.753906 C 440.824219 306.746094 440.796875 306.738281 440.773438 306.730469 C 440.421875 306.652344 440.058594 306.613281 439.699219 306.585938 C 439.3125 306.5625 438.871094 306.664062 438.535156 306.730469 C 438.1875 306.800781 437.613281 307.101562 437.484375 307.160156 C 437.4375 307.183594 437.394531 307.210938 437.351562 307.242188 C 437.09375 307.445312 436.828125 307.644531 436.566406 307.851562 C 436.558594 307.855469 436.550781 307.863281 436.542969 307.867188 C 436.535156 307.875 436.523438 307.882812 436.515625 307.890625 C 436.503906 307.898438 436.496094 307.910156 436.488281 307.917969 C 436.484375 307.921875 436.480469 307.925781 436.472656 307.933594 C 436.265625 308.199219 436.0625 308.464844 435.859375 308.726562 C 435.640625 309.070312 435.574219 309.449219 435.503906 309.832031 C 435.5 309.8125 435.496094 309.796875 435.488281 309.773438 C 435.480469 309.832031 435.476562 309.890625 435.464844 309.949219 C 435.453125 310.03125 435.394531 310.101562 435.386719 310.183594 C 435.367188 310.273438 435.414062 310.355469 435.402344 310.445312 C 435.378906 310.59375 435.34375 310.738281 435.34375 310.886719 C 435.34375 310.921875 435.34375 310.957031 435.347656 310.992188 C 435.394531 311.328125 435.4375 311.664062 435.484375 311.996094 C 435.550781 312.265625 435.726562 312.46875 435.859375 312.703125 C 435.859375 312.707031 435.863281 312.710938 435.863281 312.714844 C 435.964844 312.898438 436.015625 313.117188 436.160156 313.277344 C 436.328125 313.5625 436.550781 313.789062 436.835938 313.957031 C 437.199219 314.289062 437.628906 314.515625 438.117188 314.628906 C 438.21875 314.640625 438.324219 314.660156 438.421875 314.671875 C 438.546875 314.734375 438.640625 314.855469 438.777344 314.898438 C 439.191406 315.117188 439.636719 315.214844 440.117188 315.199219 C 440.746094 315.199219 441.328125 315.039062 441.871094 314.726562 C 442.167969 314.550781 442.453125 314.335938 442.695312 314.09375 C 442.703125 314.085938 442.710938 314.078125 442.71875 314.070312 C 442.722656 314.0625 442.730469 314.058594 442.734375 314.050781 C 442.914062 313.8125 443.097656 313.578125 443.277344 313.34375 C 443.296875 313.320312 443.3125 313.300781 443.328125 313.273438 C 443.753906 312.535156 443.808594 312.066406 443.894531 311.234375 C 443.898438 311.183594 443.902344 311.125 443.898438 311.074219 C 443.898438 311.058594 443.894531 311.046875 443.894531 311.03125 C 443.882812 310.820312 443.847656 310.59375 443.816406 310.375 Z M 437.742188 309.21875 C 437.738281 309.222656 437.730469 309.222656 437.726562 309.230469 C 437.730469 309.222656 437.738281 309.214844 437.746094 309.207031 C 437.757812 309.195312 437.773438 309.183594 437.785156 309.171875 C 437.769531 309.195312 437.75 309.203125 437.742188 309.21875 Z M 442.171875 313.203125 C 442.148438 313.222656 442.125 313.238281 442.097656 313.257812 C 442.03125 313.34375 441.96875 313.421875 441.902344 313.507812 C 441.863281 313.523438 441.820312 313.542969 441.78125 313.558594 C 441.839844 313.5 441.894531 313.4375 441.957031 313.367188 C 441.925781 313.390625 441.890625 313.414062 441.859375 313.441406 C 441.976562 313.332031 442.097656 313.226562 442.195312 313.101562 C 442.234375 313.050781 442.289062 313.023438 442.320312 312.96875 C 442.308594 312.988281 442.296875 313.003906 442.285156 313.019531 C 442.324219 312.96875 442.382812 312.9375 442.417969 312.886719 C 442.332031 312.992188 442.253906 313.097656 442.171875 313.203125 Z M 442.171875 313.203125 " fill-opacity="1" fill-rule="nonzero"/><path fill="#004838" d="M 457.667969 310.933594 C 457.441406 310.582031 457.136719 310.304688 456.757812 310.101562 C 456.503906 309.992188 456.242188 309.882812 455.984375 309.773438 C 455.695312 309.734375 455.410156 309.699219 455.125 309.660156 C 454.679688 309.644531 454.261719 309.734375 453.871094 309.9375 C 453.472656 310.070312 453.121094 310.292969 452.828125 310.609375 C 452.773438 310.65625 452.71875 310.707031 452.660156 310.75 C 452.390625 310.894531 452.101562 311.015625 451.878906 311.25 C 451.628906 311.476562 451.429688 311.734375 451.285156 312.027344 C 451.019531 312.449219 450.875 312.90625 450.847656 313.394531 C 450.742188 313.882812 450.761719 314.371094 450.914062 314.859375 C 451.039062 315.152344 451.160156 315.445312 451.28125 315.738281 C 451.515625 316.164062 451.828125 316.511719 452.226562 316.765625 C 452.457031 316.996094 452.726562 317.152344 453.039062 317.242188 C 453.476562 317.46875 453.949219 317.578125 454.453125 317.558594 C 454.777344 317.511719 455.101562 317.46875 455.433594 317.425781 C 456.054688 317.25 456.59375 316.9375 457.050781 316.480469 C 457.269531 316.234375 457.46875 315.976562 457.648438 315.703125 C 457.925781 315.222656 458.0625 314.707031 458.109375 314.164062 C 458.15625 314.027344 458.195312 313.894531 458.242188 313.761719 C 458.28125 313.472656 458.320312 313.1875 458.359375 312.898438 C 458.375 312.453125 458.28125 312.035156 458.078125 311.648438 C 458.007812 311.375 457.871094 311.136719 457.667969 310.933594 Z M 452.933594 310.570312 C 452.945312 310.566406 452.953125 310.5625 452.964844 310.558594 C 452.933594 310.570312 452.910156 310.601562 452.878906 310.613281 C 452.898438 310.597656 452.914062 310.582031 452.933594 310.570312 Z M 452.933594 310.570312 " fill-opacity="1" fill-rule="nonzero"/><path fill="#004838" d="M 469.921875 300.171875 C 469.75 300.089844 469.578125 300.007812 469.40625 299.921875 C 469.292969 299.839844 469.183594 299.75 469.070312 299.667969 C 468.789062 299.546875 468.507812 299.425781 468.222656 299.304688 C 468.183594 299.292969 468.140625 299.28125 468.101562 299.269531 C 467.996094 299.238281 467.894531 299.210938 467.792969 299.179688 C 466.777344 298.84375 465.636719 298.941406 464.710938 299.484375 C 463.5625 300.152344 462.839844 301.410156 462.839844 302.738281 C 462.839844 304.066406 463.5625 305.324219 464.710938 305.992188 C 465.636719 306.535156 466.777344 306.632812 467.792969 306.296875 C 467.898438 306.265625 468 306.234375 468.101562 306.207031 C 468.132812 306.195312 468.171875 306.1875 468.203125 306.175781 C 468.894531 305.964844 468.976562 305.886719 469.402344 305.554688 C 469.574219 305.46875 469.746094 305.386719 469.917969 305.304688 C 470.367188 305.039062 470.71875 304.683594 470.984375 304.238281 C 471.253906 303.773438 471.390625 303.273438 471.390625 302.734375 C 471.386719 302.195312 471.253906 301.695312 470.984375 301.230469 C 470.726562 300.792969 470.371094 300.4375 469.921875 300.171875 Z M 469.894531 305.132812 C 469.800781 305.203125 469.710938 305.273438 469.621094 305.34375 C 469.894531 305.132812 470.144531 304.890625 470.324219 304.582031 C 470.179688 304.761719 470.035156 304.949219 469.894531 305.132812 Z M 469.894531 305.132812 " fill-opacity="1" fill-rule="nonzero"/><path fill="#004838" d="M 357.957031 448.222656 C 358.019531 448.371094 358.097656 448.609375 358.203125 448.773438 C 358.378906 449.058594 358.621094 449.359375 358.84375 449.609375 C 358.875 449.644531 358.90625 449.679688 358.945312 449.714844 C 359.070312 449.824219 359.3125 450.003906 359.363281 450.042969 C 359.324219 450.011719 359.65625 450.289062 359.792969 450.371094 C 359.953125 450.46875 360.09375 450.503906 360.296875 450.589844 C 360.457031 450.671875 360.617188 450.738281 360.789062 450.796875 C 361.128906 450.839844 361.464844 450.886719 361.804688 450.933594 C 362.144531 450.886719 362.480469 450.839844 362.820312 450.796875 C 363.125 450.667969 363.429688 450.539062 363.734375 450.410156 C 363.773438 450.390625 363.808594 450.375 363.839844 450.355469 C 363.894531 450.324219 363.949219 450.289062 364 450.253906 C 364.359375 450.003906 364.730469 449.742188 365.046875 449.433594 C 365.457031 449.035156 365.824219 448.5625 366.089844 448.058594 C 366.363281 447.542969 366.621094 446.980469 366.738281 446.40625 C 366.855469 445.832031 366.96875 445.214844 366.925781 444.625 C 366.898438 444.222656 366.832031 443.828125 366.769531 443.433594 C 366.757812 443.355469 366.746094 443.277344 366.730469 443.203125 C 366.664062 442.902344 366.527344 442.621094 366.40625 442.339844 C 366.121094 441.667969 365.972656 441.359375 365.429688 440.761719 C 365.117188 440.414062 364.707031 440.15625 364.347656 439.875 C 364.042969 439.746094 363.738281 439.617188 363.433594 439.488281 C 362.925781 439.328125 362.417969 439.304688 361.910156 439.421875 C 361.566406 439.421875 361.246094 439.507812 360.945312 439.683594 C 360.472656 439.835938 360.058594 440.097656 359.714844 440.472656 C 359.5 440.65625 359.273438 440.828125 359.101562 441.050781 C 358.78125 441.457031 358.394531 441.84375 358.175781 442.3125 C 357.890625 442.917969 357.605469 443.480469 357.644531 444.171875 C 357.648438 444.253906 357.65625 444.328125 357.660156 444.40625 C 357.664062 444.476562 357.667969 444.546875 357.675781 444.617188 C 357.679688 444.660156 357.679688 444.703125 357.683594 444.746094 C 357.703125 444.871094 357.71875 444.996094 357.734375 445.113281 C 357.683594 445.320312 357.65625 445.535156 357.628906 445.734375 C 357.597656 445.980469 357.539062 446.230469 357.5625 446.476562 C 357.589844 446.875 357.621094 447.292969 357.734375 447.679688 C 357.789062 447.863281 357.894531 448.070312 357.957031 448.222656 Z M 364.507812 444.164062 C 364.496094 444.128906 364.496094 444.089844 364.484375 444.050781 C 364.519531 444.136719 364.554688 444.214844 364.589844 444.300781 C 364.601562 444.40625 364.617188 444.511719 364.632812 444.617188 C 364.609375 444.460938 364.578125 444.308594 364.507812 444.164062 Z M 364.695312 445.855469 C 364.695312 445.859375 364.695312 445.867188 364.695312 445.871094 C 364.660156 446.109375 364.628906 446.347656 364.597656 446.585938 C 364.632812 446.339844 364.65625 446.097656 364.695312 445.855469 Z M 364.695312 445.855469 " fill-opacity="1" fill-rule="nonzero"/><path fill="#004838" d="M 344.546875 461.183594 C 344.882812 461.230469 345.21875 461.277344 345.554688 461.320312 C 346.078125 461.339844 346.566406 461.234375 347.015625 460.996094 C 347.335938 460.90625 347.617188 460.742188 347.855469 460.507812 C 348.265625 460.238281 348.589844 459.886719 348.832031 459.445312 C 348.960938 459.144531 349.089844 458.839844 349.214844 458.539062 C 349.304688 458.203125 349.347656 457.863281 349.347656 457.523438 C 349.332031 457.390625 349.3125 457.265625 349.320312 457.136719 C 349.34375 456.6875 349.21875 456.203125 349.101562 455.761719 C 349.03125 455.511719 348.964844 455.257812 348.902344 455 C 348.832031 454.75 348.765625 454.492188 348.699219 454.238281 C 348.546875 453.671875 348.285156 453.136719 348.050781 452.601562 C 347.804688 452.148438 347.472656 451.785156 347.050781 451.511719 C 346.679688 451.171875 346.238281 450.941406 345.734375 450.820312 C 345.386719 450.773438 345.046875 450.726562 344.703125 450.679688 C 344.003906 450.679688 343.351562 450.855469 342.746094 451.207031 C 342.664062 451.246094 342.589844 451.28125 342.507812 451.316406 C 342.316406 451.40625 342.292969 451.460938 342.042969 451.652344 C 341.753906 451.824219 341.527344 452.054688 341.359375 452.339844 C 341.21875 452.460938 341.109375 452.605469 341.042969 452.769531 C 340.765625 453.203125 340.617188 453.671875 340.59375 454.175781 C 340.480469 454.675781 340.503906 455.183594 340.660156 455.683594 C 340.789062 455.984375 340.914062 456.285156 341.042969 456.585938 C 341.101562 456.6875 341.21875 456.734375 341.285156 456.824219 C 341.316406 456.917969 341.34375 457.011719 341.375 457.101562 C 341.449219 457.34375 341.523438 457.582031 341.597656 457.828125 C 341.730469 458.257812 341.863281 458.710938 342.101562 459.085938 C 342.171875 459.199219 342.230469 459.3125 342.285156 459.4375 C 342.519531 459.878906 342.851562 460.234375 343.261719 460.5 C 343.625 460.839844 344.054688 461.066406 344.546875 461.183594 Z M 344.546875 461.183594 " fill-opacity="1" fill-rule="nonzero"/><path fill="#004838" d="M 329.773438 471.140625 C 329.769531 471.117188 329.777344 471.097656 329.773438 471.074219 C 329.773438 471.019531 329.738281 470.96875 329.742188 470.90625 C 329.753906 470.984375 329.761719 471.0625 329.773438 471.140625 Z M 329.773438 471.140625 " fill-opacity="1" fill-rule="nonzero"/><path fill="#004838" d="M 330.066406 469.652344 C 329.9375 469.894531 329.878906 470.050781 329.839844 470.210938 C 329.921875 470.003906 330.011719 469.800781 330.097656 469.597656 C 330.089844 469.617188 330.074219 469.636719 330.066406 469.652344 Z M 330.066406 469.652344 " fill-opacity="1" fill-rule="nonzero"/><path fill="#004838" d="M 334.058594 476.308594 C 334.339844 476.308594 334.601562 476.234375 334.847656 476.09375 C 335.113281 476.019531 335.339844 475.886719 335.535156 475.695312 C 335.773438 475.554688 335.957031 475.371094 336.097656 475.132812 C 336.125 475.101562 336.128906 475.058594 336.15625 475.023438 C 336.175781 474.996094 336.207031 474.988281 336.222656 474.960938 C 336.425781 474.753906 336.570312 474.507812 336.652344 474.226562 C 336.71875 474.089844 336.777344 473.949219 336.828125 473.804688 C 336.9375 473.464844 336.941406 473.082031 336.972656 472.714844 C 336.988281 472.527344 336.988281 472.351562 336.96875 472.164062 C 336.933594 471.800781 336.894531 471.445312 336.859375 471.082031 C 336.820312 470.777344 336.78125 470.472656 336.738281 470.171875 C 336.632812 469.730469 336.425781 469.339844 336.125 469.007812 C 335.972656 468.75 335.769531 468.546875 335.511719 468.394531 C 335.179688 468.089844 334.792969 467.882812 334.347656 467.78125 C 333.589844 467.65625 333.171875 467.574219 332.417969 467.792969 C 332.128906 467.875 331.789062 468.050781 331.484375 468.1875 C 330.667969 468.554688 330.066406 469.355469 329.847656 470.214844 C 329.824219 470.3125 329.804688 470.410156 329.785156 470.554688 C 329.734375 470.726562 329.75 470.902344 329.785156 471.074219 C 329.789062 471.574219 329.921875 472.039062 330.160156 472.46875 C 330.195312 472.835938 330.214844 473.207031 330.324219 473.558594 C 330.433594 473.90625 330.53125 474.261719 330.730469 474.574219 C 330.738281 474.59375 330.75 474.609375 330.757812 474.621094 C 330.929688 474.84375 331.101562 475.070312 331.277344 475.292969 C 331.308594 475.324219 331.351562 475.328125 331.382812 475.359375 C 331.402344 475.386719 331.425781 475.414062 331.445312 475.441406 C 331.660156 475.605469 331.867188 475.765625 332.082031 475.929688 C 332.328125 476.035156 332.578125 476.140625 332.828125 476.242188 C 333.226562 476.378906 333.644531 476.398438 334.058594 476.308594 Z M 334.058594 476.308594 " fill-opacity="1" fill-rule="nonzero"/><path fill="#004838" d="M 329.835938 470.21875 L 329.839844 470.210938 Z M 329.835938 470.21875 " fill-opacity="1" fill-rule="nonzero"/><path fill="#004838" d="M 329.824219 471.523438 C 329.828125 471.550781 329.832031 471.574219 329.839844 471.597656 C 329.820312 471.445312 329.800781 471.292969 329.777344 471.140625 C 329.785156 471.15625 329.773438 471.167969 329.777344 471.183594 C 329.785156 471.300781 329.800781 471.414062 329.824219 471.523438 Z M 329.824219 471.523438 " fill-opacity="1" fill-rule="nonzero"/><path fill="#004838" d="M 328.605469 487.285156 C 328.347656 487.089844 328.089844 486.890625 327.835938 486.6875 C 327.242188 486.34375 326.601562 486.171875 325.910156 486.167969 C 325.574219 486.210938 325.238281 486.257812 324.894531 486.304688 C 324.25 486.484375 323.6875 486.8125 323.214844 487.28125 C 323.164062 487.332031 323.109375 487.382812 323.054688 487.429688 C 322.535156 487.90625 322.132812 488.566406 321.960938 489.253906 C 321.921875 489.550781 321.878906 489.84375 321.839844 490.140625 C 321.824219 490.195312 321.804688 490.25 321.785156 490.304688 C 321.746094 490.613281 321.699219 490.921875 321.660156 491.230469 C 321.640625 491.707031 321.742188 492.15625 321.960938 492.574219 C 322.046875 492.871094 322.195312 493.125 322.410156 493.34375 C 322.65625 493.722656 322.980469 494.023438 323.386719 494.242188 C 323.664062 494.359375 323.941406 494.476562 324.222656 494.59375 C 324.53125 494.636719 324.839844 494.679688 325.148438 494.71875 C 325.625 494.738281 326.074219 494.640625 326.492188 494.417969 C 326.925781 494.277344 327.296875 494.039062 327.609375 493.695312 C 327.671875 493.640625 327.722656 493.582031 327.78125 493.519531 C 328.019531 493.363281 328.246094 493.195312 328.457031 493.003906 C 328.65625 492.742188 328.859375 492.476562 329.0625 492.21875 C 329.078125 492.183594 329.09375 492.144531 329.109375 492.109375 C 329.140625 492.042969 329.167969 491.972656 329.203125 491.90625 C 329.175781 491.894531 329.148438 491.882812 329.121094 491.871094 C 329.203125 491.722656 329.339844 491.613281 329.394531 491.453125 C 329.636719 491 329.742188 490.507812 329.722656 489.984375 C 329.742188 489.460938 329.636719 488.96875 329.394531 488.515625 C 329.242188 488.039062 328.976562 487.632812 328.605469 487.285156 Z M 328.605469 487.285156 " fill-opacity="1" fill-rule="nonzero"/><path fill="#004838" d="M 339.632812 500.597656 C 339.628906 500.574219 339.640625 500.546875 339.636719 500.519531 C 339.636719 500.503906 339.625 500.492188 339.625 500.476562 C 339.609375 500.378906 339.632812 500.277344 339.605469 500.175781 C 339.585938 500.101562 339.519531 500.054688 339.496094 499.984375 C 339.457031 499.875 339.464844 499.753906 339.40625 499.652344 C 339.363281 499.5 339.296875 499.351562 339.21875 499.214844 C 339.039062 498.980469 338.855469 498.75 338.675781 498.511719 C 338.363281 498.175781 337.992188 497.933594 337.5625 497.800781 C 337.292969 497.640625 337 497.5625 336.6875 497.5625 C 336.226562 497.457031 335.769531 497.476562 335.308594 497.621094 C 335.261719 497.628906 335.210938 497.640625 335.164062 497.652344 C 334.847656 497.710938 334.550781 497.851562 334.273438 498.027344 C 334.195312 498.0625 334.101562 498.050781 334.023438 498.09375 C 333.703125 498.269531 333.449219 498.503906 333.253906 498.800781 C 333.011719 499.066406 332.851562 499.378906 332.761719 499.734375 C 332.699219 499.96875 332.765625 500.199219 332.761719 500.433594 C 332.75 500.554688 332.707031 500.664062 332.710938 500.789062 C 332.726562 500.921875 332.746094 501.050781 332.761719 501.183594 C 332.761719 501.1875 332.761719 501.191406 332.761719 501.199219 C 332.761719 501.203125 332.765625 501.203125 332.765625 501.207031 C 332.785156 501.355469 332.804688 501.503906 332.828125 501.652344 C 332.832031 501.679688 332.839844 501.703125 332.847656 501.730469 C 332.863281 501.78125 332.875 501.832031 332.890625 501.878906 C 333.007812 502.15625 333.125 502.429688 333.238281 502.707031 C 333.457031 503.113281 333.753906 503.433594 334.128906 503.675781 C 334.347656 503.890625 334.597656 504.039062 334.890625 504.121094 C 335.074219 504.21875 335.292969 504.207031 335.488281 504.253906 C 335.472656 504.253906 335.460938 504.257812 335.449219 504.257812 C 335.511719 504.269531 335.558594 504.269531 335.617188 504.28125 C 335.820312 504.324219 336.011719 504.425781 336.230469 504.417969 C 336.515625 504.429688 336.871094 504.375 337.21875 504.277344 C 337.242188 504.273438 337.257812 504.277344 337.28125 504.269531 C 337.402344 504.238281 337.496094 504.148438 337.613281 504.101562 C 337.753906 504.042969 337.921875 503.996094 338.03125 503.921875 C 338.007812 503.925781 337.984375 503.929688 337.957031 503.929688 C 338.488281 503.640625 338.964844 503.265625 339.269531 502.742188 C 339.421875 502.476562 339.484375 502.175781 339.5625 501.882812 C 339.566406 501.898438 339.566406 501.910156 339.570312 501.921875 C 339.570312 501.914062 339.574219 501.90625 339.574219 501.894531 C 339.578125 501.875 339.570312 501.855469 339.578125 501.839844 C 339.679688 501.425781 339.695312 501.019531 339.632812 500.597656 Z M 339.632812 500.597656 " fill-opacity="1" fill-rule="nonzero"/><path fill="#004838" d="M 347.863281 483.375 C 347.472656 483.5 347.140625 483.71875 346.855469 484.023438 C 346.765625 484.132812 346.675781 484.25 346.589844 484.367188 C 346.3125 484.671875 346.125 485.023438 346.03125 485.433594 C 345.992188 485.710938 345.953125 485.988281 345.917969 486.269531 C 345.917969 486.289062 345.925781 486.308594 345.925781 486.328125 C 345.914062 486.457031 345.90625 486.585938 345.898438 486.707031 C 345.871094 487.085938 345.957031 487.460938 346.050781 487.824219 C 346.183594 488.296875 346.417969 488.707031 346.761719 489.050781 C 347.015625 489.324219 347.3125 489.515625 347.65625 489.628906 C 347.992188 489.800781 348.347656 489.878906 348.726562 489.867188 C 349.230469 489.867188 349.699219 489.738281 350.132812 489.488281 C 350.179688 489.457031 350.226562 489.421875 350.277344 489.390625 C 350.386719 489.320312 350.496094 489.234375 350.597656 489.144531 C 350.707031 489.070312 350.816406 488.984375 350.917969 488.894531 C 350.941406 488.871094 350.957031 488.839844 350.980469 488.8125 C 351.066406 488.707031 351.148438 488.601562 351.230469 488.492188 C 351.140625 488.5625 351.054688 488.628906 350.964844 488.699219 C 351.292969 488.480469 351.558594 488.195312 351.75 487.839844 C 351.855469 487.589844 351.964844 487.34375 352.066406 487.089844 C 352.125 486.800781 352.164062 486.511719 352.179688 486.222656 C 352.144531 485.945312 352.105469 485.671875 352.066406 485.394531 C 351.964844 485.144531 351.859375 484.894531 351.75 484.648438 C 351.585938 484.4375 351.425781 484.226562 351.261719 484.015625 C 350.980469 483.710938 350.644531 483.492188 350.257812 483.367188 C 350.015625 483.226562 349.753906 483.15625 349.472656 483.15625 C 349.195312 483.082031 348.921875 483.082031 348.644531 483.15625 C 348.367188 483.164062 348.105469 483.234375 347.863281 483.375 Z M 347.863281 483.375 " fill-opacity="1" fill-rule="nonzero"/><path fill="#004838" d="M 356.449219 472.5625 C 356.550781 472.804688 356.652344 473.039062 356.75 473.277344 C 356.90625 473.476562 357.0625 473.683594 357.21875 473.882812 C 357.492188 474.175781 357.8125 474.378906 358.183594 474.5 C 358.414062 474.636719 358.667969 474.703125 358.9375 474.703125 C 359.199219 474.777344 359.464844 474.777344 359.730469 474.703125 C 360 474.703125 360.25 474.636719 360.484375 474.5 C 360.855469 474.378906 361.175781 474.171875 361.445312 473.882812 C 361.507812 473.835938 361.570312 473.785156 361.628906 473.734375 C 362.0625 473.390625 362.382812 472.722656 362.523438 472.203125 C 362.542969 472.121094 362.570312 472.042969 362.589844 471.960938 C 362.597656 471.925781 362.609375 471.894531 362.617188 471.859375 C 362.792969 471.1875 362.746094 470.835938 362.621094 470.160156 C 362.476562 469.644531 362.214844 469.195312 361.835938 468.816406 C 361.558594 468.519531 361.230469 468.304688 360.851562 468.179688 C 360.488281 467.988281 360.097656 467.90625 359.679688 467.917969 C 359.128906 467.917969 358.613281 468.058594 358.136719 468.332031 C 357.605469 468.660156 357.332031 468.957031 356.992188 469.480469 C 356.972656 469.511719 356.953125 469.539062 356.933594 469.566406 C 356.890625 469.640625 356.847656 469.707031 356.800781 469.777344 C 356.785156 469.796875 356.773438 469.816406 356.757812 469.835938 C 356.65625 470.089844 356.546875 470.339844 356.441406 470.585938 C 356.34375 470.886719 356.296875 471.207031 356.320312 471.519531 C 356.324219 471.597656 356.335938 471.671875 356.339844 471.75 C 356.378906 472.035156 356.414062 472.296875 356.449219 472.5625 Z M 356.449219 472.5625 " fill-opacity="1" fill-rule="nonzero"/><path fill="#004838" d="M 364.824219 455.925781 C 364.308594 455.949219 363.828125 456.101562 363.382812 456.386719 C 362.796875 456.730469 362.335938 457.195312 361.992188 457.78125 C 361.789062 458.117188 361.585938 458.453125 361.386719 458.789062 C 361.285156 458.960938 361.183594 459.128906 361.082031 459.296875 C 360.820312 459.726562 360.625 460.191406 360.503906 460.679688 C 360.351562 461.164062 360.332031 461.652344 360.441406 462.140625 C 360.441406 462.46875 360.523438 462.777344 360.6875 463.0625 C 360.835938 463.515625 361.089844 463.90625 361.445312 464.238281 C 361.691406 464.433594 361.9375 464.621094 362.1875 464.8125 C 362.480469 464.9375 362.769531 465.058594 363.0625 465.183594 C 363.546875 465.335938 364.035156 465.355469 364.519531 465.246094 C 365.007812 465.222656 365.460938 465.078125 365.878906 464.8125 C 366.203125 464.59375 366.621094 464.339844 366.84375 464.085938 C 366.902344 464.019531 366.953125 463.945312 367.011719 463.878906 C 367.132812 463.726562 367.25 463.570312 367.371094 463.417969 C 367.613281 463.109375 367.847656 462.800781 368.09375 462.496094 C 368.574219 462.011719 368.90625 461.441406 369.09375 460.785156 C 369.140625 460.4375 369.183594 460.09375 369.234375 459.75 C 369.234375 459.046875 369.050781 458.394531 368.703125 457.789062 C 368.457031 457.335938 368.125 456.972656 367.699219 456.699219 C 367.324219 456.351562 366.886719 456.121094 366.382812 456.003906 C 365.855469 455.832031 365.339844 455.808594 364.824219 455.925781 Z M 364.824219 455.925781 " fill-opacity="1" fill-rule="nonzero"/><path fill="#004838" d="M 346.0625 467.523438 C 341.707031 467.523438 341.699219 474.292969 346.0625 474.292969 C 350.414062 474.289062 350.425781 467.523438 346.0625 467.523438 Z M 346.0625 467.523438 " fill-opacity="1" fill-rule="nonzero"/><path fill="#004838" d="M 338.699219 484.144531 C 338.667969 484.121094 338.632812 484.101562 338.601562 484.085938 C 338.425781 483.984375 338.238281 483.90625 338.046875 483.855469 C 337.753906 483.761719 337.464844 483.75 337.171875 483.8125 C 336.878906 483.824219 336.613281 483.914062 336.359375 484.074219 C 336.285156 484.105469 336.214844 484.132812 336.140625 484.167969 C 336.105469 484.183594 336.070312 484.199219 336.035156 484.210938 C 335.871094 484.277344 335.730469 484.386719 335.613281 484.53125 C 335.507812 484.667969 335.402344 484.804688 335.296875 484.941406 C 335.261719 485.023438 335.222656 485.105469 335.1875 485.191406 C 335.0625 485.433594 335.003906 485.691406 335.015625 485.96875 C 335.039062 486.144531 335.0625 486.324219 335.085938 486.5 C 335.152344 486.664062 335.21875 486.824219 335.292969 486.984375 C 335.363281 487.144531 335.46875 487.28125 335.613281 487.402344 C 335.75 487.507812 335.886719 487.613281 336.023438 487.71875 C 336.0625 487.738281 336.101562 487.75 336.136719 487.765625 C 336.210938 487.800781 336.28125 487.828125 336.355469 487.859375 C 336.53125 487.933594 336.703125 488.007812 336.878906 488.078125 C 337.171875 488.171875 337.460938 488.183594 337.753906 488.121094 C 337.867188 488.128906 337.96875 488.113281 338.066406 488.070312 C 338.238281 488 338.414062 487.925781 338.589844 487.851562 C 338.621094 487.832031 338.65625 487.8125 338.6875 487.792969 C 338.761719 487.75 338.828125 487.710938 338.902344 487.671875 C 339.503906 487.320312 339.878906 486.660156 339.878906 485.96875 C 339.878906 485.273438 339.503906 484.609375 338.902344 484.261719 C 338.832031 484.222656 338.769531 484.183594 338.699219 484.144531 Z M 338.699219 484.144531 " fill-opacity="1" fill-rule="nonzero"/><path fill="#004838" d="M 471.253906 462.769531 C 476.796875 459.472656 480.613281 454.488281 484.546875 449.472656 C 488.503906 444.441406 492.253906 439.257812 495.753906 433.894531 C 502.789062 423.132812 508.78125 411.75 513.773438 399.90625 C 523.609375 376.585938 529.742188 350.011719 527.273438 324.683594 C 527.246094 324.40625 526.8125 324.292969 526.753906 324.609375 C 521.984375 349.117188 516.652344 373.265625 506.78125 396.402344 C 502.03125 407.539062 496.304688 418.296875 489.761719 428.480469 C 486.375 433.746094 482.765625 438.886719 478.902344 443.824219 C 474.980469 448.835938 470.445312 453.351562 467.574219 459.078125 C 466.40625 461.402344 468.824219 464.214844 471.253906 462.769531 Z M 471.253906 462.769531 " fill-opacity="1" fill-rule="nonzero"/><path fill="#004838" d="M 209.382812 481.445312 C 212.457031 508.496094 228.109375 532.972656 250.273438 548.511719 C 276.894531 567.175781 309.628906 568.140625 340.296875 560.324219 C 347.566406 558.46875 354.613281 556.089844 361.523438 553.234375 C 388.53125 563.144531 419.15625 559.261719 444.597656 546.339844 C 471.050781 532.910156 491.941406 510.351562 507.40625 485.378906 C 524.960938 457.03125 537 424.839844 546.671875 393.046875 C 556.125 361.96875 561.96875 328.992188 556.757812 296.582031 C 554.316406 281.394531 549.410156 266.496094 541.929688 253.03125 C 536.191406 242.710938 528.21875 231.011719 517.835938 224.289062 C 517.003906 222.398438 515.566406 220.613281 514.042969 219.371094 C 510.308594 216.335938 506.335938 213.578125 502.175781 211.160156 C 498.105469 208.796875 493.832031 206.8125 489.457031 205.089844 C 486.554688 203.949219 483.457031 202.808594 480.3125 202.222656 C 473.183594 199.402344 462.199219 202.117188 456.542969 204.671875 C 455.777344 205.015625 455.0625 205.4375 454.328125 205.828125 C 455.375 204.371094 456.425781 202.914062 457.507812 201.484375 C 457.675781 201.257812 457.328125 201.035156 457.140625 201.199219 C 454.046875 203.875 451.152344 206.726562 448.375 209.671875 C 441.628906 214.925781 436.382812 222.097656 432.277344 229.5625 C 430.25 233.246094 428.433594 237.046875 426.707031 240.890625 C 426.625 241.0625 426.535156 241.222656 426.453125 241.390625 C 420.257812 251.921875 415.445312 263.140625 412.503906 275.089844 C 408.859375 289.886719 407.003906 306.203125 409.714844 321.296875 C 411.75 332.617188 418.351562 344.0625 428.84375 348.925781 C 433.460938 352.453125 438.917969 354.886719 444.609375 356.011719 C 451.566406 357.390625 458.417969 356.429688 465.265625 354.894531 C 467.820312 354.320312 470.273438 353.515625 472.71875 352.65625 C 472.753906 352.988281 473.078125 353.308594 473.4375 353.207031 C 474.964844 352.765625 476.519531 352.394531 478.011719 351.863281 C 479.464844 351.34375 480.878906 350.671875 482.277344 350.015625 C 482.558594 349.878906 482.832031 349.722656 483.117188 349.585938 C 483.121094 349.601562 483.121094 349.617188 483.125 349.632812 C 482.574219 353.789062 482.585938 358.007812 482.261719 362.191406 C 481.898438 367.003906 481.207031 371.769531 480.210938 376.492188 C 478.253906 385.742188 474.972656 394.703125 472.332031 403.773438 C 472.167969 404.332031 472.21875 404.808594 472.355469 405.242188 C 468.828125 414.105469 464.710938 422.730469 460.015625 431.042969 C 453.4375 442.679688 445.804688 453.71875 437.132812 463.894531 C 433.03125 468.707031 428.707031 473.332031 424.191406 477.753906 C 420.761719 481.113281 416.886719 484.121094 413.28125 487.351562 C 413.03125 484.871094 412.792969 482.390625 412.542969 479.914062 C 412.117188 475.652344 411.578125 471.414062 411.015625 467.167969 C 410.683594 464.648438 410.3125 461.769531 409.382812 459.230469 C 409.523438 453.988281 408.964844 448.722656 407.695312 443.640625 C 406.171875 437.550781 403.613281 431.347656 400.023438 426.179688 C 398.265625 423.644531 396.351562 421.226562 393.976562 419.25 C 392.183594 417.761719 389.5625 415.324219 387.089844 416.039062 C 386.949219 416.078125 386.816406 416.167969 386.703125 416.265625 C 385.980469 415.882812 385.25 415.542969 384.5 415.269531 C 381.953125 413.679688 379.074219 412.585938 375.832031 412.308594 C 361.699219 411.109375 348.574219 423.234375 338.808594 431.957031 C 327.6875 441.886719 316.835938 453.464844 311.148438 467.460938 C 310.894531 468.082031 311.03125 468.628906 311.34375 469.070312 C 311.15625 469.375 310.953125 469.679688 310.777344 469.976562 C 309.546875 472.046875 308.550781 474.304688 307.707031 476.554688 C 306.101562 480.839844 305.660156 485.320312 305.679688 489.863281 C 305.066406 491.753906 304.417969 493.636719 303.894531 495.546875 C 301.71875 503.476562 299.792969 513.613281 303.613281 521.382812 C 303.183594 523.171875 304.597656 525.121094 305.527344 526.546875 C 306.730469 528.398438 308.140625 530.109375 309.644531 531.726562 C 312.546875 534.851562 315.710938 537.644531 319.195312 540.105469 C 321.304688 541.59375 323.550781 542.878906 325.894531 543.972656 C 312.882812 546.335938 299.703125 547.957031 286.511719 546.332031 C 269.824219 544.277344 255.902344 536.269531 245.171875 523.433594 C 225.308594 499.675781 217.800781 465.691406 229.042969 436.449219 C 231.886719 429.042969 235.546875 421.429688 240.171875 414.957031 C 242.769531 411.320312 246.183594 408.359375 249.46875 405.335938 C 258.511719 415.304688 274.808594 418.722656 285.8125 408.6875 C 288.820312 405.945312 290.429688 402.316406 290.644531 398.761719 C 291.152344 395.144531 290.082031 391.425781 287.378906 388.414062 C 287.039062 388.03125 286.660156 387.722656 286.300781 387.386719 C 288.875 385.347656 290.714844 382.539062 290.957031 378.871094 C 291.40625 372.101562 286.46875 366.933594 280.625 364.128906 C 281.492188 364.214844 282.363281 364.296875 283.257812 364.253906 C 291.402344 363.871094 298.835938 356.636719 297.839844 348.21875 C 297.804688 347.90625 297.675781 347.644531 297.621094 347.34375 C 297.894531 345.410156 297.570312 343.523438 296.144531 341.972656 C 295.082031 340.816406 293.792969 339.863281 292.382812 339.074219 C 292.113281 338.878906 291.832031 338.695312 291.554688 338.515625 C 291.863281 338.351562 292.175781 338.203125 292.472656 338.007812 C 296.382812 336.675781 299.621094 334.113281 300.652344 329.542969 C 302.335938 322.066406 296.738281 315.742188 289.941406 313.894531 C 292.585938 311.402344 295.1875 308.859375 297.621094 306.164062 C 299.183594 304.429688 298.839844 302.496094 297.667969 301.304688 C 297.660156 300.804688 297.636719 300.269531 297.515625 299.816406 C 297.378906 299.289062 297.128906 298.773438 296.890625 298.292969 C 296.445312 297.410156 295.398438 296.902344 294.445312 296.886719 C 293.792969 296.878906 293.160156 296.96875 292.523438 297.066406 C 292.082031 297.117188 291.640625 297.15625 291.207031 297.253906 C 290.609375 297.386719 290.039062 297.664062 289.496094 297.949219 C 289.140625 298.144531 288.808594 298.375 288.480469 298.617188 C 288.070312 298.667969 287.648438 298.742188 287.214844 298.949219 C 278.777344 302.984375 270.855469 310.542969 269.226562 319.582031 C 264.585938 323.96875 261.542969 330.183594 260.808594 336.554688 C 260.777344 336.789062 260.757812 337.03125 260.730469 337.269531 C 260.6875 337.769531 260.660156 338.269531 260.644531 338.769531 C 260.570312 340.300781 260.582031 341.835938 260.785156 343.359375 C 258.550781 345.277344 256.546875 347.464844 254.921875 349.914062 C 251.023438 355.792969 249.75 362.789062 250.71875 369.34375 C 245.0625 374.914062 241.855469 382.96875 243.011719 391.808594 C 243.257812 393.699219 243.785156 395.492188 244.441406 397.222656 C 240.9375 400.183594 237.671875 403.328125 234.816406 406.4375 C 216.46875 426.398438 206.300781 454.304688 209.382812 481.445312 Z M 474.648438 316.738281 C 471.136719 321.113281 467.039062 325.109375 464.050781 329.886719 C 457.25 336.476562 449.605469 343.015625 441.242188 343.589844 C 438.96875 342.945312 436.8125 342.050781 434.792969 340.78125 C 429.59375 337.511719 425.859375 332.382812 423.539062 326.753906 C 421.128906 320.898438 419.601562 314.492188 419.125 308.183594 C 419.117188 308.085938 419.117188 307.992188 419.113281 307.894531 C 419.195312 307.59375 419.324219 307.332031 419.339844 306.984375 C 420.488281 283.363281 426.179688 259.878906 436.570312 238.589844 C 441.109375 229.296875 446.871094 219.761719 455.808594 214.097656 C 460.195312 211.3125 465.257812 209.492188 470.476562 209.261719 C 471.644531 209.210938 472.78125 209.304688 473.898438 209.46875 C 482.21875 215.769531 488.917969 222.75 492.324219 233.382812 C 496.035156 244.984375 496.480469 257.789062 494.800781 269.800781 C 493.222656 281.09375 489.582031 292.167969 484.183594 302.210938 C 481.429688 307.3125 478.273438 312.226562 474.648438 316.738281 Z M 428.703125 484.5 C 433.640625 479.75 438.339844 474.753906 442.78125 469.535156 C 451.722656 459.050781 459.707031 447.734375 466.523438 435.757812 C 473.207031 424.011719 478.773438 411.601562 483.167969 398.824219 C 485.398438 392.335938 487.285156 385.757812 488.769531 379.0625 C 489.898438 373.996094 491.457031 367.617188 490.304688 362.257812 C 490.652344 357.488281 490.535156 352.730469 489.480469 348.339844 C 489.273438 347.460938 488.847656 346.882812 488.324219 346.519531 C 488.960938 346 489.582031 345.472656 490.246094 344.980469 C 491.101562 344.347656 490.648438 342.726562 489.460938 343.121094 C 487.9375 343.628906 486.40625 343.949219 484.914062 344.570312 C 484.675781 344.664062 484.457031 344.792969 484.222656 344.898438 C 481.96875 344.757812 479.824219 345.40625 477.601562 346.011719 C 474.320312 346.898438 471.042969 347.554688 467.714844 348.1875 C 462.375 349.191406 457.027344 349.585938 451.65625 349.109375 C 460.859375 345.46875 468.664062 337.847656 473.9375 329.417969 C 482.039062 322.765625 488.207031 312.105469 492.472656 303.515625 C 498.382812 291.621094 502.046875 278.769531 503.230469 265.539062 C 504.445312 251.960938 503.152344 237.351562 497.484375 224.832031 C 495.824219 221.167969 493.46875 217.378906 490.578125 214.074219 C 492.152344 214.804688 493.707031 215.578125 495.238281 216.402344 C 498.585938 218.207031 501.832031 220.195312 504.9375 222.402344 C 506.457031 223.480469 508.003906 224.582031 509.386719 225.832031 C 510.492188 226.835938 510.886719 227.652344 511.027344 229.160156 C 511.167969 230.644531 512.210938 231.902344 513.527344 232.234375 C 514.046875 235.175781 514.859375 238.109375 515.40625 240.957031 C 516.363281 245.953125 517.09375 251.023438 517.542969 256.097656 C 518.453125 266.316406 518.335938 276.617188 516.691406 286.761719 C 515.101562 296.605469 512.332031 306.371094 508.289062 315.492188 C 504.234375 324.640625 497.789062 332.644531 494.339844 342.023438 C 493.6875 343.800781 496.003906 345.480469 497.539062 344.480469 C 506.347656 338.75 511.398438 328.148438 515.484375 318.804688 C 519.886719 308.742188 522.988281 298.207031 524.59375 287.332031 C 526.164062 276.75 526.550781 265.953125 525.222656 255.316406 C 524.636719 250.636719 523.839844 244.902344 522.308594 239.484375 C 526.089844 243.730469 529.730469 248.117188 532.777344 253.117188 C 539.515625 264.164062 544.210938 276.308594 547.160156 288.890625 C 554.15625 318.75 550.230469 349.863281 542.382812 379.144531 C 534.304688 409.261719 523.308594 439.515625 508.695312 467.097656 C 495.371094 492.238281 477.597656 515.71875 453.742188 531.714844 C 425.847656 550.421875 391.09375 556.707031 359.4375 544.019531 C 356.800781 542.964844 354.652344 545.507812 354.53125 547.925781 C 351.761719 548.753906 348.988281 549.5625 346.21875 550.34375 C 347.824219 548.785156 347.625 546.332031 346.246094 544.957031 C 350.214844 543.367188 353.96875 541.1875 357.53125 538.867188 C 365.828125 533.464844 373.457031 526.976562 380.054688 519.589844 C 386.648438 512.203125 392.371094 503.976562 396.832031 495.132812 C 399.066406 490.710938 401.015625 486.125 402.648438 481.449219 C 403.414062 480.484375 404.121094 479.503906 404.78125 478.492188 C 404.835938 479.265625 404.863281 480.039062 404.929688 480.820312 C 405.277344 485.070312 405.601562 489.320312 405.992188 493.566406 C 406.34375 497.40625 406.699219 502.03125 409.488281 504.953125 C 410.390625 505.898438 411.875 505.578125 412.539062 504.558594 C 413.941406 502.417969 414.21875 499.695312 414.140625 497.015625 C 419.476562 493.738281 424.222656 488.8125 428.703125 484.5 Z M 314.96875 521.992188 C 305.875 518.210938 309.800781 503.859375 311.765625 496.882812 C 314.925781 485.652344 319.753906 475.046875 325.851562 465.109375 C 331.957031 455.15625 339.132812 444.753906 347.15625 436.269531 C 347.476562 435.933594 347.539062 435.503906 347.457031 435.097656 C 351.859375 431.582031 356.761719 428.4375 361.859375 426.066406 C 367.167969 423.59375 373.464844 420.929688 379.441406 421.964844 C 380 422.058594 380.527344 422.21875 381.035156 422.398438 C 384.359375 424.742188 386.570312 428.640625 387.507812 432.53125 C 390.050781 443.097656 385.207031 455.285156 380.890625 464.824219 C 372.746094 482.832031 359.894531 498.8125 343.878906 510.429688 C 337.019531 515.414062 323.9375 525.722656 314.96875 521.992188 Z M 319.589844 530.503906 C 325.839844 530.0625 332.347656 526.953125 337.582031 523.960938 C 358.570312 511.957031 375.890625 493.371094 386.460938 471.632812 C 391.875 460.503906 397.199219 447.339844 395.902344 434.726562 C 397.496094 437.925781 398.84375 441.226562 399.769531 444.746094 C 401.679688 452.007812 401.511719 459.21875 400.617188 466.425781 C 398.976562 470.746094 396.53125 474.722656 395.003906 479.140625 C 393.519531 483.425781 391.722656 487.589844 389.65625 491.628906 C 385.441406 499.855469 380.195312 507.523438 374.003906 514.386719 C 367.949219 521.101562 361.105469 527.105469 353.550781 532.078125 C 349.640625 534.65625 345.5 536.851562 341.535156 539.335938 C 341.324219 539.46875 341.074219 539.617188 340.839844 539.757812 C 340.09375 539.664062 339.332031 539.589844 338.5 539.488281 C 336.359375 539.234375 334.226562 538.699219 332.179688 538.023438 C 328.367188 536.753906 324.820312 534.648438 321.632812 532.21875 C 320.925781 531.679688 320.273438 531.074219 319.589844 530.503906 Z M 289.28125 347.316406 C 287.808594 350.910156 283.828125 353.375 279.945312 353.167969 C 276.144531 352.964844 272.804688 350.457031 270.773438 347.28125 C 275.976562 343.769531 283.121094 343.148438 288.546875 346.257812 C 288.804688 346.585938 289.066406 346.917969 289.28125 347.316406 Z M 273.320312 336.554688 C 271.746094 337.003906 270.207031 337.578125 268.714844 338.261719 C 268.851562 336.597656 269.179688 334.894531 269.726562 333.234375 C 270.613281 334.554688 271.851562 335.667969 273.320312 336.554688 Z M 283.902344 331.238281 C 283.175781 331.222656 281.910156 331.203125 280.613281 331.054688 C 279.914062 330.605469 279.28125 330.054688 278.785156 329.378906 C 277.984375 328.277344 277.457031 327.175781 277.097656 326.082031 C 278.300781 324.355469 280.429688 322.730469 281.410156 321.808594 C 281.804688 321.675781 282.210938 321.574219 282.613281 321.480469 C 283.007812 321.46875 283.40625 321.441406 283.816406 321.480469 C 287.921875 321.867188 293 327.160156 288.800781 330.71875 C 288.65625 330.839844 288.496094 330.917969 288.34375 331.023438 C 286.855469 331.28125 285.261719 331.265625 283.902344 331.238281 Z M 255.339844 381.0625 C 256.816406 383.171875 258.609375 385.035156 260.691406 386.59375 C 258.042969 387.808594 255.457031 389.257812 252.941406 390.882812 C 252.628906 387.519531 253.351562 384.074219 255.339844 381.0625 Z M 265.886719 396.980469 C 269.605469 395.882812 282.070312 390.285156 282.886719 397.554688 C 282.507812 401.648438 276.8125 404.542969 273.4375 405.507812 C 266.066406 407.617188 259.851562 404.535156 256.230469 399.542969 C 259.476562 398.777344 262.703125 397.917969 265.886719 396.980469 Z M 272.617188 383.09375 C 271.988281 383.019531 271.410156 382.914062 270.914062 382.792969 C 270.261719 382.625 269.636719 382.40625 269.023438 382.164062 C 266.726562 379.960938 264.78125 377.042969 263.789062 374.664062 C 266.71875 373.65625 269.917969 373.375 272.949219 373.910156 C 276.421875 374.527344 282.996094 376.953125 280.605469 381.519531 C 280.496094 381.730469 280.375 381.878906 280.257812 382.066406 C 279.195312 382.601562 277.933594 382.941406 276.625 383.09375 C 275.3125 382.953125 273.964844 382.976562 272.617188 383.09375 Z M 262.371094 362.617188 C 262.683594 359.585938 263.496094 356.625 264.90625 353.964844 C 267.132812 357.261719 270.078125 360.125 273.554688 361.980469 C 269.652344 361.398438 265.875 361.652344 262.371094 362.617188 Z M 291.648438 299.761719 C 291.648438 299.761719 291.644531 299.761719 291.648438 299.761719 C 291.65625 299.691406 291.667969 299.617188 291.675781 299.546875 C 291.664062 299.617188 291.65625 299.691406 291.648438 299.761719 Z M 291.648438 299.761719 " fill-opacity="1" fill-rule="nonzero"/><path fill="#004838" d="M 292.421875 297.0625 C 292.457031 297.058594 292.492188 297.058594 292.523438 297.054688 C 292.710938 297.03125 292.898438 296.992188 293.09375 296.972656 C 292.867188 297 292.648438 297.03125 292.421875 297.0625 Z M 292.421875 297.0625 " fill-opacity="1" fill-rule="nonzero"/></svg>