<svg xmlns="http://www.w3.org/2000/svg" xmlns:xlink="http://www.w3.org/1999/xlink" width="1024" zoomAndPan="magnify" viewBox="0 0 768 767.999994" height="1024" preserveAspectRatio="xMidYMid meet" version="1.0"><defs><clipPath id="78790b3a63"><path d="M 190.453125 179.527344 L 577.453125 179.527344 L 577.453125 611.527344 L 190.453125 611.527344 Z M 190.453125 179.527344 " clip-rule="nonzero"/></clipPath><clipPath id="f5c8d9d968"><path d="M 234 220 L 534 220 L 534 611.527344 L 234 611.527344 Z M 234 220 " clip-rule="nonzero"/></clipPath></defs><g clip-path="url(#78790b3a63)"><path fill="#004838" d="M 482.265625 195.824219 C 461.300781 185.472656 436.96875 179.558594 409.4375 179.5625 C 378.496094 179.5625 350.949219 183.773438 326.976562 192.1875 C 303.007812 200.601562 282.617188 213.234375 266.074219 230.003906 C 244.921875 251.449219 233.792969 275.855469 227.9375 295.933594 C 222.210938 315.570312 221.511719 331.082031 221.4375 335.816406 L 191.347656 444.671875 C 190.773438 446.746094 190.492188 448.875 190.492188 450.992188 C 190.492188 455.316406 191.664062 459.609375 193.9375 463.363281 C 197.332031 468.945312 202.910156 472.921875 209.304688 474.292969 L 231.007812 478.941406 L 245.445312 546.570312 C 248.261719 559.738281 259.816406 568.980469 272.9375 568.980469 C 274.066406 568.980469 275.207031 568.914062 276.355469 568.773438 L 276.335938 568.773438 L 319.960938 563.792969 L 319.960938 602.195312 C 319.960938 607.296875 324.09375 611.429688 329.195312 611.429688 C 334.296875 611.429688 338.429688 607.296875 338.429688 602.195312 L 338.429688 553.441406 C 338.429688 550.804688 337.304688 548.304688 335.347656 546.554688 L 335.34375 546.550781 C 333.648438 545.042969 331.476562 544.207031 329.226562 544.203125 C 328.867188 544.203125 328.507812 544.226562 328.148438 544.269531 C 328.148438 544.269531 274.261719 550.425781 274.261719 550.425781 C 273.898438 550.464844 273.539062 550.484375 273.183594 550.484375 C 270.847656 550.484375 268.679688 549.691406 266.964844 548.328125 C 265.253906 546.957031 264.003906 545.035156 263.503906 542.710938 C 263.503906 542.710938 247.820312 469.238281 247.820312 469.238281 C 247.0625 465.683594 244.285156 462.898438 240.726562 462.140625 L 213.175781 456.234375 C 211.707031 455.914062 210.519531 455.066406 209.730469 453.785156 C 209.207031 452.921875 208.953125 451.988281 208.953125 451.035156 C 208.953125 450.558594 209.015625 450.078125 209.148438 449.59375 L 239.566406 339.558594 C 239.792969 338.742188 239.902344 337.90625 239.902344 337.078125 L 239.902344 337.011719 C 239.902344 337.011719 239.902344 336.953125 239.902344 336.953125 C 239.902344 336.953125 239.902344 336.898438 239.902344 336.898438 C 239.898438 335.699219 240.03125 321.992188 245.027344 303.714844 C 250.023438 285.429688 259.867188 262.597656 279.222656 242.980469 C 293.890625 228.109375 312.117188 216.894531 333.851562 209.367188 C 355.585938 201.84375 380.824219 198.03125 409.4375 198.03125 C 434.035156 198.035156 455.621094 203.351562 474.210938 212.613281 C 502.089844 226.511719 523.277344 249.328125 537.523438 276.640625 C 551.765625 303.949219 559.03125 335.742188 559.027344 367.378906 C 559.027344 396.734375 554.113281 421.128906 546.714844 441.257812 C 535.617188 471.449219 518.914062 492.0625 504.683594 505.292969 C 490.457031 518.519531 478.691406 524.347656 477.59375 524.875 L 477.585938 524.878906 C 474.402344 526.417969 472.347656 529.640625 472.34375 533.207031 L 472.34375 602.195312 C 472.34375 607.296875 476.476562 611.429688 481.582031 611.429688 C 486.683594 611.429688 490.816406 607.296875 490.816406 602.195312 L 490.816406 538.707031 C 500.457031 533.078125 521.398438 518.882812 540.308594 492.628906 C 560.046875 465.238281 577.507812 424.691406 577.5 367.378906 C 577.492188 320.820312 563.140625 273.964844 534.925781 238.621094 C 520.816406 220.953125 503.230469 206.175781 482.265625 195.824219 Z M 572.757812 367.378906 C 572.75 423.722656 555.667969 463.171875 536.460938 489.855469 C 517.253906 516.527344 495.867188 530.410156 487.277344 535.269531 C 486.535156 535.691406 486.074219 536.476562 486.074219 537.332031 L 486.074219 602.191406 C 486.074219 603.445312 485.578125 604.550781 484.761719 605.371094 C 483.941406 606.183594 482.832031 606.683594 481.582031 606.683594 C 480.332031 606.683594 479.222656 606.183594 478.402344 605.371094 C 477.589844 604.550781 477.089844 603.441406 477.089844 602.191406 L 477.089844 533.203125 C 477.085938 531.484375 478.089844 529.898438 479.652344 529.144531 L 479.644531 529.148438 C 481.558594 528.226562 502.542969 517.773438 523.121094 492.511719 C 533.40625 479.882812 543.574219 463.546875 551.167969 442.890625 C 558.765625 422.238281 563.773438 397.261719 563.773438 367.378906 C 563.769531 324.230469 550.601562 280.8125 524.691406 248.046875 C 511.738281 231.667969 495.585938 217.964844 476.328125 208.367188 C 457.074219 198.769531 434.722656 193.285156 409.4375 193.289062 C 380.410156 193.289062 354.640625 197.152344 332.300781 204.882812 C 309.964844 212.613281 291.058594 224.222656 275.847656 239.648438 C 255.757812 260.019531 245.601562 283.628906 240.453125 302.460938 C 235.308594 321.304688 235.160156 335.390625 235.160156 336.898438 L 235.160156 337.074219 C 235.160156 337.496094 235.105469 337.898438 234.996094 338.292969 L 204.578125 448.328125 C 204.332031 449.21875 204.210938 450.128906 204.210938 451.035156 C 204.210938 452.851562 204.710938 454.652344 205.675781 456.242188 L 205.675781 456.246094 C 207.113281 458.621094 209.460938 460.292969 212.179688 460.871094 C 212.179688 460.871094 239.734375 466.777344 239.734375 466.777344 L 239.738281 466.777344 C 241.457031 467.140625 242.8125 468.5 243.179688 470.226562 C 243.179688 470.226562 258.867188 543.699219 258.867188 543.699219 C 259.59375 547.113281 261.46875 550.011719 264.007812 552.035156 C 266.550781 554.0625 269.765625 555.226562 273.179688 555.222656 C 273.703125 555.222656 274.226562 555.195312 274.757812 555.140625 L 274.777344 555.140625 L 328.683594 548.980469 L 328.710938 548.976562 C 328.882812 548.953125 329.054688 548.941406 329.226562 548.941406 C 330.277344 548.941406 331.355469 549.347656 332.1875 550.085938 C 333.136719 550.9375 333.6875 552.160156 333.6875 553.441406 L 333.6875 602.191406 C 333.683594 603.441406 333.1875 604.546875 332.371094 605.367188 C 331.550781 606.183594 330.445312 606.683594 329.195312 606.683594 C 327.941406 606.683594 326.835938 606.183594 326.015625 605.367188 C 325.199219 604.550781 324.703125 603.441406 324.699219 602.191406 L 324.699219 561.132812 C 324.699219 560.457031 324.414062 559.816406 323.910156 559.367188 C 323.402344 558.914062 322.734375 558.703125 322.0625 558.777344 L 275.796875 564.058594 L 275.777344 564.0625 C 274.824219 564.179688 273.875 564.234375 272.9375 564.234375 C 262.066406 564.238281 252.429688 556.5625 250.085938 545.578125 L 235.324219 476.449219 C 235.128906 475.53125 234.417969 474.820312 233.503906 474.625 L 210.296875 469.652344 C 205.199219 468.566406 200.699219 465.359375 197.992188 460.898438 C 196.175781 457.90625 195.230469 454.457031 195.234375 450.992188 C 195.234375 449.292969 195.460938 447.589844 195.917969 445.929688 C 195.917969 445.929688 226.089844 336.785156 226.089844 336.785156 C 226.140625 336.59375 226.171875 336.378906 226.175781 336.179688 C 226.21875 332.152344 226.792969 316.78125 232.488281 297.257812 C 238.183594 277.730469 248.988281 254.074219 269.449219 233.332031 C 285.460938 217.105469 305.183594 204.867188 328.546875 196.660156 C 351.910156 188.457031 378.925781 184.300781 409.4375 184.300781 C 436.292969 184.304688 459.867188 190.054688 480.167969 200.074219 C 510.613281 215.105469 533.738281 239.78125 549.285156 269.308594 C 564.832031 298.828125 572.761719 333.183594 572.757812 367.375 Z M 572.757812 367.378906 " fill-opacity="1" fill-rule="nonzero"/></g><path fill="#004838" d="M 240.726562 462.136719 L 240.730469 462.140625 Z M 240.726562 462.136719 " fill-opacity="1" fill-rule="nonzero"/><g clip-path="url(#f5c8d9d968)"><path fill="#004838" d="M 357.851562 602.191406 C 357.851562 607.292969 361.984375 611.425781 367.085938 611.425781 C 372.191406 611.425781 376.324219 607.292969 376.324219 602.191406 L 376.324219 507.285156 C 376.324219 504.648438 375.195312 502.144531 373.238281 500.394531 L 373.234375 500.390625 C 371.578125 498.917969 369.4375 498.039062 367.175781 498.035156 C 366.800781 498.035156 366.417969 498.0625 366.042969 498.117188 L 366.042969 498.113281 C 366.042969 498.113281 294.558594 506.28125 294.558594 506.28125 L 279.242188 434.558594 C 278.484375 431.003906 275.707031 428.21875 272.140625 427.457031 L 255.6875 423.929688 L 277.546875 344.867188 C 277.773438 344.046875 277.882812 343.214844 277.882812 342.382812 L 277.882812 342.320312 C 277.882812 342.320312 277.882812 342.277344 277.882812 342.277344 L 277.800781 336.570312 C 277.828125 332.550781 278.257812 324.429688 280.78125 314.550781 C 282.675781 307.132812 285.742188 298.722656 290.6875 290.292969 C 298.113281 277.648438 309.722656 264.945312 328.085938 255.332031 C 346.449219 245.726562 371.617188 239.214844 406.152344 239.214844 C 423.980469 239.21875 439.597656 243.230469 453.054688 250.222656 C 473.234375 260.710938 488.597656 277.949219 498.945312 298.632812 C 509.285156 319.304688 514.570312 343.398438 514.570312 367.378906 C 514.558594 412.339844 500.074219 442.308594 485.59375 461.167969 C 478.351562 470.589844 471.101562 477.222656 465.65625 481.503906 C 462.929688 483.644531 460.660156 485.195312 459.066406 486.210938 C 458.269531 486.71875 457.640625 487.09375 457.214844 487.339844 C 457 487.464844 456.835938 487.558594 456.726562 487.617188 L 456.601562 487.6875 L 456.59375 487.691406 L 433.140625 498.847656 C 429.921875 500.382812 427.871094 503.628906 427.871094 507.191406 L 427.871094 602.191406 C 427.871094 607.296875 432.003906 611.425781 437.109375 611.425781 C 442.210938 611.425781 446.34375 607.296875 446.34375 602.191406 L 446.34375 513.023438 L 464.535156 504.363281 C 464.535156 504.363281 464.671875 504.296875 464.671875 504.296875 C 465.078125 504.09375 466.421875 503.378906 468.5 502.074219 C 475.761719 497.519531 491.886719 485.800781 506.21875 464.210938 C 520.554688 442.625 533.046875 411.15625 533.039062 367.378906 C 533.035156 331.066406 522.230469 294.523438 500.941406 266.914062 C 490.296875 253.117188 477.015625 241.558594 461.171875 233.464844 C 445.332031 225.367188 426.9375 220.742188 406.152344 220.742188 C 371.675781 220.742188 345.199219 226.695312 324.886719 236.015625 C 309.65625 243 297.902344 251.882812 288.886719 261.503906 C 275.355469 275.933594 267.984375 291.984375 263.988281 305.765625 C 259.996094 319.550781 259.367188 331.085938 259.332031 336.609375 L 259.332031 336.65625 C 259.332031 336.65625 259.394531 341.210938 259.394531 341.210938 L 235.28125 428.449219 C 235.054688 429.257812 234.945312 430.085938 234.945312 430.910156 C 234.945312 432.582031 235.398438 434.242188 236.28125 435.699219 L 236.285156 435.703125 C 237.605469 437.871094 239.761719 439.40625 242.25 439.9375 L 262.433594 444.261719 L 278.253906 518.335938 L 278.253906 518.332031 C 279.160156 522.617188 282.9375 525.640625 287.257812 525.640625 C 287.613281 525.640625 287.972656 525.621094 288.332031 525.578125 L 357.851562 517.636719 Z M 287.785156 520.867188 C 287.605469 520.890625 287.433594 520.898438 287.257812 520.898438 C 285.164062 520.898438 283.332031 519.441406 282.890625 517.351562 L 282.890625 517.34375 C 282.890625 517.34375 266.75 441.769531 266.75 441.769531 C 266.554688 440.851562 265.84375 440.140625 264.925781 439.945312 L 243.242188 435.300781 C 242.03125 435.042969 240.984375 434.296875 240.332031 433.234375 C 239.90625 432.53125 239.6875 431.726562 239.6875 430.910156 C 239.6875 430.507812 239.742188 430.105469 239.851562 429.710938 L 264.054688 342.148438 C 264.113281 341.933594 264.140625 341.707031 264.140625 341.484375 L 264.074219 336.617188 C 264.101562 331.988281 264.582031 322.699219 267.382812 311.414062 C 269.480469 302.9375 272.886719 293.332031 278.367188 283.710938 C 286.601562 269.273438 299.476562 254.785156 319.804688 243.835938 C 340.136719 232.894531 367.972656 225.488281 406.152344 225.484375 C 426.238281 225.488281 443.84375 229.933594 459.015625 237.683594 C 481.757812 249.3125 499.066406 268.410156 510.710938 291.300781 C 522.351562 314.1875 528.296875 340.847656 528.296875 367.375 L 530.667969 367.375 C 530.667969 367.375 528.296875 367.375 528.296875 367.375 C 528.296875 392.265625 524.1875 412.964844 518.039062 430.039062 C 508.8125 455.648438 494.984375 473.121094 483.414062 484.234375 C 477.632812 489.789062 472.414062 493.746094 468.628906 496.324219 C 466.738281 497.609375 465.203125 498.550781 464.136719 499.171875 C 463.605469 499.480469 463.191406 499.710938 462.90625 499.867188 C 462.765625 499.941406 462.65625 500 462.582031 500.039062 L 462.503906 500.078125 L 462.492188 500.082031 L 442.953125 509.382812 C 442.125 509.777344 441.601562 510.609375 441.601562 511.523438 L 441.601562 602.191406 C 441.597656 603.441406 441.101562 604.546875 440.285156 605.367188 C 439.464844 606.183594 438.359375 606.679688 437.105469 606.683594 C 435.855469 606.679688 434.75 606.183594 433.929688 605.367188 C 433.113281 604.546875 432.613281 603.441406 432.613281 602.191406 L 432.613281 507.1875 C 432.613281 505.453125 433.609375 503.875 435.175781 503.128906 L 458.675781 491.949219 L 458.742188 491.917969 C 458.800781 491.886719 458.871094 491.847656 459.015625 491.769531 C 461.164062 490.582031 476.210938 481.84375 490.765625 462.1875 C 505.320312 442.539062 519.320312 411.929688 519.3125 367.375 C 519.304688 334.484375 509.6875 301.382812 490.710938 276.351562 C 481.222656 263.839844 469.378906 253.359375 455.242188 246.011719 C 441.109375 238.664062 424.691406 234.46875 406.152344 234.46875 C 374.929688 234.46875 350.945312 239.707031 332.53125 247.917969 C 318.722656 254.070312 308.066406 261.898438 299.882812 270.378906 C 287.601562 283.101562 280.90625 297.261719 277.285156 309.40625 C 273.660156 321.554688 273.089844 331.707031 273.058594 336.554688 L 273.058594 336.601562 C 273.058594 336.601562 273.140625 342.332031 273.140625 342.332031 L 273.140625 342.382812 C 273.140625 342.800781 273.085938 343.203125 272.976562 343.597656 C 272.976562 343.597656 250.449219 425.085938 250.449219 425.085938 C 250.277344 425.714844 250.371094 426.390625 250.707031 426.949219 C 251.042969 427.503906 251.601562 427.902344 252.238281 428.039062 L 271.152344 432.09375 L 271.15625 432.09375 C 272.886719 432.460938 274.238281 433.816406 274.609375 435.542969 C 274.609375 435.542969 290.371094 509.371094 290.371094 509.371094 C 290.628906 510.570312 291.746094 511.371094 292.960938 511.234375 L 366.582031 502.820312 L 366.648438 502.8125 C 366.820312 502.789062 367 502.773438 367.175781 502.773438 C 368.179688 502.773438 369.246094 503.183594 370.082031 503.929688 C 371.03125 504.78125 371.582031 506.003906 371.582031 507.28125 L 371.582031 602.191406 C 371.582031 603.441406 371.082031 604.546875 370.269531 605.367188 C 369.449219 606.183594 368.339844 606.683594 367.089844 606.683594 C 365.839844 606.683594 364.730469 606.183594 363.910156 605.367188 C 363.09375 604.550781 362.597656 603.441406 362.597656 602.191406 L 362.597656 514.976562 C 362.597656 514.300781 362.308594 513.660156 361.804688 513.207031 C 361.300781 512.757812 360.628906 512.542969 359.957031 512.621094 L 287.792969 520.867188 Z M 287.785156 520.867188 " fill-opacity="1" fill-rule="nonzero"/></g><path fill="#004838" d="M 397.164062 463.382812 C 397.164062 461.609375 396.8125 459.882812 396.105469 458.289062 C 395.398438 456.691406 394.347656 455.238281 393.015625 453.941406 C 391.6875 452.648438 390.214844 451.628906 388.613281 450.945312 C 387.011719 450.257812 385.285156 449.914062 383.515625 449.917969 C 381.644531 449.914062 379.847656 450.25 378.1875 450.933594 C 376.53125 451.617188 375.023438 452.648438 373.714844 453.960938 C 372.414062 455.261719 371.390625 456.714844 370.703125 458.304688 C 370.011719 459.898438 369.667969 461.617188 369.671875 463.378906 C 369.667969 465.300781 369.996094 467.140625 370.679688 468.832031 C 371.359375 470.523438 372.390625 472.054688 373.714844 473.375 C 375.027344 474.691406 376.535156 475.71875 378.191406 476.402344 C 379.847656 477.085938 381.648438 477.417969 383.519531 477.414062 C 385.285156 477.417969 387.007812 477.074219 388.609375 476.390625 C 390.214844 475.707031 391.6875 474.691406 393.015625 473.398438 C 394.371094 472.078125 395.429688 470.546875 396.128906 468.851562 C 396.828125 467.15625 397.164062 465.308594 397.164062 463.382812 Z M 391.742188 467.042969 C 391.300781 468.121094 390.640625 469.085938 389.707031 470 C 388.738281 470.941406 387.761719 471.59375 386.75 472.027344 C 385.738281 472.457031 384.6875 472.671875 383.519531 472.671875 C 382.199219 472.671875 381.046875 472.445312 379.996094 472.015625 C 378.949219 471.582031 377.988281 470.9375 377.074219 470.023438 L 377.070312 470.019531 C 376.160156 469.109375 375.515625 468.140625 375.078125 467.0625 C 374.644531 465.980469 374.414062 464.777344 374.414062 463.382812 C 374.417969 462.214844 374.628906 461.179688 375.054688 460.1875 C 375.484375 459.199219 376.132812 458.25 377.070312 457.316406 L 377.074219 457.3125 C 377.988281 456.398438 378.949219 455.753906 380 455.316406 C 381.050781 454.886719 382.199219 454.660156 383.519531 454.660156 C 384.6875 454.660156 385.738281 454.875 386.75 455.304688 C 387.761719 455.738281 388.742188 456.398438 389.707031 457.339844 C 390.667969 458.273438 391.335938 459.226562 391.769531 460.210938 C 392.203125 461.195312 392.421875 462.222656 392.425781 463.382812 C 392.421875 464.769531 392.191406 465.96875 391.746094 467.042969 Z M 391.742188 467.042969 " fill-opacity="1" fill-rule="nonzero"/><path fill="#004838" d="M 373.71875 473.378906 L 373.714844 473.375 Z M 373.71875 473.378906 " fill-opacity="1" fill-rule="nonzero"/><path fill="#004838" d="M 373.714844 453.964844 L 373.71875 453.960938 Z M 373.714844 453.964844 " fill-opacity="1" fill-rule="nonzero"/><path fill="#004838" d="M 384.289062 403.847656 L 384.296875 403.839844 Z M 384.289062 403.847656 " fill-opacity="1" fill-rule="nonzero"/><path fill="#004838" d="M 376.492188 439.703125 L 376.488281 439.695312 L 376.484375 439.691406 Z M 376.492188 439.703125 " fill-opacity="1" fill-rule="nonzero"/><path fill="#004838" d="M 424.832031 385.019531 C 429.613281 378.339844 431.972656 370.265625 431.964844 361.078125 C 431.964844 355.449219 430.992188 349.824219 429.074219 344.242188 L 429.074219 344.238281 C 427.128906 338.613281 424.199219 333.496094 420.3125 328.941406 C 416.375 324.332031 411.375 320.621094 405.367188 317.816406 C 399.257812 314.96875 392.199219 313.578125 384.28125 313.578125 C 376.820312 313.578125 370.121094 314.507812 364.191406 316.417969 C 358.269531 318.320312 353.121094 321.214844 348.84375 325.089844 C 344.570312 328.953125 341.332031 333.59375 339.203125 338.921875 C 337.066406 344.25 336.023438 350.25 336.023438 356.871094 C 336.023438 361.28125 336.773438 365.378906 338.300781 369.101562 C 339.832031 372.828125 342.136719 376.160156 345.160156 379.046875 L 345.167969 379.054688 C 348.007812 381.753906 351.160156 383.996094 354.609375 385.753906 L 354.613281 385.753906 C 358.128906 387.542969 361.898438 388.648438 365.875 389.058594 C 365.972656 389.066406 366.019531 389.070312 366.117188 389.070312 L 366.882812 389.070312 C 367.054688 389.070312 367.25 389.046875 367.414062 389.007812 C 369.398438 388.554688 371.171875 387.675781 372.523438 386.320312 C 373.878906 384.972656 374.742188 383.199219 375.132812 381.242188 C 375.183594 381 375.1875 380.757812 375.164062 380.519531 C 375.28125 379.914062 375.347656 379.3125 375.347656 378.710938 C 375.347656 377.789062 375.195312 376.875 374.878906 376.019531 C 374.40625 374.726562 373.566406 373.59375 372.503906 372.695312 C 371.433594 371.792969 370.152344 371.09375 368.683594 370.527344 C 368.589844 370.492188 368.523438 370.472656 368.425781 370.449219 C 364.8125 369.515625 361.589844 367.84375 358.652344 365.386719 C 357.296875 364.238281 356.339844 363 355.699219 361.613281 C 355.058594 360.226562 354.722656 358.679688 354.722656 356.871094 C 354.722656 353.300781 355.285156 350.054688 356.382812 347.089844 C 357.480469 344.171875 359.132812 341.707031 361.417969 339.589844 C 363.652344 337.515625 366.679688 335.816406 370.574219 334.554688 C 374.414062 333.320312 379.121094 332.664062 384.660156 332.667969 C 389.589844 332.667969 393.777344 333.414062 397.25 334.832031 C 400.726562 336.257812 403.515625 338.335938 405.757812 341.144531 L 405.792969 341.1875 C 408.246094 344.121094 410.058594 347.222656 411.265625 350.519531 C 412.472656 353.820312 413.082031 357.324219 413.082031 361.082031 C 413.078125 366.941406 411.671875 371.832031 408.90625 376.003906 C 405.816406 380.441406 402.230469 384.585938 398.148438 388.417969 L 398.09375 388.46875 L 395.796875 390.765625 C 393.988281 392.582031 392.085938 394.578125 390.082031 396.773438 L 390.082031 396.777344 C 388.050781 399.003906 386.125 401.367188 384.296875 403.847656 C 382.425781 406.367188 380.777344 409.023438 379.316406 411.800781 C 377.824219 414.640625 376.6875 417.621094 375.867188 420.707031 L 375.851562 420.773438 C 374.8125 425.210938 374.265625 428.707031 374.261719 431.449219 C 374.261719 433.128906 374.417969 434.648438 374.765625 436.027344 C 375.117188 437.402344 375.667969 438.648438 376.492188 439.699219 C 377.933594 441.558594 379.941406 442.925781 382.300781 443.804688 C 382.722656 443.964844 383.191406 444 383.628906 443.902344 C 385.75 443.453125 387.753906 442.539062 389.585938 441.21875 L 389.589844 441.214844 C 390.652344 440.449219 391.535156 439.460938 392.117188 438.300781 C 392.703125 437.140625 392.976562 435.835938 392.972656 434.507812 C 392.972656 430.878906 393.425781 427.625 394.304688 424.726562 C 395.183594 421.828125 396.480469 419.277344 398.21875 417.027344 C 398.398438 416.792969 398.511719 416.53125 398.59375 416.261719 C 400.4375 413.753906 402.324219 411.320312 404.277344 408.96875 C 406.402344 406.410156 408.648438 403.941406 411.011719 401.574219 L 411.046875 401.539062 C 413.640625 398.820312 416.0625 396.101562 418.328125 393.386719 L 418.324219 393.390625 C 420.597656 390.667969 422.761719 387.890625 424.832031 385.035156 L 424.839844 385.023438 Z M 414.675781 390.347656 L 414.675781 390.351562 C 412.484375 392.980469 410.132812 395.613281 407.609375 398.257812 C 405.160156 400.71875 402.828125 403.28125 400.625 405.9375 C 398.417969 408.589844 396.28125 411.339844 394.214844 414.179688 C 394.039062 414.425781 393.929688 414.703125 393.859375 414.984375 C 392.070312 417.496094 390.683594 420.289062 389.757812 423.351562 C 388.726562 426.761719 388.226562 430.484375 388.226562 434.503906 C 388.222656 435.21875 388.09375 435.734375 387.875 436.167969 C 387.65625 436.597656 387.34375 436.980469 386.8125 437.367188 C 385.667969 438.183594 384.515625 438.734375 383.320312 439.078125 C 381.957031 438.46875 380.953125 437.710938 380.230469 436.785156 L 380.222656 436.773438 C 379.894531 436.359375 379.582031 435.742188 379.359375 434.855469 C 379.132812 433.96875 379 432.828125 379 431.449219 C 378.992188 429.359375 379.460938 426.109375 380.453125 421.898438 C 381.1875 419.136719 382.195312 416.507812 383.511719 414.003906 C 384.867188 411.421875 386.382812 408.980469 388.101562 406.667969 L 388.105469 406.660156 C 389.84375 404.304688 391.667969 402.066406 393.582031 399.964844 C 395.542969 397.816406 397.398438 395.871094 399.152344 394.109375 L 399.148438 394.113281 L 401.441406 391.820312 C 405.746094 387.777344 409.539062 383.390625 412.8125 378.691406 L 412.839844 378.648438 C 416.179688 373.640625 417.828125 367.707031 417.820312 361.078125 C 417.820312 356.808594 417.125 352.726562 415.71875 348.886719 C 414.316406 345.066406 412.21875 341.488281 409.464844 338.1875 C 409.460938 338.183594 409.453125 338.179688 409.449219 338.171875 C 409.441406 338.164062 409.433594 338.152344 409.425781 338.144531 C 406.699219 334.726562 403.191406 332.132812 399.039062 330.441406 C 394.867188 328.738281 390.0625 327.921875 384.65625 327.921875 C 378.746094 327.921875 373.5625 328.609375 369.117188 330.039062 L 369.113281 330.039062 C 364.722656 331.460938 361.046875 333.460938 358.191406 336.105469 C 355.378906 338.707031 353.277344 341.84375 351.9375 345.425781 L 351.9375 345.433594 C 350.625 348.972656 349.976562 352.800781 349.976562 356.871094 C 349.976562 359.273438 350.4375 361.546875 351.390625 363.601562 C 352.339844 365.660156 353.769531 367.476562 355.59375 369.011719 L 355.597656 369.015625 C 358.988281 371.859375 362.824219 373.867188 367.042969 374.980469 C 368.476562 375.535156 369.390625 376.179688 369.890625 376.765625 C 370.148438 377.066406 370.3125 377.351562 370.429688 377.65625 C 370.539062 377.960938 370.601562 378.296875 370.601562 378.710938 C 370.601562 379.148438 370.53125 379.675781 370.34375 380.289062 C 370.261719 380.574219 370.238281 380.863281 370.257812 381.144531 C 369.996094 381.925781 369.632812 382.5 369.167969 382.96875 C 368.582031 383.550781 367.757812 384.015625 366.554688 384.328125 L 366.257812 384.328125 C 362.875 383.964844 359.734375 383.039062 356.761719 381.53125 C 353.722656 379.980469 350.953125 378.011719 348.433594 375.617188 C 345.851562 373.148438 343.960938 370.398438 342.6875 367.300781 C 341.414062 364.207031 340.765625 360.75 340.761719 356.871094 C 340.761719 350.746094 341.726562 345.367188 343.601562 340.6875 C 345.480469 336.007812 348.265625 332.007812 352.019531 328.605469 C 355.773438 325.214844 360.28125 322.65625 365.644531 320.929688 C 371.003906 319.203125 377.210938 318.320312 384.28125 318.320312 C 391.648438 318.320312 397.992188 319.609375 403.359375 322.109375 C 408.832031 324.667969 413.238281 327.964844 416.703125 332.019531 C 420.214844 336.136719 422.835938 340.710938 424.589844 345.785156 C 426.347656 350.910156 427.222656 355.996094 427.222656 361.078125 C 427.214844 369.476562 425.125 376.445312 420.976562 382.257812 C 418.972656 385.019531 416.878906 387.707031 414.675781 390.347656 Z M 414.675781 390.347656 " fill-opacity="1" fill-rule="nonzero"/></svg>