<svg xmlns="http://www.w3.org/2000/svg" xmlns:xlink="http://www.w3.org/1999/xlink" width="1024" zoomAndPan="magnify" viewBox="0 0 768 767.999994" height="1024" preserveAspectRatio="xMidYMid meet" version="1.0"><path fill="#e2fb6c" d="M 526.261719 460.996094 C 526.136719 459.664062 526.089844 458.183594 525.277344 457.082031 C 524.753906 456.371094 523.820312 456.144531 523.132812 456.800781 C 522.15625 457.738281 521.824219 459.074219 521.484375 460.347656 C 521.101562 461.789062 520.722656 463.210938 520.367188 464.660156 C 519.652344 467.605469 519.15625 470.558594 518.800781 473.578125 C 518.460938 476.476562 518.164062 479.382812 517.902344 482.289062 C 517.78125 483.648438 517.507812 485.191406 517.371094 486.726562 C 516.570312 486.8125 515.773438 486.898438 514.988281 486.972656 C 512.269531 487.21875 509.515625 487.257812 506.796875 487.40625 C 504.058594 487.546875 501.332031 487.78125 498.601562 487.992188 C 496.160156 488.179688 493.191406 488 490.945312 489.058594 C 489.996094 489.503906 490.023438 491.074219 490.945312 491.53125 C 493.171875 492.632812 496.164062 492.496094 498.601562 492.730469 C 501.332031 492.996094 504.058594 493.28125 506.796875 493.472656 C 509.410156 493.664062 512.042969 493.78125 514.65625 494.019531 C 517.625 494.296875 520.636719 494.957031 523.609375 494.433594 C 526.496094 493.925781 527.167969 490.257812 525.71875 488.152344 C 525.738281 487.917969 525.757812 487.6875 525.777344 487.457031 C 525.894531 485.949219 526.011719 484.441406 526.125 482.9375 C 526.351562 480.035156 526.542969 477.136719 526.703125 474.226562 C 526.867188 471.308594 526.847656 468.429688 526.640625 465.515625 C 526.535156 464 526.398438 462.503906 526.261719 460.996094 Z M 526.261719 460.996094 " fill-opacity="1" fill-rule="nonzero"/><path fill="#e2fb6c" d="M 386.1875 262.757812 C 386.265625 262.859375 386.304688 262.929688 386.355469 263.019531 C 386.375 263.039062 386.394531 263.058594 386.414062 263.078125 C 386.375 262.875 386.238281 262.75 386.1875 262.757812 Z M 386.1875 262.757812 " fill-opacity="1" fill-rule="nonzero"/><path fill="#e2fb6c" d="M 397.417969 258.941406 C 397.417969 258.9375 397.417969 258.925781 397.417969 258.921875 C 397.386719 258.972656 397.359375 259.023438 397.351562 259.085938 C 397.367188 259.019531 397.390625 258.980469 397.417969 258.941406 Z M 397.417969 258.941406 " fill-opacity="1" fill-rule="nonzero"/><path fill="#e2fb6c" d="M 442.710938 257.46875 C 442.761719 257.101562 442.640625 256.972656 442.710938 257.46875 Z M 442.710938 257.46875 " fill-opacity="1" fill-rule="nonzero"/><path fill="#e2fb6c" d="M 306.621094 348.117188 C 309.996094 348.589844 313.207031 348.921875 316.414062 347.476562 C 319.277344 346.183594 321.449219 343.132812 321.328125 339.9375 C 321.3125 339.597656 321.195312 339.28125 321.140625 338.949219 C 321.4375 338.328125 321.621094 337.617188 321.601562 337.078125 C 321.558594 336.144531 321.285156 335.3125 320.710938 334.570312 C 319.851562 333.457031 318.582031 332.976562 317.285156 333.03125 C 316.921875 332.796875 316.585938 332.515625 316.191406 332.335938 C 314.554688 331.617188 312.851562 331.226562 311.046875 331.257812 C 309.65625 331.289062 308.140625 331.445312 306.839844 331.960938 C 305.433594 332.519531 304.085938 333.421875 303.0625 334.550781 C 302.726562 334.578125 302.394531 334.554688 302.058594 334.644531 C 300.617188 335.03125 299.050781 336.304688 298.457031 337.707031 C 297.652344 339.609375 297.863281 341.65625 298.839844 343.453125 C 300.402344 346.339844 303.523438 347.675781 306.621094 348.117188 Z M 307.726562 339.929688 C 307.667969 339.917969 307.613281 339.90625 307.554688 339.898438 C 307.765625 339.90625 308.253906 340.046875 307.726562 339.929688 Z M 306.34375 339.609375 C 306.335938 339.609375 306.339844 339.609375 306.332031 339.609375 C 306.300781 339.59375 306.265625 339.574219 306.234375 339.554688 C 306.242188 339.550781 306.246094 339.546875 306.25 339.542969 C 306.253906 339.542969 306.253906 339.542969 306.257812 339.539062 C 306.300781 339.527344 306.339844 339.515625 306.414062 339.480469 C 306.460938 339.503906 306.460938 339.550781 306.34375 339.609375 Z M 310.265625 339.675781 C 310.632812 339.605469 310.964844 339.714844 310.214844 339.6875 C 310.234375 339.6875 310.246094 339.679688 310.265625 339.675781 Z M 309.273438 340.019531 C 309.277344 340.019531 309.28125 340.015625 309.285156 340.011719 C 309.269531 340.035156 309.246094 340.078125 309.226562 340.101562 C 309.21875 340.101562 309.214844 340.101562 309.207031 340.101562 C 309.226562 340.074219 309.25 340.050781 309.273438 340.019531 Z M 312.867188 340.113281 C 312.867188 340.109375 312.882812 340.097656 312.882812 340.089844 C 312.882812 340.085938 312.867188 340.121094 312.867188 340.113281 Z M 312.722656 339.929688 C 312.71875 339.929688 312.71875 339.9375 312.714844 339.9375 C 312.726562 339.945312 312.738281 339.949219 312.75 339.957031 C 312.757812 339.960938 312.765625 339.96875 312.769531 339.972656 C 312.757812 339.976562 312.753906 339.976562 312.746094 339.980469 C 312.734375 339.96875 312.71875 339.953125 312.703125 339.9375 C 312.636719 339.976562 312.589844 340.015625 312.535156 340.054688 C 312.53125 340.054688 312.523438 340.058594 312.519531 340.058594 C 312.578125 340.011719 312.640625 339.953125 312.695312 339.921875 C 312.703125 339.917969 312.703125 339.921875 312.714844 339.917969 C 312.71875 339.925781 312.722656 339.929688 312.722656 339.929688 Z M 308.414062 336.367188 C 308.382812 336.371094 308.34375 336.371094 308.304688 336.375 C 308.277344 336.375 308.210938 336.371094 308.15625 336.371094 C 308.222656 336.367188 308.355469 336.363281 308.460938 336.359375 C 308.449219 336.359375 308.429688 336.363281 308.414062 336.367188 Z M 308.15625 336.402344 C 308.125 336.394531 308.117188 336.386719 308.089844 336.378906 C 308.089844 336.378906 308.09375 336.378906 308.09375 336.378906 C 308.121094 336.386719 308.125 336.386719 308.15625 336.402344 Z M 308.027344 336.398438 C 308.09375 336.410156 308.089844 336.410156 308.140625 336.417969 C 308.007812 336.433594 307.929688 336.421875 308 336.394531 C 308.019531 336.394531 308.011719 336.394531 308.027344 336.398438 Z M 312.363281 335.117188 C 312.261719 335.164062 312.15625 335.207031 312.058594 335.261719 C 312.039062 335.269531 312.011719 335.277344 311.992188 335.289062 C 312.449219 335.011719 312.484375 335.039062 312.363281 335.117188 Z M 308.054688 336.363281 C 308.035156 336.355469 308 336.347656 307.996094 336.339844 C 307.996094 336.335938 308.039062 336.359375 308.054688 336.363281 Z M 308.054688 336.363281 " fill-opacity="1" fill-rule="nonzero"/><path fill="#e2fb6c" d="M 312.707031 339.941406 L 312.714844 339.941406 L 312.699219 339.929688 Z M 312.707031 339.941406 " fill-opacity="1" fill-rule="nonzero"/><path fill="#e2fb6c" d="M 313.324219 433.671875 L 313.335938 433.683594 L 313.335938 433.679688 Z M 313.324219 433.671875 " fill-opacity="1" fill-rule="nonzero"/><path fill="#e2fb6c" d="M 321.335938 428.308594 C 320.476562 427.199219 319.207031 426.71875 317.910156 426.773438 C 317.546875 426.535156 317.210938 426.253906 316.8125 426.078125 C 315.175781 425.355469 313.472656 424.964844 311.671875 424.996094 C 310.28125 425.027344 308.765625 425.183594 307.460938 425.703125 C 306.058594 426.257812 304.710938 427.160156 303.6875 428.289062 C 303.347656 428.320312 303.015625 428.292969 302.683594 428.382812 C 301.242188 428.769531 299.675781 430.042969 299.082031 431.445312 C 298.277344 433.351562 298.492188 435.394531 299.464844 437.195312 C 301.027344 440.074219 304.144531 441.410156 307.242188 441.847656 C 310.617188 442.320312 313.828125 442.652344 317.035156 441.207031 C 319.902344 439.914062 322.070312 436.863281 321.949219 433.667969 C 321.9375 433.328125 321.820312 433.011719 321.769531 432.679688 C 322.0625 432.0625 322.25 431.347656 322.230469 430.808594 C 322.183594 429.886719 321.914062 429.054688 321.335938 428.308594 Z M 313.167969 433.800781 C 313.164062 433.800781 313.15625 433.804688 313.152344 433.804688 C 313.210938 433.757812 313.273438 433.699219 313.324219 433.671875 C 313.332031 433.667969 313.332031 433.671875 313.339844 433.667969 C 313.34375 433.671875 313.34375 433.671875 313.347656 433.675781 C 313.34375 433.679688 313.34375 433.679688 313.339844 433.683594 C 313.355469 433.691406 313.367188 433.695312 313.378906 433.703125 C 313.382812 433.707031 313.390625 433.71875 313.394531 433.722656 C 313.386719 433.722656 313.382812 433.726562 313.375 433.726562 C 313.363281 433.710938 313.34375 433.695312 313.332031 433.679688 C 313.265625 433.726562 313.21875 433.761719 313.167969 433.800781 Z M 313.496094 433.851562 C 313.496094 433.847656 313.507812 433.835938 313.507812 433.832031 C 313.503906 433.832031 313.496094 433.859375 313.496094 433.851562 Z M 309.898438 433.757812 C 309.902344 433.757812 309.90625 433.753906 309.910156 433.75 C 309.894531 433.777344 309.867188 433.816406 309.851562 433.839844 C 309.84375 433.839844 309.839844 433.839844 309.832031 433.839844 C 309.855469 433.8125 309.871094 433.789062 309.898438 433.757812 Z M 310.894531 433.417969 C 311.257812 433.351562 311.59375 433.460938 310.84375 433.429688 C 310.859375 433.425781 310.875 433.421875 310.894531 433.417969 Z M 309.042969 430.105469 C 309.003906 430.109375 308.972656 430.109375 308.933594 430.113281 C 308.902344 430.113281 308.839844 430.109375 308.785156 430.109375 C 308.847656 430.105469 308.984375 430.101562 309.089844 430.097656 C 309.070312 430.097656 309.054688 430.101562 309.042969 430.105469 Z M 308.785156 430.144531 C 308.75 430.136719 308.742188 430.125 308.714844 430.117188 C 308.714844 430.117188 308.714844 430.117188 308.71875 430.117188 C 308.742188 430.125 308.746094 430.125 308.785156 430.144531 Z M 308.65625 430.140625 C 308.722656 430.148438 308.71875 430.148438 308.769531 430.15625 C 308.632812 430.171875 308.558594 430.160156 308.625 430.136719 C 308.640625 430.140625 308.636719 430.140625 308.65625 430.140625 Z M 306.863281 433.296875 C 306.867188 433.292969 306.871094 433.285156 306.875 433.28125 C 306.875 433.28125 306.878906 433.28125 306.886719 433.277344 C 306.925781 433.265625 306.96875 433.253906 307.039062 433.21875 C 307.082031 433.246094 307.085938 433.292969 306.972656 433.351562 C 306.964844 433.351562 306.96875 433.351562 306.960938 433.351562 C 306.925781 433.332031 306.894531 433.3125 306.863281 433.296875 Z M 308.351562 433.671875 C 308.292969 433.65625 308.238281 433.644531 308.179688 433.636719 C 308.394531 433.648438 308.878906 433.785156 308.351562 433.671875 Z M 312.988281 428.863281 C 312.886719 428.910156 312.78125 428.949219 312.6875 429.003906 C 312.667969 429.015625 312.640625 429.023438 312.621094 429.03125 C 313.070312 428.757812 313.109375 428.777344 312.988281 428.863281 Z M 308.683594 430.105469 C 308.679688 430.105469 308.679688 430.105469 308.683594 430.105469 C 308.664062 430.097656 308.628906 430.09375 308.625 430.085938 C 308.625 430.074219 308.667969 430.097656 308.683594 430.105469 Z M 308.683594 430.105469 " fill-opacity="1" fill-rule="nonzero"/><path fill="#e2fb6c" d="M 340.847656 346.3125 C 342.792969 346.792969 344.832031 346.855469 346.828125 346.859375 C 349.191406 346.863281 351.53125 346.582031 353.675781 345.535156 C 358.046875 343.402344 360.039062 337.042969 356.382812 333.332031 C 354.390625 331.304688 351.671875 331.140625 349.035156 330.78125 C 346.648438 330.457031 344.265625 330.132812 341.882812 329.8125 C 340.914062 329.683594 340.105469 329.628906 339.167969 330.023438 C 338.527344 330.289062 338.066406 330.699219 337.644531 331.1875 C 337.480469 331.246094 337.296875 331.246094 337.140625 331.316406 C 334.878906 332.386719 333.738281 334.703125 333.527344 337.09375 C 333.371094 338.90625 333.929688 340.933594 334.976562 342.421875 C 336.382812 344.414062 338.476562 345.730469 340.847656 346.3125 Z M 340.847656 346.3125 " fill-opacity="1" fill-rule="nonzero"/><path fill="#e2fb6c" d="M 456.984375 409.929688 C 459.347656 409.933594 461.6875 409.648438 463.828125 408.605469 C 468.203125 406.472656 470.191406 400.113281 466.539062 396.402344 C 464.542969 394.375 461.824219 394.210938 459.1875 393.851562 C 456.804688 393.527344 454.417969 393.203125 452.03125 392.882812 C 451.0625 392.75 450.253906 392.695312 449.324219 393.09375 C 448.6875 393.363281 448.222656 393.769531 447.796875 394.253906 C 447.636719 394.316406 447.453125 394.316406 447.296875 394.386719 C 445.03125 395.457031 443.890625 397.769531 443.679688 400.164062 C 443.523438 401.976562 444.085938 404.003906 445.128906 405.492188 C 446.53125 407.488281 448.628906 408.796875 450.996094 409.382812 C 452.945312 409.855469 454.988281 409.925781 456.984375 409.929688 Z M 456.984375 409.929688 " fill-opacity="1" fill-rule="nonzero"/><path fill="#e2fb6c" d="M 376.949219 348.234375 C 379.304688 347.941406 381.496094 347.664062 383.648438 346.613281 C 385.726562 345.605469 387.460938 343.558594 388.0625 341.328125 C 388.742188 338.808594 387.976562 336.078125 386.121094 334.257812 C 384.453125 332.628906 382.023438 331.664062 379.6875 331.761719 C 378.4375 331.8125 377.183594 332.050781 376.019531 332.507812 C 375.867188 332.566406 375.710938 332.644531 375.558594 332.703125 C 375.40625 332.632812 375.230469 332.5625 375.003906 332.496094 C 373.722656 332.125 372.15625 332.214844 370.871094 332.484375 C 368.710938 332.933594 366.78125 334.453125 365.65625 336.335938 C 364.289062 338.625 364.296875 341.46875 365.578125 343.789062 C 366.695312 345.804688 368.695312 347.199219 370.847656 347.917969 C 372.800781 348.558594 374.9375 348.476562 376.949219 348.234375 Z M 380.175781 338.960938 C 380.140625 338.980469 380.105469 339.007812 380.070312 339.03125 C 380.070312 339.027344 380.070312 339.027344 380.070312 339.019531 C 380.070312 339.019531 380.070312 339.019531 380.070312 339.015625 C 380.113281 338.996094 380.125 338.984375 380.175781 338.960938 Z M 379.910156 339.128906 C 379.871094 339.160156 379.832031 339.183594 379.789062 339.207031 C 379.765625 339.21875 379.726562 339.234375 379.695312 339.25 C 379.730469 339.210938 379.820312 339.152344 379.957031 339.074219 C 379.9375 339.101562 379.925781 339.117188 379.910156 339.128906 Z M 373.742188 340.046875 C 373.679688 340.035156 373.621094 340.019531 373.570312 340.007812 C 373.527344 340 373.484375 339.984375 373.441406 339.972656 C 373.464844 339.945312 373.601562 339.949219 373.835938 340.039062 C 373.804688 340.039062 373.773438 340.046875 373.742188 340.046875 Z M 380.335938 340.3125 C 380.339844 340.316406 380.351562 340.320312 380.355469 340.324219 C 380.414062 340.382812 380.464844 340.441406 380.464844 340.476562 C 380.464844 340.476562 380.410156 340.398438 380.335938 340.3125 Z M 380.335938 340.3125 " fill-opacity="1" fill-rule="nonzero"/><path fill="#e2fb6c" d="M 423.035156 425.386719 C 421.785156 425.4375 420.53125 425.675781 419.363281 426.132812 C 419.210938 426.191406 419.058594 426.269531 418.90625 426.328125 C 418.753906 426.257812 418.578125 426.1875 418.347656 426.117188 C 417.066406 425.746094 415.503906 425.835938 414.222656 426.101562 C 412.0625 426.546875 410.132812 428.070312 409.007812 429.953125 C 407.640625 432.242188 407.648438 435.085938 408.929688 437.40625 C 410.046875 439.421875 412.042969 440.816406 414.199219 441.535156 C 416.148438 442.183594 418.285156 442.105469 420.292969 441.859375 C 422.648438 441.566406 424.839844 441.289062 426.992188 440.242188 C 429.070312 439.234375 430.800781 437.183594 431.402344 434.953125 C 432.082031 432.4375 431.320312 429.707031 429.460938 427.882812 C 427.800781 426.253906 425.371094 425.289062 423.035156 425.386719 Z M 417.085938 433.671875 C 417.019531 433.664062 416.960938 433.644531 416.910156 433.632812 C 416.871094 433.625 416.828125 433.613281 416.785156 433.597656 C 416.804688 433.570312 416.945312 433.574219 417.175781 433.667969 C 417.148438 433.667969 417.113281 433.671875 417.085938 433.671875 Z M 423.519531 432.585938 C 423.480469 432.605469 423.449219 432.632812 423.414062 432.65625 C 423.414062 432.652344 423.414062 432.648438 423.414062 432.648438 C 423.414062 432.648438 423.414062 432.648438 423.414062 432.640625 C 423.457031 432.621094 423.46875 432.609375 423.519531 432.585938 Z M 423.253906 432.757812 C 423.214844 432.785156 423.175781 432.8125 423.132812 432.832031 C 423.105469 432.84375 423.070312 432.863281 423.039062 432.875 C 423.074219 432.835938 423.160156 432.777344 423.300781 432.703125 C 423.28125 432.726562 423.265625 432.742188 423.253906 432.757812 Z M 423.679688 433.9375 C 423.683594 433.941406 423.6875 433.945312 423.695312 433.949219 C 423.753906 434.007812 423.804688 434.066406 423.804688 434.101562 C 423.804688 434.101562 423.75 434.027344 423.679688 433.9375 Z M 423.679688 433.9375 " fill-opacity="1" fill-rule="nonzero"/><path fill="#e2fb6c" d="M 340.90625 408.917969 C 342.855469 409.566406 344.992188 409.484375 347 409.242188 C 349.355469 408.949219 351.546875 408.671875 353.699219 407.621094 C 355.777344 406.613281 357.507812 404.566406 358.113281 402.335938 C 358.789062 399.820312 358.027344 397.085938 356.167969 395.265625 C 354.503906 393.636719 352.074219 392.671875 349.742188 392.769531 C 348.488281 392.820312 347.238281 393.058594 346.070312 393.515625 C 345.921875 393.574219 345.765625 393.652344 345.613281 393.710938 C 345.460938 393.640625 345.285156 393.570312 345.054688 393.503906 C 343.777344 393.136719 342.210938 393.222656 340.929688 393.492188 C 338.769531 393.941406 336.839844 395.460938 335.714844 397.34375 C 334.347656 399.632812 334.355469 402.476562 335.636719 404.796875 C 336.753906 406.808594 338.753906 408.199219 340.90625 408.917969 Z M 350.230469 399.96875 C 350.195312 399.988281 350.160156 400.015625 350.125 400.039062 C 350.125 400.035156 350.125 400.035156 350.125 400.027344 C 350.125 400.027344 350.125 400.023438 350.125 400.023438 C 350.167969 400.007812 350.179688 399.992188 350.230469 399.96875 Z M 343.796875 401.054688 C 343.734375 401.042969 343.675781 401.027344 343.625 401.015625 C 343.582031 401.007812 343.539062 400.996094 343.496094 400.980469 C 343.519531 400.953125 343.65625 400.957031 343.890625 401.050781 C 343.855469 401.050781 343.824219 401.054688 343.796875 401.054688 Z M 350.390625 401.320312 C 350.394531 401.324219 350.398438 401.328125 350.410156 401.332031 C 350.46875 401.390625 350.519531 401.449219 350.519531 401.484375 C 350.519531 401.484375 350.464844 401.410156 350.390625 401.320312 Z M 350.007812 400.09375 C 349.992188 400.109375 349.980469 400.125 349.960938 400.144531 C 349.917969 400.171875 349.882812 400.199219 349.839844 400.222656 C 349.8125 400.234375 349.777344 400.253906 349.746094 400.265625 C 349.78125 400.222656 349.871094 400.167969 350.007812 400.09375 Z M 350.007812 400.09375 " fill-opacity="1" fill-rule="nonzero"/><path fill="#e2fb6c" d="M 403.511719 347.53125 C 405.136719 348.082031 406.910156 348.269531 408.617188 348.367188 C 410.847656 348.496094 413.199219 348.5 415.320312 347.703125 C 417.980469 346.703125 420.066406 344.808594 421.066406 342.117188 C 422.046875 339.480469 421.296875 336.605469 419.496094 334.527344 C 417.8125 332.59375 415.164062 331.566406 412.632812 331.515625 C 411.421875 331.496094 410.171875 331.734375 409 332.101562 C 407.300781 331.402344 405.292969 331.34375 403.503906 331.800781 C 401.15625 332.40625 398.984375 334.101562 397.917969 336.292969 C 396.777344 338.644531 396.730469 341.546875 398.234375 343.765625 C 399.519531 345.660156 401.375 346.800781 403.511719 347.53125 Z M 411.472656 340.03125 C 411.402344 340.007812 411.519531 339.957031 411.847656 339.992188 C 411.8125 340 411.773438 340.007812 411.742188 340.015625 C 411.648438 340.019531 411.566406 340.019531 411.472656 340.03125 Z M 411.777344 339.957031 C 411.878906 339.96875 412.003906 339.945312 412.117188 339.929688 C 412.066406 339.945312 412.011719 339.957031 411.960938 339.96875 C 411.894531 339.960938 411.859375 339.964844 411.777344 339.957031 Z M 411.8125 340.011719 C 411.832031 340.007812 411.855469 340 411.871094 339.996094 C 411.910156 340 411.925781 339.996094 411.964844 340.003906 C 411.925781 339.996094 411.867188 340.011719 411.8125 340.011719 Z M 411.96875 339.964844 C 411.992188 339.957031 412.019531 339.949219 412.042969 339.945312 C 412.121094 339.921875 412.175781 339.921875 412.222656 339.921875 C 412.234375 339.921875 412.269531 339.921875 412.285156 339.921875 C 412.363281 339.941406 412.277344 339.980469 411.96875 339.964844 Z M 413.074219 339.832031 Z M 413.144531 340.066406 C 413.152344 340.070312 413.160156 340.074219 413.167969 340.078125 C 413.179688 340.082031 413.167969 340.078125 413.179688 340.082031 C 413.179688 340.105469 413.164062 340.089844 413.144531 340.066406 Z M 413.144531 340.066406 " fill-opacity="1" fill-rule="nonzero"/><path fill="#e2fb6c" d="M 444.929688 347.574219 C 448.796875 346.945312 452.65625 346.316406 456.519531 345.683594 C 459.171875 345.25 460.371094 341.621094 459.027344 339.519531 C 456.941406 336.242188 453.78125 333.886719 450.0625 332.765625 C 447.164062 331.894531 443.117188 331.636719 440.804688 333.664062 C 438.007812 332.910156 434.304688 334.070312 432.523438 336.023438 C 429.40625 339.449219 429.992188 345.046875 434.3125 347.179688 C 437.710938 348.867188 441.363281 348.15625 444.929688 347.574219 Z M 440.503906 339.84375 C 440.378906 339.863281 440.339844 339.863281 440.277344 339.867188 C 440.242188 339.871094 440.207031 339.871094 440.164062 339.875 C 440.085938 339.867188 440.328125 339.808594 440.574219 339.824219 C 440.554688 339.835938 440.527344 339.839844 440.503906 339.84375 Z M 440.328125 339.140625 C 440.277344 339.097656 440.269531 339.09375 440.195312 339.039062 C 440.238281 339.070312 440.285156 339.101562 440.328125 339.140625 C 440.328125 339.136719 440.328125 339.136719 440.328125 339.140625 Z M 440.328125 339.140625 " fill-opacity="1" fill-rule="nonzero"/><path fill="#e2fb6c" d="M 460.082031 427.128906 C 457.28125 426.375 453.578125 427.535156 451.800781 429.488281 C 448.683594 432.917969 449.269531 438.511719 453.589844 440.644531 C 456.992188 442.328125 460.640625 441.617188 464.210938 441.03125 C 468.074219 440.40625 471.9375 439.773438 475.800781 439.144531 C 478.449219 438.710938 479.648438 435.082031 478.308594 432.980469 C 476.222656 429.707031 473.0625 427.347656 469.34375 426.226562 C 466.441406 425.359375 462.390625 425.101562 460.082031 427.128906 Z M 459.605469 432.601562 C 459.554688 432.558594 459.546875 432.554688 459.46875 432.496094 C 459.511719 432.53125 459.558594 432.5625 459.605469 432.601562 C 459.601562 432.597656 459.605469 432.597656 459.605469 432.601562 Z M 459.777344 433.304688 C 459.65625 433.324219 459.613281 433.324219 459.554688 433.332031 C 459.515625 433.335938 459.484375 433.335938 459.441406 433.34375 C 459.359375 433.332031 459.605469 433.273438 459.847656 433.292969 C 459.828125 433.296875 459.804688 433.300781 459.777344 433.304688 Z M 459.777344 433.304688 " fill-opacity="1" fill-rule="nonzero"/><path fill="#e2fb6c" d="M 491.878906 394.511719 C 489.078125 393.757812 485.375 394.917969 483.597656 396.871094 C 480.480469 400.300781 481.0625 405.894531 485.386719 408.027344 C 488.789062 409.703125 492.4375 409 496.007812 408.414062 C 499.871094 407.78125 503.730469 407.15625 507.597656 406.523438 C 510.246094 406.089844 511.441406 402.460938 510.101562 400.359375 C 508.015625 397.082031 504.855469 394.726562 501.140625 393.605469 C 498.242188 392.742188 494.1875 392.484375 491.878906 394.511719 Z M 491.40625 399.984375 C 491.351562 399.941406 491.347656 399.9375 491.269531 399.878906 C 491.3125 399.914062 491.359375 399.945312 491.40625 399.984375 C 491.402344 399.984375 491.402344 399.984375 491.40625 399.984375 Z M 491.578125 400.6875 C 491.453125 400.707031 491.410156 400.707031 491.351562 400.714844 C 491.3125 400.722656 491.277344 400.71875 491.242188 400.722656 C 491.15625 400.714844 491.40625 400.65625 491.648438 400.675781 C 491.625 400.679688 491.601562 400.683594 491.578125 400.6875 Z M 491.578125 400.6875 " fill-opacity="1" fill-rule="nonzero"/><path fill="#e2fb6c" d="M 417.003906 406.847656 C 420.867188 406.214844 424.730469 405.585938 428.59375 404.957031 C 431.242188 404.519531 432.441406 400.894531 431.101562 398.789062 C 429.015625 395.515625 425.855469 393.160156 422.136719 392.039062 C 419.242188 391.167969 415.1875 390.910156 412.878906 392.9375 C 410.082031 392.183594 406.375 393.339844 404.597656 395.296875 C 401.484375 398.722656 402.066406 404.320312 406.386719 406.453125 C 409.785156 408.136719 413.433594 407.429688 417.003906 406.847656 Z M 412.574219 399.113281 C 412.453125 399.136719 412.410156 399.136719 412.351562 399.140625 C 412.3125 399.144531 412.28125 399.144531 412.238281 399.148438 C 412.160156 399.140625 412.402344 399.082031 412.648438 399.097656 C 412.625 399.105469 412.601562 399.109375 412.574219 399.113281 Z M 412.402344 398.40625 C 412.347656 398.363281 412.34375 398.359375 412.269531 398.300781 C 412.308594 398.339844 412.355469 398.367188 412.402344 398.40625 Z M 412.402344 398.40625 " fill-opacity="1" fill-rule="nonzero"/><path fill="#e2fb6c" d="M 475.320312 348.464844 C 477.660156 349.234375 480.253906 348.867188 482.582031 348.25 C 484.9375 347.625 487.257812 346.875 489.59375 346.179688 C 491.78125 345.53125 494.273438 345.0625 496.25 343.875 C 498.75 342.375 500.355469 339.402344 499.351562 336.492188 C 498.480469 333.964844 496.148438 332.371094 493.601562 331.839844 C 490.933594 331.285156 488.09375 331.351562 485.382812 331.203125 C 483.929688 331.125 482.480469 331.042969 481.027344 330.964844 C 479.09375 330.859375 476.78125 330.890625 475.429688 332.507812 C 475.171875 332.8125 474.957031 333.164062 474.785156 333.539062 C 474.101562 333.765625 473.445312 334.078125 472.863281 334.488281 C 470.246094 336.332031 469.234375 339.554688 469.886719 342.632812 C 470.484375 345.429688 472.648438 347.585938 475.320312 348.464844 Z M 477.566406 340.394531 C 477.585938 340.410156 477.609375 340.429688 477.632812 340.445312 C 477.628906 340.441406 477.628906 340.441406 477.625 340.441406 C 477.597656 340.425781 477.578125 340.402344 477.566406 340.394531 Z M 477.855469 340.53125 C 477.8125 340.394531 477.824219 340.421875 477.859375 340.53125 C 477.859375 340.53125 477.855469 340.53125 477.855469 340.53125 Z M 478.902344 340.527344 C 478.984375 340.507812 479.054688 340.5 479.054688 340.507812 C 479.050781 340.515625 478.96875 340.519531 478.902344 340.527344 Z M 482.75 339.449219 C 481.792969 339.742188 480.84375 340.050781 479.875 340.292969 C 479.554688 340.375 479.230469 340.441406 478.910156 340.511719 C 478.84375 340.53125 478.851562 340.527344 478.804688 340.539062 C 478.738281 340.542969 478.703125 340.542969 478.65625 340.542969 C 478.824219 340.464844 479.007812 340.417969 479.15625 340.324219 C 479.429688 340.152344 479.777344 339.886719 480.015625 339.65625 C 480.140625 339.566406 480.234375 339.4375 480.316406 339.304688 C 480.828125 339.339844 481.335938 339.375 481.851562 339.402344 C 482.15625 339.417969 482.449219 339.433594 482.75 339.449219 Z M 482.75 339.449219 " fill-opacity="1" fill-rule="nonzero"/><path fill="#e2fb6c" d="M 257.035156 376.167969 C 265.585938 382.308594 278.351562 380.902344 285.664062 373.476562 C 287.40625 371.703125 287.324219 368.042969 284.8125 366.886719 C 281.773438 365.480469 278.582031 364.652344 275.214844 364.675781 C 274.019531 364.683594 272.683594 364.78125 271.375 365.039062 C 270.933594 364.964844 270.53125 364.832031 270.035156 364.816406 C 268.414062 364.753906 266.777344 364.972656 265.195312 365.316406 C 262.285156 365.953125 259.4375 367.230469 257.03125 368.984375 C 254.394531 370.90625 254.359375 374.246094 257.035156 376.167969 Z M 257.035156 376.167969 " fill-opacity="1" fill-rule="nonzero"/><path fill="#e2fb6c" d="M 303.15625 378.546875 C 306.210938 378.898438 309.550781 378.296875 312.519531 377.597656 C 315.765625 376.835938 318.914062 375.601562 321.867188 374.066406 C 323.796875 373.0625 324.570312 370.152344 323.371094 368.332031 C 321.085938 364.878906 317.464844 362.410156 313.367188 361.691406 C 311.128906 361.300781 309.007812 361.300781 306.777344 361.753906 C 305.699219 361.96875 304.699219 362.367188 303.699219 362.8125 C 303.332031 362.976562 302.960938 363.144531 302.617188 363.347656 C 301.730469 363.875 301.246094 364.59375 300.851562 365.417969 C 300.644531 365.460938 300.445312 365.460938 300.234375 365.527344 C 298.222656 366.171875 296.582031 367.878906 296.054688 369.945312 C 295.484375 372.179688 296.128906 374.5625 297.742188 376.21875 C 299.207031 377.730469 301.125 378.308594 303.15625 378.546875 Z M 303.15625 378.546875 " fill-opacity="1" fill-rule="nonzero"/><path fill="#e2fb6c" d="M 269.21875 429.800781 C 266.980469 429.410156 264.863281 429.410156 262.628906 429.859375 C 261.554688 430.074219 260.550781 430.476562 259.550781 430.921875 C 259.179688 431.085938 258.8125 431.25 258.46875 431.457031 C 257.582031 431.984375 257.097656 432.707031 256.703125 433.527344 C 256.496094 433.570312 256.296875 433.570312 256.085938 433.636719 C 254.074219 434.285156 252.433594 435.988281 251.90625 438.054688 C 251.339844 440.285156 251.984375 442.671875 253.59375 444.328125 C 255.0625 445.839844 256.976562 446.417969 259.007812 446.65625 C 262.0625 447.007812 265.40625 446.40625 268.371094 445.707031 C 271.617188 444.945312 274.765625 443.707031 277.71875 442.175781 C 279.648438 441.171875 280.425781 438.257812 279.222656 436.4375 C 276.9375 432.988281 273.320312 430.519531 269.21875 429.800781 Z M 269.21875 429.800781 " fill-opacity="1" fill-rule="nonzero"/><path fill="#e2fb6c" d="M 352.140625 361.691406 C 349.902344 361.300781 347.78125 361.300781 345.550781 361.753906 C 344.476562 361.96875 343.472656 362.367188 342.472656 362.8125 C 342.105469 362.980469 341.734375 363.144531 341.390625 363.347656 C 340.503906 363.875 340.019531 364.59375 339.625 365.417969 C 339.417969 365.460938 339.21875 365.460938 339.007812 365.527344 C 336.996094 366.171875 335.355469 367.878906 334.828125 369.945312 C 334.261719 372.179688 334.90625 374.5625 336.515625 376.21875 C 337.984375 377.730469 339.898438 378.308594 341.929688 378.546875 C 344.984375 378.898438 348.328125 378.296875 351.292969 377.597656 C 354.539062 376.835938 357.683594 375.601562 360.640625 374.066406 C 362.570312 373.0625 363.347656 370.152344 362.144531 368.332031 C 359.859375 364.878906 356.242188 362.410156 352.140625 361.691406 Z M 352.140625 361.691406 " fill-opacity="1" fill-rule="nonzero"/><path fill="#e2fb6c" d="M 352.140625 425.347656 C 349.902344 424.957031 347.78125 424.957031 345.550781 425.40625 C 344.476562 425.621094 343.472656 426.023438 342.472656 426.46875 C 342.105469 426.632812 341.734375 426.796875 341.390625 427.003906 C 340.503906 427.53125 340.019531 428.25 339.625 429.078125 C 339.417969 429.121094 339.21875 429.121094 339.007812 429.1875 C 336.996094 429.832031 335.355469 431.539062 334.828125 433.601562 C 334.261719 435.835938 334.90625 438.222656 336.515625 439.878906 C 337.984375 441.390625 339.898438 441.96875 341.929688 442.203125 C 344.984375 442.558594 348.328125 441.957031 351.292969 441.257812 C 354.539062 440.492188 357.683594 439.257812 360.640625 437.722656 C 362.570312 436.722656 363.347656 433.808594 362.144531 431.988281 C 359.859375 428.535156 356.242188 426.0625 352.140625 425.347656 Z M 352.140625 425.347656 " fill-opacity="1" fill-rule="nonzero"/><path fill="#e2fb6c" d="M 387.445312 408.632812 C 390.691406 407.871094 393.839844 406.636719 396.792969 405.101562 C 398.722656 404.101562 399.5 401.1875 398.296875 399.367188 C 396.015625 395.917969 392.394531 393.445312 388.292969 392.730469 C 386.054688 392.339844 383.9375 392.339844 381.703125 392.789062 C 380.628906 393.003906 379.625 393.40625 378.625 393.851562 C 378.257812 394.015625 377.890625 394.179688 377.542969 394.386719 C 376.660156 394.914062 376.171875 395.632812 375.777344 396.457031 C 375.570312 396.496094 375.375 396.496094 375.164062 396.5625 C 373.148438 397.210938 371.507812 398.914062 370.980469 400.976562 C 370.414062 403.210938 371.058594 405.597656 372.667969 407.253906 C 374.136719 408.765625 376.050781 409.34375 378.082031 409.578125 C 381.140625 409.9375 384.480469 409.328125 387.445312 408.632812 Z M 387.445312 408.632812 " fill-opacity="1" fill-rule="nonzero"/><path fill="#e2fb6c" d="M 382.085938 362.722656 C 381.933594 362.667969 381.785156 362.585938 381.632812 362.554688 C 379.878906 362.152344 378.292969 362.371094 376.707031 363.207031 C 373.640625 364.820312 372.492188 368.703125 374.132812 371.730469 C 375.324219 373.917969 377.695312 374.980469 380.050781 375.296875 C 382.234375 375.589844 384.464844 375.183594 386.554688 374.519531 C 389 373.746094 391.34375 372.589844 393.378906 371.023438 C 393.957031 370.582031 394.507812 370.160156 394.882812 369.519531 C 395.359375 368.703125 395.507812 367.765625 395.382812 366.84375 C 395.148438 365.121094 393.984375 363.925781 392.371094 363.355469 C 389.824219 362.441406 386.980469 362.105469 384.285156 362.40625 C 383.550781 362.476562 382.816406 362.582031 382.085938 362.722656 Z M 382.085938 362.722656 " fill-opacity="1" fill-rule="nonzero"/><path fill="#e2fb6c" d="M 399.28125 428.363281 C 396.730469 427.453125 393.882812 427.117188 391.191406 427.417969 C 390.453125 427.496094 389.71875 427.601562 388.988281 427.742188 C 388.835938 427.691406 388.691406 427.605469 388.535156 427.574219 C 386.78125 427.171875 385.195312 427.390625 383.613281 428.226562 C 380.542969 429.839844 379.394531 433.722656 381.035156 436.75 C 382.226562 438.9375 384.597656 440 386.953125 440.316406 C 389.136719 440.609375 391.367188 440.203125 393.457031 439.539062 C 395.90625 438.765625 398.246094 437.609375 400.28125 436.042969 C 400.859375 435.601562 401.414062 435.179688 401.789062 434.539062 C 402.261719 433.722656 402.410156 432.789062 402.285156 431.863281 C 402.058594 430.125 400.890625 428.9375 399.28125 428.363281 Z M 399.28125 428.363281 " fill-opacity="1" fill-rule="nonzero"/><path fill="#e2fb6c" d="M 318.597656 395.742188 C 316.046875 394.832031 313.199219 394.496094 310.507812 394.796875 C 309.765625 394.875 309.035156 394.980469 308.304688 395.121094 C 308.152344 395.066406 308 394.984375 307.851562 394.949219 C 306.097656 394.550781 304.511719 394.769531 302.929688 395.605469 C 299.859375 397.21875 298.710938 401.097656 300.351562 404.128906 C 301.542969 406.316406 303.914062 407.378906 306.269531 407.695312 C 308.453125 407.988281 310.683594 407.582031 312.773438 406.917969 C 315.21875 406.144531 317.5625 404.988281 319.597656 403.421875 C 320.175781 402.980469 320.726562 402.558594 321.101562 401.917969 C 321.578125 401.097656 321.726562 400.167969 321.601562 399.242188 C 321.375 397.507812 320.207031 396.320312 318.597656 395.742188 Z M 318.597656 395.742188 " fill-opacity="1" fill-rule="nonzero"/><path fill="#e2fb6c" d="M 415.679688 362.050781 C 415.070312 362.347656 414.445312 362.722656 413.84375 363.132812 C 413.199219 363.175781 412.566406 363.28125 412 363.472656 C 410.242188 364.066406 408.625 364.949219 407.339844 366.3125 C 405.503906 368.257812 405.863281 371.375 408.175781 372.78125 C 410.558594 374.226562 413.140625 374.984375 415.882812 375.316406 C 416.933594 375.445312 417.996094 375.46875 419.046875 375.363281 C 420.34375 375.238281 421.695312 375.082031 422.921875 374.613281 C 424.621094 373.964844 426.019531 373.058594 427.058594 371.527344 C 428.046875 370.078125 428.285156 368.160156 427.871094 366.476562 C 427.070312 363.207031 423.933594 361.097656 420.71875 360.835938 C 418.96875 360.695312 417.230469 361.304688 415.679688 362.050781 Z M 415.679688 362.050781 " fill-opacity="1" fill-rule="nonzero"/><path fill="#e2fb6c" d="M 463.707031 373.894531 C 465.125 372.929688 465.941406 371.460938 465.710938 369.707031 C 465.492188 368.078125 464.320312 366.664062 462.703125 366.21875 C 460.082031 365.496094 457.371094 365.078125 454.65625 364.871094 C 454.601562 364.84375 454.570312 364.832031 454.511719 364.808594 C 454.125 364.621094 453.71875 364.542969 453.277344 364.566406 C 452.964844 364.550781 452.667969 364.558594 452.355469 364.585938 C 451.847656 364.625 451.339844 364.707031 450.835938 364.777344 C 450.339844 364.789062 449.835938 364.75 449.339844 364.789062 C 448.441406 364.859375 447.554688 365.007812 446.6875 365.265625 C 445.613281 365.585938 444.945312 366.140625 444.425781 366.878906 C 442.753906 367.792969 441.179688 368.90625 439.753906 370.128906 C 437.261719 372.269531 438.8125 376.195312 441.585938 377.070312 C 448.917969 379.398438 457.328125 378.210938 463.707031 373.894531 Z M 463.707031 373.894531 " fill-opacity="1" fill-rule="nonzero"/><path fill="#e2fb6c" d="M 490.339844 365.253906 C 489.132812 365.261719 487.957031 365.679688 486.867188 366.207031 C 486.785156 366.210938 486.710938 366.199219 486.625 366.207031 C 485.019531 366.367188 483.445312 366.726562 482.117188 367.710938 C 480.316406 369.046875 479.050781 370.773438 478.894531 373.085938 C 478.765625 374.996094 479.617188 376.929688 481.058594 378.183594 C 482.648438 379.566406 484.71875 380.226562 486.8125 380.027344 C 488.792969 379.839844 490.558594 379.117188 492.402344 378.4375 C 495.519531 377.289062 498.628906 376.140625 501.742188 374.992188 C 503.421875 374.375 504.902344 372.890625 504.8125 370.957031 C 504.738281 369.257812 503.582031 367.207031 501.742188 366.917969 C 499.339844 366.542969 496.941406 366.167969 494.539062 365.792969 C 493.164062 365.574219 491.738281 365.246094 490.339844 365.253906 Z M 486.773438 374.28125 C 486.769531 374.285156 486.769531 374.289062 486.765625 374.289062 C 486.703125 374.339844 486.632812 374.386719 486.570312 374.4375 C 486.640625 374.386719 486.707031 374.332031 486.773438 374.28125 Z M 486.773438 374.28125 " fill-opacity="1" fill-rule="nonzero"/><path fill="#e2fb6c" d="M 260.078125 414.25 C 262.726562 414.914062 265.375 414.542969 268.019531 414.089844 C 270.214844 413.714844 272.472656 413.226562 274.351562 411.960938 C 276.703125 410.371094 278.15625 408.019531 278.414062 405.1875 C 278.65625 402.523438 277.238281 399.8125 274.902344 398.5 C 272.527344 397.160156 269.570312 397.261719 267.050781 398.125 C 266.195312 398.417969 265.367188 398.78125 264.519531 399.089844 C 263.390625 398.230469 262.027344 398.039062 260.625 398.023438 C 257.945312 397.992188 255.226562 399.8125 253.988281 402.148438 C 252.683594 404.605469 252.648438 407.65625 254.1875 410.039062 C 255.527344 412.109375 257.675781 413.652344 260.078125 414.25 Z M 270.050781 404.875 C 270.050781 404.878906 270.050781 404.878906 270.050781 404.882812 C 270.050781 404.882812 270.050781 404.875 270.050781 404.875 Z M 270.105469 404.402344 C 270.1875 404.285156 270.253906 404.292969 270.125 404.519531 C 270.109375 404.550781 270.082031 404.59375 270.0625 404.625 C 270.0625 404.613281 270.058594 404.597656 270.058594 404.59375 C 270.058594 404.59375 270.058594 404.597656 270.054688 404.597656 C 270.058594 404.605469 270.054688 404.617188 270.054688 404.632812 C 270.039062 404.648438 270.03125 404.664062 270.019531 404.679688 C 270.015625 404.691406 270.015625 404.695312 270.011719 404.703125 C 270.011719 404.699219 270.011719 404.699219 270.011719 404.695312 C 270.003906 404.707031 269.996094 404.71875 269.984375 404.738281 C 269.992188 404.699219 269.996094 404.652344 270.003906 404.617188 C 270.007812 404.246094 270.128906 404.195312 270.105469 404.402344 Z M 270.105469 404.402344 " fill-opacity="1" fill-rule="nonzero"/><path fill="#e2fb6c" d="M 270.015625 404.695312 C 270.019531 404.691406 270.019531 404.6875 270.023438 404.679688 C 270.035156 404.644531 270.046875 404.625 270.054688 404.597656 C 270.050781 404.585938 270.058594 404.554688 270.054688 404.550781 C 270.050781 404.550781 270.058594 404.585938 270.058594 404.59375 C 270.070312 404.558594 270.085938 404.511719 270.089844 404.496094 C 270.109375 404.449219 270.101562 404.4375 270.105469 404.402344 C 270.070312 404.453125 270.035156 404.519531 270.011719 404.613281 C 270.007812 404.636719 270.015625 404.667969 270.015625 404.695312 Z M 270.015625 404.695312 " fill-opacity="1" fill-rule="nonzero"/><path fill="#e2fb6c" d="M 192.664062 473.199219 C 199.582031 478.203125 206.496094 483.199219 213.410156 488.203125 C 213.550781 488.300781 213.691406 488.398438 213.824219 488.5 C 213.816406 488.957031 213.765625 489.414062 213.765625 489.871094 C 213.765625 491.484375 216.023438 491.914062 216.671875 490.5625 C 217.675781 491.285156 218.675781 492.011719 219.679688 492.730469 C 219.683594 492.738281 219.683594 492.753906 219.6875 492.761719 C 220.109375 493.984375 220.65625 495.121094 221.457031 496.175781 C 224.574219 500.390625 229.421875 501.398438 234.394531 501.738281 C 248.847656 502.75 263.472656 502.621094 277.96875 503.042969 C 307.71875 503.929688 337.472656 504.8125 367.222656 505.65625 C 394.613281 506.5 422.007812 507.300781 449.355469 508.101562 C 453.316406 522.597656 462.589844 535.617188 475.566406 543.5 C 492.003906 553.445312 513.328125 554.835938 531.152344 548.007812 C 542.109375 543.835938 551.339844 536.757812 558.753906 527.738281 C 566.339844 518.507812 573.335938 507.804688 575.992188 496.007812 C 576.203125 495.121094 575.78125 494.320312 575.148438 493.898438 C 577.171875 485.679688 577.214844 476.832031 574.9375 468.066406 C 571.441406 454.496094 562.210938 443.117188 549.949219 436.417969 C 548.21875 435.492188 546.449219 434.605469 544.636719 433.847656 C 544.605469 433.835938 544.570312 433.824219 544.535156 433.808594 C 544.617188 433.503906 544.746094 433.230469 544.765625 432.878906 C 545.699219 408.613281 546.632812 384.34375 547.566406 360.078125 C 548.023438 348.292969 548.433594 336.503906 548.855469 324.71875 C 549.078125 318.480469 549.335938 312.242188 549.414062 306 C 549.472656 301.167969 549.363281 296.71875 547.5 292.339844 C 551.785156 276.425781 556.074219 260.507812 560.359375 244.589844 C 561.140625 241.695312 558.980469 239.605469 556.3125 239.277344 C 550.066406 238.503906 543.8125 237.796875 537.558594 237.128906 C 537.476562 235.214844 537.15625 233.296875 536.742188 231.699219 C 536.007812 228.867188 534.492188 226.046875 532.234375 224.144531 C 526.847656 219.589844 519.058594 220.839844 514.195312 225.558594 C 511.691406 227.988281 510.023438 231.09375 508.882812 234.410156 C 505.519531 234.132812 502.15625 233.886719 498.789062 233.644531 C 498.578125 225.863281 491.734375 218.945312 483.417969 219.761719 C 476.125 220.476562 472.085938 225.691406 470.070312 231.882812 C 465.578125 231.660156 461.082031 231.457031 456.582031 231.285156 C 457.078125 229.089844 456.992188 226.660156 456.53125 224.667969 C 455.769531 221.355469 453.707031 218.460938 450.925781 216.539062 C 445.398438 212.71875 438.011719 213.570312 433.164062 218.042969 C 429.621094 221.3125 427.8125 225.902344 426.867188 230.582031 C 421.828125 230.527344 416.792969 230.511719 411.757812 230.519531 C 411.609375 229.765625 411.4375 229.023438 411.265625 228.304688 C 410.625 225.660156 409.527344 223.105469 407.871094 220.949219 C 404.546875 216.621094 398.914062 213.867188 393.464844 215.691406 C 386.9375 217.878906 383.144531 224.210938 381.523438 230.988281 C 376.535156 231.132812 371.554688 231.304688 366.574219 231.515625 C 366.675781 227.964844 365.125 224.378906 362.746094 221.761719 C 359.164062 217.8125 353.648438 216.46875 348.554688 217.789062 C 340.839844 219.785156 336.605469 226.121094 335.292969 233.246094 C 331.167969 233.53125 327.046875 233.828125 322.925781 234.15625 C 322.785156 232.109375 321.816406 230.019531 320.785156 228.328125 C 319.265625 225.84375 317.125 223.667969 314.597656 222.207031 C 309.183594 219.070312 301.949219 219.128906 296.644531 222.5 C 291.230469 225.949219 288.566406 231.554688 287.910156 237.539062 C 284.820312 237.886719 281.734375 238.25 278.648438 238.621094 C 278.75 237.105469 277.910156 235.507812 276.660156 234.652344 C 275.722656 231.328125 273.492188 228.449219 270.199219 226.75 C 265.066406 224.09375 258.929688 224.976562 254.167969 228.050781 C 248.777344 231.523438 245.152344 237.195312 243.679688 243.371094 C 241.800781 243.671875 239.921875 243.953125 238.050781 244.289062 C 234.976562 244.835938 232.101562 245.242188 229.378906 246.0625 C 230.042969 244.847656 229.605469 243.089844 228.359375 242.433594 C 223.785156 240.027344 220.121094 243.546875 218.410156 247.621094 C 213.972656 247.554688 210.242188 251.75 208.195312 255.292969 C 205.226562 260.421875 204.160156 266.054688 204.550781 271.949219 C 204.988281 278.617188 206.667969 285.136719 208.046875 291.648438 C 209.546875 298.761719 211.109375 305.867188 212.652344 312.972656 C 212.894531 314.085938 213.824219 315.054688 214.933594 315.613281 C 213.441406 319.804688 212.824219 324.542969 211.886719 328.703125 C 210.429688 335.164062 209.347656 341.671875 208.339844 348.214844 C 206.277344 361.675781 204.296875 375.144531 202.335938 388.617188 C 198.46875 415.230469 194.582031 441.835938 190.730469 468.453125 C 190.441406 470.503906 190.992188 471.988281 192.664062 473.199219 Z M 209.980469 475.40625 C 211.996094 467.640625 211.96875 458.769531 212.816406 450.964844 C 213.828125 441.664062 214.859375 432.363281 215.796875 423.054688 C 216.730469 413.757812 217.75 404.464844 218.398438 395.144531 C 219.042969 385.8125 219.105469 376.441406 219.851562 367.117188 C 219.851562 375.949219 219.808594 384.816406 219.6875 393.605469 C 219.476562 411.054688 219.222656 428.457031 218.925781 445.902344 C 218.925781 445.902344 218.925781 445.910156 218.925781 445.910156 C 218.21875 450.464844 217.625 455.039062 217.03125 459.566406 C 216.195312 465.875 215.160156 472.261719 214.476562 478.65625 C 212.980469 477.574219 211.480469 476.492188 209.980469 475.40625 Z M 298.957031 495.25 C 285.304688 494.871094 271.652344 494.449219 257.996094 494.070312 C 251.378906 493.859375 244.722656 493.691406 238.0625 493.480469 C 237.09375 493.441406 235.871094 493.480469 234.652344 493.441406 C 234.621094 493.441406 234.585938 493.433594 234.558594 493.433594 C 232.96875 491.945312 231.148438 490.707031 229.269531 489.355469 C 228.507812 488.804688 227.742188 488.253906 226.980469 487.699219 C 226.769531 486.144531 226.855469 484.546875 226.855469 483.15625 C 226.8125 455.386719 227.570312 427.613281 227.949219 399.84375 C 228.328125 370.808594 229.71875 341.566406 228.917969 312.445312 C 229.152344 312.40625 229.386719 312.371094 229.589844 312.25 C 230.554688 311.660156 231.132812 310.714844 231.511719 309.609375 C 231.582031 309.53125 231.695312 309.464844 231.757812 309.378906 C 240.117188 310.035156 248.671875 309.125 256.976562 308.582031 C 267.066406 307.925781 277.164062 307.34375 287.253906 306.738281 C 307.796875 305.503906 328.347656 304.445312 348.902344 303.589844 C 390.371094 301.859375 431.871094 300.921875 473.371094 300.765625 C 494.726562 300.683594 516.078125 300.84375 537.425781 301.179688 C 538.175781 302.769531 539.945312 303.714844 541.675781 303.621094 C 541.640625 304.074219 541.589844 304.503906 541.5625 304.960938 C 541.109375 311.191406 540.917969 317.445312 540.65625 323.683594 C 540.152344 335.8125 539.644531 347.945312 539.179688 360.082031 C 538.269531 383.746094 537.359375 407.40625 536.445312 431.070312 C 530.253906 429.511719 523.859375 429.179688 517.839844 430.816406 C 509.285156 430.945312 500.6875 433.050781 492.894531 436.675781 C 492.894531 436.675781 492.894531 436.675781 492.851562 436.71875 C 483.03125 438.910156 473.507812 444.21875 466.722656 449.949219 C 452.816406 461.792969 445.652344 479.53125 447.464844 497.738281 C 447.507812 498.371094 447.589844 499.003906 447.71875 499.632812 C 398.160156 498.203125 348.558594 496.726562 298.957031 495.25 Z M 537.6875 535.582031 C 523.148438 544.558594 504.609375 546.328125 488.550781 540.46875 C 473.800781 535.117188 463.015625 522.726562 458 508.359375 C 456.988281 505.617188 456.230469 502.753906 455.765625 499.886719 C 453.109375 485.769531 455.933594 470.765625 465.667969 459.179688 C 467.609375 456.859375 469.714844 454.753906 472.03125 452.859375 C 461.371094 466.175781 457.410156 483.957031 461.707031 500.054688 C 462.464844 502.964844 463.476562 505.785156 464.785156 508.527344 C 466.34375 511.8125 468.28125 514.972656 470.640625 517.921875 C 487.710938 539.542969 520.15625 541.566406 543.882812 531.070312 C 541.945312 532.714844 539.878906 534.230469 537.6875 535.582031 Z M 564.070312 462.550781 C 573.847656 482.695312 566.261719 507.894531 547.507812 519.695312 C 528.839844 531.492188 500.4375 533.179688 482.777344 518.429688 C 465.457031 504.015625 464.066406 477.804688 476.921875 460.105469 C 484.167969 450.203125 495 443.292969 506.925781 440.550781 C 507.769531 440.339844 508.570312 440.171875 509.410156 440.046875 C 511.183594 439.960938 512.992188 439.878906 514.847656 439.75 C 515.101562 439.710938 515.3125 439.582031 515.480469 439.371094 C 524.5 438.738281 533.601562 440.128906 542.449219 442.027344 C 542.492188 442.027344 542.535156 442.027344 542.578125 442.070312 C 551.804688 446.285156 559.601562 453.363281 564.070312 462.550781 Z M 518.535156 233.378906 C 520.222656 230.714844 523.699219 228.429688 526.335938 230.121094 C 527.574219 230.910156 528.277344 232.410156 528.671875 233.929688 C 528.867188 234.699219 528.953125 235.476562 529.007812 236.253906 C 525.210938 235.875 521.414062 235.519531 517.617188 235.175781 C 517.910156 234.566406 518.175781 233.941406 518.535156 233.378906 Z M 479.75 230.511719 C 481.464844 228.207031 484.75 227.308594 487.34375 228.683594 C 489.144531 229.640625 490.035156 231.238281 490.257812 233.015625 C 486.414062 232.761719 482.566406 232.546875 478.71875 232.332031 C 479.03125 231.703125 479.335938 231.066406 479.75 230.511719 Z M 437.367188 226.0625 C 439.109375 223.253906 442.132812 221.496094 445.382812 222.960938 C 446.613281 223.511719 447.675781 224.617188 448.164062 225.875 C 448.921875 227.828125 448.398438 229.117188 447.910156 231.015625 C 443.75 230.894531 439.597656 230.792969 435.4375 230.714844 C 435.894531 229.078125 436.480469 227.484375 437.367188 226.0625 Z M 440.148438 249.65625 C 440.15625 249.667969 440.148438 249.671875 440.210938 249.726562 C 440.609375 250.078125 440.949219 250.480469 441.289062 250.878906 C 441.339844 250.9375 441.332031 250.921875 441.34375 250.933594 C 441.375 250.984375 441.375 250.980469 441.433594 251.070312 C 441.609375 251.335938 441.789062 251.59375 441.949219 251.867188 C 442.105469 252.132812 442.238281 252.40625 442.371094 252.683594 C 442.378906 252.710938 442.378906 252.710938 442.390625 252.742188 C 442.476562 253 442.554688 253.242188 442.613281 253.507812 C 442.628906 253.578125 442.648438 253.695312 442.660156 253.796875 C 442.757812 254.859375 442.839844 255.941406 442.777344 257.003906 C 442.769531 257.171875 442.699219 257.453125 442.722656 257.605469 C 442.710938 257.539062 442.714844 257.519531 442.707031 257.46875 C 442.703125 257.496094 442.707031 257.511719 442.703125 257.539062 C 442.609375 257.980469 442.492188 258.414062 442.351562 258.84375 C 442.320312 258.9375 442.289062 259.03125 442.253906 259.125 C 442.25 259.132812 442.253906 259.128906 442.25 259.132812 C 442.1875 259.273438 442.117188 259.445312 442.082031 259.511719 C 441.8125 260.058594 441.484375 260.546875 441.164062 261.058594 C 441.148438 261.085938 441.160156 261.074219 441.144531 261.09375 C 440.992188 261.265625 440.84375 261.449219 440.6875 261.617188 C 440.347656 261.984375 439.980469 262.3125 439.605469 262.640625 C 439.589844 262.652344 439.597656 262.648438 439.578125 262.660156 C 439.398438 262.800781 439.117188 262.953125 439 263.019531 C 438.828125 263.121094 438.65625 263.21875 438.480469 263.308594 C 438.378906 263.363281 438.273438 263.410156 438.171875 263.460938 C 437.777344 263.589844 437.386719 263.730469 436.980469 263.828125 C 436.886719 263.847656 436.792969 263.871094 436.703125 263.886719 C 436.636719 263.898438 436.667969 263.894531 436.621094 263.902344 C 436.535156 263.910156 436.4375 263.917969 436.410156 263.917969 C 435.941406 263.941406 435.484375 263.914062 435.015625 263.894531 C 435.007812 263.890625 435.007812 263.890625 434.996094 263.890625 C 434.71875 263.820312 434.441406 263.773438 434.167969 263.699219 C 433.988281 263.648438 433.804688 263.59375 433.625 263.535156 C 433.535156 263.503906 433.449219 263.46875 433.355469 263.441406 C 432.929688 263.277344 432.996094 263.3125 433.566406 263.546875 C 433.257812 263.574219 432.546875 263.035156 432.304688 262.894531 C 432.144531 262.796875 431.984375 262.695312 431.824219 262.589844 C 431.75 262.535156 431.667969 262.484375 431.59375 262.429688 C 431.230469 262.164062 431.285156 262.210938 431.769531 262.570312 C 431.523438 262.585938 430.917969 261.792969 430.746094 261.601562 C 430.683594 261.535156 430.621094 261.464844 430.558594 261.398438 C 430.46875 261.292969 430.46875 261.296875 430.441406 261.265625 C 430.414062 261.214844 430.371094 261.144531 430.363281 261.136719 C 430.320312 261.066406 429.976562 260.574219 429.792969 260.234375 C 429.785156 260.179688 429.777344 260.140625 429.738281 260.003906 C 429.675781 259.773438 429.597656 259.550781 429.539062 259.324219 C 429.515625 259.230469 429.496094 259.136719 429.472656 259.046875 C 429.464844 259 429.464844 259.011719 429.460938 258.972656 C 429.449219 258.808594 429.441406 258.644531 429.441406 258.476562 C 429.4375 258.292969 429.441406 258.101562 429.453125 257.914062 C 429.457031 257.851562 429.464844 257.785156 429.46875 257.722656 C 429.644531 257.28125 429.726562 256.734375 429.863281 256.277344 C 429.867188 256.265625 429.867188 256.265625 429.867188 256.253906 C 429.894531 256.300781 429.917969 256.351562 429.945312 256.398438 C 430.875 257.714844 432.363281 258.492188 433.992188 258.046875 C 435.378906 257.667969 436.816406 256.125 436.621094 254.589844 C 436.398438 252.808594 435.992188 251.078125 435.585938 249.347656 C 435.625 249.15625 435.632812 248.960938 435.640625 248.761719 C 435.640625 248.761719 435.644531 248.761719 435.648438 248.761719 C 436.625 248.585938 437.445312 248.589844 438.347656 248.835938 C 438.84375 248.96875 439.140625 249.089844 439.410156 249.234375 C 439.59375 249.332031 439.765625 249.441406 439.941406 249.542969 C 440.078125 249.621094 440.101562 249.632812 440.148438 249.65625 Z M 442.347656 252.601562 C 442.292969 252.453125 442.253906 252.328125 442.347656 252.601562 Z M 430.695312 261.601562 C 430.648438 261.582031 430.566406 261.457031 430.488281 261.332031 C 430.539062 261.402344 430.574219 261.441406 430.695312 261.601562 Z M 391.667969 227.828125 C 393.527344 224.589844 396.503906 222.105469 399.738281 224.492188 C 401.328125 225.664062 402.289062 227.460938 402.859375 229.328125 C 402.980469 229.730469 403.027344 230.15625 403.128906 230.566406 C 398.867188 230.609375 394.601562 230.65625 390.339844 230.742188 C 390.707031 229.742188 391.132812 228.761719 391.667969 227.828125 Z M 345.28125 229.726562 C 347.328125 226.824219 351.246094 224.773438 354.535156 225.988281 C 355.742188 226.4375 356.9375 227.550781 357.671875 229.003906 C 357.789062 229.226562 357.832031 229.300781 357.863281 229.347656 C 357.867188 229.394531 357.894531 229.5 357.96875 229.753906 C 357.96875 229.757812 358.230469 231.039062 358.167969 230.46875 C 358.242188 231.160156 358.234375 231.511719 358.144531 231.867188 C 353.367188 232.105469 348.589844 232.382812 343.8125 232.675781 C 344.167969 231.640625 344.636719 230.644531 345.28125 229.726562 Z M 352.308594 255.28125 C 352.960938 256.25 353.3125 257.050781 353.632812 257.910156 C 353.835938 258.457031 354.011719 259.007812 354.15625 259.566406 C 354.234375 259.878906 354.296875 260.195312 354.363281 260.515625 C 354.394531 260.679688 354.410156 260.734375 354.425781 260.765625 C 354.421875 260.808594 354.410156 260.867188 354.417969 261.042969 C 354.421875 261.621094 354.425781 262.1875 354.375 262.765625 C 354.367188 262.878906 354.324219 263.183594 354.316406 263.285156 C 354.285156 263.449219 354.257812 263.613281 354.21875 263.777344 C 354.097656 264.335938 353.949219 264.890625 353.765625 265.429688 C 353.738281 265.519531 353.675781 265.65625 353.621094 265.765625 C 353.496094 266.007812 353.375 266.246094 353.234375 266.484375 C 353.125 266.664062 352.75 267.15625 352.710938 267.238281 C 352.375 267.605469 352.03125 267.949219 351.675781 268.304688 C 351.640625 268.339844 351.566406 268.398438 351.503906 268.445312 C 351.386719 268.53125 351.269531 268.617188 351.140625 268.695312 C 350.902344 268.851562 350.652344 268.996094 350.398438 269.128906 C 350.300781 269.183594 350.195312 269.234375 350.089844 269.285156 C 349.617188 269.425781 349.148438 269.566406 348.667969 269.6875 C 348.65625 269.691406 348.652344 269.691406 348.636719 269.695312 C 348.617188 269.691406 348.617188 269.691406 348.589844 269.6875 C 348.308594 269.664062 348.015625 269.707031 347.734375 269.695312 C 347.625 269.691406 347.507812 269.675781 347.398438 269.667969 C 347.324219 269.65625 347.242188 269.640625 347.191406 269.621094 C 346.933594 269.535156 346.65625 269.484375 346.398438 269.394531 C 346.324219 269.371094 346.253906 269.34375 346.183594 269.320312 C 346.175781 269.316406 346.183594 269.320312 346.175781 269.316406 C 345.757812 269.050781 345.304688 268.832031 344.886719 268.558594 C 344.695312 268.382812 344.5 268.214844 344.316406 268.039062 C 344.179688 267.90625 343.65625 267.292969 343.585938 267.246094 C 343.3125 266.859375 343.046875 266.464844 342.820312 266.054688 C 342.820312 266.050781 342.742188 265.90625 342.664062 265.761719 C 342.625 265.652344 342.425781 265.203125 342.417969 265.183594 C 342.253906 264.695312 342.171875 264.195312 342.027344 263.707031 C 342.023438 263.6875 342.023438 263.695312 342.019531 263.675781 C 342.019531 263.660156 342.019531 263.660156 342.019531 263.644531 C 342.015625 263.414062 341.988281 263.191406 341.988281 262.964844 C 341.984375 262.738281 341.992188 262.503906 342.003906 262.277344 C 342.015625 262.125 342.035156 261.972656 342.050781 261.851562 C 342.164062 261.296875 342.285156 260.742188 342.464844 260.199219 C 342.523438 260.019531 342.59375 259.84375 342.664062 259.660156 C 342.683594 259.617188 342.722656 259.539062 342.78125 259.417969 C 343.730469 260.367188 344.859375 261.109375 346.277344 261.449219 C 347.53125 261.742188 348.953125 261.0625 349.273438 259.746094 C 349.703125 257.976562 349.628906 256.484375 348.867188 254.800781 C 348.527344 254.058594 348.136719 253.34375 347.761719 252.617188 C 347.792969 252.59375 347.8125 252.582031 347.878906 252.527344 C 347.921875 252.488281 347.953125 252.453125 347.992188 252.417969 C 349.773438 252.535156 351.410156 253.949219 352.308594 255.28125 Z M 344.796875 268.492188 C 344.5 268.296875 344.636719 268.378906 344.796875 268.492188 Z M 296.875 235.074219 C 298.339844 230.976562 301.929688 228.042969 306.519531 228.308594 C 308.894531 228.445312 311.082031 229.542969 312.644531 231.332031 C 313.535156 232.351562 313.980469 233.636719 314.449219 234.886719 C 308.464844 235.414062 302.484375 235.984375 296.511719 236.609375 C 296.636719 236.105469 296.695312 235.585938 296.875 235.074219 Z M 305.703125 258.59375 C 306.761719 258.488281 307.652344 258.574219 308.347656 258.746094 C 308.652344 258.820312 308.949219 258.910156 309.246094 259.011719 C 309.167969 258.988281 310.105469 259.355469 309.75 259.203125 C 309.925781 259.28125 310.765625 259.769531 311.167969 260.039062 C 311.253906 260.097656 311.253906 260.089844 311.261719 260.089844 C 311.304688 260.128906 311.300781 260.128906 311.378906 260.199219 C 311.609375 260.414062 311.835938 260.625 312.050781 260.859375 C 312.195312 261.011719 312.328125 261.171875 312.472656 261.328125 C 312.5625 261.425781 312.5625 261.417969 312.597656 261.457031 C 312.621094 261.503906 312.617188 261.507812 312.6875 261.625 C 312.960938 262.074219 313.246094 262.507812 313.488281 262.980469 C 313.636719 263.265625 313.769531 263.550781 313.914062 263.835938 C 313.621094 263.25 313.902344 263.800781 314.003906 264.097656 C 314.175781 264.59375 314.316406 265.105469 314.425781 265.621094 C 314.460938 265.792969 314.492188 265.960938 314.519531 266.132812 C 314.53125 266.199219 314.566406 266.453125 314.574219 266.589844 C 314.609375 267.132812 314.578125 267.664062 314.546875 268.203125 C 314.449219 268.617188 314.359375 269.027344 314.226562 269.433594 C 314.199219 269.507812 314.171875 269.582031 314.144531 269.65625 C 314.148438 269.613281 313.945312 270.109375 313.878906 270.226562 C 313.628906 270.703125 313.324219 271.140625 313.035156 271.59375 C 312.988281 271.667969 313.007812 271.644531 312.984375 271.6875 C 312.945312 271.722656 312.957031 271.699219 312.886719 271.773438 C 312.734375 271.929688 312.597656 272.09375 312.449219 272.25 C 312.222656 272.480469 311.988281 272.703125 311.75 272.917969 C 311.652344 273.003906 311.550781 273.082031 311.460938 273.144531 C 311.007812 273.449219 310.554688 273.75 310.066406 274.003906 C 309.945312 274.070312 309.816406 274.125 309.695312 274.183594 C 309.605469 274.207031 309.238281 274.351562 309.128906 274.386719 C 308.71875 274.511719 308.183594 274.707031 307.730469 274.726562 C 307.667969 274.722656 307.601562 274.71875 307.546875 274.722656 C 307.167969 274.742188 306.792969 274.714844 306.414062 274.722656 C 306.363281 274.722656 306.351562 274.726562 306.3125 274.726562 C 306.082031 274.679688 305.84375 274.640625 305.613281 274.582031 C 305.195312 274.480469 304.789062 274.339844 304.390625 274.191406 C 304.238281 274.121094 303.988281 274.007812 303.910156 273.96875 C 303.675781 273.839844 303.441406 273.707031 303.210938 273.5625 C 302.984375 273.417969 302.761719 273.265625 302.539062 273.117188 C 303.378906 273.667969 302.429688 273.015625 302.253906 272.855469 C 301.828125 272.46875 301.464844 272.039062 301.074219 271.625 C 300.902344 271.363281 300.722656 271.105469 300.5625 270.835938 C 300.429688 270.605469 300.296875 270.367188 300.179688 270.128906 C 300.160156 270.085938 300.132812 270.019531 300.109375 269.960938 C 299.917969 269.390625 299.757812 268.832031 299.625 268.246094 C 299.621094 268.222656 299.621094 268.222656 299.617188 268.207031 C 299.617188 268.164062 299.621094 268.140625 299.621094 268.078125 C 299.617188 267.75 299.597656 267.4375 299.605469 267.109375 C 299.613281 267.007812 299.617188 266.894531 299.625 266.789062 C 299.640625 266.613281 299.640625 266.585938 299.640625 266.554688 C 299.691406 266.300781 299.753906 266.023438 299.761719 266 C 299.792969 265.878906 299.832031 265.761719 299.863281 265.644531 C 300.800781 266.15625 301.835938 266.492188 303.035156 266.5 C 303.789062 266.507812 304.550781 265.949219 304.730469 265.207031 C 305.199219 263.304688 304.738281 261.597656 303.96875 259.972656 C 304.242188 259.59375 304.5 259.195312 304.761719 258.808594 C 304.765625 258.804688 304.773438 258.792969 304.777344 258.789062 C 305.140625 258.683594 305.476562 258.617188 305.703125 258.59375 Z M 311.347656 273.226562 C 311.300781 273.253906 311.296875 273.257812 311.347656 273.226562 Z M 301.097656 271.640625 C 301.09375 271.632812 301.089844 271.628906 301.085938 271.621094 C 301.53125 272.09375 301.222656 271.832031 301.097656 271.640625 Z M 300.03125 269.730469 C 300.007812 269.65625 300 269.640625 300.03125 269.730469 Z M 299.621094 266.660156 C 299.605469 266.742188 299.601562 266.765625 299.582031 266.929688 C 299.570312 266.925781 299.589844 266.804688 299.621094 266.660156 Z M 252.875 241.898438 C 254.675781 238.105469 258.003906 234.367188 262.332031 233.617188 C 264.070312 233.3125 265.734375 233.578125 267.121094 234.679688 C 267.753906 235.179688 268.242188 235.800781 268.574219 236.5 C 268.796875 236.96875 268.976562 237.777344 268.941406 238.007812 C 268.84375 238.640625 268.859375 239.25 268.949219 239.832031 C 264.714844 240.382812 260.476562 240.921875 256.242188 241.511719 C 255.105469 241.671875 253.972656 241.839844 252.835938 242 C 252.851562 241.964844 252.859375 241.933594 252.875 241.898438 Z M 265.050781 264.800781 C 265.058594 264.832031 265.054688 264.828125 265.082031 264.894531 C 265.164062 265.136719 265.222656 265.378906 265.277344 265.625 C 265.347656 265.921875 265.40625 266.226562 265.449219 266.53125 C 265.453125 266.589844 265.453125 266.617188 265.460938 266.714844 C 265.488281 267.226562 265.503906 267.730469 265.480469 268.238281 C 265.46875 268.492188 265.441406 268.746094 265.421875 269.003906 C 265.476562 268.21875 265.347656 269.378906 265.332031 269.457031 C 265.152344 270.398438 264.980469 271.339844 264.675781 272.242188 C 264.640625 272.339844 264.605469 272.4375 264.570312 272.535156 C 264.53125 272.617188 264.4375 272.859375 264.382812 272.96875 C 264.152344 273.425781 263.90625 273.863281 263.628906 274.289062 C 263.628906 274.292969 263.457031 274.53125 263.34375 274.695312 C 263.273438 274.785156 263.191406 274.886719 263.164062 274.921875 C 262.871094 275.253906 262.566406 275.566406 262.234375 275.863281 C 262.144531 275.949219 261.945312 276.089844 261.871094 276.152344 C 261.796875 276.195312 261.730469 276.246094 261.65625 276.292969 C 261.472656 276.40625 261.28125 276.503906 261.097656 276.613281 C 261.011719 276.667969 261.027344 276.667969 260.996094 276.695312 C 260.960938 276.703125 260.980469 276.695312 260.929688 276.707031 C 260.867188 276.722656 260.242188 276.917969 259.90625 277 C 260.144531 276.988281 260.386719 276.996094 259.90625 277 C 259.785156 277.03125 259.691406 277.046875 259.691406 277.035156 C 259.6875 277.019531 259.789062 277.007812 259.90625 277 C 259.871094 277 259.878906 277 259.839844 277 C 259.625 277 259.398438 277.007812 259.183594 277.011719 C 259.105469 277.015625 259.113281 277.011719 259.0625 277.015625 C 258.914062 276.984375 258.757812 276.953125 258.722656 276.941406 C 258.515625 276.890625 258.316406 276.816406 258.109375 276.765625 C 258.042969 276.75 258.0625 276.761719 258.023438 276.753906 C 257.988281 276.726562 258.007812 276.730469 257.941406 276.695312 C 257.566406 276.480469 257.207031 276.261719 256.847656 276.027344 C 257.6875 276.570312 256.53125 275.722656 256.339844 275.527344 C 256.1875 275.371094 256.054688 275.195312 255.898438 275.046875 C 255.617188 274.613281 255.328125 274.1875 255.09375 273.722656 C 255.074219 273.675781 255.027344 273.570312 254.980469 273.472656 C 254.917969 273.277344 254.808594 272.964844 254.789062 272.902344 C 254.730469 272.691406 254.675781 272.480469 254.628906 272.269531 C 254.601562 272.140625 254.578125 272.007812 254.566406 271.90625 C 254.515625 271.3125 254.496094 270.714844 254.523438 270.117188 C 254.90625 270.277344 255.273438 270.484375 255.675781 270.578125 C 258.554688 271.257812 261.640625 268.003906 259.773438 265.25 C 258.894531 263.949219 257.71875 262.90625 256.601562 261.804688 C 256.582031 261.640625 256.585938 261.476562 256.53125 261.308594 C 256.484375 261.203125 256.4375 261.09375 256.394531 260.988281 C 256.535156 260.921875 256.664062 260.835938 256.808594 260.777344 C 258.246094 260.195312 260.101562 260.285156 261.386719 260.890625 C 263.101562 261.699219 264.207031 263.09375 264.992188 264.667969 C 265.027344 264.769531 265.035156 264.78125 265.050781 264.800781 Z M 265.441406 266.464844 C 265.429688 266.324219 265.425781 266.207031 265.441406 266.464844 Z M 259.332031 277.078125 C 259.332031 277.078125 259.207031 277.050781 259.070312 277.027344 C 259.203125 277.03125 259.328125 277.039062 259.332031 277.078125 Z M 258.980469 277.023438 C 258.800781 277.023438 258.835938 277.023438 258.980469 277.023438 Z M 238.113281 252.347656 C 239.769531 252.132812 241.421875 251.886719 243.078125 251.65625 C 243.246094 253.5 243.546875 255.332031 244.148438 257.097656 C 244.960938 259.488281 246.152344 261.640625 247.582031 263.675781 C 247.136719 264.789062 246.753906 265.941406 246.535156 267.070312 C 245.859375 270.539062 246.070312 273.96875 247.503906 277.214844 C 250 282.871094 256.371094 286.714844 262.539062 284.992188 C 268.566406 283.304688 272.882812 277.027344 273.296875 270.921875 C 273.515625 267.714844 272.640625 264.527344 271.175781 261.707031 C 269.695312 258.863281 267.253906 256.90625 264.253906 255.851562 C 261.132812 254.75 257.757812 255.171875 255.164062 257.242188 C 254.71875 257.601562 254.328125 258.027344 253.960938 258.46875 C 253.207031 257.246094 252.535156 255.960938 252.101562 254.613281 C 251.667969 253.277344 251.460938 251.894531 251.355469 250.503906 C 252.035156 250.40625 252.707031 250.3125 253.386719 250.222656 C 264.5 248.648438 275.640625 247.25 286.796875 246.015625 C 287.285156 245.960938 287.773438 245.925781 288.261719 245.871094 C 288.652344 247.902344 289.171875 249.90625 289.957031 251.765625 C 291.015625 254.296875 292.351562 256.644531 293.851562 258.914062 C 292.328125 261.328125 291.382812 264.003906 291.25 266.933594 C 290.929688 274.03125 296.257812 280.566406 302.945312 282.484375 C 309.679688 284.417969 317.324219 281.035156 320.71875 274.949219 C 324.074219 268.933594 322.859375 260.992188 317.488281 256.535156 C 314.699219 254.21875 311.28125 252.640625 307.582031 252.914062 C 306.375 253.003906 305.191406 253.304688 304.054688 253.714844 C 302.777344 253.453125 301.472656 253.414062 300.1875 253.644531 C 299.21875 252.03125 298.304688 250.394531 297.605469 248.675781 C 297.125 247.496094 296.753906 246.289062 296.472656 245.074219 C 309.332031 243.757812 322.214844 242.664062 335.109375 241.773438 C 335.238281 242.734375 335.347656 243.691406 335.574219 244.625 C 336.140625 246.976562 337.070312 249.242188 338.09375 251.457031 C 336.089844 253.632812 334.554688 256.582031 333.984375 259.441406 C 332.648438 266.164062 335.773438 273.5625 342.097656 276.636719 C 348.820312 279.898438 356.675781 277.007812 360.382812 270.65625 C 364.136719 264.222656 362.082031 255.804688 356.675781 250.980469 C 354.355469 248.910156 351.285156 247.375 348.148438 247.691406 C 348.109375 247.679688 348.078125 247.640625 348.03125 247.628906 C 347.148438 247.433594 346.261719 247.507812 345.382812 247.65625 C 344.828125 246.351562 344.339844 245.023438 343.957031 243.648438 C 343.738281 242.855469 343.566406 242.03125 343.417969 241.199219 C 346.300781 241.015625 349.175781 240.761719 352.058594 240.605469 C 361.582031 240.085938 371.109375 239.734375 380.636719 239.453125 C 380.652344 240.269531 380.652344 241.105469 380.734375 241.882812 C 380.960938 244.101562 381.421875 246.296875 382.042969 248.441406 C 380.832031 249.316406 379.839844 250.613281 379.074219 251.839844 C 377.570312 254.25 376.71875 257.265625 376.828125 260.113281 C 377.0625 266.398438 381.578125 271.671875 387.59375 273.320312 C 393.800781 275.019531 400.222656 272.265625 403.457031 266.742188 C 405.109375 263.914062 405.734375 260.789062 405.210938 257.566406 C 404.800781 255.046875 403.136719 252.308594 401.207031 250.632812 C 398.933594 248.664062 396.167969 247.441406 393.179688 247.121094 C 392.046875 246.996094 391.164062 247.136719 390.210938 247.394531 C 389.566406 245.3125 389.105469 243.1875 388.992188 241.003906 C 388.964844 240.417969 388.992188 239.824219 388.992188 239.234375 C 394.851562 239.105469 400.707031 239.070312 406.566406 239.027344 C 407.753906 239.570312 409.148438 239.636719 410.21875 238.984375 C 415.503906 238.964844 420.789062 238.992188 426.074219 239.046875 C 426.070312 241.402344 426.195312 243.753906 426.546875 246.097656 C 426.601562 246.464844 426.675781 246.835938 426.734375 247.207031 C 426.191406 247.578125 425.679688 247.976562 425.253906 248.410156 C 423.097656 250.609375 421.65625 253.484375 421.25 256.535156 C 420.351562 263.226562 424.566406 268.890625 430.609375 271.332031 C 436.355469 273.65625 443.1875 271.726562 447.058594 266.941406 C 449.21875 264.28125 450.507812 261.308594 450.910156 257.902344 C 451.300781 254.679688 450.238281 251.476562 448.386719 248.847656 C 446.234375 245.789062 443 243.828125 439.203125 243.738281 C 437.671875 243.703125 436.113281 244.054688 434.707031 244.691406 C 434.464844 242.867188 434.339844 241.03125 434.359375 239.1875 C 445.75 239.382812 457.132812 239.75 468.507812 240.28125 C 468.484375 240.652344 468.429688 241.03125 468.417969 241.398438 C 468.359375 242.882812 468.410156 244.367188 468.53125 245.84375 C 465.324219 247.226562 462.464844 249.386719 460.792969 252.527344 C 457.652344 258.410156 458.4375 266.394531 463.546875 270.964844 C 468.417969 275.320312 476.039062 276.480469 481.730469 272.96875 C 487.148438 269.628906 490.417969 262.261719 488.476562 256.023438 C 487.914062 254.230469 486.847656 252.320312 485.390625 251.109375 C 485.082031 250.855469 484.753906 250.613281 484.441406 250.371094 C 485.058594 250.847656 484.121094 250.121094 483.996094 250.027344 C 483.726562 249.824219 483.457031 249.625 483.175781 249.441406 C 482.429688 248.960938 481.617188 248.605469 480.789062 248.289062 C 480.265625 248.09375 479.667969 247.898438 479.042969 247.726562 C 478.902344 247.46875 478.707031 247.242188 478.46875 247.089844 C 478.097656 246.855469 477.769531 246.574219 477.417969 246.273438 C 477.210938 246.09375 477.003906 245.921875 476.792969 245.757812 C 476.722656 244.5 476.703125 243.238281 476.734375 241.980469 C 476.75 241.542969 476.792969 241.097656 476.820312 240.652344 C 478.867188 240.761719 480.925781 240.804688 482.972656 240.929688 C 490.992188 241.40625 499.003906 242.003906 507.011719 242.648438 C 506.996094 242.726562 506.984375 242.804688 506.976562 242.882812 C 506.585938 245.902344 506.503906 248.949219 506.804688 251.976562 C 506.769531 252 506.726562 252 506.695312 252.019531 C 506.335938 252.222656 505.964844 252.449219 505.605469 252.691406 C 505.425781 252.714844 505.234375 252.683594 505.058594 252.738281 C 504.839844 252.804688 504.632812 252.910156 504.421875 253.003906 C 504.472656 252.976562 504.488281 252.964844 504.34375 253.011719 C 503.824219 253.171875 503.296875 253.394531 502.828125 253.667969 C 501.46875 254.472656 500.230469 255.820312 499.40625 257.15625 C 498.429688 258.746094 497.980469 260.394531 497.792969 262.226562 C 497.15625 268.546875 501.757812 274.464844 507.796875 276.003906 C 513.492188 277.453125 520.382812 274.734375 522.84375 269.191406 C 524.078125 266.414062 524.730469 262.914062 523.46875 260.019531 C 523.46875 260.019531 523.472656 260.027344 523.472656 260.03125 C 523.496094 260.015625 523.378906 259.699219 523.363281 259.664062 C 523.289062 259.421875 523.203125 259.179688 523.109375 258.945312 C 522.816406 258.203125 522.503906 257.457031 522.101562 256.765625 C 521.429688 255.625 520.5625 254.703125 519.550781 253.867188 C 518.160156 252.710938 516.640625 251.851562 514.996094 251.332031 C 514.894531 249.632812 514.847656 247.929688 514.949219 246.230469 C 515.003906 245.28125 515.109375 244.3125 515.238281 243.339844 C 527.183594 244.394531 539.105469 245.636719 551.007812 247.050781 C 546.902344 262.296875 542.796875 277.546875 538.6875 292.789062 C 457.632812 291.523438 376.539062 293.191406 295.613281 297.898438 C 284.121094 298.570312 272.636719 299.347656 261.152344 300.191406 C 251.585938 300.890625 241.355469 301.054688 231.878906 303.277344 C 231.597656 300.660156 231.046875 298.078125 230.832031 296.363281 C 230.058594 290.207031 229.28125 284.050781 228.507812 277.898438 C 227.730469 271.746094 226.953125 265.59375 226.179688 259.4375 C 225.925781 257.414062 225.445312 255.03125 225.644531 252.863281 C 229.792969 253.75 233.679688 252.921875 238.113281 252.347656 Z M 394.828125 253.234375 C 394.859375 253.261719 394.847656 253.257812 394.910156 253.320312 C 395.144531 253.539062 395.390625 253.75 395.617188 253.980469 C 395.75 254.113281 396.535156 255.09375 396.070312 254.445312 C 396.347656 254.832031 396.625 255.226562 396.859375 255.640625 C 396.941406 255.78125 397.015625 255.921875 397.09375 256.066406 C 397.125 256.136719 397.164062 256.210938 397.203125 256.285156 C 397.214844 256.308594 397.207031 256.292969 397.214844 256.316406 C 397.246094 256.40625 397.273438 256.507812 397.304688 256.605469 C 397.3125 256.671875 397.316406 256.734375 397.324219 256.804688 C 397.351562 256.984375 397.375 257.164062 397.394531 257.347656 C 397.390625 257.339844 397.394531 257.390625 397.414062 257.574219 C 397.417969 257.835938 397.4375 258.09375 397.433594 258.355469 C 397.433594 258.542969 397.421875 258.734375 397.410156 258.921875 C 397.425781 258.898438 397.429688 258.859375 397.449219 258.84375 C 397.433594 258.855469 397.421875 258.910156 397.410156 258.941406 C 397.40625 259.007812 397.398438 259.070312 397.398438 259.136719 C 397.386719 259.542969 397.3125 259.316406 397.339844 259.085938 C 397.242188 259.472656 397.210938 260.171875 397.160156 260.386719 C 397.113281 260.585938 396.734375 261.535156 396.699219 261.792969 C 396.6875 261.816406 396.679688 261.839844 396.667969 261.863281 C 396.566406 262.058594 396.460938 262.253906 396.351562 262.441406 C 396.242188 262.632812 396.125 262.816406 396 263.003906 C 395.980469 263.03125 395.960938 263.066406 395.9375 263.09375 C 395.753906 263.289062 395.222656 263.890625 395.132812 263.976562 C 395.09375 264.007812 394.804688 264.253906 394.660156 264.390625 C 394.550781 264.464844 394.4375 264.539062 394.324219 264.613281 C 394.164062 264.710938 393.511719 264.96875 393.269531 265.144531 C 393.242188 265.152344 393.210938 265.164062 393.183594 265.171875 C 392.933594 265.25 392.683594 265.316406 392.433594 265.371094 C 392.359375 265.386719 392.21875 265.40625 392.09375 265.429688 C 392.070312 265.429688 392.042969 265.433594 392.019531 265.4375 C 391.652344 265.460938 390.925781 265.300781 390.5625 265.398438 C 390.3125 265.351562 390.058594 265.289062 389.816406 265.222656 C 389.550781 265.152344 389.101562 264.917969 388.769531 264.855469 C 388.726562 264.835938 388.683594 264.820312 388.648438 264.796875 C 388.414062 264.679688 388.191406 264.554688 387.96875 264.417969 C 387.820312 264.328125 387.675781 264.234375 387.53125 264.140625 C 387.472656 264.101562 387.417969 264.058594 387.363281 264.023438 C 387.355469 264.015625 387.363281 264.023438 387.351562 264.015625 C 387.03125 263.707031 386.71875 263.398438 386.40625 263.082031 C 386.410156 263.113281 386.429688 263.132812 386.429688 263.167969 C 386.429688 263.140625 386.375 263.074219 386.347656 263.023438 C 386.34375 263.019531 386.34375 263.019531 386.339844 263.015625 C 386.148438 262.824219 386.144531 262.765625 386.179688 262.757812 C 386.101562 262.664062 386.023438 262.5625 385.996094 262.523438 C 385.875 262.324219 385.769531 262.113281 385.65625 261.910156 C 385.589844 261.726562 385.496094 261.519531 385.460938 261.410156 C 385.378906 261.136719 385.320312 260.851562 385.253906 260.574219 C 385.273438 260.3125 385.199219 259.929688 385.199219 259.726562 C 385.199219 259.472656 385.222656 259.21875 385.230469 258.964844 C 385.351562 258.394531 385.472656 257.839844 385.667969 257.292969 C 385.710938 257.175781 385.914062 256.378906 385.742188 257.070312 C 385.574219 257.738281 385.890625 256.804688 385.984375 256.636719 C 386.0625 256.484375 386.15625 256.339844 386.246094 256.195312 C 386.445312 256.363281 386.636719 256.546875 386.847656 256.667969 C 387.609375 257.117188 388.511719 257.070312 389.339844 257.320312 C 390.441406 257.660156 391.320312 256.757812 391.417969 255.738281 C 391.5 254.863281 391.949219 254.25 391.855469 253.308594 C 391.804688 252.777344 391.6875 252.191406 391.5625 251.640625 C 391.566406 251.640625 391.578125 251.644531 391.582031 251.644531 C 392.625 251.984375 392.71875 251.984375 393.675781 252.519531 C 394.035156 252.71875 394.371094 252.949219 394.710938 253.171875 C 394.800781 253.226562 394.796875 253.21875 394.828125 253.234375 Z M 397.144531 256.125 C 397.15625 256.132812 397.171875 256.183594 397.199219 256.246094 C 397.171875 256.195312 397.171875 256.199219 397.144531 256.125 Z M 480.03125 256.328125 C 480.046875 256.359375 480.039062 256.34375 480.050781 256.375 C 480.097656 256.503906 480.148438 256.640625 480.191406 256.769531 C 480.34375 257.242188 480.453125 257.71875 480.558594 258.203125 C 480.574219 258.273438 480.644531 258.519531 480.695312 258.738281 C 480.695312 258.765625 480.691406 258.757812 480.695312 258.804688 C 480.714844 259.382812 480.71875 259.941406 480.695312 260.519531 C 480.691406 260.683594 480.691406 260.730469 480.691406 260.769531 C 480.625 261.03125 480.53125 261.308594 480.507812 261.402344 C 480.410156 261.773438 480.1875 262.214844 480.101562 262.605469 C 480.070312 262.679688 480.035156 262.75 479.996094 262.820312 C 479.867188 263.078125 479.722656 263.328125 479.574219 263.570312 C 479.476562 263.734375 479.363281 263.890625 479.265625 264.054688 C 479.234375 264.105469 479.25 264.085938 479.230469 264.121094 C 479.222656 264.128906 479.230469 264.121094 479.222656 264.128906 C 478.828125 264.554688 478.433594 264.949219 478.015625 265.351562 C 477.992188 265.375 478.007812 265.363281 477.988281 265.382812 C 477.96875 265.394531 477.984375 265.382812 477.960938 265.394531 C 477.800781 265.5 477.644531 265.609375 477.480469 265.710938 C 477.238281 265.863281 476.976562 265.984375 476.726562 266.132812 C 476.703125 266.144531 476.703125 266.152344 476.679688 266.164062 C 476.675781 266.164062 476.675781 266.164062 476.671875 266.164062 C 476.21875 266.316406 475.765625 266.457031 475.296875 266.554688 C 475.230469 266.566406 475.164062 266.582031 475.097656 266.597656 C 474.871094 266.601562 474.617188 266.636719 474.425781 266.640625 C 474.140625 266.648438 473.851562 266.644531 473.566406 266.628906 C 473.46875 266.625 473.375 266.617188 473.28125 266.613281 C 472.8125 266.566406 472.898438 266.585938 473.535156 266.667969 C 473.300781 266.804688 472.378906 266.441406 472.128906 266.375 C 471.851562 266.296875 471.582031 266.195312 471.308594 266.113281 C 471.273438 266.101562 471.285156 266.117188 471.257812 266.113281 C 470.785156 265.960938 470.214844 265.554688 469.871094 265.328125 C 469.8125 265.289062 469.753906 265.265625 469.699219 265.238281 C 469.539062 265.109375 469.378906 264.945312 469.257812 264.832031 C 469.085938 264.667969 468.917969 264.5 468.757812 264.320312 C 468.71875 264.28125 468.664062 264.234375 468.613281 264.191406 C 468.359375 263.878906 468.148438 263.460938 467.96875 263.136719 C 467.925781 263.046875 467.882812 262.960938 467.835938 262.871094 C 467.640625 262.453125 467.664062 262.511719 467.894531 263.058594 C 467.6875 262.808594 467.605469 262.234375 467.519531 261.929688 C 467.46875 261.738281 467.421875 261.542969 467.375 261.347656 C 467.355469 261.25 467.339844 261.152344 467.316406 261.054688 C 467.242188 260.585938 467.246094 260.664062 467.332031 261.28125 C 467.144531 261.003906 467.261719 260.140625 467.265625 259.792969 C 467.269531 259.496094 467.300781 259.203125 467.316406 258.90625 C 467.324219 258.875 467.328125 258.863281 467.34375 258.828125 C 467.492188 258.257812 467.640625 257.691406 467.820312 257.128906 C 467.988281 256.832031 468.125 256.519531 468.308594 256.226562 C 468.417969 256.039062 468.570312 255.753906 468.734375 255.574219 C 468.800781 255.519531 468.867188 255.460938 468.914062 255.414062 C 469.136719 255.175781 469.382812 254.964844 469.609375 254.738281 C 469.683594 254.660156 469.671875 254.664062 469.699219 254.632812 C 469.75 254.605469 469.769531 254.597656 469.90625 254.507812 C 470 254.4375 470.136719 254.347656 470.253906 254.265625 C 470.292969 254.363281 470.316406 254.464844 470.355469 254.558594 C 470.65625 255.265625 471.019531 255.839844 471.480469 256.453125 C 471.703125 256.753906 471.921875 257.03125 472.191406 257.289062 C 472.605469 257.6875 473.398438 257.972656 473.730469 258.375 C 474.800781 259.683594 476.976562 258.574219 476.964844 257.035156 C 476.957031 256.554688 477.453125 255.789062 477.53125 255.230469 C 477.632812 254.523438 477.679688 253.804688 477.632812 253.089844 C 477.621094 252.886719 477.585938 252.683594 477.566406 252.480469 C 477.875 252.777344 478.171875 253.085938 478.445312 253.414062 C 478.421875 253.386719 478.644531 253.667969 478.753906 253.804688 C 478.851562 253.941406 479.046875 254.210938 479.023438 254.1875 C 479.183594 254.429688 479.324219 254.6875 479.476562 254.9375 C 479.496094 254.964844 479.488281 254.953125 479.503906 254.980469 C 479.507812 255 479.496094 254.972656 479.503906 255.007812 C 479.628906 255.445312 479.859375 255.949219 480.03125 256.328125 Z M 480.746094 260.28125 C 480.789062 260.339844 480.757812 260.511719 480.714844 260.703125 C 480.726562 260.539062 480.742188 260.277344 480.746094 260.28125 Z M 516.539062 260.621094 C 516.589844 260.78125 516.636719 260.945312 516.675781 261.109375 C 516.691406 261.15625 516.699219 261.203125 516.710938 261.25 C 516.613281 261.417969 516.699219 262.367188 516.699219 262.453125 C 516.699219 262.625 516.695312 262.792969 516.679688 262.964844 C 516.675781 263.003906 516.675781 263.035156 516.671875 263.074219 C 516.507812 263.492188 516.449219 264.023438 516.320312 264.449219 C 516.316406 264.460938 516.316406 264.457031 516.316406 264.464844 C 516.214844 264.65625 516.078125 264.890625 516.054688 264.933594 C 515.964844 265.085938 515.859375 265.222656 515.773438 265.375 C 515.753906 265.414062 515.769531 265.390625 515.753906 265.421875 C 515.488281 265.75 515.230469 266.078125 514.9375 266.382812 C 514.785156 266.539062 514.628906 266.691406 514.46875 266.835938 C 514.402344 266.902344 514.335938 266.960938 514.261719 267.019531 C 514 267.1875 513.332031 267.597656 513.273438 267.625 C 513.117188 267.710938 512.429688 267.890625 513.058594 267.75 C 513.730469 267.605469 512.9375 267.785156 512.820312 267.824219 C 512.636719 267.882812 511.851562 267.988281 511.628906 268.109375 C 511.625 268.109375 511.621094 268.109375 511.621094 268.109375 C 511.359375 268.121094 511.097656 268.121094 510.835938 268.113281 C 510.777344 268.109375 510.582031 268.085938 510.445312 268.070312 C 510.425781 268.066406 510.398438 268.0625 510.390625 268.058594 C 509.980469 267.972656 509.589844 267.839844 509.191406 267.707031 C 509.179688 267.703125 509.179688 267.695312 509.171875 267.691406 C 509.019531 267.605469 508.859375 267.53125 508.707031 267.445312 C 508.480469 267.3125 508.265625 267.160156 508.042969 267.027344 C 508.035156 267.023438 508.042969 267.027344 508.035156 267.023438 C 507.722656 266.730469 507.40625 266.449219 507.125 266.132812 C 507.101562 266.113281 507.082031 266.085938 507.066406 266.0625 C 506.984375 265.933594 506.824219 265.703125 506.839844 265.730469 C 506.703125 265.503906 506.589844 265.273438 506.457031 265.042969 C 506.433594 264.996094 506.4375 265.003906 506.414062 264.96875 C 506.351562 264.757812 506.296875 264.519531 506.273438 264.433594 C 506.226562 264.261719 506.191406 263.964844 506.128906 263.742188 C 506.125 263.675781 506.117188 263.605469 506.113281 263.539062 C 506.101562 263.246094 506.101562 262.957031 506.117188 262.664062 C 506.121094 262.570312 506.128906 262.472656 506.136719 262.375 C 506.183594 261.90625 506.171875 261.988281 506.101562 262.617188 C 506.027344 262.488281 506.21875 261.886719 506.238281 261.75 C 506.339844 261.175781 506.492188 260.621094 506.691406 260.074219 C 506.71875 259.988281 507.128906 259.21875 506.8125 259.753906 C 506.496094 260.289062 507.050781 259.339844 507.105469 259.242188 C 507.351562 258.832031 507.625 258.4375 507.855469 258.019531 C 508.46875 259.699219 509.484375 261.136719 511.34375 261.960938 C 512.464844 262.457031 513.609375 262.253906 514.316406 261.183594 C 514.960938 260.199219 515.222656 259.265625 515.351562 258.316406 C 515.421875 258.429688 515.5 258.542969 515.570312 258.660156 C 515.78125 259.027344 515.992188 259.394531 516.1875 259.769531 C 516.269531 259.921875 516.335938 260.078125 516.414062 260.230469 C 516.027344 259.457031 516.484375 260.4375 516.539062 260.621094 Z M 212.683594 274.46875 C 211.527344 269.289062 210.5625 263.03125 212.871094 258.03125 C 213.75 256.132812 215.085938 254.429688 216.648438 253.054688 C 216.882812 252.847656 217.113281 252.667969 217.34375 252.484375 C 217.199219 255.238281 217.609375 257.976562 217.96875 260.71875 C 218.460938 264.535156 218.957031 268.359375 219.449219 272.175781 C 220.386719 279.390625 221.316406 286.605469 222.253906 293.820312 C 222.648438 296.863281 223.011719 299.921875 223.492188 302.957031 C 223.488281 302.957031 223.488281 302.957031 223.484375 302.960938 C 222.640625 303.382812 221.925781 304.097656 221.585938 305.152344 C 221.585938 305.160156 221.585938 305.167969 221.582031 305.171875 C 220.945312 305.445312 220.316406 305.730469 219.691406 306.015625 C 217.375 295.496094 215.023438 284.984375 212.683594 274.46875 Z M 210.492188 389.792969 C 212.382812 376.648438 214.25 363.5 216.039062 350.34375 C 216.933594 343.78125 217.828125 337.226562 218.25 330.617188 C 218.558594 325.808594 219.472656 320.425781 219.042969 315.441406 C 219.660156 315.207031 220.273438 314.96875 220.910156 314.734375 C 220.070312 331.839844 219.941406 349.027344 219.902344 366.171875 C 219.902344 366.183594 219.902344 366.175781 219.902344 366.183594 C 219.878906 366.117188 219.765625 366.101562 219.753906 366.179688 C 217.25 384.496094 213.730469 402.609375 211.511719 420.992188 C 210.386719 430.285156 209.335938 439.589844 208.285156 448.902344 C 207.449219 456.316406 205.671875 464.464844 205.523438 472.1875 C 203.4375 470.679688 201.355469 469.175781 199.269531 467.664062 C 203.023438 441.707031 206.753906 415.746094 210.492188 389.792969 Z M 210.492188 389.792969 " fill-opacity="1" fill-rule="nonzero"/><path fill="#e2fb6c" d="M 319.890625 381.902344 C 316.875 380.800781 313.816406 380.808594 310.835938 381.429688 C 311.414062 381.207031 311.992188 381 312.570312 380.832031 C 312.691406 380.800781 312.671875 380.601562 312.539062 380.605469 C 309.363281 380.726562 306.535156 380.824219 303.519531 381.941406 C 300.671875 382.996094 297.957031 384.429688 295.503906 386.210938 C 290.480469 389.855469 286.410156 395.144531 284.113281 400.902344 C 283.929688 401.351562 283.789062 401.824219 283.632812 402.292969 C 283.496094 402.582031 283.335938 402.851562 283.214844 403.148438 C 281.992188 406.121094 281.707031 409.804688 282.617188 412.984375 C 283.046875 415.382812 283.984375 417.671875 285.570312 419.679688 C 289.339844 424.460938 295.835938 426.351562 301.726562 425.632812 C 308.460938 424.816406 314.273438 420.773438 318.890625 416.007812 C 323.789062 410.957031 328.394531 404.804688 329.09375 397.589844 C 329.746094 390.84375 326.394531 384.289062 319.890625 381.902344 Z M 316.171875 410.917969 C 312.703125 414.898438 308.523438 418.648438 303.347656 420.164062 C 299.09375 421.410156 293.949219 420.902344 290.445312 417.988281 C 290.390625 417.910156 290.398438 417.816406 290.316406 417.75 C 289.789062 417.304688 289.296875 416.832031 288.832031 416.332031 C 286.109375 412.671875 286.347656 407.550781 287.695312 403.289062 C 288.691406 400.121094 290.371094 397.28125 292.394531 394.699219 C 294.195312 393.417969 296.164062 392.320312 298.125 391.339844 C 303.257812 388.765625 309.121094 385.726562 315.050781 386.480469 C 320.335938 387.152344 323.558594 391.078125 323.480469 396.34375 C 323.398438 401.890625 319.675781 406.898438 316.171875 410.917969 Z M 316.171875 410.917969 " fill-opacity="1" fill-rule="nonzero"/></svg>