<svg xmlns="http://www.w3.org/2000/svg" xmlns:xlink="http://www.w3.org/1999/xlink" width="1024" zoomAndPan="magnify" viewBox="0 0 768 767.999994" height="1024" preserveAspectRatio="xMidYMid meet" version="1.0"><defs><clipPath id="cc56b63c7a"><path d="M 190 274.0625 L 577 274.0625 L 577 493.8125 L 190 493.8125 Z M 190 274.0625 " clip-rule="nonzero"/></clipPath></defs><path fill="#e2fb6c" d="M 492.535156 392.605469 C 487.652344 393.847656 483.097656 395.523438 478.597656 397.800781 C 476.46875 398.875 474.359375 400.09375 472.417969 401.476562 C 471.074219 402.4375 469.332031 403.445312 468.125 404.75 C 465.355469 405.273438 462.59375 405.828125 459.804688 406.246094 C 453.054688 407.265625 446.21875 407.773438 439.398438 408.027344 C 432.789062 408.269531 426.179688 408.136719 419.601562 407.441406 C 412.71875 406.707031 405.621094 406.105469 398.820312 404.839844 C 398.777344 404.832031 398.765625 404.886719 398.800781 404.902344 C 405.539062 407.546875 411.953125 409.886719 419.105469 411.097656 C 425.8125 412.230469 432.597656 413.035156 439.398438 413.300781 C 446.496094 413.578125 453.566406 413.109375 460.601562 412.160156 C 463.679688 411.742188 466.757812 411.273438 469.789062 410.609375 C 472.597656 409.992188 475.804688 409.585938 477.261719 406.882812 C 477.496094 406.441406 477.503906 405.972656 477.351562 405.554688 C 478.710938 405.046875 480.058594 404.503906 481.386719 403.925781 C 485.992188 401.917969 490.105469 399.351562 494.101562 396.320312 C 495.84375 394.996094 494.921875 392 492.535156 392.605469 Z M 492.535156 392.605469 " fill-opacity="1" fill-rule="nonzero"/><path fill="#e2fb6c" d="M 461.980469 308.550781 C 468.480469 309.855469 475.125 309.691406 481.253906 307.015625 C 483.164062 306.183594 482.074219 303.316406 480.242188 303.289062 C 474.40625 303.207031 468.558594 303.46875 462.738281 302.945312 C 457.058594 302.433594 451.199219 301.054688 445.792969 299.242188 C 445.03125 298.984375 444.3125 300.125 444.972656 300.652344 C 450.035156 304.699219 455.621094 307.273438 461.980469 308.550781 Z M 461.980469 308.550781 " fill-opacity="1" fill-rule="nonzero"/><g clip-path="url(#cc56b63c7a)"><path fill="#e2fb6c" d="M 191.957031 303.917969 C 191.128906 305.828125 191.433594 308.230469 191.933594 310.304688 C 192.710938 313.546875 193.722656 316.714844 194.902344 319.835938 C 197.214844 325.957031 199.945312 331.949219 202.996094 337.738281 C 203.058594 337.851562 203.128906 337.980469 203.191406 338.097656 C 202.726562 338.660156 202.554688 339.492188 202.917969 340.324219 C 203.277344 341.148438 203.257812 342.253906 203.542969 343.128906 C 203.949219 344.375 204.796875 345.484375 205.683594 346.417969 C 207.261719 348.078125 209.066406 349.589844 210.804688 351.082031 C 214.570312 354.324219 218.53125 357.359375 222.640625 360.160156 C 224.972656 361.746094 227.371094 363.230469 229.800781 364.65625 C 227.925781 365.339844 226.054688 366.019531 224.179688 366.707031 C 221.859375 367.550781 219.550781 368.414062 217.242188 369.296875 C 214.683594 370.277344 211.59375 371.046875 209.535156 372.894531 C 207.710938 374.53125 208.363281 377.082031 210.035156 378.355469 C 209.464844 385.117188 209.535156 391.894531 210.339844 398.636719 C 210.742188 402.058594 211.273438 405.460938 211.980469 408.832031 C 212.289062 410.300781 212.683594 412.382812 213.496094 414.101562 C 213.453125 414.480469 213.507812 414.863281 213.808594 415.121094 C 214.035156 415.316406 214.28125 415.492188 214.515625 415.679688 C 214.894531 416.132812 215.34375 416.484375 215.859375 416.742188 C 222.820312 422.023438 231.617188 425.476562 239.566406 428.734375 C 248.832031 432.53125 258.25 435.941406 267.699219 439.25 C 287.238281 446.085938 307.003906 452.242188 326.816406 458.234375 C 347.21875 464.402344 367.65625 470.453125 388.078125 476.554688 C 398.144531 479.554688 408.207031 482.5625 418.269531 485.566406 C 423.632812 487.167969 429 488.769531 434.371094 490.371094 C 438.953125 491.742188 443.554688 493.914062 448.332031 492.703125 C 448.5625 492.644531 448.695312 492.480469 448.890625 492.375 C 451.683594 493.5 455.585938 492.5625 456.445312 489.371094 C 456.496094 489.1875 456.332031 489.058594 456.164062 489.085938 C 455.738281 489.214844 455.375 489.269531 455.058594 489.273438 C 461.902344 483.175781 468.140625 476.246094 474.757812 469.933594 C 482.207031 462.820312 489.835938 455.894531 497.632812 449.164062 C 505.21875 442.613281 512.960938 436.25 520.84375 430.066406 C 528.714844 423.894531 537.996094 418.519531 543.660156 410.117188 C 544.082031 409.492188 544.007812 408.808594 543.683594 408.257812 C 545.363281 406.3125 546.925781 404.269531 548.351562 402.144531 C 550.976562 398.226562 553.121094 393.917969 554.644531 389.453125 C 555.738281 386.261719 557.238281 381.730469 556.636719 377.992188 C 557.089844 377.742188 557.542969 377.496094 557.992188 377.246094 C 559.550781 376.378906 561.160156 375.507812 562.6875 374.535156 C 563 374.609375 563.320312 374.644531 563.679688 374.683594 C 564.972656 374.8125 566.5625 373.851562 567.128906 372.703125 C 570.421875 366.039062 571.878906 357.910156 573.246094 350.640625 C 574.136719 345.886719 574.753906 341.078125 575.242188 336.257812 C 575.324219 336.070312 575.433594 335.898438 575.5 335.699219 C 575.613281 335.367188 575.546875 334.988281 575.386719 334.664062 C 575.546875 332.894531 575.765625 331.132812 575.871094 329.367188 C 576.308594 322.078125 576.277344 314.765625 575.613281 307.492188 C 575.3125 304.207031 575 300.554688 574.316406 297.011719 C 574.519531 296.746094 574.769531 296.507812 574.957031 296.234375 C 575.632812 295.25 575.675781 294.253906 575.382812 293.371094 C 577.582031 291.847656 576.851562 287.734375 574.140625 287.1875 C 572.945312 286.949219 571.710938 286.867188 570.472656 286.84375 C 570.398438 286.742188 570.347656 286.621094 570.277344 286.519531 C 569.335938 285.199219 567.449219 285.847656 567.097656 286.972656 C 563.945312 287.226562 560.765625 287.765625 557.722656 288.039062 C 551.527344 288.597656 545.3125 289.054688 539.09375 289.402344 C 527.007812 290.074219 514.894531 290.34375 502.792969 290.210938 C 491.027344 290.082031 479.277344 289.558594 467.550781 288.683594 C 459.953125 288.117188 451.714844 286.65625 443.714844 286.433594 C 444.671875 285.777344 445.621094 285.113281 446.417969 284.328125 C 446.546875 284.199219 446.601562 284.042969 446.644531 283.890625 C 448.46875 283.671875 450.089844 283.371094 451.550781 281.972656 C 453.203125 280.386719 452.910156 277.230469 450.800781 276.148438 C 447.570312 274.492188 443 275.949219 439.476562 276.265625 C 435.921875 276.582031 432.351562 276.773438 428.785156 276.871094 C 425.210938 276.96875 421.648438 276.824219 418.074219 276.851562 C 416.886719 276.859375 415.699219 276.960938 414.523438 277.132812 C 408.9375 275.503906 401.5625 278.609375 396.128906 279.878906 C 394.230469 280.324219 392.339844 280.78125 390.441406 281.226562 C 388.375 280.90625 386.304688 280.59375 384.242188 280.25 C 379.121094 279.40625 373.972656 278.8125 368.828125 278.148438 C 363.742188 277.492188 358.667969 276.628906 353.640625 275.613281 C 351.226562 275.125 348.261719 273.972656 345.835938 274.851562 C 344.285156 275.414062 343.179688 276.660156 343.113281 278.203125 C 339.890625 278.539062 336.671875 278.921875 333.449219 279.277344 C 326.523438 280.046875 319.605469 280.820312 312.679688 281.589844 C 299.175781 283.09375 285.671875 284.597656 272.171875 286.097656 C 258.671875 287.605469 245.164062 289.097656 231.664062 290.605469 C 224.738281 291.378906 217.816406 292.183594 210.890625 292.972656 C 205.238281 293.621094 198.996094 293.738281 193.710938 296.015625 C 193.472656 296.078125 193.25 296.164062 193.035156 296.300781 C 192.957031 296.339844 192.867188 296.367188 192.78125 296.40625 C 192.800781 296.417969 192.816406 296.433594 192.832031 296.445312 C 192.046875 297.035156 191.480469 298 191.390625 299.003906 C 190.644531 300.546875 190.730469 302.53125 191.957031 303.917969 Z M 217.058594 345.378906 C 215.480469 344.027344 213.941406 342.632812 212.433594 341.203125 C 212.785156 339.417969 212.039062 337.085938 211.402344 335.722656 C 208.757812 329.984375 205.671875 324.511719 203.324219 318.621094 C 202 315.292969 200.726562 311.945312 199.402344 308.617188 C 199.15625 307.984375 198.871094 307.417969 198.59375 306.839844 C 207.484375 309.9375 216.402344 312.964844 225.304688 316.027344 C 230.476562 317.804688 235.65625 319.550781 240.851562 321.25 C 242.4375 321.773438 244.320312 322.550781 246.148438 322.921875 C 246.230469 325.363281 246.394531 327.730469 246.789062 330.066406 C 244.457031 328.789062 242.105469 327.539062 239.75 326.300781 C 236.695312 324.695312 233.554688 323.226562 230.410156 321.820312 C 228.714844 321.0625 227.03125 320.414062 225.265625 319.863281 C 223.839844 319.421875 222.246094 318.769531 220.757812 319.230469 C 220.261719 319.382812 219.949219 319.894531 220.089844 320.410156 C 220.496094 321.902344 221.832031 322.855469 222.964844 323.820312 C 224.359375 325.007812 225.78125 326.101562 227.3125 327.117188 C 230.179688 329.015625 233.097656 330.875 236.078125 332.582031 C 239.066406 334.292969 242.03125 336.054688 245.078125 337.65625 C 246.382812 338.34375 247.707031 338.980469 249.039062 339.605469 C 248.972656 341.53125 248.90625 343.453125 248.886719 345.378906 C 248.867188 347.574219 248.898438 349.769531 248.902344 351.96875 C 248.839844 351.839844 248.816406 351.691406 248.699219 351.585938 C 247.742188 350.710938 246.9375 349.945312 245.789062 349.289062 C 244.671875 348.65625 243.480469 348.179688 242.300781 347.6875 C 240.0625 346.738281 237.757812 345.988281 235.480469 345.164062 C 233.234375 344.351562 230.96875 343.660156 228.691406 342.945312 C 227.558594 342.589844 226.421875 342.230469 225.289062 341.878906 C 224.125 341.507812 222.964844 341.523438 221.785156 341.175781 C 221.351562 341.046875 221.085938 341.675781 221.480469 341.898438 C 222.46875 342.464844 223.207031 343.273438 224.199219 343.808594 C 225.320312 344.417969 226.4375 345.027344 227.558594 345.632812 C 229.65625 346.769531 231.730469 347.917969 233.871094 348.96875 C 236.015625 350.015625 238.128906 351.125 240.324219 352.066406 C 241.453125 352.554688 242.585938 353.074219 243.765625 353.433594 C 245.121094 353.84375 246.3125 353.910156 247.699219 354 C 248.257812 354.035156 248.679688 353.679688 248.914062 353.222656 C 248.925781 357.269531 248.972656 361.304688 249.054688 365.347656 C 246.003906 363.460938 242.539062 362.140625 239.390625 360.476562 C 235.304688 358.324219 231.339844 355.945312 227.515625 353.351562 C 223.882812 350.890625 220.386719 348.230469 217.058594 345.378906 Z M 284.222656 427.980469 C 284.0625 424.089844 283.894531 420.203125 283.734375 416.316406 C 283.445312 409.34375 283.519531 402.023438 281.734375 395.214844 C 284.773438 395.929688 287.804688 396.648438 290.839844 397.363281 C 301.546875 399.890625 312.28125 402.242188 323.0625 404.414062 C 321.988281 407.234375 321.847656 410.808594 321.738281 413.398438 C 321.558594 417.667969 321.777344 421.972656 322.097656 426.234375 C 322.425781 430.585938 322.953125 434.917969 323.640625 439.226562 C 323.96875 441.269531 324.332031 443.304688 324.738281 445.332031 C 324.992188 446.601562 325.214844 447.929688 325.71875 449.074219 C 311.683594 444.8125 297.699219 440.386719 283.773438 435.78125 C 284.742188 433.523438 284.3125 430.078125 284.222656 427.980469 Z M 235.886719 375.765625 C 233.683594 375.242188 231.304688 374.472656 228.886719 373.828125 C 230.542969 373.234375 232.199219 372.640625 233.855469 372.046875 C 235.019531 371.632812 236.175781 371.210938 237.335938 370.796875 C 237.914062 370.589844 238.503906 370.394531 239.078125 370.171875 C 239.273438 370.097656 239.378906 369.984375 239.542969 369.902344 C 242.515625 371.363281 245.617188 372.636719 248.804688 372.914062 C 248.957031 372.925781 249.09375 372.878906 249.238281 372.867188 C 249.265625 373.75 249.273438 374.636719 249.304688 375.515625 C 249.433594 378.90625 252.75 380.164062 255.175781 379.277344 C 255.210938 379.691406 255.347656 380.078125 255.570312 380.4375 C 255.472656 380.414062 255.371094 380.390625 255.277344 380.367188 C 248.820312 378.832031 242.355469 377.300781 235.886719 375.765625 Z M 243.566406 421.738281 C 236.289062 419.070312 228.652344 415.824219 220.929688 414.019531 C 221.25 411.988281 220.746094 409.480469 220.410156 407.980469 C 220.019531 406.265625 219.683594 404.535156 219.382812 402.796875 C 220.820312 403.289062 222.34375 403.621094 223.664062 403.976562 C 226.683594 404.792969 229.6875 405.65625 232.6875 406.546875 C 235.6875 407.4375 238.738281 408.15625 241.796875 408.804688 C 244.882812 409.464844 247.816406 410.402344 250.8125 411.398438 C 250.851562 411.410156 250.867188 411.351562 250.828125 411.335938 C 247.707031 410.117188 244.683594 408.847656 241.710938 407.308594 C 238.957031 405.882812 236.171875 404.539062 233.328125 403.320312 C 230.46875 402.105469 227.636719 400.847656 224.8125 399.558594 C 222.847656 398.667969 220.777344 397.59375 218.628906 397.273438 C 218.367188 394.847656 218.199219 392.414062 218.105469 389.972656 C 219.25 390.453125 220.398438 390.945312 221.5625 391.339844 C 223.125 391.863281 224.675781 392.421875 226.277344 392.796875 C 227.140625 393 228 393.21875 228.871094 393.390625 C 229.769531 393.566406 230.652344 393.527344 231.550781 393.65625 C 232.816406 393.832031 233.761719 392.191406 232.480469 391.453125 C 231.71875 391.011719 231.066406 390.445312 230.277344 390.050781 C 229.5 389.652344 228.703125 389.300781 227.90625 388.933594 C 226.292969 388.1875 224.621094 387.617188 222.949219 387.023438 C 221.351562 386.449219 219.695312 385.949219 218.042969 385.5625 C 218.039062 385.5625 218.035156 385.5625 218.027344 385.5625 C 218.035156 384.183594 218.054688 382.808594 218.109375 381.4375 C 219.117188 381.289062 220.121094 381.089844 221.144531 380.851562 C 225.042969 382.476562 229.683594 382.933594 233.660156 383.871094 C 239.789062 385.316406 245.914062 386.765625 252.042969 388.210938 C 260.039062 390.101562 268.039062 391.984375 276.042969 393.875 C 275.335938 397.097656 275.050781 400.390625 275 403.710938 C 274.589844 403.601562 274.175781 403.492188 273.78125 403.375 C 270.722656 402.503906 267.644531 401.683594 264.574219 400.84375 C 261.617188 400.03125 258.617188 399.269531 255.609375 398.65625 C 252.625 398.042969 249.703125 397.847656 246.679688 397.492188 C 246.582031 397.476562 246.542969 397.632812 246.628906 397.675781 C 249.253906 399.019531 251.730469 400.441406 254.46875 401.558594 C 257.417969 402.757812 260.441406 403.847656 263.46875 404.847656 C 266.390625 405.816406 269.308594 406.796875 272.234375 407.753906 C 273.15625 408.054688 274.105469 408.375 275.054688 408.652344 C 275.140625 411.222656 275.28125 413.789062 275.375 416.320312 C 275.449219 418.1875 275.519531 420.050781 275.59375 421.921875 C 273.875 421.449219 272.132812 421.03125 270.335938 420.679688 C 268.253906 420.273438 266.160156 419.894531 264.066406 419.527344 C 261.824219 419.136719 259.585938 419.054688 257.316406 418.917969 C 256.179688 418.851562 255.640625 420.644531 256.71875 421.136719 C 258.757812 422.0625 260.765625 423.050781 262.902344 423.734375 C 264.921875 424.382812 266.9375 425.019531 268.964844 425.632812 C 271.246094 426.320312 273.507812 426.898438 275.796875 427.328125 C 275.804688 427.546875 275.8125 427.765625 275.820312 427.980469 C 275.875 429.40625 275.808594 431.402344 276.058594 433.246094 C 274.648438 432.765625 273.222656 432.332031 271.816406 431.847656 C 262.355469 428.605469 252.957031 425.179688 243.566406 421.738281 Z M 436.605469 482.253906 C 431.242188 480.652344 425.871094 479.050781 420.503906 477.445312 C 410.441406 474.445312 400.378906 471.4375 390.316406 468.4375 C 370.894531 462.640625 351.46875 456.871094 332.070312 451.019531 C 332.089844 450.996094 332.121094 450.992188 332.140625 450.964844 C 333.96875 448.839844 333.660156 446.980469 333.117188 444.398438 C 332.824219 443.011719 332.589844 441.621094 332.335938 440.226562 C 351.207031 448.996094 370.449219 456.695312 390.347656 462.847656 C 400.402344 465.953125 410.542969 468.773438 420.730469 471.414062 C 425.820312 472.730469 430.949219 473.902344 436.09375 474.992188 C 439.476562 475.707031 442.882812 476.632812 446.300781 476.722656 C 446.042969 479.792969 445.902344 482.972656 446.789062 485.667969 C 443.734375 483.90625 439.980469 483.261719 436.605469 482.253906 Z M 546.9375 386.578125 C 545.476562 390.589844 543.535156 394.398438 541.140625 397.9375 C 535.953125 405.601562 528.105469 410.683594 522.085938 417.597656 C 521.691406 418.042969 521.5 418.523438 521.390625 419 C 519.652344 420.386719 517.9375 421.78125 516.222656 423.113281 C 507.878906 429.609375 499.707031 436.339844 491.714844 443.257812 C 483.925781 449.996094 476.304688 456.925781 468.859375 464.042969 C 464.195312 468.5 459.378906 473.011719 454.855469 477.75 C 454.941406 475.699219 455.019531 473.644531 455.058594 471.59375 C 455.097656 469.605469 455.011719 467.625 455.007812 465.636719 C 455.820312 465.613281 456.601562 465.511719 457.324219 465.242188 C 458.9375 464.648438 459.722656 462.625 458.371094 461.292969 C 458.292969 461.21875 458.175781 461.1875 458.09375 461.117188 C 458.839844 460.542969 459.605469 459.988281 460.339844 459.40625 C 460.566406 459.222656 460.773438 459.019531 461 458.839844 C 464.261719 457.210938 467.125 454.597656 469.878906 452.335938 C 473.617188 449.265625 477.320312 446.144531 480.953125 442.949219 C 484.46875 439.851562 488.042969 436.816406 491.566406 433.71875 C 495.304688 430.429688 498.757812 426.855469 502.472656 423.546875 C 502.527344 423.496094 502.457031 423.398438 502.394531 423.4375 C 498.445312 426.203125 494.296875 428.648438 490.359375 431.4375 C 486.417969 434.230469 482.523438 437.089844 478.589844 439.882812 C 474.761719 442.59375 471.011719 445.40625 467.261719 448.222656 C 464.714844 450.132812 461.847656 452.089844 459.539062 454.457031 C 458.890625 454.804688 458.21875 455.105469 457.578125 455.46875 C 456.691406 455.976562 455.824219 456.523438 454.9375 457.046875 C 454.921875 456.628906 454.941406 456.210938 454.921875 455.796875 C 454.785156 451.792969 454.5 447.804688 454.140625 443.820312 C 458.09375 442.023438 461.738281 439.605469 465.382812 437.214844 C 467.769531 435.652344 469.988281 434.027344 472.203125 432.25 C 474.414062 430.480469 476.542969 428.667969 478.894531 427.058594 C 478.945312 427.023438 478.902344 426.945312 478.84375 426.972656 C 476.332031 428.296875 473.742188 429.320312 471.152344 430.449219 C 468.550781 431.582031 466.082031 432.773438 463.589844 434.148438 C 460.714844 435.734375 457.835938 437.328125 455.109375 439.140625 C 454.652344 438.769531 454.140625 438.460938 453.613281 438.175781 C 453.203125 433.898438 452.699219 428.832031 449.925781 425.71875 C 449.039062 424.726562 447.160156 424.960938 446.554688 426.152344 C 445.125 428.96875 445.167969 432.585938 445.449219 436.046875 C 442.371094 435.722656 439.246094 435.644531 436.71875 435.347656 C 429.917969 434.53125 423.101562 433.824219 416.292969 433.082031 C 402.171875 431.558594 387.976562 430.714844 373.878906 429.09375 C 373.730469 429.074219 373.695312 429.328125 373.84375 429.351562 C 387.855469 431.640625 401.746094 434.710938 415.75 437.101562 C 422.5 438.25 429.25 439.429688 436.015625 440.507812 C 438.910156 440.96875 442.464844 441.925781 445.953125 442.414062 C 446.234375 447.0625 446.476562 451.722656 446.609375 456.378906 C 446.625 456.824219 446.601562 457.273438 446.613281 457.722656 C 442.84375 457.03125 439.0625 456.359375 435.289062 455.683594 C 427.394531 454.261719 419.640625 452.941406 411.609375 453.230469 C 411.488281 453.234375 411.417969 453.417969 411.542969 453.476562 C 418.675781 456.96875 426.171875 458.921875 433.871094 460.820312 C 437.738281 461.773438 441.605469 462.730469 445.472656 463.675781 C 445.660156 463.722656 445.867188 463.78125 446.0625 463.832031 C 445.484375 464.878906 445.867188 465.886719 446.644531 466.472656 C 446.640625 467.222656 446.660156 467.972656 446.652344 468.71875 C 443.628906 467.792969 440.398438 467.382812 437.328125 466.773438 C 432.164062 465.75 427.007812 464.675781 421.851562 463.59375 C 411.867188 461.507812 401.960938 459.054688 392.117188 456.367188 C 372.191406 450.925781 352.355469 444.878906 332.890625 437.960938 C 332.511719 437.824219 332.199219 437.960938 331.941406 438.175781 C 331.925781 438.070312 331.898438 437.964844 331.882812 437.859375 C 331.222656 433.859375 330.738281 429.828125 330.398438 425.785156 C 330.234375 423.835938 330.128906 421.886719 330.039062 419.933594 C 331.289062 420.292969 332.574219 420.574219 333.859375 420.851562 C 336.773438 421.480469 339.683594 422.121094 342.59375 422.753906 C 345.5 423.394531 348.417969 424.042969 351.34375 424.585938 C 354.550781 425.179688 357.789062 425.226562 361.007812 425.710938 C 361.691406 425.8125 361.976562 424.894531 361.296875 424.65625 C 358.25 423.601562 355.378906 422.144531 352.285156 421.195312 C 349.441406 420.320312 346.5625 419.546875 343.695312 418.761719 C 340.824219 417.980469 337.953125 417.199219 335.085938 416.40625 C 333.359375 415.929688 331.613281 415.441406 329.84375 415.203125 C 329.824219 414.597656 329.796875 413.992188 329.773438 413.390625 C 329.679688 411.089844 329.636719 408.234375 329.09375 405.648438 C 335.183594 406.828125 341.246094 408.144531 347.359375 409.242188 C 351.628906 410.011719 355.824219 410.328125 360.058594 410.621094 C 371.171875 413.519531 382.414062 415.925781 393.738281 417.84375 C 407.71875 420.21875 421.832031 421.886719 435.984375 422.816406 C 442.878906 423.269531 449.777344 423.546875 456.683594 423.648438 C 463.464844 423.742188 471.859375 424.863281 478.339844 422.625 C 480.140625 421.996094 481 420.214844 480.804688 418.597656 C 495.078125 412.316406 508.777344 404.257812 522.375 396.789062 C 530.464844 392.34375 538.558594 387.90625 546.644531 383.460938 C 547.117188 383.203125 547.582031 382.945312 548.050781 382.691406 C 547.710938 384.0625 547.371094 385.402344 546.9375 386.578125 Z M 553.738281 369.980469 C 549.957031 372.046875 546.199219 374.148438 542.425781 376.230469 C 534.617188 380.542969 526.808594 384.859375 518.996094 389.175781 C 504.15625 397.371094 488.628906 405.324219 474.734375 415.140625 C 469.179688 414.5 463.109375 415.316406 457.679688 415.257812 C 451.105469 415.183594 444.53125 414.945312 437.96875 414.546875 C 423.570312 413.671875 409.230469 412.03125 395.015625 409.597656 C 381.402344 407.261719 367.917969 404.210938 354.597656 400.574219 C 347.933594 398.753906 341.347656 396.691406 334.742188 394.699219 C 329.527344 393.128906 324.15625 391.265625 318.707031 390.492188 C 318.410156 387.105469 317.71875 383.789062 316.796875 380.527344 C 329.960938 383.679688 342.976562 387.160156 356.308594 389.703125 C 370.414062 392.390625 384.335938 395.492188 398.679688 396.203125 C 400.125 396.273438 400.289062 394.1875 399.007812 393.765625 C 385.28125 389.257812 371.0625 387.167969 356.835938 384.601562 C 343.390625 382.175781 329.902344 380.789062 316.390625 378.984375 C 316.1875 378.332031 315.933594 377.699219 315.714844 377.054688 C 315.667969 375.523438 315.566406 373.984375 315.503906 372.46875 C 315.40625 370.117188 315.308594 367.769531 315.210938 365.417969 C 319.828125 370.421875 329.324219 370.964844 335.386719 371.523438 C 346.191406 372.523438 356.863281 373.382812 367.707031 373.570312 C 368.511719 373.585938 368.667969 372.390625 367.898438 372.175781 C 356.933594 369.125 345.929688 366.828125 334.765625 364.617188 C 330.863281 363.84375 326.871094 363.023438 323.328125 361.144531 C 321.453125 360.152344 319.847656 358.492188 317.796875 357.871094 C 316.746094 357.554688 315.40625 357.796875 314.90625 358.050781 C 314.808594 355.753906 314.714844 353.457031 314.617188 351.164062 C 317.335938 352.257812 320.28125 353.035156 322.429688 353.800781 C 329 356.148438 335.671875 358.164062 342.4375 359.859375 C 355.929688 363.246094 369.804688 365.699219 383.683594 366.800781 C 397.59375 367.910156 411.558594 367.75 425.449219 366.425781 C 432.125 365.789062 438.785156 364.894531 445.394531 363.75 C 446.9375 363.484375 448.507812 363.234375 450.085938 362.964844 C 450.496094 363 450.902344 363.089844 451.3125 363.121094 C 454.25 363.324219 457.191406 363.15625 460.121094 362.859375 C 460.238281 362.914062 460.359375 362.964844 460.480469 363.019531 C 461.960938 363.679688 463.796875 363.367188 464.8125 362.246094 C 465.457031 362.125 466.066406 361.929688 466.695312 361.792969 C 466.335938 365.597656 466.257812 369.398438 466.339844 373.214844 C 461.28125 372.875 455.785156 373.753906 451.035156 373.867188 C 443.816406 374.035156 436.59375 374.070312 429.375 374.242188 C 422.160156 374.417969 414.941406 374.644531 407.71875 374.796875 C 404.382812 374.871094 401.054688 374.925781 397.722656 375.113281 C 393.753906 375.347656 390.011719 376.316406 386.0625 376.722656 C 385.9375 376.734375 385.9375 376.90625 386.0625 376.921875 C 390.019531 377.296875 393.738281 378.238281 397.722656 378.441406 C 401.054688 378.613281 404.382812 378.640625 407.71875 378.6875 C 414.9375 378.789062 422.15625 378.972656 429.375 379.089844 C 436.59375 379.203125 443.816406 379.1875 451.035156 379.3125 C 455.832031 379.398438 461.457031 380.261719 466.570312 379.84375 C 466.757812 384.039062 467.09375 388.171875 467.769531 392.269531 C 465.175781 392.277344 462.460938 392.769531 460.136719 392.941406 C 455.46875 393.292969 450.792969 393.78125 446.144531 394.34375 C 436.746094 395.476562 427.390625 396.859375 417.949219 397.613281 C 417.84375 397.621094 417.84375 397.777344 417.949219 397.777344 C 427.273438 397.691406 436.582031 398.179688 445.894531 398.5 C 450.457031 398.65625 455.042969 398.746094 459.609375 398.683594 C 462.421875 398.644531 466.066406 399.054688 469.214844 398.554688 C 469.941406 400.03125 472.191406 399.542969 472.328125 397.832031 C 472.335938 397.75 472.332031 397.667969 472.335938 397.582031 C 472.527344 397.488281 472.730469 397.414062 472.910156 397.300781 C 474.308594 396.414062 474.53125 394.113281 472.910156 393.28125 C 472.785156 393.210938 472.640625 393.179688 472.507812 393.117188 C 472.507812 393.101562 472.511719 393.082031 472.511719 393.0625 C 472.914062 392.929688 473.316406 392.777344 473.726562 392.617188 C 475.28125 392.007812 476.820312 391.414062 478.351562 390.738281 C 481.886719 389.179688 485.4375 387.640625 488.921875 385.972656 C 492.277344 384.371094 495.640625 382.722656 498.859375 380.855469 C 502.195312 378.921875 505.085938 376.636719 508.089844 374.238281 C 509.707031 372.945312 507.957031 370.210938 506.097656 370.816406 C 502.535156 371.976562 499.136719 373.160156 495.757812 374.8125 C 492.3125 376.492188 488.992188 378.488281 485.714844 380.472656 C 482.53125 382.398438 479.414062 384.441406 476.292969 386.46875 C 474.960938 387.332031 473.683594 388.253906 472.394531 389.167969 C 472.222656 385.761719 471.847656 382.363281 471.371094 378.929688 C 471.46875 378.898438 471.574219 378.882812 471.667969 378.851562 C 472.601562 378.535156 473.058594 377.804688 473.230469 377.023438 C 478.078125 376.011719 483.0625 373.308594 487.292969 371.488281 C 493.695312 368.726562 499.941406 365.429688 505.957031 361.910156 C 517.894531 354.9375 528.417969 346.625 537.925781 336.605469 C 539.191406 335.273438 537.574219 333.011719 535.925781 334.011719 C 524.546875 340.929688 513.222656 347.9375 501.871094 354.917969 C 496.253906 358.367188 490.5625 361.652344 484.859375 364.949219 C 482.101562 366.542969 479.339844 368.125 476.554688 369.667969 C 474.554688 370.777344 472.410156 371.816406 470.535156 373.183594 C 469.917969 369.226562 469.140625 365.3125 468.042969 361.460938 C 470.917969 360.730469 473.734375 359.839844 476.492188 358.652344 C 478.535156 357.765625 480.632812 356.820312 482.542969 355.617188 C 496.5625 349.921875 510.167969 342.757812 522.945312 335.226562 C 532.277344 329.730469 541.328125 323.753906 550.050781 317.332031 C 554.457031 314.089844 558.785156 310.738281 563.027344 307.277344 C 564.390625 306.164062 565.828125 305.039062 567.261719 303.894531 C 567.378906 305.113281 567.484375 306.320312 567.546875 307.496094 C 567.914062 314.253906 567.992188 321.050781 567.617188 327.808594 C 567.472656 330.464844 567.199219 333.109375 566.925781 335.75 C 565.671875 336.441406 564.472656 337.195312 563.351562 337.832031 C 559.589844 339.957031 555.894531 342.1875 552.183594 344.410156 C 548.484375 346.628906 544.820312 348.957031 541.25 351.386719 C 539.453125 352.613281 537.699219 353.871094 535.96875 355.191406 C 534.804688 356.078125 533.164062 357.089844 532.84375 358.582031 C 532.785156 358.863281 532.925781 359.121094 533.203125 359.210938 C 534.746094 359.722656 536.617188 358.675781 538.046875 358.078125 C 539.953125 357.285156 541.820312 356.445312 543.6875 355.554688 C 547.589844 353.699219 551.441406 351.703125 555.230469 349.625 C 558.789062 347.664062 562.34375 345.703125 565.863281 343.664062 C 565.613281 345.246094 565.429688 346.835938 565.132812 348.410156 C 564.84375 349.941406 564.476562 351.453125 564.097656 352.964844 C 563.203125 353.285156 562.304688 353.578125 561.433594 353.976562 C 558.726562 355.21875 556.121094 356.621094 553.519531 358.066406 C 551.003906 359.464844 548.542969 360.953125 546.179688 362.59375 C 545.285156 363.21875 540.671875 366.246094 542.660156 367.636719 C 543.578125 368.277344 544.988281 367.839844 545.992188 367.566406 C 547.175781 367.25 548.3125 366.71875 549.445312 366.257812 C 552.0625 365.191406 554.589844 363.890625 557.09375 362.578125 C 558.863281 361.652344 560.578125 360.644531 562.292969 359.636719 C 561.644531 361.945312 561.046875 364.257812 560.515625 366.578125 C 558.144531 367.453125 555.902344 368.796875 553.738281 369.980469 Z M 465.472656 296.910156 C 477.878906 297.933594 490.339844 298.457031 502.785156 298.589844 C 514.890625 298.71875 527 298.445312 539.089844 297.769531 C 545.304688 297.421875 551.515625 296.964844 557.71875 296.402344 C 559.480469 296.242188 561.3125 296.132812 563.160156 296.003906 C 561.582031 297.421875 560.027344 298.875 558.453125 300.179688 C 554.082031 303.777344 549.617188 307.25 545.050781 310.59375 C 536.558594 316.8125 527.75 322.609375 518.679688 327.953125 C 501.367188 338.152344 483.261719 345.699219 464.753906 353.183594 C 464.644531 353.148438 464.554688 353.09375 464.429688 353.078125 C 458.082031 352.167969 452.179688 353.964844 445.960938 355.132812 C 439.476562 356.347656 432.949219 357.296875 426.386719 357.957031 C 412.839844 359.324219 399.164062 359.578125 385.574219 358.859375 C 371.949219 358.140625 358.46875 356.535156 345.132812 353.628906 C 338.640625 352.210938 332.179688 350.566406 325.796875 348.703125 C 322.761719 347.8125 319.738281 346.882812 316.714844 345.957031 C 315.925781 345.714844 315.175781 345.449219 314.445312 345.199219 C 314.433594 343.800781 314.382812 342.347656 314.179688 340.949219 C 317.835938 339.785156 321.445312 337.847656 324.773438 336.515625 C 330.910156 334.058594 337.046875 331.605469 343.175781 329.140625 C 343.613281 328.96875 344.042969 328.789062 344.476562 328.617188 C 351.808594 330.875 359.828125 331.644531 367.3125 332.945312 C 375.417969 334.355469 383.515625 335.765625 391.621094 337.175781 C 407.953125 340.015625 424.628906 343.761719 441.300781 342.609375 C 454.367188 341.703125 468.074219 337.589844 479.265625 330.757812 C 484.824219 327.367188 490.144531 323.21875 494.917969 318.785156 C 498.289062 315.664062 504.871094 310.238281 504.933594 305.25 C 504.933594 305.136719 504.828125 305.066406 504.726562 305.085938 C 499.964844 306.1875 495.5 312.542969 491.683594 315.546875 C 486.59375 319.5625 481.082031 322.738281 475.214844 325.464844 C 462.613281 331.3125 449.730469 334.550781 435.804688 334.496094 C 420 334.425781 404.304688 330.867188 388.796875 328.167969 C 381.03125 326.820312 373.265625 325.46875 365.5 324.117188 C 363.292969 323.734375 361.066406 323.292969 358.828125 322.855469 C 365.554688 320.152344 372.277344 317.449219 379.007812 314.746094 C 381.957031 313.5625 384.890625 312.34375 387.839844 311.144531 C 387.851562 311.214844 387.820312 311.265625 387.84375 311.335938 C 389.808594 317.378906 398.347656 320.316406 404 321.207031 C 410.644531 322.25 417.644531 320.957031 423.730469 318.203125 C 429.101562 315.777344 434.003906 310.691406 432.933594 304.359375 C 432.316406 300.710938 428.414062 295.886719 424.273438 295.578125 C 426.421875 294.632812 428.578125 293.691406 430.722656 292.734375 C 431.609375 292.335938 432.566406 291.941406 433.511719 291.546875 C 443.113281 295.839844 455.242188 296.070312 465.472656 296.910156 Z M 421.03125 297 C 421.082031 297.085938 421.078125 297.207031 421.179688 297.261719 C 423.125 298.34375 425.050781 299.003906 426.542969 300.769531 C 427.902344 302.371094 428.875 304.679688 428.566406 306.8125 C 427.886719 311.445312 422.484375 314.101562 418.425781 315.011719 C 413.5625 316.101562 408.652344 315.703125 403.859375 314.492188 C 401.394531 313.871094 398.96875 313.035156 396.632812 312.027344 C 394.925781 311.289062 393.179688 310.277344 391.375 309.699219 C 398.496094 306.773438 405.605469 303.804688 412.660156 300.695312 C 415.445312 299.460938 418.234375 298.226562 421.03125 297 Z M 413.527344 284.039062 C 414.738281 284.425781 415.96875 284.710938 417.269531 284.867188 C 421.0625 285.328125 424.957031 285.269531 428.773438 285.210938 C 430.929688 285.179688 433.078125 285 435.226562 284.871094 C 433.242188 285.59375 431.292969 286.375 429.429688 287.027344 C 423.214844 289.203125 417.039062 291.492188 410.84375 293.722656 C 398.75 298.078125 386.792969 302.761719 374.855469 307.519531 C 363.226562 312.152344 351.59375 316.785156 339.964844 321.421875 C 333.828125 323.867188 327.691406 326.320312 321.5625 328.777344 C 316.425781 330.832031 309.773438 332.320312 305.828125 336.328125 C 304.414062 337.765625 304.742188 339.84375 306.003906 341.023438 C 305.804688 343.34375 306.101562 345.820312 306.183594 348.027344 C 306.335938 352.101562 306.492188 356.171875 306.644531 360.242188 C 306.796875 364.3125 306.953125 368.382812 307.105469 372.453125 C 307.25 376.308594 307.003906 380.054688 308.859375 383.421875 C 309.320312 385.609375 309.808594 387.785156 310.1875 389.988281 C 310.308594 390.691406 310.746094 392.011719 310.414062 392.648438 C 310.324219 392.832031 310.28125 393.09375 310.535156 392.949219 C 310.308594 393.078125 309.515625 392.691406 309.269531 392.621094 C 305.878906 391.621094 302.558594 390.242188 299.230469 389.050781 C 292.5 386.632812 285.769531 384.210938 279.039062 381.792969 C 275.589844 380.550781 272.117188 379.371094 268.648438 378.179688 C 265.316406 377.035156 261.808594 375.683594 258.253906 375.617188 C 258.035156 375.613281 257.851562 375.683594 257.652344 375.722656 C 257.65625 375.648438 257.695312 375.597656 257.691406 375.515625 C 257.617188 365.125 257.390625 354.640625 256.726562 344.269531 C 256.667969 343.308594 256.578125 342.34375 256.511719 341.378906 C 257.972656 340.96875 258.765625 339.234375 257.535156 337.863281 C 256.984375 337.25 256.640625 336.582031 256.085938 335.984375 C 255.875 333.671875 255.640625 331.363281 255.328125 329.066406 C 255.257812 328.566406 255.179688 326.933594 254.945312 325.191406 C 281.585938 317.65625 308.296875 310.351562 335.117188 303.46875 C 348.800781 299.957031 362.503906 296.546875 376.230469 293.234375 C 383.265625 291.539062 390.304688 289.871094 397.347656 288.226562 C 402.21875 287.097656 408.84375 286.628906 413.527344 284.039062 Z M 212.960938 301.015625 C 219.886719 300.265625 226.8125 299.527344 233.734375 298.761719 C 247.234375 297.265625 260.738281 295.765625 274.238281 294.261719 C 287.738281 292.761719 301.246094 291.265625 314.746094 289.765625 C 321.671875 288.996094 328.59375 288.226562 335.519531 287.460938 C 338.636719 287.113281 341.753906 286.792969 344.867188 286.425781 C 348.058594 286.046875 350.464844 285.101562 353.277344 284.046875 C 354.5625 284.292969 355.84375 284.558594 357.128906 284.78125 C 361.042969 285.441406 365.007812 285.96875 368.96875 286.382812 C 356.925781 289.308594 344.886719 292.277344 332.882812 295.355469 C 305.554688 302.363281 278.328125 309.769531 251.234375 317.648438 C 249.203125 315.035156 244.867188 314.097656 241.945312 313.050781 C 236.792969 311.195312 231.636719 309.375 226.464844 307.585938 C 220.640625 305.574219 214.828125 303.542969 209.007812 301.523438 C 210.339844 301.335938 211.664062 301.15625 212.960938 301.015625 Z M 212.960938 301.015625 " fill-opacity="1" fill-rule="nonzero"/></g><path fill="#e2fb6c" d="M 361.929688 430.925781 C 360.253906 430.539062 358.582031 430.242188 356.878906 430.039062 C 355.085938 429.824219 353.214844 429.785156 351.441406 429.433594 C 350.980469 429.347656 350.8125 429.972656 351.246094 430.136719 C 352.886719 430.746094 354.449219 431.664062 356.042969 432.390625 C 357.597656 433.101562 359.171875 433.738281 360.800781 434.277344 C 364.0625 435.359375 367.460938 436.074219 370.867188 436.539062 C 371.472656 436.617188 372.035156 436.445312 372.289062 435.839844 C 372.5 435.34375 372.347656 434.578125 371.792969 434.335938 C 368.617188 432.9375 365.3125 431.71875 361.929688 430.925781 Z M 361.929688 430.925781 " fill-opacity="1" fill-rule="nonzero"/><path fill="#e2fb6c" d="M 283.667969 331.632812 C 282.324219 331.144531 271.652344 326.617188 271.566406 329.394531 C 271.507812 331.324219 274.738281 332.269531 276.140625 332.917969 C 278.320312 333.925781 280.578125 334.777344 282.796875 335.691406 C 287.136719 337.472656 291.527344 339.683594 296.296875 339.753906 C 297.171875 339.765625 297.742188 338.5625 297.046875 337.949219 C 293.296875 334.664062 288.28125 333.300781 283.667969 331.632812 Z M 283.667969 331.632812 " fill-opacity="1" fill-rule="nonzero"/></svg>