<svg xmlns="http://www.w3.org/2000/svg" xmlns:xlink="http://www.w3.org/1999/xlink" width="1024" zoomAndPan="magnify" viewBox="0 0 768 767.999994" height="1024" preserveAspectRatio="xMidYMid meet" version="1.0"><defs><clipPath id="5f1f56fde8"><path d="M 482 213.148438 L 554 213.148438 L 554 330 L 482 330 Z M 482 213.148438 " clip-rule="nonzero"/></clipPath></defs><g clip-path="url(#5f1f56fde8)"><path fill="#e2fb6c" d="M 483.40625 248.535156 C 481.796875 245.003906 481.691406 241.277344 483.105469 237.347656 C 484.210938 234.425781 486.078125 231.597656 488.699219 228.882812 C 493.433594 224.042969 499.585938 220.171875 507.132812 217.238281 C 515.300781 214.21875 522.957031 213.257812 530.109375 214.371094 C 539.378906 215.785156 546.082031 220.46875 550.214844 228.429688 C 554.449219 236.589844 554.644531 245.15625 550.816406 254.121094 C 549.402344 257.246094 547.390625 260.671875 544.769531 264.398438 C 543.253906 266.515625 540.941406 269.539062 537.8125 273.472656 L 537.511719 273.921875 C 533.183594 279.269531 530.207031 283.296875 528.597656 286.011719 C 526.480469 289.742188 525.425781 293.019531 525.425781 295.839844 C 525.425781 297.953125 524.691406 299.742188 523.234375 301.203125 C 521.769531 302.667969 519.984375 303.402344 517.867188 303.402344 C 515.75 303.402344 513.964844 302.667969 512.503906 301.203125 C 511.039062 299.746094 510.3125 297.953125 510.3125 295.839844 C 510.3125 290.296875 512.074219 284.503906 515.601562 278.457031 C 517.511719 275.132812 520.832031 270.5 525.574219 264.554688 C 525.675781 264.347656 525.820312 264.199219 526.023438 264.097656 C 529.050781 260.371094 531.167969 257.546875 532.375 255.636719 C 534.386719 252.816406 535.902344 250.289062 536.910156 248.078125 C 538.820312 243.546875 538.773438 239.261719 536.753906 235.230469 C 534.9375 231.90625 531.96875 229.894531 527.835938 229.183594 C 523.304688 228.476562 518.167969 229.234375 512.425781 231.453125 C 506.984375 233.464844 502.699219 236.085938 499.578125 239.308594 C 498.367188 240.515625 497.605469 241.578125 497.304688 242.488281 L 497.304688 242.632812 C 498.007812 244.554688 497.988281 246.441406 497.234375 248.300781 C 496.476562 250.167969 495.191406 251.5 493.375 252.304688 C 491.464844 253.210938 489.515625 253.289062 487.554688 252.535156 C 485.59375 251.78125 484.210938 250.449219 483.40625 248.535156 Z M 520.886719 313.925781 L 521.035156 314.078125 L 521.1875 314.234375 L 521.34375 314.234375 L 521.644531 314.535156 L 521.789062 314.535156 L 521.945312 314.679688 L 522.097656 314.835938 L 522.242188 314.835938 L 522.398438 314.980469 L 522.542969 315.136719 L 522.699219 315.289062 L 523 315.589844 L 523.300781 315.734375 C 525.015625 316.945312 526.015625 318.582031 526.324219 320.648438 C 526.625 322.714844 526.171875 324.601562 524.960938 326.320312 C 523.753906 328.03125 522.113281 329.035156 520.050781 329.339844 C 517.984375 329.640625 516.097656 329.195312 514.382812 327.980469 L 514.234375 327.824219 L 514.082031 327.679688 L 513.78125 327.378906 L 513.484375 327.378906 L 513.332031 327.222656 L 513.183594 327.078125 L 512.875 326.769531 L 512.730469 326.769531 L 512.574219 326.625 L 512.429688 326.46875 L 512.273438 326.324219 L 511.976562 326.167969 C 510.363281 324.957031 509.382812 323.320312 509.03125 321.253906 C 508.675781 319.195312 509.132812 317.324219 510.390625 315.664062 C 511.652344 314.003906 513.3125 312.992188 515.378906 312.640625 C 517.433594 312.285156 519.277344 312.71875 520.886719 313.925781 Z M 520.886719 313.925781 " fill-opacity="1" fill-rule="nonzero"/></g><path fill="#e2fb6c" d="M 543.808594 285.726562 C 543.316406 283.421875 543.738281 281.199219 545.089844 279.050781 C 546.125 277.460938 547.601562 276.027344 549.507812 274.757812 C 552.945312 272.507812 557.101562 271.011719 561.960938 270.257812 C 567.195312 269.53125 571.863281 269.964844 575.960938 271.550781 C 581.273438 273.597656 584.636719 277.253906 586.050781 282.511719 C 587.5 287.902344 586.496094 293.007812 583.058594 297.832031 C 581.8125 299.5 580.171875 301.273438 578.128906 303.136719 C 576.957031 304.191406 575.1875 305.683594 572.820312 307.609375 L 572.582031 307.835938 C 569.316406 310.445312 567.027344 312.441406 565.71875 313.84375 C 563.976562 315.78125 562.925781 317.582031 562.554688 319.257812 C 562.277344 320.511719 561.613281 321.476562 560.558594 322.152344 C 559.5 322.828125 558.34375 323.027344 557.085938 322.75 C 555.832031 322.472656 554.867188 321.808594 554.191406 320.75 C 553.515625 319.695312 553.320312 318.539062 553.59375 317.28125 C 554.316406 313.996094 556.113281 310.789062 558.992188 307.664062 C 560.5625 305.941406 563.132812 303.628906 566.722656 300.714844 C 566.808594 300.605469 566.914062 300.539062 567.050781 300.507812 C 569.332031 298.691406 570.953125 297.296875 571.925781 296.316406 C 573.484375 294.90625 574.707031 293.605469 575.597656 292.425781 C 577.320312 289.988281 577.851562 287.441406 577.179688 284.789062 C 576.539062 282.578125 575.035156 280.996094 572.679688 280.039062 C 570.082031 279.027344 566.9375 278.804688 563.242188 279.375 C 559.753906 279.855469 556.867188 280.851562 554.597656 282.359375 C 553.71875 282.917969 553.132812 283.445312 552.835938 283.945312 L 552.820312 284.03125 C 552.984375 285.261719 552.726562 286.378906 552.035156 287.386719 C 551.34375 288.390625 550.40625 289.015625 549.230469 289.253906 C 547.976562 289.542969 546.8125 289.335938 545.75 288.632812 C 544.683594 287.9375 544.039062 286.96875 543.808594 285.726562 Z M 557.515625 329.394531 L 557.582031 329.503906 L 557.65625 329.613281 L 557.746094 329.632812 L 557.816406 329.734375 L 557.886719 329.84375 L 557.972656 329.863281 L 558.121094 330.082031 L 558.207031 330.101562 L 558.277344 330.207031 L 558.347656 330.316406 L 558.421875 330.425781 L 558.488281 330.53125 L 558.5625 330.640625 L 558.71875 330.769531 C 559.582031 331.710938 559.960938 332.8125 559.875 334.078125 C 559.785156 335.339844 559.269531 336.402344 558.328125 337.261719 C 557.390625 338.117188 556.285156 338.503906 555.027344 338.414062 C 553.761719 338.320312 552.699219 337.808594 551.839844 336.867188 L 551.773438 336.757812 L 551.699219 336.648438 L 551.628906 336.539062 L 551.558594 336.433594 L 551.382812 336.390625 L 551.308594 336.28125 L 551.242188 336.179688 L 551.09375 335.960938 L 551.007812 335.941406 L 550.867188 335.722656 L 550.792969 335.613281 L 550.636719 335.480469 C 549.839844 334.554688 549.464844 333.453125 549.53125 332.183594 C 549.589844 330.914062 550.097656 329.867188 551.0625 329.042969 C 552.027344 328.226562 553.140625 327.84375 554.417969 327.902344 C 555.675781 327.96875 556.71875 328.464844 557.515625 329.394531 Z M 557.515625 329.394531 " fill-opacity="1" fill-rule="nonzero"/><path fill="#e2fb6c" d="M 303.464844 470.691406 L 355.183594 470.09375 C 359.113281 470.050781 362.335938 473.191406 362.378906 477.125 C 362.425781 481.054688 359.28125 484.277344 355.351562 484.320312 C 355.1875 484.320312 355 484.316406 354.839844 484.308594 L 303.207031 481.214844 C 300.304688 481.042969 298.089844 478.546875 298.261719 475.640625 C 298.429688 472.875 300.734375 470.726562 303.464844 470.691406 Z M 303.464844 470.691406 " fill-opacity="1" fill-rule="nonzero"/><path fill="#e2fb6c" d="M 483.328125 303.777344 C 473.167969 279.464844 444.359375 263.175781 420.914062 254.003906 C 388.367188 241.273438 342.480469 241.316406 308.183594 245.523438 C 271.128906 250.0625 243.035156 264.949219 215.464844 289.9375 C 186.796875 315.921875 182.382812 357.566406 180.65625 394.132812 C 180.304688 401.6875 182.789062 417.472656 184.28125 425.390625 C 186.546875 437.441406 188.238281 444.621094 198.765625 465.789062 C 204.382812 477.074219 216.789062 493.761719 225.574219 502.785156 C 233.421875 510.847656 244.855469 521.417969 254.792969 529.644531 C 285.570312 555.101562 331.214844 553.039062 368.898438 546.527344 C 402.699219 540.691406 448.308594 513.265625 465.839844 482.449219 C 473.390625 469.167969 488.449219 436.738281 492.777344 406.824219 C 493.984375 398.496094 497.496094 337.699219 483.328125 303.777344 Z M 479.742188 395.757812 C 479.519531 403.785156 471.929688 432.992188 463.917969 451.851562 C 461.820312 456.785156 448.171875 476.054688 445.882812 478.730469 C 416.460938 513.136719 366.441406 533.933594 321.925781 532.933594 C 298.058594 532.394531 279.621094 525.035156 260.792969 510.535156 C 246.925781 499.855469 235.457031 487.515625 225.015625 471.957031 C 223.25 469.332031 217.894531 460.59375 216.316406 457.851562 C 210.023438 446.941406 205.191406 433.214844 202.644531 421.066406 C 199.539062 406.265625 199.554688 376.957031 201.21875 362.292969 C 204.800781 330.757812 214.308594 307.996094 237.089844 285.9375 C 276.417969 247.859375 353.335938 243.503906 403.09375 259.472656 C 430.210938 268.175781 459.859375 289.03125 473.234375 314.316406 C 487.429688 341.167969 480.550781 366.84375 479.742188 395.757812 C 479.648438 399.164062 479.847656 391.890625 479.742188 395.757812 Z M 479.742188 395.757812 " fill-opacity="1" fill-rule="nonzero"/><path fill="#e2fb6c" d="M 264.972656 355.316406 C 263.789062 343.0625 270.300781 335.929688 277.8125 329.976562 C 282.917969 325.925781 291.222656 331.722656 292.488281 338.183594 C 294.554688 348.734375 289.203125 357.578125 287.171875 367.148438 C 286.1875 371.765625 277.523438 373.800781 273.6875 370.722656 C 268.367188 366.449219 263.65625 361.757812 264.972656 355.316406 Z M 264.972656 355.316406 " fill-opacity="1" fill-rule="nonzero"/><path fill="#e2fb6c" d="M 407.597656 358.144531 C 408.617188 366.695312 405.019531 373.644531 400.132812 379.511719 C 397.882812 382.214844 393.144531 383.71875 389.386719 384.046875 C 385.898438 384.347656 378.992188 375.628906 378.839844 372.207031 C 378.382812 361.519531 383.324219 352.785156 389.425781 344.691406 C 392.097656 341.140625 398.359375 342.761719 402.164062 345.886719 C 406.394531 349.363281 409.34375 352.71875 407.597656 358.144531 Z M 407.597656 358.144531 " fill-opacity="1" fill-rule="nonzero"/><path fill="#e2fb6c" d="M 303.464844 470.691406 L 355.183594 470.09375 C 359.113281 470.050781 362.335938 473.191406 362.378906 477.125 C 362.425781 481.054688 359.28125 484.277344 355.351562 484.320312 C 355.1875 484.320312 355 484.316406 354.839844 484.308594 L 303.207031 481.214844 C 300.304688 481.042969 298.089844 478.546875 298.261719 475.640625 C 298.429688 472.875 300.734375 470.726562 303.464844 470.691406 Z M 303.464844 470.691406 " fill-opacity="1" fill-rule="nonzero"/><path fill="#e2fb6c" d="M 483.328125 303.777344 C 473.167969 279.464844 444.359375 263.175781 420.914062 254.003906 C 388.367188 241.273438 342.480469 241.316406 308.183594 245.523438 C 271.128906 250.0625 243.035156 264.949219 215.464844 289.9375 C 186.796875 315.921875 182.382812 357.566406 180.65625 394.132812 C 180.304688 401.6875 182.789062 417.472656 184.28125 425.390625 C 186.546875 437.441406 188.238281 444.621094 198.765625 465.789062 C 204.382812 477.074219 216.789062 493.761719 225.574219 502.785156 C 233.421875 510.847656 244.855469 521.417969 254.792969 529.644531 C 285.570312 555.101562 331.214844 553.039062 368.898438 546.527344 C 402.699219 540.691406 448.308594 513.265625 465.839844 482.449219 C 473.390625 469.167969 488.449219 436.738281 492.777344 406.824219 C 493.984375 398.496094 497.496094 337.699219 483.328125 303.777344 Z M 479.742188 395.757812 C 479.519531 403.785156 471.929688 432.992188 463.917969 451.851562 C 461.820312 456.785156 448.171875 476.054688 445.882812 478.730469 C 416.460938 513.136719 366.441406 533.933594 321.925781 532.933594 C 298.058594 532.394531 279.621094 525.035156 260.792969 510.535156 C 246.925781 499.855469 235.457031 487.515625 225.015625 471.957031 C 223.25 469.332031 217.894531 460.59375 216.316406 457.851562 C 210.023438 446.941406 205.191406 433.214844 202.644531 421.066406 C 199.539062 406.265625 199.554688 376.957031 201.21875 362.292969 C 204.800781 330.757812 214.308594 307.996094 237.089844 285.9375 C 276.417969 247.859375 353.335938 243.503906 403.09375 259.472656 C 430.210938 268.175781 459.859375 289.03125 473.234375 314.316406 C 487.429688 341.167969 480.550781 366.84375 479.742188 395.757812 C 479.648438 399.164062 479.847656 391.890625 479.742188 395.757812 Z M 479.742188 395.757812 " fill-opacity="1" fill-rule="nonzero"/><path fill="#e2fb6c" d="M 264.972656 355.316406 C 263.789062 343.0625 270.300781 335.929688 277.8125 329.976562 C 282.917969 325.925781 291.222656 331.722656 292.488281 338.183594 C 294.554688 348.734375 289.203125 357.578125 287.171875 367.148438 C 286.1875 371.765625 277.523438 373.800781 273.6875 370.722656 C 268.367188 366.449219 263.65625 361.757812 264.972656 355.316406 Z M 264.972656 355.316406 " fill-opacity="1" fill-rule="nonzero"/><path fill="#e2fb6c" d="M 407.597656 358.144531 C 408.617188 366.695312 405.019531 373.644531 400.132812 379.511719 C 397.882812 382.214844 393.144531 383.71875 389.386719 384.046875 C 385.898438 384.347656 378.992188 375.628906 378.839844 372.207031 C 378.382812 361.519531 383.324219 352.785156 389.425781 344.691406 C 392.097656 341.140625 398.359375 342.761719 402.164062 345.886719 C 406.394531 349.363281 409.34375 352.71875 407.597656 358.144531 Z M 407.597656 358.144531 " fill-opacity="1" fill-rule="nonzero"/></svg>