<svg xmlns="http://www.w3.org/2000/svg" xmlns:xlink="http://www.w3.org/1999/xlink" width="1024" zoomAndPan="magnify" viewBox="0 0 768 767.999994" height="1024" preserveAspectRatio="xMidYMid meet" version="1.0"><defs><clipPath id="9bc4335d49"><path d="M 208 181.289062 L 557 181.289062 L 557 586 L 208 586 Z M 208 181.289062 " clip-rule="nonzero"/></clipPath></defs><g clip-path="url(#9bc4335d49)"><path fill="#e2fb6c" d="M 552.164062 266.1875 C 560.089844 249.371094 556.960938 228.660156 544.332031 215 C 530.742188 200.296875 509.292969 195.070312 490.550781 190.640625 C 467.917969 185.292969 444.691406 182.226562 421.449219 181.488281 C 408.28125 181.070312 395.089844 181.402344 381.964844 182.492188 C 375.351562 183.039062 368.757812 183.792969 362.191406 184.707031 C 359.445312 185.09375 356.527344 185.308594 353.714844 185.832031 C 350.6875 185.730469 347.675781 185.753906 344.65625 186.339844 C 339.621094 187.308594 334.894531 189.148438 330.285156 191.363281 C 320.886719 195.878906 312.335938 202.464844 305.074219 209.914062 C 288.847656 226.546875 278.984375 247.878906 274.046875 270.417969 C 262.265625 324.195312 276.886719 379.585938 266.582031 433.445312 C 264.113281 446.34375 260.328125 459.996094 251.34375 469.984375 C 242.394531 479.9375 228.507812 484.359375 216.023438 478.585938 C 212.667969 477.035156 209.816406 479.730469 209.9375 482.492188 C 208.859375 483.050781 208.386719 484.484375 208.929688 485.761719 C 212.78125 494.84375 225.335938 501.027344 233.542969 505.539062 C 243.210938 510.859375 253.5 515.148438 264.089844 518.261719 C 274.414062 521.296875 285.085938 523.199219 295.816406 524.015625 C 301.429688 524.445312 307.0625 524.542969 312.691406 524.308594 C 316.214844 524.164062 320.085938 524.277344 323.40625 523.066406 C 326.644531 531.367188 330.117188 539.578125 333.976562 547.609375 C 338.742188 557.523438 343.578125 568.519531 350.644531 577.019531 C 351.679688 578.269531 353.292969 578.371094 354.703125 577.847656 C 354.734375 578.175781 354.738281 578.5 354.859375 578.847656 C 355.34375 580.21875 356.601562 581.5 358.136719 581.605469 C 357.921875 581.910156 357.683594 582.195312 357.507812 582.53125 C 357.21875 583.082031 357.3125 583.96875 357.957031 584.253906 C 363.039062 586.503906 369.261719 583.757812 374.261719 582.15625 C 381.242188 579.917969 388.160156 577.457031 395.089844 575.070312 C 408.617188 570.410156 422.132812 565.726562 435.648438 561.027344 C 461.5 552.042969 487.585938 543.53125 513.273438 534.0625 C 513.242188 534.1875 513.199219 534.296875 513.175781 534.421875 C 512.667969 536.578125 515.214844 538.046875 516.835938 536.554688 C 519.070312 534.496094 521.136719 532.394531 522.9375 529.945312 C 524.765625 527.457031 526.242188 524.816406 527.777344 522.140625 C 527.839844 522.035156 527.90625 521.921875 527.964844 521.816406 C 528.621094 521.511719 529.25 521.164062 529.816406 520.726562 C 530.492188 520.203125 530.445312 519.058594 529.957031 518.402344 C 531.648438 515.507812 533.292969 512.53125 534.574219 509.457031 C 536.472656 509.332031 538.34375 509.117188 540.132812 508.6875 C 543.933594 507.78125 543.789062 502.121094 540.132812 501.136719 C 538.386719 500.664062 536.550781 500.417969 534.671875 500.289062 C 536.820312 499.929688 537.957031 497.589844 537.007812 495.402344 C 535.519531 491.992188 532.386719 489.828125 529.808594 487.238281 C 526.949219 484.363281 524.253906 481.3125 521.789062 478.089844 C 517.070312 471.914062 513.109375 465.136719 509.808594 458.105469 C 502.847656 443.261719 499.011719 426.847656 497.742188 410.542969 C 496.25 391.378906 498.175781 372.085938 501.699219 353.246094 C 503.515625 343.539062 505.710938 333.898438 508.089844 324.316406 C 510.269531 315.546875 513.367188 306.476562 514.066406 297.40625 C 516.421875 296.492188 517.792969 293.515625 516.664062 291.425781 C 522.699219 291.214844 528.894531 288.652344 533.890625 285.765625 C 541.675781 281.265625 548.324219 274.34375 552.164062 266.1875 Z M 313.574219 515.496094 C 308.246094 515.753906 302.910156 515.707031 297.582031 515.359375 C 287.023438 514.683594 276.570312 512.769531 266.421875 509.777344 C 256.539062 506.867188 246.984375 502.9375 237.941406 498.003906 C 233.617188 495.648438 229.453125 493.027344 225.382812 490.257812 C 241.367188 491.417969 257.582031 479.191406 265.140625 465.507812 C 277.753906 442.679688 278.984375 413.628906 279.105469 388.167969 C 279.347656 336.105469 268.925781 276.398438 299.707031 230.324219 C 306.730469 219.8125 315.773438 210.429688 326.425781 203.5625 C 331.457031 200.320312 336.75 197.753906 342.320312 195.605469 C 343.476562 195.15625 344.632812 194.683594 345.789062 194.222656 C 345.914062 194.289062 346.039062 194.367188 346.171875 194.414062 C 350.296875 195.917969 354.144531 194.769531 358.355469 194.101562 C 363.785156 193.246094 369.246094 192.539062 374.714844 191.964844 C 384.714844 190.917969 394.761719 190.308594 404.8125 190.144531 C 425.5625 189.804688 446.359375 191.300781 466.820312 194.765625 C 497.132812 199.890625 551.667969 208.582031 547.65625 250.390625 C 546.765625 259.683594 542.199219 268.175781 535.140625 274.238281 C 527.425781 280.867188 518.601562 281.75 509.511719 285.160156 C 508.511719 285.535156 508.011719 286.308594 507.792969 287.128906 C 504.519531 285.960938 501.203125 284.878906 497.839844 283.894531 C 498.953125 283.59375 500.082031 283.324219 501.152344 282.925781 C 507.90625 280.421875 513.960938 276.066406 516.972656 269.363281 C 517.863281 267.378906 515.847656 264.445312 513.621094 266.011719 C 508.789062 269.414062 503.683594 272.871094 498.207031 275.148438 C 498.125 275.179688 497.769531 275.316406 497.78125 275.3125 C 497.394531 275.460938 497.007812 275.605469 496.617188 275.734375 C 495.921875 275.980469 495.210938 276.203125 494.5 276.40625 C 493.082031 276.808594 491.644531 277.179688 490.195312 277.457031 C 488.691406 277.746094 487.210938 278.144531 485.695312 278.394531 C 484.222656 278.640625 482.824219 278.761719 481.601562 279.585938 C 479.769531 279.140625 477.925781 278.6875 476.109375 278.246094 C 462.644531 275 449.019531 272.410156 435.304688 270.480469 C 409.546875 266.863281 381.261719 263.628906 355.421875 268.34375 C 355.347656 268.214844 355.253906 268.121094 355.136719 268.042969 C 354.957031 267.644531 354.703125 267.289062 354.308594 267.085938 C 351.605469 265.6875 348.179688 267.394531 345.585938 268.519531 C 343.753906 269.316406 341.964844 270.089844 340.09375 270.808594 C 341.324219 269.863281 342.574219 268.941406 343.753906 267.933594 C 351.15625 261.648438 357.292969 253.269531 360.15625 243.925781 C 360.6875 242.199219 361.046875 240.441406 361.324219 238.675781 C 362.28125 235.40625 362.804688 232.039062 362.597656 228.453125 C 362.230469 222.042969 359.90625 215.542969 354.804688 211.382812 C 353.25 210.117188 351.59375 209.148438 349.878906 208.402344 C 346.511719 206.128906 342.539062 204.980469 338.136719 205.804688 C 337.4375 205.9375 337.09375 206.386719 336.902344 206.914062 C 330.984375 207.855469 325.222656 210.734375 320.726562 214.726562 C 317.90625 217.230469 315.496094 220.175781 313.320312 223.25 C 311.171875 226.292969 308.894531 229.777344 307.816406 233.371094 C 307.351562 234.914062 309.34375 235.972656 310.453125 234.902344 C 313.144531 232.308594 315.195312 228.9375 317.640625 226.097656 C 319.9375 223.433594 322.464844 220.894531 325.367188 218.890625 C 330.320312 215.46875 336.710938 213.386719 342.734375 214.921875 C 343.746094 215.175781 344.671875 215.523438 345.566406 215.917969 C 347.984375 218.304688 350.046875 221 351.347656 224.175781 C 354.242188 231.242188 353.164062 239.148438 350.0625 245.957031 C 346.707031 253.3125 341.152344 259.324219 335.078125 264.53125 C 331.726562 267.402344 328.183594 270.046875 324.691406 272.742188 C 323.40625 273.734375 321.761719 274.695312 320.402344 275.851562 C 319.40625 275.523438 318.277344 275.671875 317.472656 276.476562 C 317.375 276.574219 317.285156 276.667969 317.191406 276.765625 C 317.648438 276.496094 318.109375 276.230469 318.570312 275.960938 C 315.847656 276.863281 315.15625 279.914062 314.390625 282.386719 C 313.75 284.453125 313.144531 286.515625 312.585938 288.605469 C 311.4375 292.867188 310.640625 297.261719 310.164062 301.644531 C 310.078125 302.457031 310.425781 303.097656 310.949219 303.566406 C 310.222656 306.1875 309.527344 308.777344 308.804688 311.257812 C 306.074219 320.5625 304.421875 330.234375 302.976562 339.808594 C 300.003906 359.4375 298.628906 379.277344 298.984375 399.128906 C 299.683594 438.554688 306.859375 477.9375 320.320312 515.015625 C 318.097656 515.042969 315.828125 515.386719 313.574219 515.496094 Z M 343.976562 548.070312 C 339.519531 539.171875 335.449219 530.085938 331.820312 520.820312 C 324.730469 502.703125 319.167969 483.996094 315.167969 464.957031 C 307.121094 426.664062 305.605469 387.015625 310.539062 348.199219 C 311.910156 337.417969 314.011719 326.773438 316.136719 316.121094 C 318.191406 305.800781 322.25 294.835938 322.371094 284.296875 C 322.375 283.9375 322.242188 283.679688 322.089844 283.441406 C 322.160156 283.132812 322.230469 282.828125 322.292969 282.519531 C 322.976562 283.097656 323.835938 283.480469 324.929688 283.441406 C 327.34375 283.355469 329.820312 282.925781 332.273438 282.351562 C 331.40625 284.421875 330.6875 286.558594 329.941406 288.507812 C 327.398438 295.171875 325.164062 301.960938 323.277344 308.839844 C 319.507812 322.558594 316.726562 336.660156 315.265625 350.808594 C 313.800781 364.988281 313.171875 379.300781 313.75 393.546875 C 314.027344 400.460938 314.554688 407.359375 315.515625 414.207031 C 316.539062 421.464844 318.890625 428.085938 320.480469 435.164062 C 320.515625 435.316406 320.738281 435.246094 320.714844 435.097656 C 319.652344 427.917969 319.886719 420.246094 319.386719 412.976562 C 318.921875 406.183594 318.546875 399.382812 318.472656 392.578125 C 318.320312 378.542969 319.222656 364.523438 321.550781 350.679688 C 323.757812 337.542969 326.695312 324.605469 330.753906 311.910156 C 332.828125 305.414062 335.09375 298.96875 337.589844 292.625 C 339.257812 288.371094 341.886719 283.777344 342.4375 279.109375 C 344.742188 278.21875 347.023438 277.242188 349.171875 276.027344 C 346.660156 281.515625 344.808594 287.421875 343.121094 293.019531 C 340.332031 302.300781 338.390625 311.789062 336.742188 321.332031 C 333.539062 339.878906 331.902344 358.722656 331.707031 377.53125 C 331.308594 415.078125 336.742188 452.796875 347.871094 488.664062 C 351.019531 498.808594 354.628906 508.8125 358.691406 518.625 C 362.542969 527.921875 366.128906 538.546875 372.734375 546.253906 C 373.390625 547.015625 374.1875 547.308594 374.980469 547.308594 C 374.753906 547.390625 374.53125 547.433594 374.289062 547.59375 C 373.503906 548.117188 372.96875 548.726562 372.390625 549.449219 C 371.316406 550.796875 370.289062 552.144531 369.320312 553.570312 C 367.585938 556.136719 365.847656 558.703125 364.148438 561.289062 C 363.804688 560.273438 363.355469 559.261719 362.867188 558.230469 C 360.90625 554.078125 358.691406 550.027344 356.648438 545.914062 C 352.707031 537.945312 348.859375 529.917969 345.613281 521.636719 C 339.089844 505.019531 334.488281 487.71875 328.785156 470.84375 C 328.777344 470.828125 328.75 470.828125 328.75 470.851562 C 329.277344 488.886719 333.839844 506.203125 339.496094 523.320312 C 342.375 532.027344 345.460938 540.667969 349.070312 549.101562 C 350.792969 553.125 352.609375 557.15625 354.652344 561.027344 C 355.960938 563.511719 357.476562 566.351562 359.964844 567.65625 C 359.625 568.179688 359.28125 568.699219 358.941406 569.222656 C 358.25 570.277344 357.558594 571.332031 356.867188 572.382812 C 353.253906 564.019531 348.070312 556.246094 343.976562 548.070312 Z M 377.144531 546.503906 C 377.210938 546.597656 377.285156 546.683594 377.367188 546.769531 C 377.199219 546.769531 377.027344 546.757812 376.871094 546.796875 C 376.8125 546.8125 376.765625 546.816406 376.710938 546.832031 C 376.867188 546.742188 377 546.621094 377.144531 546.503906 Z M 433.300781 552.550781 C 419.789062 557.25 406.273438 561.960938 392.773438 566.695312 C 385.851562 569.125 378.894531 571.488281 372.023438 574.0625 C 369.703125 574.929688 366.914062 575.78125 364.339844 576.941406 C 364.945312 576 365.546875 575.0625 366.152344 574.128906 C 367.902344 571.417969 369.652344 568.703125 371.40625 565.996094 C 373.101562 563.371094 374.761719 560.71875 376.417969 558.066406 C 377.25 556.730469 378.011719 555.390625 378.738281 553.988281 C 379.160156 553.183594 379.566406 552.378906 379.746094 551.480469 C 380 550.226562 379.605469 549.441406 379.441406 548.257812 C 379.410156 548.046875 379.300781 547.867188 379.191406 547.695312 C 379.480469 547.726562 379.789062 547.730469 380.113281 547.675781 C 386.746094 546.558594 392.914062 542.515625 398.933594 539.671875 C 405.097656 536.765625 411.355469 534.078125 417.683594 531.5625 C 430.738281 526.382812 444.136719 522.074219 457.757812 518.65625 C 471.3125 515.253906 485.101562 512.714844 498.988281 511.179688 C 505.808594 510.421875 512.648438 509.890625 519.5 509.574219 C 521.386719 509.492188 523.34375 509.503906 525.320312 509.535156 C 524.074219 511.46875 522.902344 513.449219 521.757812 515.410156 C 517.304688 515.105469 512.382812 515.855469 508.878906 516.152344 C 501.542969 516.773438 494.246094 517.824219 487.046875 519.347656 C 479.664062 520.914062 472.3125 522.902344 465.234375 525.554688 C 457.847656 528.3125 451.585938 532.300781 444.71875 536.0625 C 444.667969 536.089844 444.699219 536.179688 444.757812 536.15625 C 451.71875 533.53125 459.308594 532.097656 466.515625 530.1875 C 473.601562 528.308594 480.71875 526.648438 487.953125 525.460938 C 495.371094 524.242188 502.878906 523.476562 510.390625 523.171875 C 512.417969 523.089844 514.804688 523.21875 517.25 523.265625 C 517.144531 523.46875 517.039062 523.671875 516.9375 523.875 C 516.464844 523.867188 515.984375 523.875 515.441406 524.050781 C 487.875 532.914062 460.652344 543.042969 433.300781 552.550781 Z M 499.027344 325.113281 C 496.421875 335.363281 494.09375 345.679688 492.3125 356.105469 C 489.007812 375.429688 487.304688 395.203125 489.34375 414.765625 C 491.066406 431.28125 495.160156 447.480469 502.21875 462.542969 C 505.757812 470.105469 510.101562 477.238281 515.207031 483.847656 C 519.542969 489.464844 525.808594 498.503906 533.105469 500.21875 C 528.546875 500.082031 523.804688 500.59375 519.5 500.792969 C 512.320312 501.117188 505.15625 501.6875 498.011719 502.503906 C 483.664062 504.148438 469.433594 506.683594 455.421875 510.199219 C 441.484375 513.695312 427.78125 518.132812 414.441406 523.484375 C 408.027344 526.054688 401.707031 528.851562 395.484375 531.847656 C 389.628906 534.664062 382.980469 537.464844 378.320312 542.164062 C 376.117188 533.90625 371.371094 526.203125 368.035156 518.359375 C 364.445312 509.910156 361.230469 501.300781 358.339844 492.582031 C 352.546875 475.082031 348.136719 457.125 345.128906 438.933594 C 339.085938 402.433594 338.863281 364.859375 344.421875 328.289062 C 345.925781 318.382812 347.996094 308.621094 350 298.8125 C 351.703125 290.476562 354.238281 281.945312 355.214844 273.414062 C 355.277344 273.421875 355.324219 273.457031 355.386719 273.460938 C 368.445312 274.769531 381.738281 274.457031 394.847656 275.175781 C 408.285156 275.914062 421.71875 277.183594 435.039062 279.136719 C 447.710938 281 460.304688 283.433594 472.761719 286.421875 C 484.59375 289.269531 496.0625 293.253906 507.746094 296.5 C 503.476562 305.382812 501.433594 315.667969 499.027344 325.113281 Z M 499.027344 325.113281 " fill-opacity="1" fill-rule="nonzero"/></g><path fill="#e2fb6c" d="M 458.65625 316.832031 C 455.234375 315.769531 451.78125 314.808594 448.300781 313.949219 C 440.96875 312.144531 433.523438 310.769531 426.023438 309.925781 C 418.398438 309.070312 410.71875 308.667969 403.046875 308.902344 C 397.511719 309.070312 390.632812 309.207031 385.148438 311.246094 C 385.289062 310.828125 385.417969 310.398438 385.625 309.996094 C 385.722656 309.761719 385.347656 309.546875 385.191406 309.746094 C 384.453125 310.863281 383.507812 311.78125 382.367188 312.503906 C 381.214844 313.171875 381.507812 314.871094 382.722656 315.257812 C 388.898438 317.195312 396.613281 316.3125 403.050781 316.515625 C 410.351562 316.746094 417.667969 317.253906 424.898438 318.269531 C 431.996094 319.273438 439.042969 320.574219 445.996094 322.335938 C 449.46875 323.214844 452.914062 324.195312 456.332031 325.28125 C 459.550781 326.300781 462.796875 328.035156 466.214844 327.773438 C 469.320312 327.535156 471.273438 323.816406 468.851562 321.414062 C 466.140625 318.726562 462.214844 317.9375 458.65625 316.832031 Z M 458.65625 316.832031 " fill-opacity="1" fill-rule="nonzero"/><path fill="#e2fb6c" d="M 399.496094 363.203125 C 405.945312 363.914062 412.375 364.886719 418.734375 366.152344 C 425.023438 367.410156 431.25 368.972656 437.378906 370.84375 C 440.445312 371.78125 443.484375 372.792969 446.503906 373.878906 C 449.4375 374.9375 452.175781 376.328125 455.367188 376.21875 C 458.5 376.113281 460.148438 372.332031 457.925781 370.035156 C 455.46875 367.492188 452.09375 366.578125 448.835938 365.414062 C 445.8125 364.335938 442.769531 363.332031 439.703125 362.40625 C 433.34375 360.488281 426.886719 358.898438 420.367188 357.644531 C 413.914062 356.402344 407.414062 355.511719 400.863281 354.996094 C 394.753906 354.511719 387.722656 353.839844 382.101562 356.699219 C 380.882812 357.316406 380.910156 359.269531 382.101562 359.890625 C 387.320312 362.625 393.742188 362.574219 399.496094 363.203125 Z M 399.496094 363.203125 " fill-opacity="1" fill-rule="nonzero"/><path fill="#e2fb6c" d="M 417.335938 407.878906 C 423.582031 407.804688 429.828125 407.722656 436.070312 407.648438 C 439.195312 407.609375 442.316406 407.578125 445.4375 407.535156 C 449.011719 407.484375 451.5625 407.164062 454.847656 405.789062 C 457.503906 404.675781 457.632812 401.308594 454.847656 400.234375 C 451.507812 398.941406 449.082031 398.683594 445.4375 398.742188 C 442.554688 398.785156 439.675781 398.839844 436.792969 398.886719 C 430.308594 398.992188 423.820312 399.105469 417.335938 399.210938 C 404.960938 399.417969 392.042969 398.582031 380.195312 402.644531 C 378.820312 403.117188 378.757812 405.058594 380.195312 405.507812 C 392.132812 409.222656 404.980469 408.027344 417.335938 407.878906 Z M 417.335938 407.878906 " fill-opacity="1" fill-rule="nonzero"/><path fill="#e2fb6c" d="M 454.511719 441.601562 C 450.988281 441.78125 447.464844 442.125 443.957031 442.527344 C 437.425781 443.273438 430.925781 444.289062 424.492188 445.628906 C 418.011719 446.980469 411.59375 448.675781 405.292969 450.707031 C 400.878906 452.128906 391.199219 454.414062 390.121094 459.808594 C 389.988281 460.46875 390.222656 461.007812 390.761719 461.386719 C 394.90625 464.308594 403.289062 460.277344 407.574219 458.980469 C 413.703125 457.125 419.902344 455.539062 426.171875 454.21875 C 432.480469 452.890625 438.855469 451.851562 445.269531 451.167969 C 448.34375 450.839844 451.421875 450.609375 454.507812 450.398438 C 458.191406 450.140625 460.472656 449.574219 463.5625 447.585938 C 464.9375 446.703125 465.046875 444.628906 463.5625 443.773438 C 460.4375 441.957031 458.179688 441.410156 454.511719 441.601562 Z M 454.511719 441.601562 " fill-opacity="1" fill-rule="nonzero"/><path fill="#e2fb6c" d="M 389.921875 210.441406 C 411.914062 213.398438 433.882812 214.636719 455.65625 219.308594 C 466.382812 221.609375 477.003906 224.445312 487.46875 227.746094 C 492.707031 229.398438 497.9375 231.058594 503.125 232.867188 C 508.402344 234.710938 513.09375 236.558594 518.742188 235.851562 C 520.3125 235.660156 521.035156 234.074219 519.996094 232.820312 C 513.460938 224.917969 500.195312 222.480469 490.710938 219.863281 C 479.453125 216.753906 468.019531 214.304688 456.492188 212.417969 C 434.847656 208.875 411.742188 206.253906 389.921875 209.480469 C 389.449219 209.550781 389.441406 210.378906 389.921875 210.441406 Z M 389.921875 210.441406 " fill-opacity="1" fill-rule="nonzero"/></svg>