<svg xmlns="http://www.w3.org/2000/svg" xmlns:xlink="http://www.w3.org/1999/xlink" width="1024" zoomAndPan="magnify" viewBox="0 0 768 767.999994" height="1024" preserveAspectRatio="xMidYMid meet" version="1.0"><path fill="#e2fb6c" d="M 327.195312 540.636719 C 331.949219 508.011719 342.394531 477.574219 357.808594 449.160156 C 359.316406 446.375 360.847656 443.597656 362.464844 440.871094 C 363.796875 438.632812 366.484375 435.664062 365.144531 432.886719 C 364.402344 431.351562 362.859375 430.410156 361.179688 430.265625 C 343.472656 428.796875 330.945312 431.15625 318.089844 434.285156 C 328.484375 409.808594 337.082031 390.519531 355.785156 363.691406 C 357.53125 361.1875 359.816406 358.863281 360.96875 355.953125 C 362.042969 353.253906 361.953125 349.855469 358.769531 348.726562 C 354.269531 347.128906 320.265625 347.695312 305.617188 352.054688 C 306.449219 349.171875 307.050781 346.179688 307.867188 343.472656 C 321.945312 296.632812 344.613281 252.570312 376.804688 212.363281 C 383.65625 211.8125 413.269531 204.761719 459.253906 207.570312 C 430.550781 234.476562 401.601562 262.925781 384.132812 298.296875 C 381.800781 303.007812 379.472656 307.679688 378.890625 312.976562 C 378.199219 319.277344 392.023438 316.421875 395.21875 316.144531 C 411.007812 314.769531 427.917969 315.007812 437.679688 315.933594 C 438.273438 315.980469 441.347656 316.625 441.714844 316.277344 C 440.773438 317.175781 439.855469 318.0625 438.964844 318.875 C 417.75 338.238281 399.828125 363.398438 391.195312 380.945312 C 374.445312 414.964844 397.148438 388.867188 442.796875 404.222656 C 389.886719 439.160156 348.6875 489.855469 327.195312 540.636719 Z M 448.886719 396.875 C 436.066406 392.804688 423.269531 389.363281 406.203125 390.003906 C 402.671875 390.136719 399.128906 390.46875 395.664062 391.183594 C 396.355469 391.042969 400.328125 382.941406 401.292969 381.257812 C 412.136719 362.40625 422.410156 347.667969 438.90625 331.476562 C 441.714844 328.722656 444.542969 325.90625 447.664062 323.496094 C 450.652344 321.195312 462.035156 312.492188 453.820312 309.085938 C 449.472656 307.285156 411.257812 304.535156 389.207031 307.984375 C 395.421875 294.988281 401.558594 284.308594 411.820312 270.679688 C 436.273438 238.210938 470.839844 210.332031 472.1875 207.0625 C 474.375 204.726562 473.429688 199.789062 469.074219 199.410156 C 439.363281 196.808594 407.171875 198.640625 385.089844 202.117188 C 380.664062 202.820312 373.621094 203.207031 370.175781 206.296875 C 368.59375 207.714844 367.539062 209.871094 366.222656 211.550781 C 334.773438 251.886719 311.199219 298.53125 297.527344 347.453125 C 295.664062 354.132812 293.683594 361.378906 300.617188 360.761719 C 318.640625 359.15625 329.050781 356.371094 349.660156 356.804688 C 347.460938 360.308594 327.925781 387.269531 313.734375 421.816406 C 312.042969 425.929688 307.367188 437.398438 308.378906 442.054688 C 310.042969 449.699219 323.296875 438.117188 353.167969 438.730469 C 335.632812 470.269531 324.425781 501.367188 318.886719 536.914062 C 317.847656 543.609375 314.433594 563.617188 318.898438 569.546875 C 319.882812 570.855469 321.890625 571.269531 322.945312 569.398438 C 329.15625 558.398438 339.789062 527.769531 364.847656 492.070312 C 388.121094 458.910156 416.96875 431.289062 451.136719 409.476562 C 453.492188 407.972656 456.9375 406.078125 456.542969 402.789062 C 456.125 399.308594 452.195312 397.925781 448.886719 396.875 " fill-opacity="1" fill-rule="nonzero"/></svg>