<svg xmlns="http://www.w3.org/2000/svg" xmlns:xlink="http://www.w3.org/1999/xlink" width="1024" zoomAndPan="magnify" viewBox="0 0 768 767.999994" height="1024" preserveAspectRatio="xMidYMid meet" version="1.0"><defs><clipPath id="566a2eb244"><path d="M 205 185 L 563.84375 185 L 563.84375 583 L 205 583 Z M 205 185 " clip-rule="nonzero"/></clipPath></defs><path fill="#e2fb6c" d="M 362.113281 454.9375 C 399.769531 468.542969 445.445312 454.027344 468.238281 421.265625 C 480.804688 403.152344 484.53125 380.621094 482.363281 358.996094 C 480.328125 338.800781 474.042969 318.433594 458.835938 304.222656 C 445.445312 291.699219 427.71875 285.066406 409.695312 285.113281 C 410.300781 284.808594 410.863281 284.546875 411.46875 284.246094 C 412.207031 283.898438 411.644531 282.816406 410.90625 282.945312 C 404.667969 284.027344 398.644531 285.285156 392.792969 287.148438 C 369.914062 292.523438 349.460938 307.730469 335.503906 326.234375 C 334.683594 327.320312 335.027344 328.664062 335.851562 329.574219 C 329.871094 337.71875 325.019531 346.6875 321.726562 356.351562 C 308.769531 394.097656 322.375 440.550781 362.113281 454.9375 Z M 386.769531 297.894531 C 386.855469 297.851562 386.988281 297.808594 387.074219 297.765625 C 405.878906 291.222656 426.160156 292.609375 443.277344 303.136719 C 459.65625 313.234375 468.585938 330.050781 472.179688 348.550781 C 475.996094 368.226562 475.386719 389.675781 466.199219 407.832031 C 459.613281 420.875 449.386719 431.320312 437.210938 438.6875 C 437.167969 438.730469 437.167969 438.730469 437.125 438.730469 C 437.078125 438.761719 437.023438 438.78125 436.976562 438.8125 C 449.734375 426.660156 458.484375 408.957031 463.085938 392.257812 C 472.507812 358.082031 459.894531 317.578125 425.9375 302.523438 C 414.574219 297.484375 399.570312 295.128906 386.414062 298.015625 C 386.445312 298 386.476562 297.984375 386.503906 297.984375 C 386.597656 297.9375 386.683594 297.9375 386.769531 297.894531 Z M 327.574219 367.1875 C 332.210938 347.382812 343.914062 330.265625 359.078125 316.917969 C 362.449219 313.933594 365.957031 311.167969 369.632812 308.574219 C 369.996094 308.816406 370.4375 308.945312 370.898438 308.828125 C 379.117188 306.757812 386.84375 303.753906 395.414062 303.207031 C 403.601562 302.6875 411.839844 303.804688 419.546875 306.636719 C 434.949219 312.285156 447.296875 324.351562 453.527344 339.496094 C 465.65625 369.011719 454.5 406.941406 433.65625 429.972656 C 427.554688 436.714844 419.953125 441.835938 411.300781 444.671875 C 407.242188 445.996094 403.082031 446.929688 398.878906 447.652344 C 394.410156 448.421875 390.59375 449.691406 386.425781 451.078125 C 382.875 450.859375 379.320312 450.425781 375.8125 449.734375 C 357.695312 446.222656 342.226562 435.996094 333.515625 419.484375 C 325.148438 403.671875 323.546875 384.476562 327.574219 367.1875 Z M 327.574219 367.1875 " fill-opacity="1" fill-rule="nonzero"/><g clip-path="url(#566a2eb244)"><path fill="#e2fb6c" d="M 207.320312 376.953125 C 204.90625 379.949219 205.296875 384.949219 205.273438 388.570312 C 205.25 393.09375 205.375 397.605469 205.539062 402.128906 C 205.699219 406.496094 205.890625 410.898438 206.289062 415.242188 C 206.664062 419.339844 207.066406 424.660156 210.773438 427.121094 C 212.121094 428.019531 213.472656 427.78125 214.507812 427.003906 C 217.046875 429.273438 220.558594 430.441406 223.667969 431.667969 C 227.40625 433.140625 231.183594 434.457031 234.984375 435.757812 C 238.628906 437 242.28125 438.378906 246.007812 439.347656 C 247.757812 439.800781 249.675781 440.277344 251.578125 440.449219 C 251.605469 440.585938 251.609375 440.722656 251.640625 440.855469 C 251.898438 441.90625 252.257812 442.921875 252.664062 443.925781 C 253.550781 446.113281 254.722656 448.1875 256.105469 450.101562 C 257.519531 452.058594 259.058594 453.84375 260.894531 455.417969 C 262.328125 456.652344 264.082031 458.054688 265.960938 458.527344 C 265.960938 458.53125 265.953125 458.53125 265.953125 458.535156 C 265.304688 459.53125 264.65625 460.484375 264.003906 461.480469 C 261.449219 465.292969 258.761719 469.0625 255.988281 472.746094 C 254.601562 474.609375 253.171875 476.472656 251.699219 478.292969 C 250.746094 479.464844 249.835938 480.546875 249.316406 481.761719 C 249.316406 481.765625 249.308594 481.769531 249.308594 481.773438 C 247.839844 481.683594 246.347656 482.5625 245.714844 484.195312 C 244.878906 486.355469 245.253906 488.644531 246.160156 490.8125 C 246.148438 490.804688 246.132812 490.796875 246.125 490.789062 C 245.410156 493.179688 246.078125 495.871094 246.429688 498.28125 C 246.761719 500.578125 247.039062 502.890625 247.457031 505.171875 C 247.867188 507.445312 248.257812 509.730469 248.707031 512 C 249.171875 514.324219 249.449219 517.992188 251.40625 519.535156 C 252.101562 520.082031 252.976562 520.367188 253.855469 520.460938 C 253.917969 520.527344 253.976562 520.597656 254.035156 520.660156 C 255.203125 521.976562 256.5625 523.171875 257.851562 524.367188 C 260.585938 526.914062 263.523438 529.25 266.359375 531.691406 C 268.960938 533.933594 271.648438 536.050781 274.515625 537.953125 C 277.378906 539.847656 280.964844 542.34375 284.507812 542.34375 C 286.042969 542.34375 287.257812 541.40625 287.902344 540.179688 C 289.164062 539.847656 290.429688 539.535156 291.679688 539.152344 C 295.582031 537.96875 299.371094 536.351562 303.105469 534.722656 C 306.628906 533.191406 310.097656 531.527344 313.488281 529.714844 C 315.898438 528.425781 318.5 526.847656 320.695312 524.953125 C 320.878906 525.03125 321.0625 525.105469 321.246094 525.183594 C 322.515625 525.726562 323.878906 526.058594 325.226562 526.363281 C 327.566406 526.902344 329.929688 527.328125 332.28125 527.789062 C 334.640625 528.253906 337 528.683594 339.363281 529.125 C 340.636719 529.363281 341.914062 529.570312 343.191406 529.769531 C 343.835938 529.871094 344.460938 529.980469 345.089844 530.0625 C 345.167969 531.976562 345.53125 533.945312 345.636719 535.078125 C 346.011719 539.195312 346.492188 543.304688 346.796875 547.429688 C 347.109375 551.589844 347.296875 555.761719 347.453125 559.925781 C 347.609375 564.167969 346.808594 569.753906 349.085938 573.464844 C 350.253906 575.359375 352.953125 575.636719 354.476562 574.105469 C 358.6875 576.472656 363.785156 577.523438 368.410156 578.566406 C 373.621094 579.734375 378.890625 580.628906 384.195312 581.277344 C 394.695312 582.570312 406.300781 583.539062 416.78125 581.699219 C 417.507812 581.570312 418.046875 581.265625 418.503906 580.886719 C 421.136719 580.238281 423.359375 576.609375 424.769531 574.609375 C 425.15625 574.0625 425.554688 573.523438 425.878906 572.945312 C 426 572.726562 426.125 572.511719 426.242188 572.289062 C 426.332031 572.148438 426.40625 572 426.464844 571.839844 C 426.550781 571.632812 426.617188 571.484375 426.671875 571.351562 C 426.679688 571.113281 426.988281 570.671875 427.078125 570.464844 C 427.292969 569.984375 427.480469 569.5 427.671875 569.015625 C 427.886719 568.46875 427.980469 567.933594 427.996094 567.394531 C 428.132812 566.929688 428.371094 566.496094 428.347656 565.988281 C 428.339844 565.832031 428.308594 565.660156 428.265625 565.480469 C 428.269531 565.480469 428.269531 565.480469 428.273438 565.480469 C 428.925781 565.394531 429.53125 565.308594 430.183594 565.222656 C 433.085938 564.789062 433.734375 562.058594 432.824219 559.847656 C 434.472656 556.730469 435.25 552.828125 436.074219 549.796875 C 437.503906 544.464844 438.71875 539.046875 439.628906 533.589844 C 440.496094 528.300781 441.144531 522.972656 441.535156 517.683594 C 441.707031 515.386719 441.925781 513.003906 442.011719 510.578125 C 445.390625 508.976562 448.683594 507.15625 451.890625 505.203125 C 451.902344 505.199219 451.910156 505.191406 451.917969 505.1875 C 454.070312 509.871094 458.945312 513.207031 463.53125 515.1875 C 466.566406 516.496094 469.617188 517.28125 472.890625 517.679688 C 475.84375 518.039062 478.515625 517.78125 480.878906 516.191406 C 482.121094 516.125 483.386719 515.785156 484.578125 515.527344 C 485.96875 515.222656 487.332031 514.863281 488.703125 514.472656 C 490.246094 514.03125 491.828125 513.558594 493.289062 512.886719 C 493.949219 512.585938 494.589844 512.238281 495.183594 511.820312 C 495.65625 511.492188 496.246094 511 496.695312 510.402344 L 496.738281 510.402344 C 498.082031 511.484375 500.074219 511.832031 501.546875 510.789062 C 508.351562 506.195312 514.808594 500.953125 520.660156 495.148438 C 523.476562 492.332031 526.207031 489.425781 528.761719 486.351562 C 530.105469 484.746094 531.449219 483.101562 532.707031 481.410156 C 534.003906 479.71875 535.652344 477.683594 535.957031 475.515625 C 536 475.171875 536.042969 474.78125 535.957031 474.433594 C 537.386719 474 538.554688 472.832031 538.46875 471.011719 C 538.339844 467.976562 536.519531 465.941406 534.871094 463.511719 C 533.269531 461.085938 531.707031 458.703125 530.191406 456.277344 C 527.117188 451.421875 524.125 446.484375 521.265625 441.5 C 518.621094 436.820312 516.066406 432.054688 513.507812 427.285156 C 516.84375 418.707031 519.445312 409.867188 521.308594 400.851562 L 521.308594 400.808594 C 524.730469 399.898438 528.15625 398.859375 531.535156 397.730469 C 536.5625 396.085938 541.503906 394.222656 546.398438 392.1875 C 550.125 390.667969 555.457031 389.109375 558.359375 385.945312 C 560.222656 386.207031 562.171875 385.296875 562.605469 382.957031 C 563.386719 378.664062 563.300781 374.117188 563.300781 369.78125 C 563.257812 365.621094 563.082031 361.417969 562.691406 357.257812 C 562.300781 353.054688 561.738281 348.808594 561.003906 344.648438 C 560.613281 342.523438 560.265625 340.140625 559.53125 337.976562 C 560.308594 337.195312 560.742188 336.066406 560.742188 335.070312 C 560.742188 333.164062 559.441406 331.691406 557.710938 331.085938 C 555.757812 330.433594 553.507812 330.433594 551.511719 330.132812 C 549.433594 329.785156 547.351562 329.351562 545.273438 328.917969 C 541.328125 328.007812 537.386719 326.839844 533.527344 325.453125 C 529.800781 324.109375 526.164062 322.460938 522.609375 320.726562 C 521.34375 320.09375 519.929688 319.21875 518.464844 318.429688 L 512.835938 302.945312 C 513.308594 301.898438 513.761719 300.835938 514.207031 299.835938 C 515.894531 296.109375 517.628906 292.382812 519.320312 288.65625 C 521.011719 284.972656 522.699219 281.246094 524.347656 277.519531 C 525.300781 275.484375 526.382812 273.402344 526.730469 271.191406 C 526.859375 270.457031 526.816406 269.761719 526.554688 269.113281 L 526.554688 269.070312 C 526.988281 267.597656 526.945312 266.167969 526.511719 264.433594 C 525.949219 262.136719 524.910156 260.011719 523.871094 257.890625 C 522.007812 253.988281 519.882812 250.21875 517.5 246.621094 C 515.246094 243.15625 512.820312 239.601562 509.917969 236.613281 C 507.921875 234.53125 504.714844 231.757812 501.507812 231.28125 C 499.210938 229.59375 495.097656 231.238281 492.667969 232.148438 C 485.5625 234.75 478.542969 237.652344 471.78125 241.121094 C 468.359375 242.851562 464.804688 244.628906 461.597656 246.839844 C 456.355469 244.28125 450.894531 242.160156 445.261719 240.46875 C 445.089844 239.515625 444.914062 238.605469 444.742188 237.652344 C 443.746094 232.324219 442.574219 227.035156 441.363281 221.792969 C 440.105469 216.546875 438.71875 211.304688 437.246094 206.105469 C 435.773438 200.949219 434.644531 195.054688 431.65625 190.503906 C 430.917969 189.464844 429.75 188.902344 428.578125 188.859375 C 428.1875 188.382812 427.667969 188.035156 427.0625 187.820312 C 422.726562 186.085938 417.226562 185.953125 412.632812 185.523438 C 407.953125 185.089844 403.269531 184.957031 398.632812 185.046875 C 393.910156 185.132812 389.1875 185.476562 384.550781 186.128906 C 381.90625 186.476562 378.960938 186.734375 376.144531 187.386719 C 374.542969 184.179688 369.210938 184.570312 368.257812 188.425781 C 368.257812 188.429688 368.257812 188.4375 368.253906 188.441406 C 368.113281 188.46875 367.964844 188.457031 367.828125 188.488281 C 367.1875 188.660156 366.621094 189.042969 365.992188 189.253906 C 366.285156 189.109375 366.234375 189.109375 365.839844 189.257812 C 365.410156 189.417969 364.992188 189.605469 364.578125 189.8125 C 364.125 190.027344 363.679688 190.257812 363.242188 190.503906 C 361.511719 191.492188 359.914062 192.78125 358.296875 193.9375 C 356.464844 195.238281 354.625 196.507812 352.910156 197.960938 C 352.144531 198.609375 351.472656 199.332031 350.828125 200.089844 C 349.964844 201.105469 349.507812 202.039062 349.015625 203.269531 C 348.554688 204.4375 349.320312 205.753906 350.390625 206.316406 C 350.308594 207.246094 350.265625 208.175781 350.175781 209.082031 C 349.957031 211.21875 349.570312 213.320312 349.351562 215.457031 C 348.9375 219.496094 348.40625 223.539062 347.679688 227.53125 C 346.941406 231.554688 346.101562 235.566406 345.042969 239.523438 C 344.492188 241.578125 343.835938 243.601562 343.277344 245.652344 C 343.011719 246.613281 342.777344 247.519531 342.699219 248.519531 C 342.691406 248.644531 342.730469 248.742188 342.730469 248.863281 C 342.714844 248.871094 342.699219 248.875 342.683594 248.878906 C 341.554688 249.355469 340.429688 249.878906 339.34375 250.398438 C 337.394531 251.132812 335.402344 251.914062 333.453125 252.738281 C 332.671875 252.128906 331.71875 251.652344 330.765625 251.089844 C 328.207031 249.617188 325.695312 248.1875 323.136719 246.714844 C 317.765625 243.636719 312.390625 240.558594 307.019531 237.484375 C 302.382812 234.839844 297.613281 231.894531 292.285156 230.941406 C 288.039062 230.203125 280.757812 230.160156 278.851562 234.882812 C 278.847656 234.890625 278.84375 234.902344 278.839844 234.914062 C 276.582031 235.160156 273.953125 237.34375 272.664062 238.726562 C 267.855469 243.875 263 248.976562 258.25 254.171875 C 255.761719 256.894531 253.171875 259.570312 250.878906 262.457031 C 248.6875 265.21875 246.136719 268.679688 246.542969 272.371094 C 246.175781 273.234375 245.871094 274.125 245.589844 275.011719 C 245.097656 276.535156 244.609375 278.058594 244.125 279.582031 C 243.636719 281.109375 243.222656 282.652344 242.78125 284.1875 C 242.210938 286.160156 241.328125 288.742188 242.699219 290.5625 C 243.625 291.796875 245.007812 292.605469 246.601562 292.152344 C 246.625 292.148438 246.640625 292.140625 246.664062 292.136719 C 246.679688 292.210938 246.703125 292.292969 246.71875 292.363281 C 247.058594 293.773438 247.773438 295.183594 248.464844 296.449219 C 249.832031 298.949219 251.21875 301.4375 252.546875 303.957031 C 253.84375 306.421875 255.027344 308.859375 256.609375 311.160156 C 257.234375 312.074219 257.886719 312.976562 258.558594 313.859375 C 254.566406 318.269531 252.332031 324.421875 250.121094 329.835938 C 248.933594 332.746094 247.855469 335.691406 246.878906 338.675781 C 246.199219 340.75 245.417969 342.84375 245.304688 344.957031 C 242.539062 345.691406 239.726562 346.46875 236.957031 347.203125 C 232.882812 348.332031 227.164062 348.894531 223.78125 351.710938 C 223.695312 351.625 223.609375 351.496094 223.523438 351.410156 C 222.699219 350.542969 221.355469 350.671875 220.488281 351.410156 C 219.492188 352.273438 218.84375 353.402344 218.367188 354.703125 C 218.367188 354.71875 218.355469 354.75 218.347656 354.777344 C 218.128906 354.917969 217.898438 355.039062 217.691406 355.261719 C 217.902344 355.140625 218.109375 355.015625 218.320312 354.890625 L 218.320312 354.910156 C 216.496094 355.863281 215.558594 357.859375 214.554688 359.613281 C 213.550781 361.363281 212.621094 363.171875 211.765625 365.003906 C 210.90625 366.839844 210.015625 368.667969 209.203125 370.527344 C 208.441406 372.273438 207.246094 374.792969 207.761719 376.816406 C 207.605469 376.792969 207.433594 376.816406 207.320312 376.953125 Z M 420.675781 567.363281 C 420.535156 567.457031 420.410156 567.570312 420.296875 567.691406 C 420.117188 567.863281 419.9375 568.039062 419.753906 568.210938 C 419.273438 568.675781 418.859375 569.195312 418.425781 569.707031 C 417.597656 570.6875 416.378906 572.015625 415.414062 573.453125 C 410.359375 573.355469 405.285156 573.890625 400.21875 573.789062 C 395.066406 573.691406 389.914062 573.332031 384.792969 572.71875 C 379.664062 572.105469 374.5625 571.21875 369.519531 570.089844 C 365.207031 569.121094 360.863281 567.652344 356.441406 567.21875 C 356.484375 564.4375 356.101562 561.546875 356.011719 559.03125 C 355.847656 554.558594 355.574219 550.097656 355.082031 545.648438 C 354.59375 541.222656 353.976562 536.601562 352.449219 532.390625 C 352.164062 531.609375 351.492188 529.558594 350.554688 527.800781 C 351.265625 526.125 350.757812 523.976562 349.027344 522.804688 C 347.773438 521.953125 346.324219 521.855469 344.871094 521.625 C 343.40625 521.394531 341.9375 521.191406 340.464844 521 C 338.085938 520.691406 335.703125 520.371094 333.324219 520.085938 C 330.945312 519.804688 328.570312 519.484375 326.1875 519.265625 C 325.421875 519.199219 324.433594 519.113281 323.417969 519.082031 C 322.652344 517.960938 321.148438 517.222656 319.796875 517.480469 C 317.90625 517.84375 316.058594 518.914062 314.308594 519.699219 C 312.546875 520.484375 310.835938 521.363281 309.136719 522.273438 C 305.855469 524.027344 302.527344 525.6875 299.132812 527.210938 C 295.847656 528.679688 292.480469 529.949219 289.144531 531.292969 C 287.402344 531.992188 285.640625 532.652344 283.894531 533.347656 C 282.183594 532.429688 280.367188 531.625 278.804688 530.632812 C 276.042969 528.886719 273.386719 526.960938 270.683594 525.125 C 267.753906 523.132812 264.90625 521.007812 261.898438 519.128906 C 260.566406 518.296875 259.214844 517.421875 257.824219 516.675781 C 258.019531 514.578125 257.273438 512.355469 256.785156 510.3125 C 256.226562 507.992188 255.570312 505.6875 254.953125 503.378906 C 254.800781 502.808594 254.605469 502.246094 254.4375 501.675781 C 256.359375 503.535156 258.355469 505.320312 260.378906 507.023438 C 263.988281 510.0625 267.761719 512.925781 271.679688 515.5625 C 273.667969 516.902344 275.691406 518.179688 277.757812 519.398438 C 279.453125 520.394531 281.140625 521.492188 282.992188 522.101562 C 282.992188 522.105469 282.992188 522.109375 282.996094 522.113281 C 283.300781 523.242188 284.167969 524.195312 285.339844 524.453125 C 289.84375 525.449219 295.089844 523.066406 299.292969 521.550781 C 303.972656 519.902344 308.523438 517.867188 312.898438 515.65625 C 317.144531 513.535156 321.21875 511.195312 325.160156 508.59375 C 326.070312 507.988281 326.980469 507.335938 327.890625 506.730469 C 335.605469 510.71875 343.753906 514.011719 352.117188 516.480469 C 353.027344 520.378906 353.804688 524.28125 354.5 528.222656 C 355.410156 533.078125 356.230469 537.972656 357.054688 542.871094 C 357.445312 545.296875 357.835938 547.765625 358.226562 550.195312 C 358.617188 552.664062 358.789062 555.132812 359.960938 557.34375 C 360.390625 558.167969 361.085938 558.730469 361.953125 558.949219 L 361.996094 558.949219 C 362.210938 559.46875 362.644531 559.859375 363.339844 560.160156 C 368.625 562.457031 374.347656 563.0625 380.023438 563.757812 C 385.4375 564.449219 390.898438 565.015625 396.359375 565.359375 C 404.808594 565.925781 413.738281 566.53125 422.402344 566.011719 C 422.417969 566.011719 422.410156 566.011719 422.417969 566.011719 C 422.230469 566.148438 422.042969 566.285156 421.863281 566.425781 C 421.648438 566.597656 421.347656 566.964844 421.09375 567.054688 C 420.96875 567.136719 420.847656 567.234375 420.675781 567.363281 Z M 473.507812 509.222656 C 473.246094 509.199219 472.988281 509.167969 472.726562 509.140625 C 472.640625 509.121094 472.398438 509.082031 472.234375 509.054688 C 471.636719 508.949219 471.035156 508.824219 470.449219 508.675781 C 469.199219 508.371094 467.972656 507.984375 466.769531 507.539062 C 466.515625 507.449219 466.261719 507.351562 466.015625 507.25 C 465.921875 507.214844 465.90625 507.210938 465.902344 507.210938 C 465.859375 507.191406 465.824219 507.171875 465.699219 507.113281 C 465.148438 506.851562 464.597656 506.589844 464.058594 506.300781 C 462.925781 505.699219 461.859375 504.992188 460.785156 504.289062 C 459.539062 503.480469 458.328125 502.640625 457.105469 501.820312 C 457.105469 501.820312 457.109375 501.820312 457.109375 501.816406 C 459.449219 500.210938 461.746094 498.566406 463.957031 496.746094 C 465.472656 497.742188 467.078125 498.695312 468.636719 499.648438 C 473.1875 502.378906 477.867188 504.847656 482.675781 507.101562 C 482.761719 507.144531 482.851562 507.191406 482.9375 507.234375 C 482.945312 507.238281 482.957031 507.242188 482.96875 507.25 C 482.757812 507.285156 482.550781 507.300781 482.34375 507.339844 C 480.355469 507.714844 478.597656 508.039062 477.222656 509.46875 C 475.976562 509.335938 474.746094 509.335938 473.507812 509.222656 Z M 362.882812 201.035156 C 364.410156 199.929688 365.984375 198.851562 367.445312 197.65625 C 367.445312 197.671875 367.441406 197.691406 367.441406 197.710938 C 366.707031 206.203125 365.535156 214.613281 363.324219 223.019531 C 361.851562 228.523438 360.074219 233.894531 357.996094 239.183594 C 357.390625 240.742188 356.695312 242.300781 355.960938 243.820312 C 354.746094 244.207031 353.53125 244.597656 352.363281 245.074219 C 352.660156 243.980469 352.9375 242.878906 353.203125 241.78125 C 354.253906 237.4375 355.050781 233.050781 355.574219 228.609375 C 356.089844 224.234375 356.355469 219.867188 356.265625 215.464844 C 356.226562 213.324219 355.894531 211.214844 355.640625 209.089844 C 355.503906 207.992188 355.398438 206.882812 355.207031 205.792969 C 356.140625 205.402344 357.0625 205.003906 357.933594 204.480469 C 359.660156 203.4375 361.253906 202.214844 362.882812 201.035156 Z M 258.175781 332.707031 C 259.175781 330.121094 260.269531 327.574219 261.433594 325.0625 C 262.835938 322.050781 264.277344 319.242188 264.917969 315.960938 C 265.140625 314.824219 264.84375 313.515625 263.964844 312.710938 C 263.820312 311.511719 263.578125 310.355469 263.265625 309.183594 C 262.519531 306.40625 261.414062 303.902344 260.046875 301.378906 C 258.8125 299.101562 257.527344 296.859375 256.101562 294.691406 C 254.527344 292.296875 252.902344 289.550781 250.140625 288.445312 C 250.550781 288.683594 250.957031 288.921875 251.363281 289.15625 C 250.910156 288.773438 250.453125 288.371094 249.976562 288.007812 C 250.128906 287.421875 250.253906 286.832031 250.371094 286.28125 C 250.703125 284.714844 251.054688 283.148438 251.339844 281.570312 C 251.40625 281.1875 251.476562 280.800781 251.546875 280.414062 C 251.554688 280.417969 251.558594 280.425781 251.566406 280.429688 C 252.78125 281.210938 254.125 281.816406 255.25 282.726562 C 256.722656 283.898438 258.023438 285.285156 259.195312 286.757812 C 261.75 290.050781 263.65625 293.953125 265.347656 297.765625 C 267.429688 302.359375 269.292969 307.082031 271.285156 311.761719 C 271.71875 312.800781 272.195312 313.84375 272.628906 314.925781 C 272.628906 314.925781 272.628906 314.925781 272.628906 314.96875 C 270.9375 318.523438 269.378906 322.164062 267.992188 325.890625 C 266.257812 330.527344 264.785156 335.25 263.570312 340.058594 C 260.632812 340.796875 257.734375 341.570312 254.796875 342.351562 C 254.929688 341.890625 255.066406 341.429688 255.210938 340.976562 C 256.125 338.195312 257.117188 335.433594 258.175781 332.707031 Z M 239.261719 355.53125 C 244.027344 354.1875 248.792969 352.886719 253.605469 351.585938 C 256.246094 350.847656 258.847656 350.15625 261.492188 349.375 C 263.613281 348.8125 265.78125 348.164062 267.90625 347.554688 C 268.769531 347.296875 269.8125 347.035156 270.894531 346.734375 L 273.277344 337.71875 C 274.621094 333.039062 276.269531 328.445312 278.132812 323.980469 C 279.300781 321.207031 280.558594 318.433594 281.945312 315.75 C 280.949219 312.976562 279.777344 310.332031 278.695312 307.601562 C 278.390625 306.820312 278.089844 306.085938 277.785156 305.304688 C 276.007812 300.84375 274.1875 296.421875 272.195312 292.089844 C 270.246094 287.886719 267.949219 283.898438 264.957031 280.257812 C 262.140625 276.835938 257.722656 272.71875 253.042969 272.371094 L 252.695312 272.371094 C 252.667969 272.371094 252.648438 272.382812 252.625 272.382812 C 252.617188 272.128906 252.664062 271.875 252.632812 271.621094 C 252.628906 271.601562 252.621094 271.578125 252.617188 271.550781 C 253.769531 270.691406 254.84375 269.710938 255.84375 268.761719 C 258.246094 266.472656 260.53125 264.0625 262.839844 261.683594 C 267.746094 256.632812 272.527344 251.464844 277.355469 246.339844 C 278.980469 244.617188 281.714844 242.121094 282.289062 239.480469 C 282.289062 239.480469 282.292969 239.480469 282.292969 239.480469 C 283.851562 239.523438 285.410156 239.046875 286.929688 239.003906 C 289.183594 238.917969 291.304688 239.351562 293.429688 240.085938 C 297.980469 241.691406 302.136719 244.550781 306.296875 246.976562 C 310.890625 249.621094 315.527344 252.265625 320.164062 254.953125 C 321.421875 255.6875 322.722656 256.382812 323.980469 257.160156 C 325.105469 257.769531 326.1875 258.417969 327.316406 259.066406 C 329.871094 260.496094 333.816406 262.363281 336.675781 261.234375 C 336.761719 261.191406 336.804688 261.191406 336.890625 261.148438 L 336.9375 261.105469 C 339.058594 260.019531 341.183594 258.980469 343.304688 257.984375 C 343.390625 257.984375 343.480469 257.941406 343.566406 257.898438 C 346.121094 256.945312 348.679688 256.078125 351.234375 255.210938 L 351.277344 255.210938 L 352.234375 254.90625 C 355.351562 253.910156 358.429688 252.957031 361.59375 252.046875 L 361.636719 252.046875 C 363.195312 249.015625 364.496094 245.722656 365.796875 242.558594 C 366.054688 241.90625 366.316406 241.257812 366.53125 240.609375 L 366.574219 240.609375 C 368.527344 235.625 370.214844 230.511719 371.644531 225.3125 C 374.160156 215.949219 376.023438 205.941406 376.5 196.148438 C 379.578125 195.800781 382.738281 194.933594 385.6875 194.585938 C 390.148438 194.066406 394.65625 193.71875 399.164062 193.632812 C 403.625 193.589844 408.132812 193.765625 412.640625 194.152344 C 416.84375 194.542969 421.21875 195.757812 425.46875 195.84375 C 426.203125 200.089844 427.851562 204.292969 428.976562 208.410156 C 430.449219 213.609375 431.792969 218.855469 433.007812 224.097656 C 434.132812 228.734375 435.128906 233.457031 436.039062 238.136719 L 436.082031 238.136719 C 436.214844 238.746094 436.300781 239.308594 436.429688 239.914062 C 436.90625 242.296875 437.210938 244.855469 437.558594 247.367188 C 440.765625 248.148438 443.925781 249.058594 447.046875 250.140625 C 449.863281 251.136719 452.636719 252.222656 455.367188 253.433594 C 455.109375 254.128906 455.109375 254.820312 455.628906 255.296875 C 456.839844 256.425781 458.617188 256.339844 460.351562 255.859375 C 460.394531 255.859375 460.394531 255.859375 460.394531 255.859375 C 461.910156 255.382812 463.382812 254.691406 464.46875 254.214844 C 466.375 253.390625 468.238281 252.4375 470.101562 251.484375 C 471.617188 250.703125 473.175781 249.925781 474.695312 249.144531 C 481.324219 245.9375 488.042969 242.992188 494.976562 240.476562 C 496.058594 240.042969 497.574219 239.609375 499.003906 239.003906 C 499.742188 239.4375 500.566406 239.871094 501.300781 240.347656 C 502.472656 241.128906 503.511719 242.167969 504.464844 243.25 C 506.847656 245.894531 508.839844 248.972656 510.792969 252.046875 C 512.828125 255.339844 514.777344 258.722656 516.46875 262.230469 C 517.292969 263.921875 518.027344 265.699219 519.023438 267.300781 C 519.242188 267.648438 519.457031 267.996094 519.71875 268.296875 C 517.984375 270.292969 516.945312 273.5 516.035156 275.449219 C 514.34375 279.046875 512.699219 282.640625 511.050781 286.195312 C 509.96875 288.535156 508.886719 290.832031 507.84375 293.171875 C 507.238281 294.429688 506.632812 295.730469 506.066406 296.984375 C 505.113281 299.152344 503.988281 301.273438 502.992188 303.484375 L 502.992188 303.527344 C 504.464844 306.691406 505.765625 309.941406 506.933594 313.234375 C 507.628906 312.933594 509.839844 322.941406 510.273438 322.207031 C 510.277344 322.203125 510.28125 322.203125 510.285156 322.191406 C 512.066406 324.929688 516.207031 326.808594 518.722656 328.1875 C 519.371094 328.53125 520.023438 328.878906 520.714844 329.226562 C 524.136719 330.914062 527.691406 332.390625 531.289062 333.730469 C 535.363281 335.25 539.523438 336.460938 543.769531 337.414062 C 546.238281 337.9375 548.925781 338.628906 551.613281 338.976562 C 551.699219 341.316406 552.347656 343.785156 552.695312 345.996094 C 553.34375 349.894531 553.777344 353.796875 554.125 357.738281 C 554.472656 361.726562 554.644531 365.757812 554.644531 369.785156 C 554.6875 373.121094 554.34375 376.503906 554.296875 379.882812 C 552.824219 380.230469 551.4375 380.878906 550.007812 381.488281 C 547.710938 382.441406 545.457031 383.4375 543.160156 384.347656 C 538.265625 386.339844 533.28125 388.160156 528.253906 389.804688 C 526.523438 390.371094 524.789062 390.890625 523.054688 391.367188 C 520.023438 392.320312 516.945312 393.144531 513.867188 393.878906 C 513.390625 397.042969 512.742188 400.207031 512.003906 403.328125 C 510.878906 408.007812 509.578125 412.644531 508.0625 417.195312 C 506.933594 420.703125 505.636719 424.171875 504.25 427.550781 C 504.550781 428.242188 504.898438 428.980469 505.246094 429.671875 C 506.542969 432.316406 507.886719 434.960938 509.273438 437.515625 C 510.703125 440.160156 512.136719 442.761719 513.609375 445.359375 C 516.46875 450.386719 519.414062 455.285156 522.449219 460.179688 C 524.007812 462.609375 525.570312 464.992188 527.128906 467.417969 C 528.082031 468.804688 528.992188 470.539062 530.117188 471.925781 C 528.644531 472.878906 527.5625 474.4375 526.433594 475.824219 C 525.222656 477.339844 524.007812 478.859375 522.75 480.332031 C 520.238281 483.320312 517.59375 486.179688 514.820312 488.910156 C 509.40625 494.242188 503.511719 499.09375 497.183594 503.339844 C 496.621094 503.730469 496.1875 504.207031 495.839844 504.726562 C 493.328125 502.300781 489.6875 501.042969 486.566406 499.570312 C 481.929688 497.363281 477.382812 494.890625 472.960938 492.203125 C 472.3125 491.816406 471.617188 491.382812 470.96875 490.949219 C 468.410156 489.429688 465.941406 487.828125 463.515625 486.050781 C 461.261719 488.042969 458.964844 489.90625 456.582031 491.726562 C 451.988281 495.109375 447.132812 498.226562 442.0625 500.957031 C 441.890625 501.042969 441.761719 501.132812 441.585938 501.21875 C 438.855469 502.648438 436.082031 503.949219 433.265625 505.117188 C 433.09375 508.238281 433.179688 511.402344 433.050781 514.523438 C 433.050781 515.386719 433.007812 516.253906 432.964844 517.078125 C 432.574219 522.234375 431.96875 527.347656 431.101562 532.417969 C 430.277344 537.488281 429.195312 542.515625 427.894531 547.5 C 427.113281 550.488281 425.769531 553.695312 425.207031 556.902344 C 421.046875 556.945312 416.886719 557.292969 412.726562 557.292969 C 407.441406 557.25 402.195312 557.074219 396.953125 556.773438 C 391.710938 556.425781 386.464844 555.992188 381.265625 555.386719 C 376.714844 554.867188 372.078125 553.867188 367.441406 553.78125 C 367.441406 549.796875 366.144531 545.375 365.535156 541.605469 C 364.710938 536.535156 363.890625 531.464844 362.9375 526.4375 C 362.460938 523.925781 361.984375 521.453125 361.417969 518.941406 C 360.941406 516.601562 360.378906 514.261719 359.816406 511.921875 C 359.644531 511.183594 359.46875 510.316406 359.253906 509.453125 C 355.960938 508.628906 352.664062 507.632812 349.414062 506.503906 C 348.679688 506.289062 347.984375 506.027344 347.25 505.769531 C 343.261719 504.339844 339.40625 502.734375 335.636719 500.914062 C 332.777344 499.570312 330.003906 498.097656 327.273438 496.496094 C 327.054688 496.710938 326.796875 496.882812 326.578125 497.058594 C 324.671875 498.445312 322.765625 499.832031 320.773438 501.132812 C 320.296875 501.433594 319.863281 501.738281 319.386719 502 C 316.003906 504.207031 312.539062 506.203125 308.941406 508.023438 C 305.042969 510.015625 301.054688 511.75 297.023438 513.308594 C 294.339844 514.347656 291.089844 515 288.226562 516.167969 C 288.226562 516.167969 288.222656 516.167969 288.222656 516.171875 C 288.117188 516.011719 288.027344 515.84375 287.902344 515.683594 C 286.511719 513.953125 283.996094 513.042969 282.109375 511.929688 C 280.324219 510.882812 278.570312 509.789062 276.839844 508.652344 C 273.414062 506.40625 270.097656 503.992188 266.933594 501.378906 C 263.792969 498.785156 260.695312 496.066406 257.90625 493.089844 C 256.59375 491.6875 255.433594 490.21875 254.460938 488.558594 C 254.273438 488.238281 254.152344 487.886719 253.992188 487.550781 C 255.789062 487.023438 256.996094 485.429688 258.332031 483.796875 C 259.804688 481.890625 261.277344 479.984375 262.710938 478.078125 C 265.65625 474.175781 268.515625 470.234375 271.246094 466.160156 C 273.195312 463.300781 275.058594 460.398438 276.835938 457.40625 C 277.527344 456.324219 278.179688 455.242188 278.828125 454.15625 C 279.78125 452.597656 280.953125 450.863281 281.949219 449.085938 C 280.996094 447.179688 280.085938 445.273438 279.21875 443.28125 C 278.699219 442.152344 278.222656 440.984375 277.789062 439.8125 C 277.789062 439.769531 277.789062 439.769531 277.789062 439.769531 C 276.316406 436.175781 275.015625 432.535156 273.847656 428.808594 C 272.890625 425.558594 271.984375 422.308594 271.246094 418.96875 L 271.246094 418.925781 C 268.125 417.84375 265.003906 416.628906 261.886719 415.546875 C 261.496094 415.375 261.0625 415.242188 260.671875 415.113281 C 254.648438 413.035156 248.410156 411.386719 242.125 410.304688 C 237.402344 409.480469 232.546875 408.65625 227.78125 409.089844 C 227.867188 404.0625 226.957031 398.863281 226.613281 393.792969 C 226.308594 389.027344 226.09375 384.261719 225.960938 379.449219 C 225.832031 374.683594 225.789062 369.871094 225.875 365.105469 C 225.875 363.113281 226.09375 360.730469 225.960938 358.433594 C 230.246094 358.910156 235.230469 356.613281 239.261719 355.53125 Z M 211.59375 379.3125 C 214.234375 378.957031 215.558594 375.234375 216.433594 373.101562 C 216.726562 372.386719 217.003906 371.667969 217.289062 370.953125 C 217.289062 373.960938 217.335938 376.964844 217.378906 380.015625 C 217.507812 385 217.722656 389.941406 218.070312 394.925781 C 218.375 399.996094 218.417969 405.367188 219.585938 410.351562 C 219.847656 411.433594 220.410156 412.171875 221.148438 412.691406 C 221.234375 413.773438 221.972656 414.902344 223.097656 415.292969 C 229.292969 417.542969 236.011719 417.71875 242.425781 419.019531 C 249.140625 420.359375 255.640625 422.3125 262.054688 424.695312 C 262.746094 424.953125 263.398438 425.214844 264.089844 425.429688 C 266.128906 433.40625 268.859375 441.117188 272.28125 448.484375 C 272.066406 448.832031 271.890625 449.179688 271.675781 449.523438 C 270.980469 450.652344 270.246094 451.820312 269.550781 452.949219 C 269.550781 452.949219 269.546875 452.953125 269.546875 452.953125 C 269.25 452.597656 268.921875 452.253906 268.550781 451.933594 C 267.96875 451.4375 267.363281 450.964844 266.753906 450.507812 C 266.617188 450.410156 266.484375 450.308594 266.347656 450.210938 C 266.304688 450.175781 266.226562 450.113281 266.097656 450.011719 C 264.527344 448.730469 263.050781 447.296875 261.707031 445.785156 C 261.378906 445.417969 261.066406 445.035156 260.75 444.65625 C 260.699219 444.589844 260.695312 444.589844 260.667969 444.558594 C 260.660156 444.546875 260.667969 444.558594 260.652344 444.53125 C 260.503906 444.328125 260.351562 444.132812 260.207031 443.929688 C 259.628906 443.121094 259.109375 442.28125 258.578125 441.433594 C 258.164062 440.773438 257.78125 440.082031 257.402344 439.398438 C 257.808594 438.886719 257.863281 438.066406 257.546875 437.535156 C 255.707031 434.421875 251.738281 432.996094 248.519531 431.757812 C 244.804688 430.320312 240.886719 429.304688 237.0625 428.183594 C 233.355469 427.09375 229.652344 426.023438 225.898438 425.109375 C 222.804688 424.355469 219.492188 423.433594 216.265625 423.597656 C 216.359375 421.769531 215.523438 419.988281 215.136719 418.210938 C 214.746094 416.421875 214.578125 414.597656 214.414062 412.773438 C 214.03125 408.601562 213.699219 404.425781 213.253906 400.261719 C 212.800781 396.066406 212.273438 391.886719 211.648438 387.714844 C 211.257812 385.097656 210.976562 381.71875 209.679688 379.136719 C 210.242188 379.359375 210.863281 379.40625 211.59375 379.3125 Z M 211.59375 379.3125 " fill-opacity="1" fill-rule="nonzero"/></g><path fill="#e2fb6c" d="M 426.679688 571.351562 C 426.679688 571.359375 426.667969 571.371094 426.671875 571.375 C 426.910156 570.808594 426.90625 570.816406 426.679688 571.351562 Z M 426.679688 571.351562 " fill-opacity="1" fill-rule="nonzero"/><path fill="#e2fb6c" d="M 421.074219 567.054688 C 421.078125 567.054688 421.078125 567.050781 421.082031 567.050781 C 421.539062 566.695312 421.550781 566.6875 421.074219 567.054688 Z M 421.074219 567.054688 " fill-opacity="1" fill-rule="nonzero"/></svg>