<svg xmlns="http://www.w3.org/2000/svg" xmlns:xlink="http://www.w3.org/1999/xlink" width="1024" zoomAndPan="magnify" viewBox="0 0 768 767.999994" height="1024" preserveAspectRatio="xMidYMid meet" version="1.0"><defs><clipPath id="c564a04b80"><path d="M 164 200.035156 L 608 200.035156 L 608 566 L 164 566 Z M 164 200.035156 " clip-rule="nonzero"/></clipPath></defs><g clip-path="url(#c564a04b80)"><path fill="#e2fb6c" d="M 563.582031 203.332031 C 561.921875 202.695312 560.039062 202.835938 558.460938 203.914062 L 489.589844 249.503906 C 487.542969 250.832031 486.65625 253.296875 487.238281 255.566406 C 486.960938 256.203125 486.765625 256.894531 486.738281 257.644531 L 487.347656 292.382812 C 477.023438 299.25 466.585938 305.972656 456.121094 312.699219 C 448.652344 301.628906 440.648438 289.78125 431.351562 279.511719 C 424.234375 271.707031 416.375 264.785156 407.433594 259.71875 C 398.628906 254.738281 389.300781 251.082031 379.667969 248.34375 C 370.257812 245.628906 360.542969 243.800781 350.824219 242.363281 C 340.832031 240.894531 331.253906 240.675781 321.730469 241.421875 C 312.347656 242.167969 303.019531 243.859375 293.386719 246.128906 C 282.257812 248.8125 270.964844 251.496094 260.222656 255.511719 C 252.804688 258.28125 245.664062 261.65625 238.964844 266.058594 C 202.316406 290.113281 178.316406 329.390625 169.015625 372.105469 C 159.742188 414.652344 165.082031 460.546875 186.894531 497.972656 C 205.554688 530 232.984375 549.375 264.265625 558.757812 C 294.910156 567.949219 329.316406 567.507812 362.699219 559.894531 C 377.894531 556.433594 395.144531 550.8125 410.421875 542.621094 C 420.996094 536.945312 430.65625 530.027344 438.128906 521.832031 C 448.097656 510.871094 457.121094 498.027344 464.066406 484.214844 C 471.097656 470.234375 476 455.285156 477.769531 440.285156 C 479.902344 421.847656 479.488281 399.203125 476.359375 377.058594 C 473.5625 357.378906 468.609375 338.085938 461.46875 322.417969 C 471.789062 315.800781 482.058594 309.15625 492.25 302.429688 L 527.375 316.050781 C 528.648438 316.605469 530.03125 316.605469 531.25 316.1875 C 532.496094 316.300781 533.769531 316.023438 534.875 315.273438 C 549.382812 305.503906 564.246094 295.511719 578.472656 284.796875 C 588.078125 277.574219 597.378906 270.042969 606.128906 262.070312 C 607.816406 260.523438 608.34375 258.140625 607.597656 256.09375 C 607.625 255.980469 607.625 255.871094 607.648438 255.761719 C 608.148438 252.742188 606.101562 249.890625 603.085938 249.421875 L 570.863281 245.214844 L 573.960938 206.683594 C 574.40625 203.664062 572.300781 200.839844 569.285156 200.398438 C 566.902344 200.039062 564.632812 201.285156 563.582031 203.332031 Z M 446.765625 318.652344 C 439.65625 308.078125 432.042969 296.757812 423.125 286.957031 C 416.84375 280.007812 409.898438 273.835938 401.980469 269.351562 C 393.921875 264.8125 385.398438 261.492188 376.625 258.972656 C 367.683594 256.425781 358.4375 254.679688 349.191406 253.324219 C 340.054688 251.96875 331.308594 251.773438 322.617188 252.464844 C 313.785156 253.160156 305.011719 254.765625 295.960938 256.921875 C 285.273438 259.46875 274.425781 262.015625 264.101562 265.863281 C 257.457031 268.355469 251.035156 271.371094 245.027344 275.304688 C 210.8125 297.78125 188.5 334.570312 179.8125 374.457031 C 171.148438 414.320312 176.046875 457.335938 196.472656 492.40625 C 213.582031 521.777344 238.746094 539.546875 267.449219 548.128906 C 296.347656 556.820312 328.761719 556.269531 360.234375 549.097656 C 372.25 546.386719 385.59375 542.207031 398.074219 536.390625 C 410.257812 530.71875 421.632812 523.492188 429.9375 514.359375 C 439.265625 504.144531 447.679688 492.128906 454.1875 479.230469 C 460.605469 466.441406 465.148438 452.738281 466.753906 439.011719 C 468.800781 421.40625 468.386719 399.757812 465.398438 378.609375 C 462.851562 360.617188 458.449219 342.929688 452.054688 328.421875 C 442.78125 334.320312 433.507812 340.1875 424.207031 346.085938 C 432.925781 370.886719 437.496094 402.277344 433.757812 431.289062 C 431.128906 451.855469 424.320312 471.230469 412.109375 486.429688 C 393.121094 510.125 363.113281 523.796875 331.667969 527.230469 C 300.472656 530.636719 267.949219 523.910156 243.667969 507.214844 C 236.25 502.125 229.054688 494.816406 222.769531 486.761719 C 216.597656 478.84375 211.285156 470.207031 207.492188 462.316406 C 204.195312 455.480469 202.011719 448.035156 200.683594 440.339844 C 198.769531 429.210938 198.632812 417.585938 199.351562 406.816406 C 200.402344 391.289062 202.703125 375.871094 207.574219 361.449219 C 212.558594 346.691406 220.222656 332.992188 231.90625 321.335938 C 246.578125 306.722656 269.164062 295.621094 293.054688 290.085938 C 316.996094 284.519531 342.1875 284.578125 361.730469 291.800781 C 373.9375 296.3125 384.898438 303.011719 394.671875 311.207031 C 403.5 318.652344 411.363281 327.371094 418.171875 336.785156 C 427.722656 330.75 437.273438 324.714844 446.765625 318.652344 Z M 408.816406 342.734375 C 402.613281 334.238281 395.53125 326.402344 387.53125 319.675781 C 378.757812 312.3125 368.871094 306.25 357.882812 302.210938 C 340.140625 295.621094 317.277344 295.84375 295.542969 300.882812 C 273.789062 305.917969 253.082031 315.855469 239.738281 329.171875 C 229.304688 339.578125 222.523438 351.816406 218.0625 364.992188 C 213.5 378.5 211.394531 393.003906 210.398438 407.5625 C 209.84375 415.867188 209.816406 424.726562 210.867188 433.417969 C 211.867188 441.832031 213.886719 450.109375 217.457031 457.5 C 220.941406 464.753906 225.816406 472.671875 231.492188 479.949219 C 237.054688 487.066406 243.367188 493.570312 249.953125 498.109375 C 272.152344 513.363281 301.941406 519.339844 330.480469 516.210938 C 358.960938 513.113281 386.257812 500.960938 403.472656 479.507812 C 417.148438 462.511719 423.046875 439.621094 423.902344 416.199219 C 424.707031 393.945312 420.941406 371.191406 414.601562 352.175781 C 406.105469 357.570312 397.605469 362.96875 389.164062 368.449219 C 395.640625 382.429688 399.265625 400.867188 398.683594 418.886719 C 398.074219 438.953125 392.234375 458.414062 380.054688 471.039062 C 376.261719 474.96875 371.28125 478.179688 365.855469 480.753906 C 358.382812 484.269531 350.019531 486.621094 342.960938 488.28125 C 324.195312 492.65625 305.179688 493.15625 288.238281 488.308594 C 270.714844 483.273438 255.324219 472.585938 244.503906 454.511719 C 234.925781 438.566406 230.851562 419.023438 232.738281 400.203125 C 234.621094 381.210938 242.535156 362.996094 256.765625 349.875 C 273.925781 334.015625 299.03125 327.453125 323.253906 329.917969 C 346.0625 332.242188 367.960938 342.511719 381.660156 360.117188 C 390.683594 354.277344 399.738281 348.492188 408.816406 342.734375 Z M 372.332031 366.152344 C 360.429688 351.371094 341.609375 342.902344 322.148438 340.9375 C 301.082031 338.804688 279.183594 344.230469 264.265625 358.015625 C 252.058594 369.28125 245.359375 384.976562 243.753906 401.28125 C 242.09375 417.75 245.609375 434.859375 253.996094 448.835938 C 263.214844 464.226562 276.335938 473.363281 291.28125 477.652344 C 306.507812 482.027344 323.585938 481.445312 340.441406 477.488281 C 346.8125 476.019531 354.367188 473.917969 361.121094 470.761719 C 365.300781 468.769531 369.148438 466.359375 372.085938 463.34375 C 382.519531 452.546875 387.085938 435.714844 387.613281 418.554688 C 388.113281 402.914062 385.207031 386.941406 379.75 374.539062 C 377.261719 376.175781 374.796875 377.808594 372.304688 379.441406 C 364.746094 384.421875 357.21875 389.433594 349.746094 394.554688 C 352.375 399.59375 354.230469 405.292969 354.949219 411.050781 C 356.03125 419.382812 354.8125 427.855469 350.660156 434.886719 C 344.789062 444.878906 333.332031 451.132812 321.289062 452.546875 C 309.136719 453.984375 296.542969 450.414062 288.734375 441.558594 C 281.457031 433.335938 278.550781 420.269531 280.097656 407.785156 C 281.675781 395.136719 287.820312 383.289062 297.59375 377.449219 C 305.289062 372.851562 314.367188 372.410156 322.921875 374.789062 C 330.367188 376.839844 337.398438 381.019531 342.628906 386 C 350.4375 380.65625 358.296875 375.398438 366.214844 370.195312 C 368.234375 368.839844 370.285156 367.507812 372.332031 366.152344 Z M 333.246094 392.476562 C 329.539062 389.351562 324.859375 386.804688 319.960938 385.445312 C 314.339844 383.898438 308.359375 383.925781 303.292969 386.941406 C 296.210938 391.175781 292.253906 400.007812 291.089844 409.140625 C 289.925781 418.386719 291.671875 428.160156 297.039062 434.25 C 302.523438 440.449219 311.460938 442.554688 320.015625 441.558594 C 328.597656 440.558594 336.929688 436.40625 341.136719 429.265625 C 344.042969 424.3125 344.734375 418.332031 343.988281 412.464844 C 343.460938 408.449219 342.269531 404.464844 340.554688 400.894531 C 334.1875 405.292969 327.875 409.804688 321.59375 414.347656 C 319.128906 416.144531 315.671875 415.59375 313.871094 413.128906 C 312.070312 410.636719 312.625 407.175781 315.089844 405.378906 C 321.097656 401.03125 327.15625 396.714844 333.246094 392.476562 Z M 562.226562 214.683594 L 497.785156 257.339844 C 497.8125 257.585938 497.8125 257.835938 497.8125 258.085938 L 498.421875 292.9375 L 530.003906 305.199219 C 543.957031 295.816406 558.183594 286.210938 571.832031 275.941406 C 578.972656 270.570312 585.976562 265.007812 592.675781 259.222656 L 566.351562 255.761719 C 565.90625 255.734375 565.464844 255.675781 565.023438 255.539062 C 564.078125 255.289062 563.222656 254.765625 562.53125 254.042969 C 560.648438 253.101562 559.402344 251.136719 559.457031 248.894531 Z M 562.226562 214.683594 " fill-opacity="1" fill-rule="evenodd"/></g></svg>