<svg xmlns="http://www.w3.org/2000/svg" xmlns:xlink="http://www.w3.org/1999/xlink" width="1024" zoomAndPan="magnify" viewBox="0 0 768 767.999994" height="1024" preserveAspectRatio="xMidYMid meet" version="1.0"><defs><clipPath id="65312af218"><path d="M 229 181.289062 L 539 181.289062 L 539 586 L 229 586 Z M 229 181.289062 " clip-rule="nonzero"/></clipPath></defs><path fill="#e2fb6c" d="M 248.5625 256.492188 C 255.734375 258.820312 262.816406 258.175781 270.285156 257.65625 C 277.035156 257.191406 283.765625 256.46875 290.46875 255.546875 C 305.378906 253.496094 319.933594 250.21875 334.226562 245.488281 C 347.804688 240.992188 361.078125 235.605469 373.996094 229.449219 C 386.519531 223.480469 401.382812 217.179688 410.285156 206.253906 C 410.371094 206.152344 410.292969 205.984375 410.152344 206.023438 C 397.339844 209.566406 385.910156 217.914062 373.808594 223.46875 C 360.421875 229.609375 346.484375 234.535156 332.242188 238.292969 C 318.703125 241.867188 304.863281 244.746094 291.007812 246.765625 C 283.820312 247.8125 276.585938 248.550781 269.335938 249.027344 C 262.207031 249.5 255.398438 249.289062 248.570312 251.484375 C 246.09375 252.285156 246.105469 255.691406 248.5625 256.492188 Z M 248.5625 256.492188 " fill-opacity="1" fill-rule="nonzero"/><path fill="#e2fb6c" d="M 287.996094 310.859375 C 288.46875 311.191406 288.988281 311.515625 289.503906 311.792969 C 290.152344 312.144531 290.808594 312.253906 291.496094 312.335938 C 293.234375 313.03125 295.226562 311.589844 294.707031 309.625 C 294.863281 310.207031 294.820312 309.058594 294.820312 308.933594 C 294.820312 308.5 294.699219 308.066406 294.574219 307.660156 C 294.425781 307.171875 294.242188 306.679688 294.058594 306.203125 C 293.472656 304.710938 292.363281 303.421875 291.3125 302.222656 C 289.796875 300.484375 288.242188 298.789062 286.691406 297.085938 C 285.183594 295.433594 283.6875 293.789062 282.050781 292.261719 C 280.316406 290.640625 278.46875 289.148438 276.742188 287.511719 C 275.078125 285.933594 272.261719 287.957031 273.507812 290.011719 C 274.695312 291.96875 275.726562 294.011719 276.890625 295.980469 C 278.097656 298.019531 279.472656 299.925781 280.84375 301.859375 C 282.175781 303.734375 283.503906 305.609375 284.882812 307.449219 C 285.792969 308.664062 286.734375 309.96875 287.996094 310.859375 Z M 287.996094 310.859375 " fill-opacity="1" fill-rule="nonzero"/><path fill="#e2fb6c" d="M 362.058594 478.414062 C 363 476.675781 363.941406 474.964844 364.566406 473.082031 C 365.097656 471.464844 365.335938 469.730469 365.722656 468.070312 C 366.546875 464.492188 367.421875 460.921875 368.417969 457.378906 C 369.402344 453.859375 370.394531 450.347656 371.660156 446.914062 C 372.25 445.316406 372.734375 443.722656 373.175781 442.085938 C 373.714844 440.113281 373.984375 437.878906 374.851562 436.027344 C 375.164062 435.359375 374.300781 434.867188 373.871094 435.457031 C 372.6875 437.074219 371.0625 438.324219 369.777344 439.875 C 368.515625 441.398438 367.378906 442.96875 366.410156 444.703125 C 364.535156 448.0625 362.765625 451.480469 361.285156 455.03125 C 359.824219 458.542969 358.570312 462.144531 357.652344 465.839844 C 357.148438 467.851562 356.570312 469.90625 356.492188 471.980469 C 356.410156 473.957031 356.777344 475.851562 357.167969 477.765625 C 357.628906 480.03125 361 480.375 362.058594 478.414062 Z M 362.058594 478.414062 " fill-opacity="1" fill-rule="nonzero"/><g clip-path="url(#65312af218)"><path fill="#e2fb6c" d="M 332.808594 530.335938 C 332.414062 530.730469 332.171875 531.191406 331.84375 531.628906 C 331.527344 532.046875 331.121094 532.339844 330.820312 532.816406 C 330.269531 533.679688 329.964844 534.761719 329.59375 535.726562 C 328.867188 537.59375 328.289062 539.492188 327.71875 541.417969 C 327.15625 543.328125 326.722656 545.28125 326.246094 547.214844 C 326.132812 547.675781 326.003906 548.15625 325.878906 548.640625 C 325.878906 548.644531 325.875 548.640625 325.875 548.644531 C 325.871094 549.113281 325.6875 549.464844 325.582031 549.863281 C 325.28125 551.160156 325.066406 552.476562 325.210938 553.746094 C 325.402344 555.429688 326.292969 557.136719 328.101562 557.546875 C 328.183594 557.5625 328.261719 557.550781 328.34375 557.5625 C 329.496094 559.640625 330.683594 561.699219 331.929688 563.71875 C 332 563.832031 332.082031 563.941406 332.152344 564.058594 C 332.644531 565.175781 333.171875 566.285156 333.683594 567.386719 C 334.535156 569.207031 335.4375 570.996094 336.339844 572.792969 C 336.792969 573.691406 337.242188 574.585938 337.691406 575.484375 C 338.234375 576.566406 338.683594 577.761719 339.65625 578.535156 C 339.691406 578.5625 339.726562 578.578125 339.761719 578.605469 C 339.785156 579.417969 340.136719 580.226562 340.863281 580.632812 C 347.351562 584.257812 354.960938 584.871094 362.261719 585.410156 C 370.207031 585.996094 378.191406 586.105469 386.148438 585.722656 C 401.855469 584.96875 417.539062 582.382812 432.667969 578.109375 C 462.554688 569.667969 491.628906 554.457031 514.210938 532.941406 C 520.496094 526.957031 526.257812 520.242188 530.710938 512.769531 C 534.097656 507.09375 540.253906 496.738281 537.457031 490.035156 C 536.972656 488.878906 535.96875 488.042969 534.863281 487.824219 C 534.628906 486.960938 534.457031 486.085938 534.179688 485.238281 C 532.773438 480.917969 530.902344 476.703125 528.574219 472.796875 C 526.320312 468.996094 523.585938 465.035156 519.222656 463.53125 C 517.3125 462.875 515.097656 462.859375 513.175781 463.496094 C 512.699219 463.65625 512.261719 463.875 511.839844 464.117188 C 509.21875 458.980469 506.238281 454.074219 503.195312 449.605469 C 495.1875 437.855469 485.265625 427.601562 473.765625 419.238281 C 460.402344 409.511719 445.101562 404.558594 430.296875 397.617188 C 423.046875 394.21875 416.195312 390.226562 410.492188 384.535156 C 407.695312 381.746094 404.730469 378.621094 402.605469 375.273438 C 401.128906 372.945312 400.167969 370.328125 398.949219 367.871094 C 399.023438 367.445312 399.082031 366.996094 399.066406 366.597656 C 400.605469 362.570312 401.640625 358.246094 403.09375 354.386719 C 405.921875 346.871094 409.226562 339.550781 412.671875 332.300781 C 419.371094 318.214844 426.65625 304.382812 432.597656 289.949219 C 438.351562 275.980469 442.722656 261.402344 444.101562 246.308594 C 444.761719 239.125 444.238281 231.914062 442.960938 224.824219 C 442.460938 222.085938 441.859375 218.515625 440.769531 215.203125 C 441.605469 213.640625 442.257812 212.046875 442.5625 210.441406 C 442.617188 210.40625 442.667969 210.386719 442.722656 210.34375 C 443.765625 209.542969 444.121094 208.554688 444.261719 207.28125 C 444.488281 205.214844 442.6875 203.28125 441.511719 201.78125 C 440.75 200.800781 439.988281 199.816406 439.179688 198.867188 C 438.894531 198.535156 438.589844 198.207031 438.304688 197.867188 C 436.609375 192.113281 430.667969 187.835938 425.488281 185.429688 C 418.484375 182.175781 410.769531 181.351562 403.121094 181.683594 C 385.65625 182.449219 367.910156 185.960938 350.890625 189.785156 C 316.589844 197.484375 282.8125 209.511719 251.707031 225.96875 C 245.113281 229.453125 238.457031 233.757812 233.9375 239.808594 C 231.066406 243.65625 227.652344 250.605469 231.40625 254.710938 C 231.460938 255.164062 231.492188 255.621094 231.554688 256.074219 C 231.773438 257.671875 231.996094 259.265625 232.21875 260.867188 C 232.546875 263.230469 233.25 266.027344 235.914062 266.691406 C 236.328125 266.792969 236.738281 266.773438 237.144531 266.742188 C 237.660156 267.660156 238.210938 268.550781 238.835938 269.34375 C 240.1875 271.070312 241.769531 272.441406 243.488281 273.570312 C 243.90625 282.332031 247.789062 291.542969 251.683594 298.871094 C 257.144531 309.15625 265.117188 318.328125 273.648438 326.183594 C 282.902344 334.703125 293.3125 341.945312 304.085938 348.40625 C 309.898438 351.898438 315.84375 355.164062 321.839844 358.332031 C 324.957031 359.980469 327.960938 361.761719 331.117188 363.105469 C 331.632812 364.316406 332.738281 365.054688 333.824219 365.75 C 335.972656 367.128906 338.386719 368.011719 340.675781 369.132812 C 345.261719 371.382812 349.707031 373.957031 353.949219 376.808594 C 356.320312 378.40625 358.589844 380.128906 360.808594 381.917969 C 361.703125 387.402344 363.070312 392.773438 363.101562 398.417969 C 363.140625 405.453125 361.507812 412.21875 359.03125 418.761719 C 353.605469 433.101562 345.214844 446.042969 340.332031 460.648438 C 335.734375 474.394531 333.289062 488.933594 332.957031 503.414062 C 332.78125 511.128906 333.261719 518.828125 334.300781 526.46875 C 334.445312 527.527344 334.582031 528.664062 334.722656 529.824219 C 334.082031 529.648438 333.367188 529.777344 332.808594 530.335938 Z M 515.257812 471.523438 C 515.300781 471.515625 515.34375 471.507812 515.394531 471.5 C 515.324219 471.511719 515.300781 471.515625 515.257812 471.523438 Z M 515.992188 471.527344 C 516.035156 471.539062 516.042969 471.539062 515.992188 471.527344 Z M 245.738281 240.0625 C 252.640625 234.386719 261.320312 230.703125 269.328125 226.921875 C 287.074219 218.542969 305.4375 211.515625 324.210938 205.824219 C 342.710938 200.21875 361.605469 195.925781 380.710938 193 C 390.527344 191.496094 400.90625 189.640625 410.871094 190.507812 C 415.144531 190.875 419.394531 191.9375 423.167969 194.019531 C 426.316406 195.757812 428.378906 198.265625 430.730469 200.703125 C 431.304688 201.792969 432.035156 202.8125 432.707031 203.84375 C 433.386719 204.890625 434.109375 205.902344 434.832031 206.921875 C 434.835938 206.925781 434.839844 206.933594 434.84375 206.9375 C 433.566406 209.140625 432.691406 211.601562 431.207031 213.753906 C 429.042969 216.886719 426.207031 219.609375 423.25 221.980469 C 416.371094 227.488281 408.210938 231.472656 400.347656 235.34375 C 382.722656 244.03125 364.328125 251.097656 345.449219 256.539062 C 326.589844 261.976562 307.257812 265.828125 287.734375 267.863281 C 276.003906 269.085938 251.191406 273.257812 240.773438 263.484375 C 240.953125 262.59375 240.964844 261.617188 240.863281 260.738281 C 240.644531 258.875 240.285156 257.023438 239.976562 255.171875 C 239.710938 253.585938 239.433594 252.011719 239.089844 250.445312 C 238.941406 249.789062 238.8125 249.128906 238.644531 248.480469 C 238.675781 248.414062 238.703125 248.351562 238.730469 248.289062 C 240.398438 245.050781 242.933594 242.363281 245.738281 240.0625 Z M 260.066406 296.585938 C 257.085938 291.976562 254.292969 287.25 251.972656 282.265625 C 251.089844 280.367188 250.355469 278.40625 249.632812 276.445312 C 252.261719 277.257812 255.035156 277.722656 257.828125 277.957031 C 275.34375 279.421875 294.089844 276.3125 311.320312 273.339844 C 346.605469 267.257812 380.980469 255.578125 412.65625 238.882812 C 419.914062 235.058594 427.117188 230.765625 433.03125 225 C 433.972656 224.082031 435.019531 222.980469 436.066406 221.792969 C 436.296875 223.699219 436.476562 225.613281 436.554688 227.546875 C 436.84375 234.632812 436.269531 241.90625 435.277344 248.921875 C 433.832031 259.074219 431.117188 269.015625 427.632812 278.667969 C 426.601562 275.785156 424.71875 273.199219 421.894531 271.371094 C 415.113281 266.972656 406.570312 267.625 398.941406 268.488281 C 388.683594 269.648438 378.527344 271.261719 368.480469 273.648438 C 345.394531 279.140625 324.273438 288.726562 305.042969 302.535156 C 304.773438 302.726562 305.003906 303.132812 305.300781 302.976562 C 335.738281 287.566406 372 275.117188 406.519531 276.253906 C 413.007812 276.472656 423.6875 279.03125 418.605469 287.898438 C 414.3125 295.394531 402.132812 298.140625 394.664062 301.132812 C 377.421875 308.023438 359.878906 314.339844 341.796875 318.644531 C 331.289062 321.144531 320.625 322.953125 309.84375 323.636719 C 301.261719 324.183594 292.589844 323.335938 284.003906 323.601562 C 282.984375 322.742188 281.933594 321.921875 280.941406 321.035156 C 272.902344 313.816406 265.921875 305.648438 260.066406 296.585938 Z M 341.84375 499.574219 C 342.640625 483.699219 346.207031 467.863281 352.441406 453.234375 C 358.359375 439.34375 367.058594 426.414062 370.324219 411.496094 C 371.632812 405.5 372.40625 398.042969 371.097656 391.40625 C 373.175781 393.582031 374.855469 395.035156 378.089844 394.542969 C 379.058594 394.394531 379.800781 393.425781 380.070312 392.5625 C 381.019531 389.503906 379.351562 387.421875 377.347656 385.296875 C 375.507812 383.34375 373.585938 381.460938 371.601562 379.652344 C 367.640625 376.046875 363.40625 372.726562 358.984375 369.707031 C 354.753906 366.816406 350.320312 364.253906 345.703125 362.039062 C 343.96875 361.203125 342.160156 360.285156 340.320312 359.574219 C 336.480469 355.480469 331.195312 353.394531 326.25 350.777344 C 321.003906 348.007812 315.796875 345.15625 310.675781 342.152344 C 305.636719 339.191406 300.675781 336.066406 295.867188 332.726562 C 300.597656 332.851562 305.339844 332.613281 309.839844 332.328125 C 320.699219 331.636719 331.503906 329.917969 342.109375 327.496094 C 363.910156 322.515625 384.910156 314.542969 405.550781 306.050781 C 410.007812 304.21875 414.714844 302.351562 418.753906 299.691406 C 413.5 310.898438 407.828125 321.914062 402.644531 333.160156 C 399.648438 339.660156 396.804688 346.242188 394.316406 352.953125 C 391.964844 359.296875 388.746094 366.4375 390.355469 373.292969 C 390.464844 373.765625 390.734375 374.160156 391.085938 374.46875 C 391.011719 375.53125 391 376.601562 391.054688 377.589844 C 391.160156 379.636719 391.386719 381.894531 392.378906 383.738281 C 392.554688 384.089844 392.78125 384.402344 393.054688 384.691406 C 393.082031 384.734375 393.082031 384.738281 393.128906 384.816406 C 393.4375 385.324219 393.757812 385.796875 394.191406 386.207031 C 394.78125 386.761719 395.394531 387.042969 396.058594 387.183594 C 396.316406 387.359375 396.554688 387.574219 396.875 387.703125 C 397.585938 387.984375 398.539062 387.390625 398.691406 386.667969 C 398.730469 386.472656 398.707031 386.28125 398.726562 386.09375 C 399.046875 385.511719 399.132812 384.839844 399.167969 384.144531 C 399.195312 383.996094 399.140625 383.847656 399.136719 383.695312 C 399.308594 383.984375 399.476562 384.289062 399.648438 384.566406 C 403.285156 390.355469 408.699219 394.964844 414.328125 398.75 C 428.335938 408.167969 445.1875 412.054688 459.730469 420.507812 C 472.570312 427.972656 483.886719 438.105469 492.78125 450 C 496.488281 454.957031 499.699219 460.269531 502.5625 465.757812 C 493.8125 460.960938 483.859375 457.171875 474.484375 454.53125 C 461.25 450.792969 447.296875 449.113281 434.617188 443.570312 C 428.910156 441.078125 423.757812 437.726562 418.957031 433.777344 C 417.039062 432.199219 415.289062 430.375 413.503906 428.601562 C 413.476562 428.535156 413.445312 428.46875 413.414062 428.402344 C 411.773438 424.441406 409.972656 420.578125 408.011719 416.769531 C 406.109375 413.074219 404.015625 409.425781 401.964844 405.808594 C 400.921875 403.964844 399.863281 401.976562 398.585938 400.285156 C 397.433594 398.769531 395.921875 398.101562 394.5625 396.914062 C 394.382812 396.757812 394.003906 396.84375 394.035156 397.136719 C 394.25 399.113281 393.957031 400.847656 394.605469 402.832031 C 395.269531 404.855469 396.132812 406.835938 396.9375 408.804688 C 398.460938 412.539062 399.769531 416.316406 401.164062 420.097656 C 402.5625 423.890625 403.976562 427.671875 405.441406 431.441406 C 407.007812 435.464844 407.929688 440.335938 411.917969 442.609375 C 413.273438 443.382812 414.707031 442.902344 415.5625 441.8125 C 417.5625 443.585938 419.644531 445.132812 421.542969 446.371094 C 431.902344 453.128906 443.894531 456.277344 455.816406 459.015625 C 468.375 461.898438 480.253906 465.320312 492.085938 470.46875 C 498.648438 473.328125 504.773438 476.800781 509.226562 482.023438 C 509.550781 483.011719 509.886719 483.992188 510.214844 484.980469 C 507.9375 487.039062 506.28125 489.832031 504.355469 492.207031 C 501.945312 495.171875 499.417969 498.054688 496.792969 500.832031 C 491.054688 506.90625 484.824219 512.554688 478.179688 517.628906 C 465.238281 527.503906 450.726562 535.472656 435.4375 541.074219 C 420.144531 546.675781 404.050781 550.085938 387.773438 550.835938 C 379.585938 551.214844 371.371094 550.9375 363.226562 550.019531 C 357.429688 549.363281 350.742188 548.132812 346.414062 544.453125 C 346.382812 541.167969 345.261719 538.019531 344.578125 534.792969 C 344.367188 533.8125 344.203125 532.828125 344.019531 531.84375 C 346.8125 527.914062 346.996094 522.101562 348.765625 517.699219 C 351.351562 511.265625 355.390625 505.480469 359.976562 500.328125 C 368.382812 490.878906 378.480469 483.113281 386.636719 473.410156 C 394.054688 464.578125 399.242188 454.363281 399.660156 442.671875 C 400.015625 432.675781 397.152344 419.460938 388.714844 413.121094 C 387.796875 412.433594 386.414062 413.578125 386.773438 414.617188 C 388.59375 419.855469 391.410156 424.578125 392.65625 430.050781 C 394.101562 436.410156 394.101562 442.976562 392.585938 449.320312 C 389.613281 461.742188 380.714844 471.089844 371.488281 479.371094 C 362.851562 487.125 353.941406 494.46875 346.980469 503.859375 C 345.480469 505.890625 343.53125 508.796875 341.808594 512.050781 C 341.640625 507.886719 341.636719 503.722656 341.84375 499.574219 Z M 335.753906 543.625 C 335.980469 542.289062 336.136719 540.953125 336.324219 539.609375 C 336.621094 540.820312 336.980469 541.984375 337.398438 543.105469 C 337.804688 545.828125 339.050781 548.480469 340.835938 550.546875 C 345.777344 556.246094 353.9375 557.539062 361 558.476562 C 375.433594 560.390625 390.027344 560.042969 404.417969 557.957031 C 433.585938 553.734375 461.550781 541.613281 484.773438 523.507812 C 491.234375 518.472656 497.339844 512.984375 502.96875 507.023438 C 505.972656 503.847656 508.84375 500.546875 511.558594 497.121094 C 512.675781 495.71875 513.902344 494.292969 514.972656 492.792969 C 517.550781 493.597656 520.675781 492.480469 520.238281 489.121094 C 519.46875 483.238281 517.648438 477.300781 515.257812 471.527344 C 515.339844 471.519531 515.4375 471.507812 515.546875 471.507812 C 515.675781 471.503906 515.78125 471.511719 515.867188 471.519531 C 516.113281 471.574219 516.355469 471.625 516.597656 471.695312 C 516.695312 471.75 516.789062 471.800781 516.886719 471.851562 C 516.90625 471.863281 517.90625 472.613281 517.453125 472.214844 C 519.589844 474.078125 521.097656 476.960938 522.585938 479.855469 C 524.136719 482.875 525.214844 485.648438 526.203125 489.027344 C 526.679688 490.667969 527.085938 492.324219 527.414062 494 C 527.652344 495.214844 527.785156 496.46875 528.167969 497.585938 C 527.96875 498.230469 527.78125 498.875 527.539062 499.503906 C 525.855469 503.898438 523.507812 508.050781 520.871094 511.9375 C 515.582031 519.746094 508.746094 526.472656 501.550781 532.511719 C 486.832031 544.867188 469.878906 554.863281 452.113281 562.152344 C 434.472656 569.386719 415.71875 574.199219 396.75 576.148438 C 387.359375 577.109375 377.894531 577.449219 368.457031 577.101562 C 361.269531 576.839844 353.921875 575.558594 346.710938 575.808594 C 346.710938 575.734375 346.746094 575.664062 346.742188 575.589844 C 346.640625 573.207031 345.042969 570.917969 343.960938 568.824219 C 343.007812 566.980469 342.066406 565.132812 341.058594 563.316406 C 339.042969 559.6875 336.917969 556.027344 333.570312 553.457031 C 333.996094 552.160156 334.261719 550.789062 334.542969 549.496094 C 334.960938 547.546875 335.425781 545.597656 335.753906 543.625 Z M 335.753906 543.625 " fill-opacity="1" fill-rule="nonzero"/></g></svg>